<?xml version="1.0" encoding="UTF-8"?><svg id="Layer_2" xmlns="http://www.w3.org/2000/svg" width="2385.93" height="627.19" viewBox="0 0 2385.93 627.19"><defs><style>.cls-1{fill:none;stroke:#00593b;}.cls-1,.cls-2{stroke-miterlimit:10;stroke-width:4px;}.cls-3{fill:#5b1627;stroke-width:0px;}.cls-2{fill:#00593b;stroke:#5b1627;}</style></defs><g id="Layer_1-2"><path class="cls-1" d="m1.47,26.22c6.41,6.94,16.38,8.34,22.79,3.21h0c6.42-5.13,16.38-3.76,22.8,3.15,0,0,0,0,0,0,6.42,6.9,16.39,8.25,22.81,3.08,0,0,0,0,0,0,6.42-5.17,16.39-3.85,22.81,3.02h0c6.42,6.87,16.4,8.16,22.82,2.96,0,0,0,0,0,0,6.42-5.2,16.4-3.94,22.82,2.9,0,0,0,0,0,0,6.42,6.83,16.4,8.07,22.83,2.83,0,0,0,0,0,0,6.43-5.24,16.41-4.03,22.84,2.77,0,0,0,0,0,0,6.43,6.8,16.41,7.98,22.84,2.71,0,0,0,0,0,0,6.43-5.27,16.42-4.11,22.85,2.65,0,0,0,0,0,0,6.43,6.76,16.42,7.89,22.85,2.59,0,0,0,0,0,0,6.43-5.31,16.42-4.2,22.86,2.52,0,0,0,0,0,0,6.43,6.73,16.43,7.8,22.86,2.46,0,0,0,0,0,0,6.43-5.34,16.43-4.29,22.87,2.4,0,0,0,0,0,0,6.44,6.69,16.43,7.71,22.87,2.34,0,0,0,0,0,0,6.44-5.38,16.44-4.38,22.88,2.27,0,0,0,0,0,0,6.44,6.66,16.44,7.62,22.88,2.21,0,0,0,0,0,0,6.44-5.41,16.44-4.47,22.89,2.15,0,0,0,0,0,0,6.44,6.62,16.45,7.53,22.89,2.09,0,0,0,0,0,0,6.44-5.45,16.45-4.56,22.89,2.02,0,0,0,0,0,0,6.44,6.59,16.45,7.45,22.9,1.96,0,0,0,0,0,0,6.44-5.48,16.46-4.65,22.9,1.9,0,0,0,0,.01.01,6.45,6.55,16.46,7.35,22.9,1.84,0,0,0,0,.01,0,6.45-5.52,16.46-4.74,22.91,1.78,0,0,0,0,.01.01,6.45,6.52,16.46,7.26,22.91,1.71,0,0,0,0,.01-.01,6.45-5.55,16.46-4.83,22.91,1.65,0,0,.01.01.02.02"/><path class="cls-3" d="m370.68,554.79c-21.27-53.88-47-106.56-58-163.11-6.37-32.76-12.01-66.85-14.62-99.98-2.37-29.96-.44-60.67.87-91.07.1-2.24-.19-5.12-2.31-6.12-5.58-2.61-12.4,12.42-14.3,15.61-14.41,24.3-20.74,50.03-19.1,78.2.38,6.52,2.16,13.46,3.89,19.97,5.42,20.33,12.28,40.53,19.41,60.43,8.98,25.1,18.58,50.17,28.36,75.01,9.54,24.22,19.36,48.44,29.31,72.51,7.31,17.69,14.74,35.39,22.22,53.02,1.97,4.64,3.95,9.28,5.95,13.92.24.56.84,2.83,1.41,3.17,4.62,2.73,1.03-10.96.73-12.59-1.17-6.33-2.46-12.66-3.82-18.97Z"/><path class="cls-3" d="m437.29,561.88c21.46-50.24,47.26-99.02,58.06-152.25,6.45-31.78,12.06-65.01,14.65-97.24,2.41-29.99.43-60.78-.87-91.23-.1-2.26.19-5.09,2.31-5.68,5.59-1.57,12.42,14.72,14.32,18.29,13.8,25.8,20.86,52.65,19.15,81.78-.38,6.42-2.16,13.05-3.9,19.24-5.39,19.16-12.27,38.12-19.45,56.79-8.98,23.34-18.6,46.65-28.41,69.69-9.54,22.4-19.38,44.79-29.34,67.02-7.31,16.31-14.75,32.62-22.24,48.86-1.97,4.27-3.96,8.54-5.95,12.81-.24.52-.84,2.67-1.41,2.9-4.62,1.86-1.03-11.15-.73-12.72,1.17-6.12,2.46-12.2,3.82-18.26Z"/><path class="cls-2" d="m406.52,261.13c0,107.59,0,215.17,0,322.76"/><path class="cls-3" d="m413.19,305.61c7.24-3.63,16.86-3.39,25.91-2.69,3.06.24,6.19.52,9.11,1.51,2.93.98,5.67,2.78,6.81,5.14,1.1,2.29.45,4.91-1.6,6.44s-5.39,1.89-8.21.87c-4.97-1.79-7.09-6.8-11.7-9.2-2.69-1.4-5.99-1.75-8.93-1.35-2.94.4-5.58,1.5-7.99,2.77-1.11.59-2.28,1.24-3.69,1.2-4.84-.12-1.41-3.82.3-4.68Z"/><path class="cls-3" d="m399.87,304.37c-7.24-4.99-16.86-6.54-25.9-7.53-3.06-.34-6.18-.63-9.11-.19s-5.67,1.72-6.8,3.87c-1.1,2.08-.45,4.83,1.6,6.74,2.05,1.91,5.39,2.89,8.2,2.4,4.96-.86,7.09-5.48,11.69-7.02,2.69-.9,5.99-.63,8.93.32,2.94.95,5.58,2.54,7.99,4.26,1.11.79,2.28,1.66,3.69,1.89,4.84.79,1.41-3.56-.3-4.74Z"/><path class="cls-3" d="m413.19,331.69c7.24-3.63,16.86-3.39,25.91-2.69,3.06.24,6.19.52,9.11,1.51,2.93.98,5.67,2.78,6.81,5.14,1.1,2.29.45,4.91-1.6,6.44-2.05,1.53-5.39,1.89-8.21.87-4.97-1.79-7.09-6.8-11.7-9.2-2.69-1.4-5.99-1.75-8.93-1.35-2.94.4-5.58,1.5-7.99,2.77-1.11.59-2.28,1.24-3.69,1.2-4.84-.12-1.41-3.82.3-4.68Z"/><path class="cls-3" d="m399.87,330.45c-7.24-4.99-16.86-6.54-25.9-7.53-3.06-.34-6.18-.63-9.11-.19-2.92.44-5.67,1.72-6.8,3.87-1.1,2.08-.45,4.83,1.6,6.74,2.05,1.91,5.39,2.89,8.2,2.4,4.96-.86,7.09-5.48,11.69-7.02,2.69-.9,5.99-.63,8.93.32,2.94.95,5.58,2.54,7.99,4.26,1.11.79,2.28,1.66,3.69,1.89,4.84.79,1.41-3.56-.3-4.74Z"/><path class="cls-3" d="m413.19,356.63c7.24-3.63,16.86-3.39,25.91-2.69,3.06.24,6.19.52,9.11,1.51s5.67,2.78,6.81,5.14c1.1,2.29.45,4.91-1.6,6.44-2.05,1.53-5.39,1.89-8.21.87-4.97-1.79-7.09-6.8-11.7-9.2-2.69-1.4-5.99-1.75-8.93-1.35-2.94.4-5.58,1.5-7.99,2.77-1.11.59-2.28,1.24-3.69,1.2-4.84-.12-1.41-3.82.3-4.68Z"/><path class="cls-3" d="m399.87,355.39c-7.24-4.99-16.86-6.54-25.9-7.53-3.06-.34-6.18-.63-9.11-.19s-5.67,1.72-6.8,3.87c-1.1,2.08-.45,4.83,1.6,6.74,2.05,1.91,5.39,2.89,8.2,2.4,4.96-.86,7.09-5.48,11.69-7.02,2.69-.9,5.99-.63,8.93.32,2.94.95,5.58,2.54,7.99,4.26,1.11.79,2.28,1.66,3.69,1.89,4.84.79,1.41-3.56-.3-4.74Z"/><path class="cls-3" d="m413.19,383.47c7.24-3.63,16.86-3.39,25.91-2.69,3.06.24,6.19.52,9.11,1.51,2.93.98,5.67,2.78,6.81,5.14,1.1,2.29.45,4.91-1.6,6.44-2.05,1.53-5.39,1.89-8.21.87-4.97-1.79-7.09-6.8-11.7-9.2-2.69-1.4-5.99-1.75-8.93-1.35-2.94.4-5.58,1.5-7.99,2.77-1.11.59-2.28,1.24-3.69,1.2-4.84-.12-1.41-3.82.3-4.68Z"/><path class="cls-3" d="m399.87,382.23c-7.24-4.99-16.86-6.54-25.9-7.53-3.06-.34-6.18-.63-9.11-.19s-5.67,1.72-6.8,3.87c-1.1,2.08-.45,4.83,1.6,6.74,2.05,1.91,5.39,2.89,8.2,2.4,4.96-.86,7.09-5.48,11.69-7.02,2.69-.9,5.99-.63,8.93.32,2.94.95,5.58,2.54,7.99,4.26,1.11.79,2.28,1.66,3.69,1.89,4.84.79,1.41-3.56-.3-4.74Z"/><path class="cls-3" d="m413.19,409.55c7.24-3.63,16.86-3.39,25.91-2.69,3.06.24,6.19.52,9.11,1.51,2.93.98,5.67,2.78,6.81,5.14,1.1,2.29.45,4.91-1.6,6.44-2.05,1.53-5.39,1.89-8.21.87-4.97-1.79-7.09-6.8-11.7-9.2-2.69-1.4-5.99-1.75-8.93-1.35-2.94.4-5.58,1.5-7.99,2.77-1.11.59-2.28,1.24-3.69,1.2-4.84-.12-1.41-3.82.3-4.68Z"/><path class="cls-3" d="m399.87,408.3c-7.24-4.99-16.86-6.54-25.9-7.53-3.06-.34-6.18-.63-9.11-.19-2.92.44-5.67,1.72-6.8,3.87-1.1,2.08-.45,4.83,1.6,6.74,2.05,1.91,5.39,2.89,8.2,2.4,4.96-.86,7.09-5.48,11.69-7.02,2.69-.9,5.99-.63,8.93.32,2.94.95,5.58,2.54,7.99,4.26,1.11.79,2.28,1.66,3.69,1.89,4.84.79,1.41-3.56-.3-4.74Z"/><path class="cls-3" d="m413.19,434.49c7.24-3.63,16.86-3.39,25.91-2.69,3.06.24,6.19.52,9.11,1.51,2.93.98,5.67,2.78,6.81,5.14,1.1,2.29.45,4.91-1.6,6.44-2.05,1.53-5.39,1.89-8.21.87-4.97-1.79-7.09-6.8-11.7-9.2-2.69-1.4-5.99-1.75-8.93-1.35-2.94.4-5.58,1.5-7.99,2.77-1.11.59-2.28,1.24-3.69,1.2-4.84-.12-1.41-3.82.3-4.68Z"/><path class="cls-3" d="m399.87,433.25c-7.24-4.99-16.86-6.54-25.9-7.53-3.06-.34-6.18-.63-9.11-.19-2.92.44-5.67,1.72-6.8,3.87-1.1,2.08-.45,4.83,1.6,6.74,2.05,1.91,5.39,2.89,8.2,2.4,4.96-.86,7.09-5.48,11.69-7.02,2.69-.9,5.99-.63,8.93.32s5.58,2.54,7.99,4.26c1.11.79,2.28,1.66,3.69,1.89,4.84.79,1.41-3.56-.3-4.74Z"/><path class="cls-3" d="m413.19,455.28c7.24-3.63,16.86-3.39,25.91-2.69,3.06.24,6.19.52,9.11,1.51,2.93.98,5.67,2.78,6.81,5.14,1.1,2.29.45,4.91-1.6,6.44s-5.39,1.89-8.21.87c-4.97-1.79-7.09-6.8-11.7-9.2-2.69-1.4-5.99-1.75-8.93-1.35-2.94.4-5.58,1.5-7.99,2.77-1.11.59-2.28,1.24-3.69,1.2-4.84-.12-1.41-3.82.3-4.68Z"/><path class="cls-3" d="m399.87,454.04c-7.24-4.99-16.86-6.54-25.9-7.53-3.06-.34-6.18-.63-9.11-.19-2.92.44-5.67,1.72-6.8,3.87-1.1,2.08-.45,4.83,1.6,6.74,2.05,1.91,5.39,2.89,8.2,2.4,4.96-.86,7.09-5.48,11.69-7.02,2.69-.9,5.99-.63,8.93.32,2.94.95,5.58,2.54,7.99,4.26,1.11.79,2.28,1.66,3.69,1.89,4.84.79,1.41-3.56-.3-4.74Z"/><path class="cls-3" d="m413.19,481.36c7.24-3.63,16.86-3.39,25.91-2.69,3.06.24,6.19.52,9.11,1.51,2.93.98,5.67,2.78,6.81,5.14,1.1,2.29.45,4.91-1.6,6.44-2.05,1.53-5.39,1.89-8.21.87-4.97-1.79-7.09-6.8-11.7-9.2-2.69-1.4-5.99-1.75-8.93-1.35s-5.58,1.5-7.99,2.77c-1.11.59-2.28,1.24-3.69,1.2-4.84-.12-1.41-3.82.3-4.68Z"/><path class="cls-3" d="m399.87,480.11c-7.24-4.99-16.86-6.54-25.9-7.53-3.06-.34-6.18-.63-9.11-.19-2.92.44-5.67,1.72-6.8,3.87-1.1,2.08-.45,4.83,1.6,6.74,2.05,1.91,5.39,2.89,8.2,2.4,4.96-.86,7.09-5.48,11.69-7.02,2.69-.9,5.99-.63,8.93.32,2.94.95,5.58,2.54,7.99,4.26,1.11.79,2.28,1.66,3.69,1.89,4.84.79,1.41-3.56-.3-4.74Z"/><path class="cls-3" d="m413.19,506.3c7.24-3.63,16.86-3.39,25.91-2.7,3.06.24,6.19.52,9.11,1.51,2.93.98,5.67,2.78,6.81,5.14,1.1,2.29.45,4.91-1.6,6.44-2.05,1.53-5.39,1.89-8.21.87-4.97-1.79-7.09-6.8-11.7-9.2-2.69-1.4-5.99-1.75-8.93-1.35-2.94.4-5.58,1.49-7.99,2.77-1.11.59-2.28,1.24-3.69,1.2-4.84-.12-1.41-3.82.3-4.68Z"/><path class="cls-3" d="m399.87,505.06c-7.24-4.99-16.86-6.54-25.9-7.53-3.06-.34-6.18-.63-9.11-.19s-5.67,1.72-6.8,3.87c-1.1,2.08-.45,4.83,1.6,6.74,2.05,1.91,5.39,2.89,8.2,2.4,4.96-.86,7.09-5.48,11.69-7.02,2.69-.9,5.99-.63,8.93.32,2.94.95,5.58,2.54,7.99,4.26,1.11.79,2.28,1.66,3.69,1.89,4.84.79,1.41-3.56-.3-4.74Z"/><path class="cls-1" d="m406.52,134.5c0,42.21,0,84.42,0,126.63"/><path class="cls-1" d="m164.84,123.26c.13-1,.25-2.08.51-2.97,3.59-12.38,17.9,3.43,22.38,8.78,16.09,19.21,37.21,64.72,4.5,79.87-10.65,5.12-21.3,10.23-31.97,15.32-1.68.8-2.52,1.2-4.2,2-6.02,2.88-12.63,3.32-18.94,1.85t-.02,0"/><path class="cls-1" d="m109.58,117.96h0c-.17-1.6-.42-3.21-.71-4.77-2.56-14.06-17.54-1.5-22.36,3.15-20.53,19.83-33.39,59.49-4.48,78.74,12.03,8.82,24.07,17.62,36.12,26.41,1.63,1.19,3.31,2.21,5.01,3.07,0,0,.02.01.03.01,4.57,2.31,9.33,3.45,13.92,3.53t.02,0"/><path class="cls-1" d="m177.2,132.48c-12.91-9.63-25.8-19.28-38.67-28.95-12.88,6.43-25.76,12.84-38.66,19.24-20.62,10.25-22.64,36.93-10.88,54.6,8.24,12.47,16.49,24.95,24.74,37.41,10.65,16.09,36.05,23.11,49.6,6.23,8.26-10.4,16.52-20.79,24.77-31.2,14.18-18.15,6.4-44.41-10.9-57.34Z"/><path class="cls-2" d="m138.33,231.79c0,107.59,0,215.17,0,322.76"/><path class="cls-3" d="m144.99,276.48c7.22-3.4,16.82-2.85,25.84-1.87,3.06.33,6.17.72,9.09,1.8,2.92,1.08,5.66,2.96,6.79,5.36,1.1,2.32.45,4.93-1.6,6.39-2.05,1.46-5.38,1.71-8.19.61-4.95-1.94-7.07-7.02-11.67-9.58-2.68-1.49-5.97-1.94-8.91-1.63-2.94.31-5.57,1.32-7.97,2.51-1.11.55-2.28,1.16-3.68,1.08-4.83-.27-1.4-3.87.3-4.67Z"/><path class="cls-3" d="m131.7,274.82c-7.22-5.22-16.81-7.07-25.83-8.36-3.05-.43-6.17-.83-9.08-.48-2.92.35-5.65,1.54-6.78,3.65-1.1,2.05-.45,4.81,1.6,6.79,2.04,1.98,5.37,3.06,8.18,2.67,4.95-.7,7.07-5.25,11.66-6.65,2.68-.82,5.97-.44,8.9.6s5.56,2.71,7.97,4.51c1.11.83,2.28,1.74,3.68,2.01,4.83.94,1.4-3.52-.3-4.75Z"/><path class="cls-3" d="m144.99,302.56c7.22-3.4,16.82-2.85,25.84-1.87,3.06.33,6.17.72,9.09,1.8s5.66,2.96,6.79,5.36c1.1,2.32.45,4.93-1.6,6.39-2.05,1.46-5.38,1.71-8.19.61-4.95-1.94-7.07-7.02-11.67-9.58-2.68-1.49-5.97-1.94-8.91-1.63-2.94.31-5.57,1.32-7.97,2.51-1.11.55-2.28,1.16-3.68,1.08-4.83-.27-1.4-3.87.3-4.67Z"/><path class="cls-3" d="m131.7,300.89c-7.22-5.22-16.81-7.07-25.83-8.36-3.05-.43-6.17-.83-9.08-.48-2.92.35-5.65,1.54-6.78,3.65-1.1,2.05-.45,4.81,1.6,6.79,2.04,1.98,5.37,3.06,8.18,2.67,4.95-.7,7.07-5.25,11.66-6.65,2.68-.82,5.97-.44,8.9.6s5.56,2.71,7.97,4.51c1.11.83,2.28,1.74,3.68,2.01,4.83.94,1.4-3.52-.3-4.75Z"/><path class="cls-3" d="m144.99,327.51c7.22-3.4,16.82-2.85,25.84-1.87,3.06.33,6.17.72,9.09,1.8s5.66,2.96,6.79,5.36c1.1,2.32.45,4.93-1.6,6.39-2.05,1.46-5.38,1.71-8.19.61-4.95-1.94-7.07-7.02-11.67-9.58-2.68-1.49-5.97-1.94-8.91-1.63-2.94.31-5.57,1.32-7.97,2.51-1.11.55-2.28,1.16-3.68,1.08-4.83-.27-1.4-3.87.3-4.67Z"/><path class="cls-3" d="m131.7,325.84c-7.22-5.22-16.81-7.07-25.83-8.36-3.05-.43-6.17-.83-9.08-.48-2.92.35-5.65,1.54-6.78,3.65-1.1,2.05-.45,4.81,1.6,6.79,2.04,1.98,5.37,3.06,8.18,2.67,4.95-.7,7.07-5.25,11.66-6.65,2.68-.82,5.97-.44,8.9.6s5.56,2.71,7.97,4.51c1.11.83,2.28,1.74,3.68,2.01,4.83.94,1.4-3.52-.3-4.75Z"/><path class="cls-3" d="m144.99,354.34c7.22-3.4,16.82-2.85,25.84-1.87,3.06.33,6.17.72,9.09,1.8s5.66,2.96,6.79,5.36c1.1,2.32.45,4.93-1.6,6.39-2.05,1.46-5.38,1.71-8.19.61-4.95-1.94-7.07-7.02-11.67-9.58-2.68-1.49-5.97-1.94-8.91-1.63-2.94.31-5.57,1.32-7.97,2.51-1.11.55-2.28,1.16-3.68,1.08-4.83-.27-1.4-3.87.3-4.67Z"/><path class="cls-3" d="m131.7,352.67c-7.22-5.22-16.81-7.07-25.83-8.36-3.05-.43-6.17-.83-9.08-.48-2.92.35-5.65,1.54-6.78,3.65-1.1,2.05-.45,4.81,1.6,6.79,2.04,1.98,5.37,3.06,8.18,2.67,4.95-.7,7.07-5.25,11.66-6.65,2.68-.82,5.97-.44,8.9.6,2.93,1.05,5.56,2.71,7.97,4.51,1.11.83,2.28,1.74,3.68,2.01,4.83.94,1.4-3.52-.3-4.75Z"/><path class="cls-3" d="m144.99,380.42c7.22-3.4,16.82-2.85,25.84-1.87,3.06.33,6.17.72,9.09,1.8,2.92,1.08,5.66,2.96,6.79,5.36,1.1,2.32.45,4.93-1.6,6.39-2.05,1.46-5.38,1.71-8.19.61-4.95-1.94-7.07-7.02-11.67-9.58-2.68-1.49-5.97-1.94-8.91-1.63-2.94.31-5.57,1.32-7.97,2.51-1.11.55-2.28,1.16-3.68,1.08-4.83-.27-1.4-3.87.3-4.67Z"/><path class="cls-3" d="m131.7,378.75c-7.22-5.22-16.81-7.07-25.83-8.36-3.05-.43-6.17-.83-9.08-.48-2.92.35-5.65,1.54-6.78,3.65-1.1,2.05-.45,4.81,1.6,6.79,2.04,1.98,5.37,3.06,8.18,2.67,4.95-.7,7.07-5.25,11.66-6.65,2.68-.82,5.97-.44,8.9.6,2.93,1.05,5.56,2.71,7.97,4.51,1.11.83,2.28,1.74,3.68,2.01,4.83.94,1.4-3.52-.3-4.75Z"/><path class="cls-3" d="m144.99,405.36c7.22-3.4,16.82-2.85,25.84-1.87,3.06.33,6.17.72,9.09,1.8,2.92,1.08,5.66,2.96,6.79,5.36,1.1,2.32.45,4.93-1.6,6.39-2.05,1.46-5.38,1.71-8.19.61-4.95-1.94-7.07-7.02-11.67-9.58-2.68-1.49-5.97-1.94-8.91-1.63s-5.57,1.32-7.97,2.51c-1.11.55-2.28,1.16-3.68,1.08-4.83-.27-1.4-3.87.3-4.67Z"/><path class="cls-3" d="m131.7,403.7c-7.22-5.22-16.81-7.07-25.83-8.36-3.05-.43-6.17-.83-9.08-.48-2.92.35-5.65,1.54-6.78,3.65-1.1,2.05-.45,4.81,1.6,6.79,2.04,1.98,5.37,3.06,8.18,2.67,4.95-.7,7.07-5.25,11.66-6.65,2.68-.82,5.97-.44,8.9.6,2.93,1.05,5.56,2.71,7.97,4.51,1.11.83,2.28,1.74,3.68,2.01,4.83.94,1.4-3.52-.3-4.75Z"/><path class="cls-3" d="m144.99,426.15c7.22-3.4,16.82-2.85,25.84-1.87,3.06.33,6.17.72,9.09,1.8,2.92,1.08,5.66,2.96,6.79,5.36,1.1,2.32.45,4.93-1.6,6.39-2.05,1.46-5.38,1.71-8.19.61-4.95-1.94-7.07-7.02-11.67-9.58-2.68-1.49-5.97-1.94-8.91-1.63-2.94.31-5.57,1.32-7.97,2.51-1.11.55-2.28,1.16-3.68,1.08-4.83-.27-1.4-3.87.3-4.67Z"/><path class="cls-3" d="m131.7,424.48c-7.22-5.22-16.81-7.07-25.83-8.36-3.05-.43-6.17-.83-9.08-.48-2.92.35-5.65,1.54-6.78,3.65-1.1,2.05-.45,4.81,1.6,6.79,2.04,1.98,5.37,3.06,8.18,2.67,4.95-.7,7.07-5.25,11.66-6.65,2.68-.82,5.97-.44,8.9.6,2.93,1.05,5.56,2.71,7.97,4.51,1.11.83,2.28,1.74,3.68,2.01,4.83.94,1.4-3.52-.3-4.75Z"/><path class="cls-3" d="m144.99,452.23c7.22-3.4,16.82-2.85,25.84-1.87,3.06.33,6.17.72,9.09,1.8s5.66,2.96,6.79,5.36c1.1,2.32.45,4.93-1.6,6.39-2.05,1.46-5.38,1.71-8.19.61-4.95-1.94-7.07-7.02-11.67-9.58-2.68-1.49-5.97-1.94-8.91-1.63-2.94.31-5.57,1.32-7.97,2.51-1.11.55-2.28,1.16-3.68,1.08-4.83-.27-1.4-3.87.3-4.67Z"/><path class="cls-3" d="m131.7,450.56c-7.22-5.22-16.81-7.07-25.83-8.36-3.05-.43-6.17-.83-9.08-.48-2.92.35-5.65,1.54-6.78,3.65-1.1,2.05-.45,4.81,1.6,6.79,2.04,1.98,5.37,3.06,8.18,2.67,4.95-.7,7.07-5.25,11.66-6.65,2.68-.82,5.97-.44,8.9.6,2.93,1.05,5.56,2.71,7.97,4.51,1.11.83,2.28,1.74,3.68,2.01,4.83.94,1.4-3.52-.3-4.75Z"/><path class="cls-3" d="m144.99,477.18c7.22-3.4,16.82-2.85,25.84-1.87,3.06.33,6.17.72,9.09,1.8,2.92,1.08,5.66,2.96,6.79,5.36,1.1,2.32.45,4.93-1.6,6.39-2.05,1.46-5.38,1.71-8.19.61-4.95-1.94-7.07-7.02-11.67-9.58-2.68-1.49-5.97-1.94-8.91-1.63-2.94.31-5.57,1.32-7.97,2.51-1.11.55-2.28,1.16-3.68,1.08-4.83-.27-1.4-3.87.3-4.67Z"/><path class="cls-3" d="m131.7,475.51c-7.22-5.22-16.81-7.07-25.83-8.36-3.05-.43-6.17-.83-9.08-.48-2.92.35-5.65,1.54-6.78,3.65-1.1,2.05-.45,4.81,1.6,6.79,2.04,1.98,5.37,3.06,8.18,2.67,4.95-.7,7.07-5.25,11.66-6.65,2.68-.82,5.97-.44,8.9.6,2.93,1.05,5.56,2.71,7.97,4.51,1.11.83,2.28,1.74,3.68,2.01,4.83.94,1.4-3.52-.3-4.75Z"/><path class="cls-1" d="m138.33,105.16c0,42.21,0,84.42,0,126.63"/><path class="cls-1" d="m432.67,152.05c.13-1.01.25-2.08.51-2.98,3.54-12.53,17.81,2.7,22.44,8.06,16.79,19.45,36.72,63.82,4.51,79.72-10.67,5.46-21.36,10.91-32.05,16.34-1.68.86-2.52,1.28-4.21,2.14-6.04,3.07-12.66,3.73-18.99,2.46t-.02,0"/><path class="cls-1" d="m377.26,148.52h0c-.17-1.6-.42-3.2-.71-4.75-2.64-14.13-17.8-.73-22.43,3.87-19.89,19.79-34.11,60.15-4.49,78.88,12.06,8.43,24.14,16.85,36.22,25.26,1.64,1.14,3.32,2.11,5.03,2.91.01,0,.02.01.03.01,4.59,2.17,9.35,3.16,13.96,3.09t.02,0"/><path class="cls-1" d="m445.06,160.88c-12.94-9.21-25.86-18.45-38.77-27.71-12.91,6.84-25.83,13.67-38.76,20.47-20.23,10.68-23.02,37.13-10.91,54.95,8.27,12.21,16.54,24.42,24.81,36.62,11.05,16.28,36.52,21.51,49.73,4.64,8.28-10.66,16.56-21.32,24.83-31.99,13.92-18.16,6.82-44.32-10.92-56.99Z"/><path class="cls-1" d="m595.96,89.41c6.45,6.48,16.47,7.18,22.92,1.59h0c6.45-5.59,16.47-4.92,22.92,1.53,0,0,0,0,0,0,6.45,6.45,16.47,7.09,22.93,1.46,0,0,0,0,0,0,6.45-5.62,16.48-5.01,22.93,1.4h0c6.45,6.41,16.48,7,22.93,1.34,0,0,0,0,0,0,6.45-5.66,16.48-5.1,22.93,1.28,0,0,0,0,0,0,6.45,6.38,16.48,6.91,22.94,1.21,0,0,0,0,0,0,6.46-5.69,16.48-5.19,22.94,1.15,0,0,0,0,0,0,6.46,6.34,16.49,6.82,22.94,1.09,0,0,0,0,0,0,6.46-5.73,16.49-5.28,22.94,1.03,0,0,0,0,0,0,6.46,6.31,16.49,6.73,22.95.97h0c6.46-5.77,16.49-5.37,22.95.9,0,0,0,0,0,0,6.46,6.27,16.49,6.64,22.95.84,0,0,0,0,0,0,6.46-5.8,16.49-5.46,22.95.78,0,0,0,0,0,0,6.46,6.24,16.49,6.55,22.95.72,0,0,0,0,0,0,6.46-5.83,16.49-5.55,22.95.65h0c6.46,6.21,16.5,6.47,22.96.6,0,0,0,0,0,0,6.46-5.87,16.5-5.64,22.96.53,0,0,0,0,0,0,6.46,6.17,16.5,6.37,22.96.47,0,0,0,0,0,0,6.46-5.9,16.5-5.73,22.96.41,0,0,0,0,0,0,6.46,6.13,16.5,6.28,22.96.34,0,0,0,0,0,0,6.46-5.94,16.5-5.81,22.96.28h.01c6.46,6.11,16.5,6.2,22.96.23,0,0,0,0,.01-.01,6.46-5.97,16.5-5.9,22.96.16,0,0,0,0,.01.01,6.46,6.06,16.5,6.1,22.96.09,0,0,0,0,.01-.01,6.46-6.01,16.5-5.99,22.96.03,0,0,.01,0,.02.02"/><path class="cls-3" d="m966.82,591.8c-21.39-52.5-47.25-103.68-58.2-159-6.41-32.4-12.06-66.16-14.68-98.95-2.39-29.97-.44-60.71.88-91.13.1-2.25-.19-5.11-2.32-5.95-5.6-2.22-12.45,13.29-14.35,16.62-14.21,24.87-20.85,51.01-19.18,79.56.38,6.48,2.16,13.3,3.91,19.7,5.43,19.89,12.32,39.62,19.48,59.05,9.01,24.43,18.64,48.84,28.47,73,9.57,23.53,19.43,47.06,29.41,70.43,7.33,17.17,14.79,34.35,22.3,51.45,1.98,4.5,3.97,9,5.97,13.5.24.55.84,2.77,1.42,3.07,4.63,2.4,1.03-11.03.73-12.64-1.17-6.25-2.47-12.48-3.83-18.7Z"/><path class="cls-3" d="m1033.63,594.17c21.43-51.61,47.32-101.82,58.21-156.35,6.42-32.17,12.07-65.71,14.68-98.28,2.4-29.97.44-60.73-.88-91.17-.1-2.26.19-5.1,2.32-5.85,5.6-1.96,12.45,13.85,14.36,17.28,14.06,25.24,20.88,51.65,19.19,80.43-.38,6.46-2.17,13.2-3.91,19.52-5.42,19.6-12.31,39.03-19.49,58.17-9.01,24.01-18.65,47.98-28.48,71.7-9.57,23.08-19.43,46.17-29.42,69.09-7.33,16.83-14.79,33.67-22.3,50.43-1.98,4.41-3.97,8.82-5.97,13.23-.24.54-.84,2.73-1.42,3-4.63,2.19-1.03-11.08-.73-12.67,1.17-6.2,2.47-12.37,3.83-18.53Z"/><path class="cls-2" d="m1002.77,295.61c0,107.59,0,215.17,0,322.76"/><path class="cls-3" d="m1009.47,339.61c7.26-4.15,16.91-4.58,25.98-4.53,3.07.02,6.2.08,9.14.86s5.69,2.38,6.82,4.66c1.1,2.21.45,4.88-1.61,6.55s-5.41,2.27-8.23,1.45c-4.98-1.43-7.11-6.3-11.73-8.37-2.7-1.21-6.01-1.33-8.96-.72-2.95.61-5.6,1.89-8.02,3.33-1.12.67-2.29,1.4-3.7,1.46-4.86.22-1.41-3.72.31-4.71Z"/><path class="cls-3" d="m996.11,339.31c-7.26-4.47-16.91-5.34-25.98-5.7-3.07-.12-6.2-.19-9.14.45-2.93.65-5.69,2.12-6.82,4.35-1.1,2.16-.45,4.86,1.61,6.63,2.06,1.77,5.41,2.51,8.23,1.82,4.98-1.21,7.11-5.98,11.73-7.85,2.7-1.09,6-1.06,8.96-.31,2.95.74,5.6,2.14,8.02,3.69,1.12.72,2.29,1.5,3.7,1.63,4.86.44,1.41-3.66-.31-4.72Z"/><path class="cls-3" d="m1009.47,365.69c7.26-4.15,16.91-4.58,25.98-4.53,3.07.02,6.2.08,9.14.86,2.93.78,5.69,2.38,6.82,4.66,1.1,2.21.45,4.88-1.61,6.55-2.06,1.67-5.41,2.27-8.23,1.45-4.98-1.43-7.11-6.3-11.73-8.38-2.7-1.21-6.01-1.33-8.96-.72-2.95.61-5.6,1.89-8.02,3.33-1.12.67-2.29,1.4-3.7,1.46-4.86.22-1.41-3.72.31-4.71Z"/><path class="cls-3" d="m996.11,365.39c-7.26-4.47-16.91-5.34-25.98-5.7-3.07-.12-6.2-.19-9.14.45-2.93.65-5.69,2.12-6.82,4.35-1.1,2.16-.45,4.86,1.61,6.63,2.06,1.77,5.41,2.51,8.23,1.82,4.98-1.21,7.11-5.98,11.73-7.85,2.7-1.09,6-1.06,8.96-.31,2.95.74,5.6,2.14,8.02,3.69,1.12.72,2.29,1.5,3.7,1.63,4.86.44,1.41-3.66-.31-4.72Z"/><path class="cls-3" d="m1009.47,390.63c7.26-4.15,16.91-4.58,25.98-4.53,3.07.02,6.2.08,9.14.86,2.93.78,5.69,2.38,6.82,4.66,1.1,2.21.45,4.88-1.61,6.55-2.06,1.67-5.41,2.27-8.23,1.45-4.98-1.43-7.11-6.3-11.73-8.38-2.7-1.21-6.01-1.33-8.96-.72-2.95.61-5.6,1.89-8.02,3.33-1.12.67-2.29,1.4-3.7,1.46-4.86.22-1.41-3.72.31-4.7Z"/><path class="cls-3" d="m996.11,390.33c-7.26-4.47-16.91-5.34-25.98-5.7-3.07-.12-6.2-.19-9.14.45-2.93.65-5.69,2.12-6.82,4.35-1.1,2.16-.45,4.86,1.61,6.63,2.06,1.77,5.41,2.51,8.23,1.82,4.98-1.21,7.11-5.98,11.73-7.85,2.7-1.09,6-1.06,8.96-.31,2.95.74,5.6,2.14,8.02,3.69,1.12.72,2.29,1.5,3.7,1.63,4.86.44,1.41-3.66-.31-4.72Z"/><path class="cls-3" d="m1009.47,417.47c7.26-4.15,16.91-4.58,25.98-4.53,3.07.02,6.2.08,9.14.86s5.69,2.38,6.82,4.66c1.1,2.21.45,4.88-1.61,6.55-2.06,1.67-5.41,2.27-8.23,1.45-4.98-1.43-7.11-6.3-11.73-8.37-2.7-1.21-6.01-1.33-8.96-.72-2.95.61-5.6,1.89-8.02,3.33-1.12.67-2.29,1.4-3.7,1.46-4.86.22-1.41-3.72.31-4.7Z"/><path class="cls-3" d="m996.11,417.17c-7.26-4.47-16.91-5.34-25.98-5.7-3.07-.12-6.2-.19-9.14.45-2.93.65-5.69,2.12-6.82,4.35-1.1,2.16-.45,4.86,1.61,6.63,2.06,1.77,5.41,2.51,8.23,1.82,4.98-1.21,7.11-5.98,11.73-7.85,2.7-1.09,6-1.06,8.96-.31,2.95.74,5.6,2.14,8.02,3.69,1.12.72,2.29,1.5,3.7,1.63,4.86.44,1.41-3.66-.31-4.72Z"/><path class="cls-3" d="m1009.47,443.55c7.26-4.15,16.91-4.58,25.98-4.53,3.07.02,6.2.08,9.14.86,2.93.78,5.69,2.38,6.82,4.66,1.1,2.21.45,4.88-1.61,6.55-2.06,1.67-5.41,2.27-8.23,1.45-4.98-1.43-7.11-6.3-11.73-8.38-2.7-1.21-6.01-1.33-8.96-.72-2.95.61-5.6,1.89-8.02,3.33-1.12.67-2.29,1.4-3.7,1.46-4.86.22-1.41-3.72.31-4.7Z"/><path class="cls-3" d="m996.11,443.25c-7.26-4.47-16.91-5.34-25.98-5.7-3.07-.12-6.2-.19-9.14.45-2.93.65-5.69,2.12-6.82,4.35-1.1,2.16-.45,4.86,1.61,6.63,2.06,1.77,5.41,2.51,8.23,1.82,4.98-1.21,7.11-5.98,11.73-7.85,2.7-1.09,6-1.06,8.96-.31,2.95.74,5.6,2.14,8.02,3.69,1.12.72,2.29,1.5,3.7,1.63,4.86.44,1.41-3.66-.31-4.72Z"/><path class="cls-3" d="m1009.47,468.49c7.26-4.15,16.91-4.58,25.98-4.53,3.07.02,6.2.08,9.14.86s5.69,2.38,6.82,4.66c1.1,2.21.45,4.88-1.61,6.55-2.06,1.67-5.41,2.27-8.23,1.45-4.98-1.43-7.11-6.3-11.73-8.37-2.7-1.21-6.01-1.33-8.96-.72s-5.6,1.89-8.02,3.33c-1.12.67-2.29,1.4-3.7,1.46-4.86.22-1.41-3.72.31-4.71Z"/><path class="cls-3" d="m996.11,468.19c-7.26-4.47-16.91-5.34-25.98-5.7-3.07-.12-6.2-.19-9.14.45-2.93.65-5.69,2.12-6.82,4.35-1.1,2.16-.45,4.86,1.61,6.63,2.06,1.77,5.41,2.51,8.23,1.82,4.98-1.21,7.11-5.98,11.73-7.85,2.7-1.09,6-1.06,8.96-.31s5.6,2.14,8.02,3.69c1.12.72,2.29,1.5,3.7,1.63,4.86.44,1.41-3.66-.31-4.72Z"/><path class="cls-3" d="m1009.47,489.28c7.26-4.15,16.91-4.58,25.98-4.53,3.07.02,6.2.08,9.14.86,2.93.78,5.69,2.38,6.82,4.66,1.1,2.21.45,4.88-1.61,6.55-2.06,1.67-5.41,2.27-8.23,1.45-4.98-1.43-7.11-6.3-11.73-8.38-2.7-1.21-6.01-1.33-8.96-.72-2.95.61-5.6,1.89-8.02,3.33-1.12.67-2.29,1.4-3.7,1.46-4.86.22-1.41-3.72.31-4.71Z"/><path class="cls-3" d="m996.11,488.98c-7.26-4.47-16.91-5.34-25.98-5.7-3.07-.12-6.2-.19-9.14.45s-5.69,2.12-6.82,4.35c-1.1,2.16-.45,4.86,1.61,6.63,2.06,1.77,5.41,2.51,8.23,1.82,4.98-1.21,7.11-5.98,11.73-7.85,2.7-1.09,6-1.06,8.96-.31,2.95.74,5.6,2.14,8.02,3.69,1.12.72,2.29,1.5,3.7,1.63,4.86.44,1.41-3.66-.31-4.72Z"/><path class="cls-3" d="m1009.47,515.36c7.26-4.15,16.91-4.58,25.98-4.53,3.07.02,6.2.08,9.14.86,2.93.78,5.69,2.38,6.82,4.66,1.1,2.21.45,4.88-1.61,6.55-2.06,1.67-5.41,2.27-8.23,1.45-4.98-1.43-7.11-6.3-11.73-8.37-2.7-1.21-6.01-1.33-8.96-.72-2.95.61-5.6,1.89-8.02,3.33-1.12.67-2.29,1.4-3.7,1.46-4.86.22-1.41-3.72.31-4.7Z"/><path class="cls-3" d="m996.11,515.06c-7.26-4.47-16.91-5.34-25.98-5.7-3.07-.12-6.2-.19-9.14.45-2.93.65-5.69,2.12-6.82,4.35-1.1,2.16-.45,4.86,1.61,6.63,2.06,1.77,5.41,2.51,8.23,1.82,4.98-1.21,7.11-5.98,11.73-7.85,2.7-1.09,6-1.06,8.96-.31,2.95.74,5.6,2.14,8.02,3.69,1.12.72,2.29,1.5,3.7,1.63,4.86.44,1.41-3.66-.31-4.72Z"/><path class="cls-3" d="m1009.47,540.3c7.26-4.15,16.91-4.58,25.98-4.53,3.07.02,6.2.08,9.14.86,2.93.78,5.69,2.38,6.82,4.66,1.1,2.21.45,4.88-1.61,6.55s-5.41,2.27-8.23,1.45c-4.98-1.43-7.11-6.3-11.73-8.37-2.7-1.21-6.01-1.33-8.96-.72-2.95.61-5.6,1.89-8.02,3.33-1.12.67-2.29,1.4-3.7,1.46-4.86.22-1.41-3.72.31-4.7Z"/><path class="cls-3" d="m996.11,540c-7.26-4.47-16.91-5.34-25.98-5.7-3.07-.12-6.2-.19-9.14.45-2.93.65-5.69,2.12-6.82,4.35-1.1,2.16-.45,4.86,1.61,6.63,2.06,1.77,5.41,2.51,8.23,1.82,4.98-1.21,7.11-5.98,11.73-7.85,2.7-1.09,6-1.06,8.96-.31,2.95.74,5.6,2.14,8.02,3.69,1.12.72,2.29,1.5,3.7,1.63,4.86.44,1.41-3.66-.31-4.72Z"/><path class="cls-1" d="m1002.77,168.98c0,42.21,0,84.42,0,126.63"/><path class="cls-1" d="m760.17,174.85c.13-1.01.26-2.08.51-3,3.47-12.7,17.68,1.81,22.49,7.19,17.63,19.7,36.07,62.77,4.52,79.55-10.7,5.88-21.4,11.74-32.11,17.59-1.69.92-2.53,1.38-4.22,2.3-6.05,3.3-12.69,4.22-19.03,3.19h-.02"/><path class="cls-1" d="m704.64,173.48h0c-.17-1.59-.41-3.18-.71-4.72-2.73-14.2-18.08.21-22.48,4.74-19.08,19.68-34.96,61.03-4.51,79.06,12.09,7.96,24.19,15.91,36.3,23.85,1.64,1.07,3.32,1.98,5.04,2.71.01,0,.02.01.03.01,4.6,1.99,9.37,2.79,13.99,2.54h.02"/><path class="cls-1" d="m772.58,183.2c-12.97-8.71-25.92-17.45-38.85-26.2-12.94,7.34-25.89,14.67-38.85,21.98-19.74,11.16-23.47,37.42-10.94,55.38,8.29,11.89,16.57,23.77,24.87,35.66,11.52,16.47,37.05,19.52,49.83,2.71,8.3-10.98,16.59-21.97,24.88-32.95,13.59-18.16,7.34-44.25-10.94-56.57Z"/><path class="cls-2" d="m733.53,285.27c0,107.59,0,215.17,0,322.76"/><path class="cls-3" d="m740.22,329.48c7.25-3.92,16.9-4.05,25.96-3.7,3.07.12,6.2.28,9.13,1.15,2.93.87,5.68,2.56,6.82,4.88,1.1,2.25.45,4.89-1.61,6.5-2.06,1.61-5.4,2.09-8.22,1.19-4.98-1.59-7.11-6.52-11.72-8.75-2.7-1.3-6-1.52-8.95-1-2.95.52-5.59,1.71-8.01,3.08-1.12.63-2.29,1.33-3.7,1.35-4.85.07-1.41-3.77.31-4.7Z"/><path class="cls-3" d="m726.87,328.76c-7.25-4.7-16.89-5.88-25.96-6.52-3.07-.22-6.2-.39-9.13.16-2.93.55-5.68,1.94-6.82,4.13-1.1,2.13-.45,4.85,1.61,6.68,2.05,1.83,5.4,2.68,8.22,2.09,4.97-1.05,7.1-5.75,11.72-7.47,2.7-1.01,6-.87,8.95-.03s5.59,2.32,8.01,3.95c1.12.75,2.29,1.57,3.7,1.75,4.85.6,1.41-3.62-.31-4.73Z"/><path class="cls-3" d="m740.22,355.56c7.25-3.92,16.9-4.05,25.96-3.7,3.07.12,6.2.28,9.13,1.15,2.93.87,5.68,2.56,6.82,4.88,1.1,2.25.45,4.89-1.61,6.5s-5.4,2.09-8.22,1.19c-4.98-1.59-7.11-6.52-11.72-8.75-2.7-1.3-6-1.52-8.95-1-2.95.52-5.59,1.71-8.01,3.08-1.12.63-2.29,1.33-3.7,1.35-4.85.07-1.41-3.77.31-4.7Z"/><path class="cls-3" d="m726.87,354.84c-7.25-4.7-16.89-5.88-25.96-6.52-3.07-.22-6.2-.39-9.13.16-2.93.55-5.68,1.94-6.82,4.13-1.1,2.13-.45,4.85,1.61,6.68,2.05,1.83,5.4,2.68,8.22,2.09,4.97-1.05,7.1-5.75,11.72-7.47,2.7-1.01,6-.87,8.95-.03,2.95.84,5.59,2.32,8.01,3.95,1.12.75,2.29,1.57,3.7,1.75,4.85.6,1.41-3.62-.31-4.73Z"/><path class="cls-3" d="m740.22,380.51c7.25-3.92,16.9-4.05,25.96-3.7,3.07.12,6.2.28,9.13,1.15,2.93.87,5.68,2.56,6.82,4.88,1.1,2.25.45,4.89-1.61,6.5-2.06,1.61-5.4,2.09-8.22,1.19-4.98-1.59-7.11-6.52-11.72-8.75-2.7-1.3-6-1.52-8.95-1-2.95.52-5.59,1.71-8.01,3.08-1.12.63-2.29,1.33-3.7,1.35-4.85.07-1.41-3.77.31-4.7Z"/><path class="cls-3" d="m726.87,379.78c-7.25-4.7-16.89-5.88-25.96-6.52-3.07-.22-6.2-.39-9.13.16-2.93.55-5.68,1.94-6.82,4.13-1.1,2.13-.45,4.85,1.61,6.68,2.05,1.83,5.4,2.68,8.22,2.09,4.97-1.05,7.1-5.75,11.72-7.47,2.7-1.01,6-.87,8.95-.03,2.95.84,5.59,2.32,8.01,3.95,1.12.75,2.29,1.57,3.7,1.75,4.85.6,1.41-3.62-.31-4.73Z"/><path class="cls-3" d="m740.22,407.34c7.25-3.92,16.9-4.05,25.96-3.7,3.07.12,6.2.28,9.13,1.15,2.93.87,5.68,2.56,6.82,4.88,1.1,2.25.45,4.89-1.61,6.5-2.06,1.61-5.4,2.09-8.22,1.19-4.98-1.59-7.11-6.52-11.72-8.75-2.7-1.3-6-1.52-8.95-1-2.95.52-5.59,1.71-8.01,3.08-1.12.63-2.29,1.33-3.7,1.35-4.85.07-1.41-3.77.31-4.7Z"/><path class="cls-3" d="m726.87,406.62c-7.25-4.7-16.89-5.88-25.96-6.52-3.07-.22-6.2-.39-9.13.16-2.93.55-5.68,1.94-6.82,4.13-1.1,2.13-.45,4.85,1.61,6.68s5.4,2.68,8.22,2.09c4.97-1.05,7.1-5.75,11.72-7.47,2.7-1.01,6-.87,8.95-.03,2.95.84,5.59,2.32,8.01,3.95,1.12.75,2.29,1.57,3.7,1.75,4.85.6,1.41-3.62-.31-4.73Z"/><path class="cls-3" d="m740.22,433.42c7.25-3.92,16.9-4.05,25.96-3.7,3.07.12,6.2.28,9.13,1.15,2.93.87,5.68,2.56,6.82,4.88,1.1,2.25.45,4.89-1.61,6.5-2.06,1.61-5.4,2.09-8.22,1.19-4.98-1.59-7.11-6.52-11.72-8.75-2.7-1.3-6-1.52-8.95-1-2.95.52-5.59,1.71-8.01,3.08-1.12.63-2.29,1.33-3.7,1.35-4.85.07-1.41-3.77.31-4.7Z"/><path class="cls-3" d="m726.87,432.7c-7.25-4.7-16.89-5.88-25.96-6.52-3.07-.22-6.2-.39-9.13.16-2.93.55-5.68,1.94-6.82,4.13-1.1,2.13-.45,4.85,1.61,6.68s5.4,2.68,8.22,2.09c4.97-1.05,7.1-5.75,11.72-7.47,2.7-1.01,6-.87,8.95-.03,2.95.84,5.59,2.32,8.01,3.95,1.12.75,2.29,1.57,3.7,1.75,4.85.6,1.41-3.62-.31-4.73Z"/><path class="cls-3" d="m740.22,458.37c7.25-3.92,16.9-4.05,25.96-3.7,3.07.12,6.2.28,9.13,1.15,2.93.87,5.68,2.56,6.82,4.88,1.1,2.25.45,4.89-1.61,6.5-2.06,1.61-5.4,2.09-8.22,1.19-4.98-1.59-7.11-6.52-11.72-8.75-2.7-1.3-6-1.52-8.95-1-2.95.52-5.59,1.71-8.01,3.08-1.12.63-2.29,1.33-3.7,1.35-4.85.07-1.41-3.77.31-4.7Z"/><path class="cls-3" d="m726.87,457.64c-7.25-4.7-16.89-5.88-25.96-6.52-3.07-.22-6.2-.39-9.13.16-2.93.55-5.68,1.94-6.82,4.13-1.1,2.13-.45,4.85,1.61,6.68,2.05,1.83,5.4,2.68,8.22,2.09,4.97-1.05,7.1-5.75,11.72-7.47,2.7-1.01,6-.87,8.95-.03,2.95.84,5.59,2.32,8.01,3.95,1.12.75,2.29,1.57,3.7,1.75,4.85.6,1.41-3.62-.31-4.73Z"/><path class="cls-3" d="m740.22,479.15c7.25-3.92,16.9-4.05,25.96-3.7,3.07.12,6.2.28,9.13,1.15,2.93.87,5.68,2.56,6.82,4.88,1.1,2.25.45,4.89-1.61,6.5-2.06,1.61-5.4,2.09-8.22,1.19-4.98-1.59-7.11-6.52-11.72-8.75-2.7-1.3-6-1.52-8.95-1-2.95.52-5.59,1.71-8.01,3.08-1.12.63-2.29,1.33-3.7,1.35-4.85.07-1.41-3.77.31-4.7Z"/><path class="cls-3" d="m726.87,478.43c-7.25-4.7-16.89-5.88-25.96-6.52-3.07-.22-6.2-.39-9.13.16-2.93.55-5.68,1.94-6.82,4.13-1.1,2.13-.45,4.84,1.61,6.68,2.05,1.83,5.4,2.68,8.22,2.09,4.97-1.05,7.1-5.75,11.72-7.47,2.7-1.01,6-.87,8.95-.03,2.95.84,5.59,2.32,8.01,3.95,1.12.75,2.29,1.57,3.7,1.75,4.85.6,1.41-3.62-.31-4.73Z"/><path class="cls-3" d="m740.22,505.23c7.25-3.92,16.9-4.05,25.96-3.7,3.07.12,6.2.28,9.13,1.15,2.93.87,5.68,2.56,6.82,4.88,1.1,2.25.45,4.89-1.61,6.5s-5.4,2.09-8.22,1.19c-4.98-1.59-7.11-6.52-11.72-8.75-2.7-1.3-6-1.52-8.95-1s-5.59,1.71-8.01,3.08c-1.12.63-2.29,1.33-3.7,1.35-4.85.07-1.41-3.77.31-4.7Z"/><path class="cls-3" d="m726.87,504.51c-7.25-4.7-16.89-5.88-25.96-6.52-3.07-.22-6.2-.39-9.13.16-2.93.55-5.68,1.94-6.82,4.13-1.1,2.13-.45,4.85,1.61,6.68,2.05,1.83,5.4,2.68,8.22,2.09,4.97-1.05,7.1-5.75,11.72-7.47,2.7-1.01,6-.87,8.95-.03,2.95.84,5.59,2.32,8.01,3.95,1.12.75,2.29,1.57,3.7,1.75,4.85.6,1.41-3.62-.31-4.73Z"/><path class="cls-3" d="m740.22,530.18c7.25-3.92,16.9-4.05,25.96-3.7,3.07.12,6.2.28,9.13,1.15,2.93.87,5.68,2.56,6.82,4.88,1.1,2.25.45,4.89-1.61,6.5-2.06,1.61-5.4,2.09-8.22,1.19-4.98-1.59-7.11-6.52-11.72-8.75-2.7-1.3-6-1.52-8.95-1-2.95.52-5.59,1.71-8.01,3.08-1.12.63-2.29,1.33-3.7,1.35-4.85.07-1.41-3.77.31-4.7Z"/><path class="cls-3" d="m726.87,529.45c-7.25-4.7-16.89-5.88-25.96-6.52-3.07-.22-6.2-.39-9.13.16-2.93.55-5.68,1.94-6.82,4.13-1.1,2.13-.45,4.84,1.61,6.68,2.05,1.83,5.4,2.68,8.22,2.09,4.97-1.05,7.1-5.75,11.72-7.47,2.7-1.01,6-.87,8.95-.03,2.95.84,5.59,2.32,8.01,3.95,1.12.75,2.29,1.57,3.7,1.75,4.85.6,1.41-3.62-.31-4.73Z"/><path class="cls-1" d="m733.53,158.64c0,42.21,0,84.42,0,126.63"/><path class="cls-1" d="m1029,184.68c.13-1.02.26-2.09.51-3.02,3.42-12.82,17.54,1.09,22.5,6.47,18.31,19.87,35.49,61.96,4.52,79.4-10.7,6.22-21.42,12.42-32.14,18.61-1.69.97-2.53,1.46-4.22,2.43-6.05,3.5-12.7,4.62-19.04,3.8t-.02,0"/><path class="cls-1" d="m973.42,185.07h0c-.17-1.58-.41-3.16-.71-4.7-2.81-14.24-18.29.98-22.5,5.45-18.4,19.55-35.61,61.8-4.51,79.2,12.11,7.58,24.22,15.14,36.34,22.69,1.64,1.02,3.33,1.87,5.04,2.55.01,0,.02.01.03.01,4.6,1.84,9.38,2.49,14,2.1t.02,0"/><path class="cls-1" d="m1041.42,192.63c-12.97-8.31-25.93-16.63-38.89-24.97-12.95,7.75-25.91,15.49-38.88,23.22-19.32,11.53-23.81,37.68-10.95,55.72,8.29,11.62,16.59,23.25,24.89,34.87,11.9,16.6,37.46,17.87,49.88,1.12,8.3-11.25,16.6-22.49,24.9-33.75,13.29-18.12,7.77-44.21-10.95-56.22Z"/><path class="cls-1" d="m1192.69,110.49c6.46,6.03,16.5,6.01,22.96-.03h0c6.46-6.04,16.5-6.09,22.96-.09,0,0,0,0,0,0,6.46,5.99,16.5,5.92,22.96-.15,0,0,0,0,0,0,6.46-6.08,16.5-6.17,22.96-.22h0c6.46,5.96,16.5,5.84,22.96-.28,0,0,0,0,0,0,6.46-6.11,16.5-6.26,22.96-.34,0,0,0,0,0,0,6.46,5.92,16.5,5.74,22.96-.4,0,0,0,0,0,0,6.46-6.15,16.5-6.35,22.96-.47,0,0,0,0,0,0,6.46,5.89,16.5,5.66,22.96-.53,0,0,0,0,0,0,6.46-6.18,16.5-6.44,22.96-.59,0,0,0,0,0,0,6.46,5.85,16.49,5.57,22.95-.65,0,0,0,0,0,0,6.46-6.22,16.49-6.53,22.95-.72,0,0,0,0,0,0,6.46,5.82,16.49,5.48,22.95-.78,0,0,0,0,0,0,6.46-6.25,16.49-6.62,22.95-.84,0,0,0,0,0,0,6.46,5.78,16.49,5.39,22.95-.9,0,0,0,0,0,0,6.46-6.29,16.49-6.71,22.95-.96,0,0,0,0,0,0,6.46,5.75,16.49,5.3,22.94-1.03,0,0,0,0,0,0,6.46-6.32,16.49-6.8,22.94-1.09,0,0,0,0,0,0,6.46,5.71,16.48,5.21,22.94-1.15,0,0,0,0,0,0,6.46-6.36,16.48-6.89,22.94-1.21,0,0,0,0,0,0,6.45,5.68,16.48,5.12,22.93-1.28,0,0,0,0,0,0,6.45-6.39,16.48-6.98,22.93-1.34,0,0,0,0,.01,0,6.45,5.64,16.48,5.03,22.93-1.4h.01c6.45-6.44,16.47-7.08,22.92-1.47,0,0,0,0,.01.01,6.45,5.6,16.47,4.94,22.92-1.52h.01c6.45-6.48,16.47-7.17,22.92-1.6,0,0,.01,0,.02.01"/><path class="cls-3" d="m1563.81,586.7c-21.44-51.13-47.33-100.81-58.18-154.9-6.43-32.04-12.07-65.46-14.68-97.91-2.4-29.98-.43-60.75.88-91.19.1-2.26-.19-5.1-2.32-5.79-5.6-1.82-12.44,14.16-14.35,17.64-13.97,25.44-20.88,52-19.18,80.91.38,6.44,2.16,13.15,3.91,19.42,5.41,19.44,12.3,38.72,19.48,57.68,9,23.77,18.64,47.51,28.47,70.99,9.56,22.84,19.42,45.68,29.4,68.36,7.33,16.65,14.78,33.3,22.29,49.88,1.98,4.36,3.97,8.72,5.96,13.08.24.53.84,2.71,1.42,2.97,4.63,2.08,1.03-11.1.73-12.69-1.17-6.17-2.47-12.31-3.83-18.43Z"/><path class="cls-3" d="m1630.58,584.36c21.36-52.98,47.18-104.69,58.15-160.46,6.4-32.53,12.05-66.4,14.66-99.31,2.38-29.96.44-60.69-.87-91.11-.1-2.25.19-5.11,2.32-6.01,5.59-2.36,12.44,12.98,14.34,16.26,14.29,24.67,20.82,50.66,19.16,79.08-.38,6.5-2.16,13.36-3.9,19.79-5.43,20.05-12.31,39.94-19.46,59.54-9.01,24.67-18.63,49.31-28.44,73.71-9.56,23.77-19.41,47.55-29.39,71.17-7.33,17.36-14.78,34.72-22.28,52.01-1.98,4.55-3.97,9.1-5.96,13.65-.24.55-.84,2.79-1.42,3.1-4.63,2.52-1.03-11-.73-12.62,1.17-6.28,2.47-12.54,3.83-18.8Z"/><path class="cls-2" d="m1599.74,287.97c0,107.59,0,215.17,0,322.76"/><path class="cls-3" d="m1606.44,331.5c7.26-4.66,16.9-5.78,25.96-6.36,3.07-.2,6.2-.35,9.13.22s5.68,1.98,6.82,4.18c1.1,2.13.45,4.85-1.61,6.67-2.05,1.82-5.4,2.65-8.22,2.03-4.98-1.08-7.1-5.79-11.72-7.55-2.7-1.02-6-.9-8.95-.08-2.95.82-5.59,2.28-8.01,3.9-1.12.74-2.29,1.56-3.7,1.73-4.85.57-1.41-3.63.31-4.73Z"/><path class="cls-3" d="m1593.08,332.14c-7.26-3.96-16.9-4.15-25.97-3.86-3.07.1-6.2.24-9.13,1.1-2.93.85-5.68,2.53-6.82,4.83-1.1,2.24-.45,4.89,1.61,6.51,2.06,1.62,5.4,2.13,8.23,1.24,4.98-1.56,7.11-6.48,11.73-8.68,2.7-1.28,6-1.48,8.95-.95,2.95.54,5.59,1.75,8.01,3.13,1.12.64,2.29,1.34,3.7,1.37,4.85.1,1.41-3.76-.31-4.7Z"/><path class="cls-3" d="m1606.44,357.58c7.26-4.66,16.9-5.78,25.96-6.36,3.07-.2,6.2-.35,9.13.22s5.68,1.98,6.82,4.18c1.1,2.13.45,4.85-1.61,6.67-2.05,1.82-5.4,2.65-8.22,2.03-4.98-1.08-7.1-5.79-11.72-7.55-2.7-1.02-6-.9-8.95-.08s-5.59,2.28-8.01,3.9c-1.12.74-2.29,1.56-3.7,1.73-4.85.57-1.41-3.63.31-4.73Z"/><path class="cls-3" d="m1593.08,358.22c-7.26-3.96-16.9-4.15-25.97-3.86-3.07.1-6.2.24-9.13,1.1-2.93.85-5.68,2.53-6.82,4.83-1.1,2.24-.45,4.89,1.61,6.51s5.4,2.13,8.23,1.24c4.98-1.56,7.11-6.48,11.73-8.68,2.7-1.28,6-1.48,8.95-.95,2.95.54,5.59,1.75,8.01,3.13,1.12.64,2.29,1.34,3.7,1.37,4.85.1,1.41-3.76-.31-4.7Z"/><path class="cls-3" d="m1606.44,382.52c7.26-4.66,16.9-5.78,25.96-6.36,3.07-.2,6.2-.35,9.13.22s5.68,1.98,6.82,4.18c1.1,2.13.45,4.85-1.61,6.67-2.05,1.82-5.4,2.65-8.22,2.03-4.98-1.08-7.1-5.79-11.72-7.55-2.7-1.02-6-.9-8.95-.08-2.95.82-5.59,2.28-8.01,3.9-1.12.74-2.29,1.56-3.7,1.73-4.85.57-1.41-3.63.31-4.73Z"/><path class="cls-3" d="m1593.08,383.17c-7.26-3.96-16.9-4.15-25.97-3.86-3.07.1-6.2.24-9.13,1.1-2.93.85-5.68,2.53-6.82,4.83-1.1,2.24-.45,4.89,1.61,6.51,2.06,1.62,5.4,2.13,8.23,1.24,4.98-1.56,7.11-6.48,11.73-8.68,2.7-1.28,6-1.48,8.95-.95,2.95.54,5.59,1.75,8.01,3.13,1.12.64,2.29,1.34,3.7,1.37,4.85.1,1.41-3.76-.31-4.7Z"/><path class="cls-3" d="m1606.44,409.36c7.26-4.66,16.9-5.78,25.96-6.36,3.07-.2,6.2-.35,9.13.22s5.68,1.98,6.82,4.18c1.1,2.13.45,4.85-1.61,6.67-2.05,1.82-5.4,2.65-8.22,2.03-4.98-1.08-7.1-5.79-11.72-7.55-2.7-1.02-6-.9-8.95-.08s-5.59,2.28-8.01,3.9c-1.12.74-2.29,1.56-3.7,1.73-4.85.57-1.41-3.63.31-4.73Z"/><path class="cls-3" d="m1593.08,410c-7.26-3.96-16.9-4.15-25.97-3.86-3.07.1-6.2.24-9.13,1.1-2.93.85-5.68,2.53-6.82,4.83-1.1,2.24-.45,4.89,1.61,6.51,2.06,1.62,5.4,2.13,8.23,1.24,4.98-1.56,7.11-6.48,11.73-8.68,2.7-1.28,6-1.48,8.95-.95,2.95.54,5.59,1.75,8.01,3.13,1.12.64,2.29,1.34,3.7,1.37,4.85.1,1.41-3.76-.31-4.7Z"/><path class="cls-3" d="m1606.44,435.44c7.26-4.66,16.9-5.78,25.96-6.36,3.07-.2,6.2-.35,9.13.22,2.93.57,5.68,1.98,6.82,4.18,1.1,2.13.45,4.85-1.61,6.67-2.05,1.82-5.4,2.65-8.22,2.03-4.98-1.08-7.1-5.79-11.72-7.55-2.7-1.02-6-.9-8.95-.08-2.95.82-5.59,2.28-8.01,3.9-1.12.74-2.29,1.56-3.7,1.73-4.85.57-1.41-3.63.31-4.73Z"/><path class="cls-3" d="m1593.08,436.08c-7.26-3.96-16.9-4.15-25.97-3.86-3.07.1-6.2.24-9.13,1.1-2.93.85-5.68,2.53-6.82,4.83-1.1,2.24-.45,4.89,1.61,6.51,2.06,1.62,5.4,2.13,8.23,1.24,4.98-1.56,7.11-6.48,11.73-8.68,2.7-1.28,6-1.48,8.95-.95s5.59,1.75,8.01,3.13c1.12.64,2.29,1.34,3.7,1.37,4.85.1,1.41-3.76-.31-4.7Z"/><path class="cls-3" d="m1606.44,460.38c7.26-4.66,16.9-5.78,25.96-6.36,3.07-.2,6.2-.35,9.13.22s5.68,1.98,6.82,4.18c1.1,2.13.45,4.85-1.61,6.67-2.05,1.82-5.4,2.65-8.22,2.03-4.98-1.08-7.1-5.79-11.72-7.55-2.7-1.02-6-.9-8.95-.08s-5.59,2.28-8.01,3.9c-1.12.74-2.29,1.56-3.7,1.73-4.85.57-1.41-3.63.31-4.73Z"/><path class="cls-3" d="m1593.08,461.02c-7.26-3.96-16.9-4.15-25.97-3.86-3.07.1-6.2.24-9.13,1.1-2.93.85-5.68,2.53-6.82,4.83-1.1,2.24-.45,4.89,1.61,6.51,2.06,1.62,5.4,2.13,8.23,1.24,4.98-1.56,7.11-6.48,11.73-8.68,2.7-1.28,6-1.48,8.95-.95,2.95.54,5.59,1.75,8.01,3.13,1.12.64,2.29,1.34,3.7,1.37,4.85.1,1.41-3.76-.31-4.7Z"/><path class="cls-3" d="m1606.44,481.17c7.26-4.66,16.9-5.78,25.96-6.36,3.07-.2,6.2-.35,9.13.22s5.68,1.98,6.82,4.18c1.1,2.13.45,4.85-1.61,6.67-2.05,1.82-5.4,2.65-8.22,2.03-4.98-1.08-7.1-5.79-11.72-7.55-2.7-1.02-6-.9-8.95-.08-2.95.82-5.59,2.28-8.01,3.9-1.12.74-2.29,1.56-3.7,1.73-4.85.57-1.41-3.63.31-4.73Z"/><path class="cls-3" d="m1593.08,481.81c-7.26-3.96-16.9-4.15-25.97-3.86-3.07.1-6.2.24-9.13,1.1-2.93.85-5.68,2.53-6.82,4.83-1.1,2.24-.45,4.89,1.61,6.51,2.06,1.62,5.4,2.13,8.23,1.24,4.98-1.56,7.11-6.48,11.73-8.68,2.7-1.28,6-1.48,8.95-.95,2.95.54,5.59,1.75,8.01,3.13,1.12.64,2.29,1.34,3.7,1.37,4.85.1,1.41-3.76-.31-4.7Z"/><path class="cls-3" d="m1606.44,507.25c7.26-4.66,16.9-5.78,25.96-6.36,3.07-.2,6.2-.35,9.13.22s5.68,1.98,6.82,4.18c1.1,2.13.45,4.85-1.61,6.67-2.05,1.82-5.4,2.65-8.22,2.03-4.98-1.08-7.1-5.79-11.72-7.55-2.7-1.02-6-.9-8.95-.08-2.95.82-5.59,2.28-8.01,3.9-1.12.74-2.29,1.56-3.7,1.72-4.85.57-1.41-3.63.31-4.73Z"/><path class="cls-3" d="m1593.08,507.89c-7.26-3.96-16.9-4.15-25.97-3.86-3.07.1-6.2.24-9.13,1.1-2.93.85-5.68,2.53-6.82,4.83-1.1,2.24-.45,4.89,1.61,6.51,2.06,1.62,5.4,2.13,8.23,1.24,4.98-1.56,7.11-6.48,11.73-8.68,2.7-1.28,6-1.48,8.95-.95,2.95.54,5.59,1.75,8.01,3.13,1.12.64,2.29,1.34,3.7,1.37,4.85.1,1.41-3.76-.31-4.7Z"/><path class="cls-3" d="m1606.44,532.19c7.26-4.66,16.9-5.78,25.96-6.36,3.07-.2,6.2-.35,9.13.22s5.68,1.98,6.82,4.18c1.1,2.13.45,4.85-1.61,6.67-2.05,1.82-5.4,2.65-8.22,2.03-4.98-1.08-7.1-5.79-11.72-7.55-2.7-1.02-6-.9-8.95-.08-2.95.82-5.59,2.28-8.01,3.9-1.12.74-2.29,1.56-3.7,1.73-4.85.57-1.41-3.63.31-4.73Z"/><path class="cls-3" d="m1593.08,532.84c-7.26-3.96-16.9-4.15-25.97-3.86-3.07.1-6.2.24-9.13,1.1-2.93.85-5.68,2.53-6.82,4.83-1.1,2.24-.45,4.89,1.61,6.51,2.06,1.62,5.4,2.13,8.23,1.24,4.98-1.56,7.11-6.48,11.73-8.68,2.7-1.28,6-1.48,8.95-.95,2.95.54,5.59,1.75,8.01,3.13,1.12.64,2.29,1.34,3.7,1.37,4.85.1,1.41-3.76-.31-4.7Z"/><path class="cls-1" d="m1599.74,161.34v126.63"/><path class="cls-1" d="m1357.12,184.33c.13-1.02.27-2.09.51-3.04,3.34-12.95,17.35.21,22.5,5.6,19.12,20.02,34.74,61.03,4.52,79.23-10.7,6.63-21.41,13.25-32.14,19.86-1.69,1.04-2.53,1.56-4.22,2.6-6.05,3.73-12.7,5.12-19.05,4.54t-.02,0"/><path class="cls-1" d="m1301.54,186.88h0c-.17-1.58-.33-3.24-.71-4.67-3.45-12.86-17.44.76-22.51,6.33-17.57,19.33-36.35,62.8-4.51,79.37,12.11,7.11,24.22,14.2,36.35,21.29,1.64.96,3.33,1.74,5.04,2.36.01,0,.02,0,.03,0,4.6,1.66,9.38,2.13,14,1.56t.02,0"/><path class="cls-1" d="m1369.54,191.8c-12.97-7.8-25.93-15.62-38.89-23.46-12.95,8.26-25.92,16.5-38.89,24.72-18.81,11.95-24.19,38.03-10.95,56.15,8.3,11.3,16.6,22.6,24.9,33.9,12.35,16.73,37.91,15.81,49.89-.81,8.3-11.57,16.6-23.14,24.9-34.71,12.92-18.06,8.29-44.19-10.95-55.79Z"/><path class="cls-2" d="m1330.46,296.63c0,107.59,0,215.17,0,322.76"/><path class="cls-3" d="m1337.16,340.37c7.26-4.43,16.91-5.24,25.98-5.53,3.07-.1,6.2-.16,9.14.51,2.93.66,5.69,2.16,6.82,4.39,1.1,2.17.45,4.86-1.61,6.62-2.06,1.75-5.41,2.48-8.23,1.77-4.98-1.24-7.11-6.02-11.73-7.92-2.7-1.11-6.01-1.1-8.96-.37-2.95.73-5.6,2.11-8.02,3.64-1.12.71-2.29,1.49-3.7,1.61-4.86.41-1.41-3.67.31-4.72Z"/><path class="cls-3" d="m1323.79,340.59c-7.26-4.19-16.91-4.69-25.99-4.69-3.07,0-6.2.05-9.14.8-2.93.76-5.69,2.34-6.82,4.62-1.1,2.2-.45,4.88,1.61,6.56,2.06,1.69,5.41,2.3,8.23,1.5,4.98-1.4,7.11-6.25,11.73-8.3,2.7-1.2,6.01-1.29,8.96-.66,2.95.63,5.6,1.92,8.02,3.38,1.12.67,2.29,1.41,3.7,1.49,4.86.25,1.41-3.72-.31-4.71Z"/><path class="cls-3" d="m1337.16,366.45c7.26-4.43,16.91-5.24,25.98-5.53,3.07-.1,6.2-.16,9.14.51,2.93.66,5.69,2.16,6.82,4.39,1.1,2.17.45,4.86-1.61,6.62-2.06,1.75-5.41,2.48-8.23,1.77-4.98-1.24-7.11-6.02-11.73-7.92-2.7-1.11-6.01-1.1-8.96-.37-2.95.73-5.6,2.11-8.02,3.64-1.12.71-2.29,1.49-3.7,1.61-4.86.41-1.41-3.67.31-4.72Z"/><path class="cls-3" d="m1323.79,366.67c-7.26-4.19-16.91-4.69-25.99-4.69-3.07,0-6.2.05-9.14.8-2.93.76-5.69,2.34-6.82,4.62-1.1,2.2.47,4.58,2.07,6.41,1.6,1.84,4.95,2.45,7.77,1.65,4.98-1.4,7.11-6.25,11.73-8.3,2.7-1.2,6.01-1.29,8.96-.66,2.95.63,5.6,1.92,8.02,3.38,1.12.67,2.29,1.41,3.7,1.49,4.86.25,1.41-3.72-.31-4.71Z"/><path class="cls-3" d="m1337.16,391.4c7.26-4.43,16.91-5.24,25.98-5.53,3.07-.1,6.2-.16,9.14.51,2.93.66,5.69,2.16,6.82,4.39,1.1,2.17.45,4.86-1.61,6.62-2.06,1.75-5.41,2.48-8.23,1.77-4.98-1.24-7.11-6.02-11.73-7.92-2.7-1.11-6.01-1.1-8.96-.37-2.95.73-5.6,2.11-8.02,3.64-1.12.71-2.29,1.49-3.7,1.61-4.86.41-1.41-3.67.31-4.72Z"/><path class="cls-3" d="m1323.79,391.61c-7.26-4.19-16.91-4.69-25.99-4.69-3.07,0-6.22.03-9.14.8-2.81.74-4.48,2.43-5.12,4.85-.63,2.35-2.15,4.65-.09,6.33,2.06,1.69,5.41,2.3,8.23,1.5,4.98-1.4,7.11-6.25,11.73-8.3,2.7-1.2,6.01-1.29,8.96-.66,2.95.63,5.6,1.92,8.02,3.38,1.12.67,2.29,1.41,3.7,1.49,4.86.25,1.41-3.72-.31-4.71Z"/><path class="cls-3" d="m1337.16,418.23c7.26-4.43,16.91-5.24,25.98-5.53,3.07-.1,6.2-.16,9.14.51,2.93.66,5.69,2.16,6.82,4.39,1.1,2.17.45,4.86-1.61,6.62-2.06,1.75-5.41,2.48-8.23,1.77-4.98-1.24-7.11-6.02-11.73-7.92-2.7-1.11-6.01-1.1-8.96-.37-2.95.73-5.6,2.11-8.02,3.64-1.12.71-2.29,1.49-3.7,1.61-4.86.41-1.41-3.67.31-4.72Z"/><path class="cls-3" d="m1323.79,418.45c-7.26-4.19-16.91-4.69-25.99-4.69-3.07,0-6.2.05-9.14.8-2.93.76-5.69,2.34-6.82,4.62-1.1,2.2-.45,4.88,1.61,6.56,2.06,1.69,5.41,2.3,8.23,1.5,4.98-1.4,7.11-6.25,11.73-8.3,2.7-1.2,6.01-1.29,8.96-.66,2.95.63,5.6,1.92,8.02,3.38,1.12.67,2.29,1.41,3.7,1.49,4.86.25,1.41-3.72-.31-4.71Z"/><path class="cls-3" d="m1337.16,444.31c7.26-4.43,16.91-5.24,25.98-5.53,3.07-.1,6.2-.16,9.14.51,2.93.66,5.69,2.16,6.82,4.39,1.1,2.17.45,4.86-1.61,6.62-2.06,1.75-5.41,2.48-8.23,1.77-4.98-1.24-7.11-6.02-11.73-7.92-2.7-1.11-6.01-1.1-8.96-.37-2.95.73-5.6,2.11-8.02,3.64-1.12.71-2.29,1.49-3.7,1.61-4.86.41-1.41-3.67.31-4.72Z"/><path class="cls-3" d="m1323.79,444.53c-7.26-4.19-16.91-4.69-25.99-4.69-3.07,0-6.2.05-9.14.8s-5.69,2.34-6.82,4.62c-1.1,2.2-.45,4.88,1.61,6.56s5.41,2.3,8.23,1.5c4.98-1.4,7.11-6.25,11.73-8.3,2.7-1.2,6.01-1.29,8.96-.66,2.95.63,5.6,1.92,8.02,3.38,1.12.67,2.29,1.41,3.7,1.49,4.86.25,1.41-3.72-.31-4.71Z"/><path class="cls-3" d="m1337.16,469.26c7.26-4.43,16.91-5.24,25.98-5.53,3.07-.1,6.2-.16,9.14.51s5.69,2.16,6.82,4.39c1.1,2.17.45,4.86-1.61,6.62-2.06,1.75-5.41,2.48-8.23,1.77-4.98-1.24-7.11-6.02-11.73-7.92-2.7-1.11-6.01-1.1-8.96-.37s-5.6,2.11-8.02,3.64c-1.12.71-2.29,1.49-3.7,1.61-4.86.41-1.41-3.67.31-4.72Z"/><path class="cls-3" d="m1323.79,469.47c-7.26-4.19-16.91-4.69-25.99-4.69-3.07,0-6.2.05-9.14.8s-5.69,2.34-6.82,4.62c-1.1,2.2-.45,4.88,1.61,6.56,2.06,1.69,5.41,2.3,8.23,1.5,4.98-1.4,7.11-6.25,11.73-8.3,2.7-1.2,6.01-1.29,8.96-.66s5.6,1.92,8.02,3.38c1.12.67,2.29,1.41,3.7,1.49,4.86.25,1.41-3.72-.31-4.71Z"/><path class="cls-3" d="m1337.16,490.04c7.26-4.43,16.91-5.24,25.98-5.53,3.07-.1,6.2-.16,9.14.51,2.93.66,5.69,2.16,6.82,4.39,1.1,2.17.45,4.86-1.61,6.62-2.06,1.75-5.41,2.48-8.23,1.77-4.98-1.24-7.11-6.02-11.73-7.92-2.7-1.11-6.01-1.1-8.96-.37-2.95.73-5.6,2.11-8.02,3.64-1.12.71-2.29,1.49-3.7,1.61-4.86.41-1.41-3.67.31-4.72Z"/><path class="cls-3" d="m1323.79,490.26c-7.26-4.19-16.91-4.69-25.99-4.69-3.07,0-6.2.05-9.14.8s-5.69,2.34-6.82,4.62c-1.1,2.2-.45,4.88,1.61,6.56,2.06,1.69,5.41,2.3,8.23,1.5,4.98-1.4,7.11-6.25,11.73-8.3,2.7-1.2,6.01-1.29,8.96-.66,2.95.63,5.6,1.92,8.02,3.38,1.12.67,2.29,1.41,3.7,1.49,4.86.25,1.41-3.72-.31-4.71Z"/><path class="cls-3" d="m1337.16,516.12c7.26-4.43,16.91-5.24,25.98-5.53,3.07-.1,6.2-.16,9.14.51,2.93.66,5.69,2.16,6.82,4.39,1.1,2.17.45,4.86-1.61,6.62-2.06,1.75-5.41,2.48-8.23,1.77-4.98-1.24-7.11-6.02-11.73-7.92-2.7-1.11-6.01-1.1-8.96-.37-2.95.73-5.6,2.11-8.02,3.64-1.12.71-2.29,1.49-3.7,1.61-4.86.41-1.41-3.67.31-4.72Z"/><path class="cls-3" d="m1323.79,516.34c-7.26-4.19-16.91-4.69-25.99-4.69-3.07,0-6.2.05-9.14.8-2.93.76-5.69,2.34-6.82,4.62-1.1,2.2-.45,4.88,1.61,6.56,2.06,1.69,5.41,2.3,8.23,1.5,4.98-1.4,7.11-6.25,11.73-8.3,2.7-1.2,6.01-1.29,8.96-.66,2.95.63,5.6,1.92,8.02,3.38,1.12.67,2.29,1.41,3.7,1.49,4.86.25,1.41-3.72-.31-4.71Z"/><path class="cls-3" d="m1337.16,541.07c7.26-4.43,16.91-5.24,25.98-5.53,3.07-.1,6.2-.16,9.14.51,2.93.66,5.69,2.16,6.82,4.39,1.1,2.17.45,4.86-1.61,6.62-2.06,1.75-5.41,2.48-8.23,1.77-4.98-1.24-7.11-6.02-11.73-7.92-2.7-1.11-6.01-1.1-8.96-.37-2.95.73-5.6,2.11-8.02,3.64-1.12.71-2.29,1.49-3.7,1.61-4.86.41-1.41-3.67.31-4.72Z"/><path class="cls-3" d="m1323.79,541.28c-7.26-4.19-16.91-4.69-25.99-4.69-3.07,0-6.2.05-9.14.8-2.93.76-5.69,2.34-6.82,4.62-1.1,2.2-.45,4.88,1.61,6.56,2.06,1.69,5.41,2.3,8.23,1.5,4.98-1.4,7.11-6.25,11.73-8.3,2.7-1.2,6.01-1.29,8.96-.66,2.95.63,5.6,1.92,8.02,3.38,1.12.67,2.29,1.41,3.7,1.49,4.86.25,1.41-3.72-.31-4.71Z"/><path class="cls-1" d="m1330.46,170c0,42.21,0,84.42,0,126.63"/><path class="cls-1" d="m1625.96,175.19c.13-1.03.29-2.05.51-3.06,2.99-13.87,17.68,0,22.48,4.89,19.78,20.1,34.09,60.32,4.52,79.09-10.69,6.97-21.4,13.93-32.11,20.88-1.69,1.09-2.53,1.64-4.22,2.73-6.05,3.92-12.69,5.52-19.03,5.14t-.02,0"/><path class="cls-1" d="m1570.42,179.5h0c-.17-1.57-.32-3.24-.71-4.65-3.52-12.71-17.57,1.46-22.49,7.04-16.87,19.11-36.93,63.67-4.51,79.52,12.1,6.73,24.21,13.44,36.33,20.13,1.64.91,3.33,1.64,5.04,2.2.01,0,.02,0,.03,0,4.6,1.52,9.38,1.83,13.99,1.11t.02,0"/><path class="cls-1" d="m1638.37,182.26c-12.96-7.39-25.91-14.8-38.86-22.22-12.94,8.68-25.89,17.33-38.86,25.96-18.37,12.26-24.48,38.35-10.95,56.5,8.29,11.04,16.58,22.08,24.88,33.11,12.71,16.8,38.25,14.1,49.85-2.4,8.3-11.83,16.59-23.66,24.88-35.5,12.59-17.98,8.72-44.21-10.94-55.44Z"/><path class="cls-1" d="m1789.41,89.46c6.45,5.57,16.47,4.85,22.92-1.65h0c6.45-6.5,16.47-7.25,22.92-1.71,0,0,0,0,0,0,6.45,5.54,16.46,4.76,22.91-1.77h0c6.45-6.54,16.46-7.34,22.91-1.84h0c6.45,5.5,16.46,4.67,22.9-1.9,0,0,0,0,0,0,6.44-6.57,16.46-7.43,22.9-1.96,0,0,0,0,0,0,6.44,5.47,16.45,4.58,22.89-2.02,0,0,0,0,0,0,6.44-6.6,16.45-7.52,22.89-2.09,0,0,0,0,0,0,6.44,5.43,16.45,4.49,22.89-2.15,0,0,0,0,0,0,6.44-6.64,16.44-7.61,22.88-2.21,0,0,0,0,0,0,6.44,5.4,16.44,4.4,22.88-2.27,0,0,0,0,0,0,6.44-6.67,16.44-7.69,22.87-2.34,0,0,0,0,0,0,6.44,5.36,16.43,4.31,22.87-2.4,0,0,0,0,0,0,6.43-6.71,16.43-7.78,22.86-2.46,0,0,0,0,0,0,6.43,5.32,16.43,4.22,22.86-2.52,0,0,0,0,0,0,6.43-6.74,16.42-7.87,22.85-2.58,0,0,0,0,0,0,6.43,5.29,16.42,4.13,22.85-2.65,0,0,0,0,0,0,6.43-6.78,16.41-7.96,22.84-2.71,0,0,0,0,0,0,6.43,5.25,16.41,4.04,22.84-2.77,0,0,0,0,0,0,6.43-6.81,16.41-8.05,22.83-2.83,0,0,0,0,0,0,6.42,5.22,16.4,3.95,22.82-2.9,0,0,0,0,0,0,6.42-6.85,16.4-8.14,22.82-2.96,0,0,0,0,.01,0,6.42,5.18,16.39,3.86,22.81-3.02,0,0,0,0,.01-.01,6.42-6.88,16.39-8.23,22.8-3.08,0,0,0,0,.01,0,6.42,5.15,16.38,3.77,22.8-3.14,0,0,0,0,.01-.01,6.41-6.92,16.38-8.32,22.79-3.21,0,0,.01,0,.02.01"/><path class="cls-1" d="m1.47,6.72c6.41,6.94,16.38,8.34,22.79,3.21h0c6.42-5.13,16.38-3.76,22.8,3.15,0,0,0,0,0,0,6.42,6.9,16.39,8.25,22.81,3.08,0,0,0,0,0,0,6.42-5.17,16.39-3.85,22.81,3.02h0c6.42,6.87,16.4,8.16,22.82,2.96,0,0,0,0,0,0,6.42-5.2,16.4-3.94,22.82,2.9,0,0,0,0,0,0,6.42,6.83,16.4,8.07,22.83,2.83,0,0,0,0,0,0,6.43-5.24,16.41-4.03,22.84,2.77,0,0,0,0,0,0,6.43,6.8,16.41,7.98,22.84,2.71,0,0,0,0,0,0,6.43-5.27,16.42-4.11,22.85,2.65,0,0,0,0,0,0,6.43,6.76,16.42,7.89,22.85,2.59,0,0,0,0,0,0,6.43-5.31,16.42-4.2,22.86,2.52,0,0,0,0,0,0,6.43,6.73,16.43,7.8,22.86,2.46,0,0,0,0,0,0,6.43-5.34,16.43-4.29,22.87,2.4,0,0,0,0,0,0,6.44,6.69,16.43,7.71,22.87,2.34,0,0,0,0,0,0,6.44-5.38,16.44-4.38,22.88,2.27,0,0,0,0,0,0,6.44,6.66,16.44,7.62,22.88,2.21,0,0,0,0,0,0,6.44-5.41,16.44-4.47,22.89,2.15,0,0,0,0,0,0,6.44,6.62,16.45,7.53,22.89,2.09,0,0,0,0,0,0,6.44-5.45,16.45-4.56,22.89,2.02h0c6.44,6.59,16.45,7.45,22.9,1.97,0,0,0,0,0,0,6.44-5.48,16.46-4.65,22.9,1.9,0,0,0,0,.01.01,6.45,6.55,16.46,7.35,22.9,1.84,0,0,0,0,.01,0,6.45-5.52,16.46-4.74,22.91,1.78,0,0,0,0,.01.01,6.45,6.52,16.46,7.26,22.91,1.71,0,0,0,0,.01-.01,6.45-5.55,16.46-4.83,22.91,1.65,0,0,.01.01.02.02"/><path class="cls-1" d="m595.96,69.91c6.45,6.48,16.47,7.18,22.92,1.59h0c6.45-5.59,16.47-4.92,22.92,1.53,0,0,0,0,0,0,6.45,6.45,16.47,7.09,22.93,1.46,0,0,0,0,0,0,6.45-5.62,16.48-5.01,22.93,1.4h0c6.45,6.41,16.48,7,22.93,1.34,0,0,0,0,0,0,6.45-5.66,16.48-5.1,22.93,1.28,0,0,0,0,0,0,6.45,6.38,16.48,6.91,22.94,1.21,0,0,0,0,0,0,6.46-5.69,16.48-5.19,22.94,1.15,0,0,0,0,0,0,6.46,6.34,16.49,6.82,22.94,1.09,0,0,0,0,0,0,6.46-5.73,16.49-5.28,22.94,1.03,0,0,0,0,0,0,6.46,6.31,16.49,6.73,22.95.97,0,0,0,0,0,0,6.46-5.76,16.49-5.37,22.95.9,0,0,0,0,0,0,6.46,6.27,16.49,6.64,22.95.84,0,0,0,0,0,0,6.46-5.8,16.49-5.46,22.95.78,0,0,0,0,0,0,6.46,6.24,16.49,6.55,22.95.72,0,0,0,0,0,0,6.46-5.83,16.49-5.55,22.95.65,0,0,0,0,0,0,6.46,6.2,16.5,6.46,22.96.59,0,0,0,0,0,0,6.46-5.87,16.5-5.64,22.96.53,0,0,0,0,0,0,6.46,6.17,16.5,6.37,22.96.47,0,0,0,0,0,0,6.46-5.9,16.5-5.73,22.96.41,0,0,0,0,0,0,6.46,6.13,16.5,6.28,22.96.34,0,0,0,0,0,0,6.46-5.94,16.5-5.81,22.96.28,0,0,0,0,.01.01,6.46,6.1,16.5,6.19,22.96.22,0,0,0,0,.01-.01,6.46-5.97,16.5-5.9,22.96.16,0,0,0,0,.01.01,6.46,6.06,16.5,6.1,22.96.09,0,0,0,0,.01-.01,6.46-6.01,16.5-5.99,22.96.03,0,0,.01,0,.02.02"/><path class="cls-1" d="m1192.69,90.99c6.46,6.03,16.5,6.01,22.96-.03h0c6.46-6.04,16.5-6.09,22.96-.09,0,0,0,0,0,0,6.46,5.99,16.5,5.92,22.96-.15,0,0,0,0,0,0,6.46-6.08,16.5-6.17,22.96-.22h0c6.46,5.96,16.5,5.84,22.96-.28,0,0,0,0,0,0,6.46-6.11,16.5-6.26,22.96-.34,0,0,0,0,0,0,6.46,5.92,16.5,5.74,22.96-.4,0,0,0,0,0,0,6.46-6.15,16.5-6.35,22.96-.47,0,0,0,0,0,0,6.46,5.89,16.5,5.66,22.96-.53,0,0,0,0,0,0,6.46-6.18,16.5-6.44,22.96-.59,0,0,0,0,0,0,6.46,5.85,16.49,5.57,22.95-.65,0,0,0,0,0,0,6.46-6.22,16.49-6.53,22.95-.72,0,0,0,0,0,0,6.46,5.82,16.49,5.48,22.95-.78,0,0,0,0,0,0,6.46-6.25,16.49-6.62,22.95-.84,0,0,0,0,0,0,6.46,5.78,16.49,5.39,22.95-.9,0,0,0,0,0,0,6.46-6.29,16.49-6.71,22.95-.96,0,0,0,0,0,0,6.46,5.75,16.49,5.3,22.94-1.03,0,0,0,0,0,0,6.46-6.32,16.49-6.8,22.94-1.09,0,0,0,0,0,0,6.46,5.71,16.48,5.21,22.94-1.15,0,0,0,0,0,0,6.46-6.36,16.48-6.89,22.94-1.21,0,0,0,0,0,0,6.45,5.68,16.48,5.12,22.93-1.28,0,0,0,0,0,0,6.45-6.39,16.48-6.98,22.93-1.34,0,0,0,0,.01,0,6.45,5.64,16.48,5.03,22.93-1.4,0,0,0,0,.01-.01,6.45-6.43,16.47-7.07,22.92-1.46,0,0,0,0,.01.01,6.45,5.6,16.47,4.94,22.92-1.52,0,0,0,0,.01-.01,6.45-6.46,16.47-7.16,22.92-1.59,0,0,.01,0,.02.01"/><path class="cls-1" d="m1789.41,69.96c6.45,5.57,16.47,4.85,22.92-1.65h0c6.45-6.5,16.47-7.25,22.92-1.71,0,0,0,0,0,0,6.45,5.54,16.46,4.76,22.91-1.77,0,0,0,0,0,0,6.45-6.53,16.46-7.34,22.91-1.84h0c6.45,5.5,16.46,4.67,22.9-1.9h0c6.44-6.57,16.46-7.43,22.9-1.96,0,0,0,0,0,0,6.44,5.47,16.45,4.58,22.89-2.02,0,0,0,0,0,0,6.44-6.6,16.45-7.52,22.89-2.09,0,0,0,0,0,0,6.44,5.43,16.45,4.49,22.89-2.15,0,0,0,0,0,0,6.44-6.64,16.44-7.61,22.88-2.21,0,0,0,0,0,0,6.44,5.4,16.44,4.4,22.88-2.27,0,0,0,0,0,0,6.44-6.67,16.44-7.69,22.87-2.34,0,0,0,0,0,0,6.44,5.36,16.43,4.31,22.87-2.4,0,0,0,0,0,0,6.43-6.71,16.43-7.78,22.86-2.46,0,0,0,0,0,0,6.43,5.32,16.43,4.22,22.86-2.52,0,0,0,0,0,0,6.43-6.74,16.42-7.87,22.85-2.58,0,0,0,0,0,0,6.43,5.29,16.42,4.13,22.85-2.65,0,0,0,0,0,0,6.43-6.78,16.41-7.96,22.84-2.71,0,0,0,0,0,0,6.43,5.25,16.41,4.04,22.84-2.77,0,0,0,0,0,0,6.43-6.81,16.41-8.05,22.83-2.83,0,0,0,0,0,0,6.42,5.22,16.4,3.95,22.82-2.9,0,0,0,0,0,0,6.42-6.85,16.4-8.14,22.82-2.96,0,0,0,0,.01,0,6.42,5.18,16.39,3.86,22.81-3.02,0,0,0,0,.01-.01,6.42-6.88,16.39-8.23,22.8-3.08,0,0,0,0,.01,0,6.42,5.15,16.38,3.77,22.8-3.14,0,0,0,0,.01-.01,6.41-6.92,16.38-8.32,22.79-3.21,0,0,.01,0,.02.01"/><path class="cls-3" d="m2159.41,539.49c-21.43-49.73-47.21-98.03-57.95-150.79-6.45-31.66-12.04-64.76-14.62-96.88-2.41-29.99-.43-60.79.87-91.26.1-2.26-.19-5.08-2.31-5.63-5.58-1.43-12.39,15.03-14.3,18.65-13.7,26-20.83,53.01-19.11,82.26.38,6.4,2.16,13,3.89,19.14,5.37,19,12.25,37.81,19.41,56.3,8.96,23.11,18.56,46.18,28.36,68.98,9.52,22.15,19.34,44.3,29.29,66.28,7.3,16.12,14.72,32.25,22.2,48.3,1.97,4.22,3.95,8.44,5.94,12.66.24.51.84,2.65,1.41,2.87,4.61,1.75,1.03-11.18.73-12.74-1.17-6.09-2.46-12.14-3.81-18.16Z"/><path class="cls-3" d="m2225.89,532.43c21.21-54.36,46.87-107.58,57.87-164.56,6.35-32.88,11.98-67.1,14.59-100.35,2.36-29.95.44-60.65-.87-91.05-.1-2.24.19-5.13,2.31-6.17,5.57-2.75,12.38,12.11,14.26,15.25,14.47,24.1,20.68,49.69,19.06,77.72-.38,6.54-2.15,13.51-3.88,20.07-5.41,20.49-12.26,40.85-19.36,60.92-8.97,25.33-18.54,50.64-28.3,75.72-9.52,24.46-19.32,48.93-29.24,73.24-7.3,17.88-14.71,35.76-22.18,53.58-1.97,4.69-3.95,9.38-5.93,14.07-.24.57-.83,2.85-1.41,3.2-4.61,2.85-1.03-10.93-.72-12.57,1.17-6.36,2.45-12.72,3.81-19.07Z"/><path class="cls-2" d="m2195.19,238.22c0,107.59,0,215.17,0,322.76"/><path class="cls-3" d="m2201.85,281.28c7.22-5.17,16.82-6.97,25.84-8.19,3.06-.41,6.17-.79,9.09-.43,2.92.36,5.66,1.58,6.79,3.7,1.1,2.06.45,4.82-1.6,6.78s-5.38,3.03-8.18,2.61c-4.95-.73-7.07-5.29-11.67-6.72-2.68-.83-5.97-.48-8.91.55-2.94,1.03-5.57,2.68-7.98,4.46-1.11.82-2.28,1.72-3.68,1.99-4.83.91-1.4-3.53.3-4.75Z"/><path class="cls-3" d="m2188.56,282.87c-7.22-3.45-16.83-2.96-25.85-2.03-3.06.31-6.17.68-9.09,1.74-2.92,1.06-5.66,2.93-6.79,5.31-1.1,2.32-.45,4.92,1.6,6.4,2.05,1.48,5.38,1.75,8.19.66,4.96-1.91,7.08-6.98,11.68-9.5,2.68-1.47,5.98-1.9,8.91-1.58,2.94.33,5.57,1.35,7.98,2.56,1.11.56,2.28,1.18,3.68,1.11,4.83-.24,1.4-3.86-.3-4.68Z"/><path class="cls-3" d="m2201.85,307.36c7.22-5.17,16.82-6.97,25.84-8.19,3.06-.41,6.17-.79,9.09-.43,2.92.36,5.66,1.58,6.79,3.7,1.1,2.06.45,4.82-1.6,6.78s-5.38,3.03-8.18,2.61c-4.95-.73-7.07-5.29-11.67-6.72-2.68-.83-5.97-.48-8.91.55-2.94,1.03-5.57,2.68-7.98,4.46-1.11.82-2.28,1.72-3.68,1.99-4.83.91-1.4-3.53.3-4.75Z"/><path class="cls-3" d="m2188.56,308.94c-7.22-3.45-16.83-2.96-25.85-2.03-3.06.31-6.17.68-9.09,1.74-2.92,1.06-5.66,2.93-6.79,5.31-1.1,2.32-.45,4.92,1.6,6.4,2.05,1.48,5.38,1.75,8.19.66,4.96-1.91,7.08-6.98,11.68-9.5,2.68-1.47,5.98-1.9,8.91-1.58s5.57,1.35,7.98,2.56c1.11.56,2.28,1.18,3.68,1.11,4.83-.24,1.4-3.86-.3-4.68Z"/><path class="cls-3" d="m2201.85,332.3c7.22-5.17,16.82-6.97,25.84-8.19,3.06-.41,6.17-.79,9.09-.43s5.66,1.58,6.79,3.7c1.1,2.06.45,4.82-1.6,6.78-2.04,1.97-5.38,3.03-8.18,2.61-4.95-.73-7.07-5.29-11.67-6.72-2.68-.83-5.97-.48-8.91.55-2.94,1.03-5.57,2.68-7.98,4.46-1.11.82-2.28,1.72-3.68,1.99-4.83.91-1.4-3.53.3-4.75Z"/><path class="cls-3" d="m2188.56,333.89c-7.22-3.45-16.83-2.96-25.85-2.03-3.06.31-6.17.68-9.09,1.74-2.92,1.06-5.66,2.93-6.79,5.31-1.1,2.32-.45,4.92,1.6,6.4,2.05,1.48,5.38,1.75,8.19.66,4.96-1.91,7.08-6.98,11.68-9.5,2.68-1.47,5.98-1.9,8.91-1.58,2.94.33,5.57,1.35,7.98,2.56,1.11.56,2.28,1.18,3.68,1.11,4.83-.24,1.4-3.86-.3-4.68Z"/><path class="cls-3" d="m2201.85,359.14c7.22-5.17,16.82-6.97,25.84-8.19,3.06-.41,6.17-.79,9.09-.43s5.66,1.58,6.79,3.7c1.1,2.06.45,4.82-1.6,6.78s-5.38,3.03-8.18,2.61c-4.95-.73-7.07-5.29-11.67-6.72-2.68-.83-5.97-.48-8.91.55-2.94,1.03-5.57,2.68-7.98,4.46-1.11.82-2.28,1.72-3.68,1.99-4.83.91-1.4-3.53.3-4.75Z"/><path class="cls-3" d="m2188.56,360.72c-7.22-3.45-16.83-2.96-25.86-2.03-3.06.31-6.17.68-9.09,1.74-2.92,1.06-5.66,2.93-6.79,5.31-1.1,2.32-.45,4.92,1.6,6.4,2.05,1.48,5.38,1.75,8.19.66,4.96-1.91,7.08-6.98,11.68-9.5,2.68-1.47,5.98-1.9,8.91-1.58,2.94.33,5.57,1.35,7.98,2.56,1.11.56,2.28,1.18,3.68,1.11,4.83-.24,1.4-3.86-.3-4.68Z"/><path class="cls-3" d="m2201.85,385.22c7.22-5.17,16.82-6.97,25.84-8.19,3.06-.41,6.17-.79,9.09-.43,2.92.36,5.66,1.58,6.79,3.7,1.1,2.06.45,4.82-1.6,6.78-2.05,1.96-5.38,3.03-8.18,2.61-4.95-.73-7.07-5.29-11.67-6.72-2.68-.83-5.97-.48-8.91.55-2.94,1.03-5.57,2.68-7.98,4.46-1.11.82-2.28,1.72-3.68,1.99-4.83.91-1.4-3.53.3-4.75Z"/><path class="cls-3" d="m2188.56,386.8c-7.22-3.45-16.83-2.96-25.86-2.03-3.06.31-6.17.68-9.09,1.74-2.92,1.06-5.66,2.93-6.79,5.31-1.1,2.32-.45,4.92,1.6,6.4,2.05,1.48,5.38,1.75,8.19.66,4.96-1.91,7.08-6.98,11.68-9.5,2.69-1.47,5.98-1.9,8.91-1.58,2.94.33,5.57,1.35,7.98,2.56,1.11.56,2.28,1.18,3.68,1.11,4.83-.24,1.4-3.86-.3-4.68Z"/><path class="cls-3" d="m2201.85,410.16c7.22-5.17,16.82-6.97,25.84-8.19,3.06-.41,6.17-.79,9.09-.43,2.92.36,5.66,1.58,6.79,3.7,1.1,2.06.45,4.82-1.6,6.78-2.05,1.96-5.38,3.03-8.18,2.61-4.95-.73-7.07-5.29-11.67-6.72-2.68-.83-5.97-.48-8.91.55s-5.57,2.68-7.98,4.46c-1.11.82-2.28,1.72-3.68,1.99-4.83.91-1.4-3.53.3-4.75Z"/><path class="cls-3" d="m2188.56,411.75c-7.22-3.45-16.83-2.96-25.86-2.03-3.06.31-6.17.68-9.09,1.74s-5.66,2.93-6.79,5.31c-1.1,2.32-.45,4.92,1.6,6.4s5.38,1.75,8.19.66c4.96-1.91,7.08-6.98,11.68-9.5,2.69-1.47,5.98-1.91,8.91-1.58,2.94.33,5.57,1.35,7.98,2.56,1.11.56,2.28,1.18,3.68,1.11,4.83-.24,1.4-3.86-.3-4.68Z"/><path class="cls-3" d="m2201.85,430.95c7.22-5.17,16.82-6.97,25.84-8.19,3.06-.41,6.17-.79,9.09-.43,2.92.36,5.66,1.58,6.79,3.7,1.1,2.06.45,4.82-1.6,6.78s-5.38,3.03-8.18,2.61c-4.95-.73-7.07-5.29-11.67-6.72-2.68-.83-5.97-.48-8.91.55-2.94,1.03-5.57,2.68-7.98,4.46-1.11.82-2.28,1.72-3.68,1.99-4.83.91-1.4-3.53.3-4.75Z"/><path class="cls-3" d="m2188.56,432.53c-7.22-3.45-16.83-2.96-25.85-2.03-3.06.31-6.17.68-9.09,1.74-2.92,1.06-5.66,2.93-6.79,5.31-1.1,2.32-.45,4.92,1.6,6.4,2.05,1.48,5.38,1.75,8.19.66,4.96-1.91,7.08-6.98,11.68-9.5,2.69-1.47,5.98-1.9,8.91-1.58,2.94.33,5.57,1.35,7.98,2.56,1.11.56,2.28,1.18,3.68,1.11,4.83-.24,1.4-3.86-.3-4.68Z"/><path class="cls-3" d="m2201.85,457.03c7.22-5.17,16.82-6.97,25.84-8.19,3.06-.41,6.17-.79,9.09-.43,2.92.36,5.66,1.58,6.79,3.7,1.1,2.06.45,4.82-1.6,6.78-2.04,1.96-5.38,3.03-8.18,2.61-4.95-.73-7.07-5.29-11.67-6.72-2.68-.83-5.97-.48-8.91.55-2.94,1.03-5.57,2.68-7.98,4.46-1.11.82-2.28,1.72-3.68,1.99-4.83.91-1.4-3.53.3-4.75Z"/><path class="cls-3" d="m2188.56,458.61c-7.22-3.45-16.83-2.96-25.85-2.03-3.06.31-6.17.68-9.09,1.74-2.92,1.06-5.66,2.93-6.79,5.31-1.1,2.32-.45,4.92,1.6,6.4,2.05,1.48,5.38,1.75,8.19.66,4.96-1.91,7.08-6.98,11.68-9.5,2.68-1.47,5.98-1.9,8.91-1.58,2.94.33,5.57,1.35,7.98,2.56,1.11.56,2.28,1.18,3.68,1.11,4.83-.24,1.4-3.86-.3-4.68Z"/><path class="cls-3" d="m2201.85,481.97c7.22-5.17,16.82-6.97,25.84-8.19,3.06-.41,6.17-.79,9.09-.43,2.92.36,5.66,1.58,6.79,3.7,1.1,2.06.45,4.82-1.6,6.78-2.05,1.96-5.38,3.03-8.18,2.61-4.95-.73-7.07-5.29-11.67-6.72-2.68-.83-5.97-.48-8.91.55-2.94,1.03-5.57,2.68-7.98,4.46-1.11.82-2.28,1.72-3.68,1.99-4.83.91-1.4-3.53.3-4.75Z"/><path class="cls-3" d="m2188.56,483.56c-7.22-3.45-16.83-2.96-25.86-2.03-3.06.31-6.17.68-9.09,1.74-2.92,1.06-5.66,2.93-6.79,5.31-1.1,2.32-.45,4.92,1.6,6.4,2.05,1.48,5.38,1.75,8.19.66,4.96-1.91,7.08-6.98,11.68-9.5,2.68-1.47,5.98-1.9,8.91-1.58,2.94.33,5.57,1.35,7.98,2.56,1.11.56,2.28,1.18,3.68,1.11,4.83-.24,1.4-3.86-.3-4.68Z"/><path class="cls-1" d="m2195.19,111.59c0,42.21,0,84.42,0,126.63"/><path class="cls-1" d="m1953.45,151.7c.13-1.03.3-2.06.51-3.08,2.92-13.87,17.39-.93,22.44,4.02,20.57,20.14,33.25,59.52,4.51,78.91-10.67,7.39-21.35,14.76-32.04,22.12-1.68,1.16-2.52,1.74-4.21,2.9-6.04,4.16-12.66,6.01-18.99,5.88t-.02,0"/><path class="cls-1" d="m1898.02,158.17h0c-.17-1.57-.31-3.24-.71-4.62-3.59-12.52-17.69,2.33-22.45,7.91-16.02,18.8-37.57,64.79-4.5,79.69,12.08,6.26,24.16,12.5,36.26,18.72,1.64.84,3.32,1.51,5.03,2,.01,0,.02,0,.03,0,4.59,1.34,9.36,1.47,13.97.57t.02,0"/><path class="cls-1" d="m1965.84,158.3c-12.93-6.89-25.86-13.79-38.78-20.72-12.91,9.18-25.84,18.33-38.79,27.47-17.83,12.61-24.8,38.76-10.93,56.92,8.27,10.72,16.55,21.43,24.84,32.14,13.14,16.86,38.63,11.98,49.75-4.33,8.28-12.15,16.55-24.31,24.82-36.47,12.18-17.84,9.23-44.26-10.92-55.02Z"/><path class="cls-2" d="m1926.87,265.88c0,107.59,0,215.17,0,322.76"/><path class="cls-3" d="m1933.54,309.15c7.24-4.94,16.86-6.43,25.91-7.37,3.06-.32,6.18-.59,9.11-.14,2.92.46,5.67,1.76,6.8,3.91,1.1,2.09.45,4.83-1.6,6.73-2.05,1.9-5.39,2.86-8.2,2.35-4.96-.89-7.09-5.52-11.7-7.09-2.69-.92-5.99-.67-8.93.26-2.94.93-5.58,2.5-8,4.21-1.11.79-2.29,1.65-3.69,1.87-4.84.75-1.41-3.57.3-4.74Z"/><path class="cls-3" d="m1920.22,310.31c-7.24-3.68-16.87-3.5-25.92-2.86-3.07.22-6.19.48-9.11,1.45-2.93.97-5.67,2.75-6.81,5.1-1.1,2.28-.45,4.91,1.6,6.45,2.05,1.54,5.39,1.92,8.21.92,4.97-1.76,7.09-6.75,11.7-9.13,2.69-1.39,5.99-1.71,8.94-1.29s5.58,1.53,8,2.82c1.11.59,2.29,1.25,3.69,1.23,4.85-.09,1.41-3.82-.3-4.69Z"/><path class="cls-3" d="m1933.54,335.23c7.24-4.94,16.86-6.43,25.91-7.37,3.06-.32,6.18-.59,9.11-.14,2.92.46,5.67,1.76,6.8,3.91,1.1,2.09.45,4.83-1.6,6.73-2.05,1.9-5.39,2.86-8.2,2.35-4.96-.89-7.09-5.52-11.7-7.09-2.69-.92-5.99-.67-8.93.26-2.94.93-5.58,2.5-8,4.21-1.11.79-2.29,1.65-3.69,1.87-4.84.75-1.41-3.57.3-4.74Z"/><path class="cls-3" d="m1920.22,336.39c-7.24-3.68-16.87-3.5-25.92-2.86-3.07.22-6.19.48-9.11,1.45-2.93.97-5.67,2.75-6.81,5.1-1.1,2.28-.45,4.91,1.6,6.45,2.05,1.54,5.39,1.92,8.21.92,4.97-1.76,7.09-6.75,11.7-9.13,2.69-1.39,5.99-1.71,8.94-1.29,2.94.42,5.58,1.53,8,2.82,1.11.59,2.29,1.25,3.69,1.23,4.85-.09,1.41-3.82-.3-4.69Z"/><path class="cls-3" d="m1933.54,360.18c7.24-4.94,16.86-6.43,25.91-7.37,3.06-.32,6.18-.59,9.11-.14,2.92.46,5.67,1.76,6.8,3.91,1.1,2.09.45,4.83-1.6,6.73-2.05,1.9-5.39,2.86-8.2,2.35-4.96-.89-7.09-5.52-11.7-7.09-2.69-.92-5.99-.67-8.93.26-2.94.93-5.58,2.5-8,4.21-1.11.79-2.29,1.65-3.69,1.87-4.84.75-1.41-3.57.3-4.74Z"/><path class="cls-3" d="m1920.22,361.34c-7.24-3.68-16.87-3.5-25.92-2.86-3.07.22-6.19.48-9.11,1.45-2.93.97-5.67,2.75-6.81,5.1-1.1,2.28-.45,4.91,1.6,6.45,2.05,1.54,5.39,1.92,8.21.92,4.97-1.76,7.09-6.75,11.7-9.13,2.69-1.39,5.99-1.71,8.94-1.29,2.94.42,5.58,1.53,8,2.82,1.11.59,2.29,1.25,3.69,1.23,4.85-.09,1.41-3.82-.3-4.69Z"/><path class="cls-3" d="m1933.54,387.01c7.24-4.94,16.86-6.43,25.91-7.37,3.06-.32,6.18-.59,9.11-.14,2.92.46,5.67,1.76,6.8,3.91,1.1,2.09.45,4.83-1.6,6.73-2.05,1.9-5.39,2.86-8.2,2.35-4.96-.89-7.09-5.52-11.7-7.09-2.69-.92-5.99-.67-8.93.26-2.94.93-5.58,2.5-8,4.21-1.11.79-2.29,1.65-3.69,1.87-4.84.75-1.41-3.57.3-4.74Z"/><path class="cls-3" d="m1920.22,388.17c-7.24-3.68-16.87-3.5-25.92-2.86-3.07.22-6.19.48-9.11,1.45-2.93.97-5.67,2.75-6.81,5.1-1.1,2.28-.45,4.91,1.6,6.45,2.05,1.54,5.39,1.92,8.21.92,4.97-1.76,7.09-6.75,11.7-9.13,2.69-1.39,5.99-1.71,8.94-1.29s5.58,1.53,8,2.82c1.11.59,2.29,1.25,3.69,1.23,4.85-.09,1.41-3.82-.3-4.69Z"/><path class="cls-3" d="m1933.54,413.09c7.24-4.94,16.86-6.43,25.91-7.37,3.06-.32,6.18-.59,9.11-.14,2.92.46,5.67,1.76,6.8,3.91,1.1,2.09.45,4.83-1.6,6.73-2.05,1.9-5.39,2.86-8.2,2.35-4.96-.89-7.09-5.52-11.7-7.09-2.69-.92-5.99-.67-8.93.26-2.94.93-5.58,2.5-8,4.21-1.11.79-2.29,1.65-3.69,1.87-4.84.75-1.41-3.57.3-4.74Z"/><path class="cls-3" d="m1920.22,414.25c-7.24-3.68-16.87-3.5-25.92-2.86-3.07.22-6.19.48-9.11,1.45-2.93.97-5.67,2.75-6.81,5.1-1.1,2.28-.45,4.91,1.6,6.45,2.05,1.54,5.39,1.92,8.21.92,4.97-1.76,7.09-6.75,11.7-9.13,2.69-1.39,5.99-1.71,8.94-1.29,2.94.42,5.58,1.53,8,2.82,1.11.59,2.29,1.25,3.69,1.23,4.85-.09,1.41-3.82-.3-4.69Z"/><path class="cls-3" d="m1933.54,438.03c7.24-4.94,16.86-6.43,25.91-7.37,3.06-.32,6.18-.59,9.11-.14,2.92.46,5.67,1.76,6.8,3.91,1.1,2.09.45,4.83-1.6,6.73-2.05,1.9-5.39,2.86-8.2,2.35-4.96-.89-7.09-5.52-11.7-7.09-2.69-.92-5.99-.67-8.93.26-2.94.93-5.58,2.5-8,4.21-1.11.79-2.29,1.65-3.69,1.87-4.84.75-1.41-3.57.3-4.74Z"/><path class="cls-3" d="m1920.22,439.19c-7.24-3.68-16.87-3.5-25.92-2.86-3.07.22-6.19.48-9.11,1.45-2.93.97-5.67,2.75-6.81,5.1-1.1,2.28-.45,4.91,1.6,6.45,2.05,1.54,5.39,1.92,8.21.92,4.97-1.76,7.09-6.75,11.7-9.13,2.69-1.39,5.99-1.71,8.94-1.29s5.58,1.53,8,2.82c1.11.59,2.29,1.25,3.69,1.23,4.85-.09,1.41-3.82-.3-4.69Z"/><path class="cls-3" d="m1933.54,458.82c7.24-4.94,16.86-6.43,25.91-7.37,3.06-.32,6.18-.59,9.11-.14,2.92.46,5.67,1.76,6.8,3.91,1.1,2.09.45,4.83-1.6,6.73-2.05,1.9-5.39,2.86-8.2,2.35-4.96-.89-7.09-5.52-11.7-7.09-2.69-.92-5.99-.67-8.93.26-2.94.93-5.58,2.5-8,4.21-1.11.79-2.29,1.65-3.69,1.87-4.84.75-1.41-3.57.3-4.74Z"/><path class="cls-3" d="m1920.22,459.98c-7.24-3.68-16.87-3.5-25.92-2.86-3.07.22-6.19.48-9.11,1.45-2.93.97-5.67,2.75-6.81,5.1-1.1,2.28-.45,4.91,1.6,6.45s5.39,1.92,8.21.92c4.97-1.76,7.09-6.75,11.7-9.13,2.69-1.39,5.99-1.71,8.94-1.29,2.94.42,5.58,1.53,8,2.82,1.11.59,2.29,1.25,3.69,1.23,4.85-.09,1.41-3.82-.3-4.69Z"/><path class="cls-3" d="m1933.54,484.9c7.24-4.94,16.86-6.43,25.91-7.37,3.06-.32,6.18-.59,9.11-.14,2.92.46,5.67,1.76,6.8,3.91,1.1,2.09.45,4.83-1.6,6.73-2.05,1.9-5.39,2.86-8.2,2.35-4.96-.89-7.09-5.52-11.7-7.09-2.69-.92-5.99-.67-8.93.26-2.94.93-5.58,2.5-8,4.21-1.11.79-2.29,1.65-3.69,1.87-4.84.75-1.41-3.57.3-4.74Z"/><path class="cls-3" d="m1920.22,486.06c-7.24-3.68-16.87-3.5-25.92-2.86-3.07.22-6.19.48-9.11,1.45-2.93.97-5.67,2.75-6.81,5.1-1.1,2.28-.45,4.91,1.6,6.45,2.05,1.54,5.39,1.92,8.21.92,4.97-1.76,7.09-6.75,11.7-9.13,2.69-1.39,5.99-1.71,8.94-1.29,2.94.42,5.58,1.53,8,2.82,1.11.59,2.29,1.25,3.69,1.23,4.85-.09,1.41-3.82-.3-4.69Z"/><path class="cls-3" d="m1933.54,509.85c7.24-4.94,16.86-6.43,25.91-7.37,3.06-.32,6.18-.59,9.11-.14,2.92.46,5.67,1.76,6.8,3.91,1.1,2.09.45,4.83-1.6,6.73s-5.39,2.86-8.2,2.35c-4.96-.89-7.09-5.52-11.7-7.09-2.69-.92-5.99-.67-8.93.26-2.94.93-5.58,2.5-8,4.21-1.11.79-2.29,1.65-3.69,1.87-4.84.75-1.41-3.57.3-4.74Z"/><path class="cls-3" d="m1920.22,511c-7.24-3.68-16.87-3.5-25.92-2.86-3.07.22-6.19.48-9.11,1.45-2.93.97-5.67,2.75-6.81,5.1-1.1,2.28-.45,4.91,1.6,6.45,2.05,1.54,5.39,1.92,8.21.92,4.97-1.76,7.09-6.75,11.7-9.13,2.69-1.39,5.99-1.71,8.94-1.29,2.94.42,5.58,1.53,8,2.82,1.11.59,2.29,1.25,3.69,1.23,4.85-.09,1.41-3.82-.3-4.69Z"/><path class="cls-1" d="m1926.87,139.25v126.63"/><path class="cls-1" d="m2221.28,123.59c.13-1.04.3-2.07.51-3.09,2.86-13.86,17.13-1.69,22.38,3.3,21.2,20.14,32.52,58.91,4.49,78.77-10.64,7.73-21.29,15.44-31.96,23.14-1.68,1.21-2.52,1.82-4.2,3.03-6.02,4.35-12.63,6.42-18.95,6.49t-.02,0"/><path class="cls-1" d="m2165.99,131.82h0c-.17-1.56-.31-3.24-.71-4.6-3.64-12.35-17.77,3.04-22.4,8.63-15.31,18.49-38.05,65.75-4.49,79.84,12.05,5.88,24.11,11.73,36.17,17.57,1.64.79,3.31,1.4,5.02,1.84.01,0,.02,0,.03,0,4.58,1.19,9.34,1.17,13.93.12t.02,0"/><path class="cls-1" d="m2233.64,129.79c-12.9-6.48-25.79-12.97-38.68-19.48-12.88,9.59-25.78,19.15-38.69,28.7-17.38,12.88-25.03,39.11-10.9,57.27,8.25,10.46,16.51,20.91,24.78,31.35,13.48,16.88,38.9,10.22,49.63-5.91,8.26-12.42,16.51-24.84,24.76-37.26,11.82-17.71,9.65-44.33-10.89-54.67Z"/></g></svg>