<?xml version="1.0" encoding="UTF-8"?><svg id="Layer_2" xmlns="http://www.w3.org/2000/svg" width="2741.54" height="1153.4" viewBox="0 0 2741.54 1153.4"><defs><style>.cls-1{fill:#00593b;stroke:#5b1627;}.cls-1,.cls-2{stroke-miterlimit:10;stroke-width:8px;}.cls-3{fill:#5b1627;stroke-width:0px;}.cls-2{fill:none;stroke:#00593b;}</style></defs><g id="Layer_1-2"><path class="cls-2" d="m310.52,304.59c6.03,10.2,15.44,16.69,21.52,14.83h0c6.08-1.86,15.56,4.48,21.69,14.49,0,0,0,0,0,0,6.12,10.01,15.68,16.2,21.84,14.15,0,0,0,0,0,0,6.17-2.05,15.79,3.99,22,13.81h0c6.21,9.83,15.9,15.72,22.15,13.48,0,0,0,0,0,0,6.25-2.24,16,3.5,22.3,13.14,0,0,0,0,0,0,6.3,9.64,16.11,15.23,22.44,12.8,0,0,0,0,0,0,6.34-2.44,16.21,3.01,22.58,12.46,0,0,0,0,0,0,6.38,9.45,16.31,14.75,22.72,12.12,0,0,0,0,0,0,6.41-2.63,16.4,2.52,22.85,11.78,0,0,0,0,0,0,6.45,9.26,16.5,14.26,22.98,11.44h0c6.49-2.82,16.59,2.03,23.11,11.1,0,0,0,0,0,.01,6.52,9.07,16.68,13.78,23.23,10.76,0,0,0,0,0,0,6.55-3.01,16.76,1.54,23.35,10.43,0,0,0,0,0,0,6.59,8.88,16.84,13.29,23.46,10.09,0,0,0,0,0,0,6.62-3.21,16.92,1.06,23.57,9.75,0,0,0,0,0,0,6.65,8.69,17,12.81,23.68,9.41,0,0,0,0,0,0,6.68-3.4,17.08.57,23.78,9.07,0,0,0,0,0,0,6.71,8.5,17.15,12.32,23.88,8.73,0,0,0,0,0,0,6.73-3.59,17.22.08,23.98,8.39,0,0,0,0,0,0,6.76,8.32,17.28,11.84,24.07,8.05,0,0,0,0,0,0,6.79-3.78,17.35-.41,24.16,7.71h.01c6.81,8.14,17.41,11.36,24.24,7.39,0,0,0,0,.01,0,6.83-3.98,17.46-.9,24.32,7.04,0,0,0,0,.01.01,6.86,7.94,17.52,10.87,24.4,6.7,0,0,0,0,.01,0,6.88-4.17,17.57-1.39,24.47,6.36,0,0,.01.01.02.02"/><path class="cls-3" d="m676.27,984.86c-21.77-60.06-47.99-119.35-59.6-181.88-6.38-34.39-12.19-70-14.92-104.67-2.33-29.73-.47-60.12.89-90.28.1-2.2-.19-5.16-2.35-6.91-5.68-4.6-12.5,7.87-14.53,10.33-16.7,20.25-20.78,45.85-19.35,70.66.38,6.69,2.19,14.2,3.94,21.33,5.55,22.61,12.49,45.08,19.68,67.31,9.16,28.36,18.92,56.69,28.91,84.8,9.76,27.46,19.82,54.93,30.04,82.23,7.52,20.06,15.17,40.13,22.9,60.12,2.03,5.26,4.08,10.52,6.14,15.78.25.64.86,3.08,1.46,3.61,4.79,4.21,1.06-10.58.75-12.3-1.21-6.68-2.54-13.39-3.95-20.11Z"/><path class="cls-3" d="m745.52,1012.23c22.9-44.68,49.91-87.22,60.99-135.89,6.9-30.32,12.75-62.28,15.47-93.2,2.62-29.86.44-60.7-.92-91.11-.1-2.28.2-5.02,2.45-5.09,5.91-.19,13.12,17.65,15.16,21.68,13.33,26.28,23.01,55.68,20.32,85.96-.57,6.41-2.3,12.51-4.14,18.28-5.66,17.64-12.91,34.98-20.63,52-9.52,20.98-19.62,41.83-30.03,62.36-10.01,19.74-20.38,39.48-30.88,58.98-7.64,14.19-15.45,28.37-23.31,42.45-2.06,3.69-4.14,7.38-6.22,11.05-.25.45-.88,2.42-1.48,2.48-4.84.52-1.07-11.4-.76-12.88,1.22-5.75,2.57-11.43,3.99-17.08Z"/><path class="cls-1" d="m713.43,703.73v321.32"/><path class="cls-3" d="m720.38,750.01c7.54-1.46,17.58,1.6,27.04,4.86,3.2,1.11,6.47,2.27,9.54,4.07,3.06,1.8,5.94,4.35,7.13,7.01,1.15,2.58.47,5.02-1.68,5.97s-5.65.38-8.6-1.42c-5.2-3.18-7.42-8.77-12.24-12.49-2.81-2.17-6.25-3.47-9.33-3.93-3.07-.46-5.82-.15-8.34.4-1.16.25-2.38.55-3.84.1-5.04-1.56-1.46-4.23.32-4.57Z"/><path class="cls-3" d="m706.52,744.76c-7.21-6.87-17.81-12.02-26.84-15.58-3.13-1.24-6.39-2.61-9.41-3.12-3.02-.51-5.85-.13-7.02,1.64-1.13,1.71-.46,4.66,1.65,7.23,2.11,2.57,5.56,4.63,8.46,5.05,5.13.74,7.32-3.17,12.09-3.25,2.78-.05,6.2,1.25,9.25,3.12,3.05,1.86,5.79,4.25,8.29,6.71,1.16,1.13,2.37,2.36,3.83,3.01,5.03,2.26,1.46-3.12-.32-4.81Z"/><path class="cls-3" d="m720.38,775.98c7.54-1.46,17.58,1.6,27.04,4.87,3.2,1.11,6.47,2.27,9.54,4.07s5.94,4.35,7.13,7.01c1.15,2.58.47,5.02-1.68,5.97-2.15.96-5.65.38-8.6-1.42-5.2-3.18-7.42-8.77-12.24-12.49-2.81-2.17-6.25-3.47-9.33-3.93-3.07-.46-5.82-.15-8.34.4-1.16.25-2.38.55-3.84.1-5.04-1.56-1.46-4.23.32-4.57Z"/><path class="cls-3" d="m706.52,770.72c-7.21-6.87-17.81-12.02-26.84-15.58-3.13-1.24-6.39-2.61-9.41-3.12-3.02-.51-5.85-.13-7.02,1.64-1.13,1.71-.46,4.66,1.65,7.23,2.11,2.57,5.56,4.63,8.46,5.06,5.13.74,7.32-3.17,12.09-3.25,2.78-.05,6.2,1.25,9.25,3.12s5.79,4.26,8.29,6.71c1.16,1.13,2.37,2.36,3.83,3.01,5.03,2.26,1.46-3.12-.32-4.81Z"/><path class="cls-3" d="m720.38,800.81c7.54-1.46,17.58,1.6,27.04,4.87,3.2,1.11,6.47,2.27,9.54,4.07s5.94,4.35,7.13,7.01c1.15,2.58.47,5.02-1.68,5.97s-5.65.38-8.6-1.42c-5.2-3.18-7.42-8.77-12.24-12.49-2.81-2.17-6.25-3.47-9.33-3.93-3.07-.46-5.82-.15-8.34.4-1.16.25-2.38.55-3.84.1-5.04-1.57-1.46-4.23.32-4.57Z"/><path class="cls-3" d="m706.52,795.55c-7.21-6.87-17.81-12.02-26.84-15.59-3.13-1.24-6.39-2.61-9.41-3.12-3.02-.51-5.85-.13-7.02,1.63-1.13,1.71-.46,4.66,1.65,7.23s5.56,4.63,8.46,5.06c5.13.75,7.32-3.17,12.09-3.25,2.78-.05,6.2,1.26,9.25,3.12s5.79,4.26,8.29,6.71c1.16,1.13,2.37,2.36,3.83,3.01,5.03,2.26,1.46-3.12-.32-4.81Z"/><path class="cls-3" d="m720.38,827.53c7.54-1.46,17.58,1.61,27.04,4.88,3.2,1.11,6.47,2.27,9.54,4.07,3.06,1.8,5.94,4.35,7.13,7.01,1.15,2.58.47,5.02-1.68,5.97s-5.65.38-8.6-1.43c-5.2-3.18-7.42-8.78-12.24-12.5-2.81-2.17-6.25-3.48-9.33-3.94-3.07-.46-5.82-.15-8.34.4-1.16.25-2.38.55-3.84.1-5.04-1.57-1.46-4.23.32-4.57Z"/><path class="cls-3" d="m706.52,822.27c-7.21-6.87-17.81-12.03-26.84-15.59-3.13-1.24-6.39-2.61-9.41-3.12-3.02-.51-5.85-.13-7.02,1.63-1.13,1.71-.46,4.66,1.65,7.23,2.11,2.57,5.56,4.64,8.46,5.06,5.13.75,7.32-3.17,12.09-3.25,2.78-.05,6.2,1.26,9.25,3.12s5.79,4.26,8.29,6.72c1.16,1.13,2.37,2.36,3.83,3.01,5.03,2.26,1.46-3.12-.32-4.81Z"/><path class="cls-3" d="m720.38,853.49c7.54-1.45,17.58,1.61,27.04,4.88,3.2,1.11,6.47,2.28,9.54,4.08s5.94,4.35,7.13,7.01c1.15,2.58.47,5.02-1.68,5.97-2.15.95-5.65.37-8.6-1.43-5.2-3.18-7.42-8.78-12.24-12.5-2.81-2.17-6.25-3.48-9.33-3.94-3.07-.46-5.82-.15-8.34.4-1.16.25-2.38.55-3.84.1-5.04-1.57-1.46-4.23.32-4.57Z"/><path class="cls-3" d="m706.52,848.23c-7.21-6.87-17.81-12.03-26.84-15.6-3.13-1.24-6.39-2.61-9.41-3.13-3.02-.51-5.85-.13-7.02,1.63-1.13,1.71-.46,4.66,1.65,7.23s5.56,4.64,8.46,5.06c5.13.75,7.32-3.17,12.09-3.25,2.78-.05,6.2,1.26,9.25,3.12s5.79,4.26,8.29,6.72c1.16,1.13,2.37,2.36,3.83,3.02,5.03,2.26,1.46-3.12-.32-4.81Z"/><path class="cls-3" d="m720.38,878.33c7.54-1.45,17.58,1.61,27.04,4.89,3.2,1.11,6.47,2.28,9.54,4.08,3.06,1.8,5.94,4.35,7.13,7.01,1.15,2.58.47,5.02-1.68,5.97s-5.65.37-8.6-1.43c-5.2-3.18-7.42-8.78-12.24-12.5-2.81-2.17-6.25-3.48-9.33-3.94-3.07-.46-5.82-.15-8.34.4-1.16.25-2.38.55-3.84.1-5.04-1.57-1.46-4.23.32-4.57Z"/><path class="cls-3" d="m706.52,873.06c-7.21-6.87-17.81-12.03-26.84-15.6-3.13-1.24-6.39-2.61-9.41-3.13-3.02-.51-5.85-.13-7.02,1.63-1.13,1.71-.46,4.66,1.65,7.23,2.11,2.57,5.56,4.64,8.46,5.06,5.13.75,7.32-3.17,12.09-3.24,2.78-.04,6.2,1.26,9.25,3.13s5.79,4.26,8.29,6.72c1.16,1.13,2.37,2.36,3.83,3.02,5.03,2.26,1.46-3.12-.32-4.81Z"/><path class="cls-3" d="m720.38,899.02c7.54-1.45,17.58,1.62,27.04,4.89,3.2,1.11,6.47,2.28,9.54,4.08,3.06,1.8,5.94,4.35,7.13,7.02,1.15,2.58.47,5.02-1.68,5.97-2.15.95-5.65.37-8.6-1.43-5.2-3.18-7.42-8.78-12.24-12.5-2.81-2.17-6.25-3.48-9.33-3.94-3.07-.46-5.82-.15-8.34.39-1.16.25-2.38.55-3.84.1-5.04-1.57-1.46-4.23.32-4.57Z"/><path class="cls-3" d="m706.52,893.75c-7.21-6.87-17.81-12.04-26.84-15.61-3.13-1.24-6.39-2.62-9.41-3.13-3.02-.51-5.85-.13-7.02,1.63-1.13,1.71-.46,4.66,1.65,7.23s5.56,4.64,8.46,5.06c5.13.75,7.32-3.17,12.09-3.24,2.78-.04,6.2,1.26,9.25,3.13s5.79,4.26,8.29,6.72c1.16,1.13,2.37,2.36,3.83,3.02,5.03,2.26,1.46-3.12-.32-4.81Z"/><path class="cls-3" d="m720.38,924.99c7.54-1.45,17.58,1.62,27.04,4.9,3.2,1.11,6.47,2.28,9.54,4.08,3.06,1.8,5.94,4.35,7.13,7.02,1.15,2.58.47,5.02-1.68,5.97s-5.65.37-8.6-1.43c-5.2-3.18-7.42-8.78-12.24-12.51-2.81-2.17-6.25-3.48-9.33-3.94-3.07-.46-5.82-.16-8.34.39-1.16.25-2.38.55-3.84.09-5.04-1.57-1.46-4.23.32-4.57Z"/><path class="cls-3" d="m706.52,919.71c-7.21-6.88-17.81-12.04-26.84-15.61-3.13-1.24-6.39-2.62-9.41-3.13-3.02-.51-5.85-.14-7.02,1.63-1.13,1.71-.46,4.66,1.65,7.23,2.11,2.58,5.56,4.64,8.46,5.06,5.13.75,7.32-3.16,12.09-3.24,2.78-.04,6.2,1.26,9.25,3.13s5.79,4.26,8.29,6.72c1.16,1.13,2.37,2.36,3.83,3.02,5.03,2.27,1.46-3.12-.32-4.81Z"/><path class="cls-3" d="m720.38,949.82c7.54-1.45,17.58,1.62,27.04,4.9,3.21,1.11,6.47,2.28,9.54,4.08s5.94,4.36,7.13,7.02c1.15,2.58.47,5.02-1.68,5.97-2.15.95-5.65.37-8.6-1.43-5.2-3.18-7.42-8.78-12.24-12.51-2.81-2.17-6.25-3.48-9.33-3.94-3.07-.46-5.82-.16-8.34.39-1.16.25-2.38.55-3.84.09-5.04-1.57-1.46-4.23.32-4.57Z"/><path class="cls-3" d="m706.52,944.55c-7.21-6.88-17.81-12.04-26.84-15.62-3.13-1.24-6.39-2.62-9.41-3.13-3.02-.51-5.85-.14-7.02,1.63-1.13,1.71-.46,4.66,1.65,7.23,2.11,2.58,5.56,4.64,8.46,5.07,5.13.75,7.32-3.16,12.09-3.24,2.78-.04,6.2,1.26,9.25,3.13,3.05,1.87,5.79,4.26,8.29,6.72,1.16,1.13,2.37,2.36,3.83,3.02,5.03,2.27,1.46-3.12-.32-4.81Z"/><path class="cls-2" d="m713.43,577.67v126.07"/><path class="cls-2" d="m468.11,478.29c.13-.94.21-2.03.5-2.73,4.05-9.91,19,13.07,22.16,18.2,8.37,13.57,42.14,80.17,4.47,81.26-10.54.68-21.09,1.23-31.64,1.67-1.66.07-2.48.1-4.14.17-5.93.24-12.42-2.22-18.6-6.5t-.02-.01"/><path class="cls-2" d="m413.97,448.46h0c-.16-1.67-.43-3.38-.69-5.06-1.83-11.76-13.37-11.73-21.67-7.28-30.37,16.29-20.2,53.54-4.33,76.08,11.59,14.41,23.27,28.76,35.03,43.04,1.59,1.93,3.23,3.7,4.89,5.33,0,0,.02.02.03.03,4.46,4.37,9.11,7.64,13.61,9.76t.02.01"/><path class="cls-2" d="m480.32,492.72c-12.82-15.07-25.53-30.24-38.1-45.52-12.55.68-25.12,1.2-37.69,1.56-26.46.23-15.87,35.93-10.54,49.14,7.96,16.24,15.96,32.45,24,48.65,6.84,13.74,30.57,42.23,48.61,28.23,8.2-6.8,16.37-13.63,24.51-20.5,18.05-16.06,1.17-47.55-10.8-61.57Z"/><path class="cls-1" d="m442.03,574.54v320.68"/><path class="cls-3" d="m448.56,621.9c7.09-.19,16.54,4.53,25.46,9.37,3.02,1.64,6.1,3.35,8.99,5.65,2.89,2.3,5.61,5.33,6.73,8.18,1.09,2.77.44,5.08-1.59,5.68-2.03.6-5.33-.56-8.11-2.85-4.9-4.03-7-9.99-11.54-14.51-2.65-2.64-5.89-4.51-8.78-5.48-2.89-.97-5.48-1.12-7.84-.99-1.09.06-2.24.15-3.62-.54-4.74-2.41-1.38-4.46.3-4.51Z"/><path class="cls-3" d="m435.54,614.33c-6.67-7.96-16.45-14.82-25.18-20.07-2.95-1.77-5.98-3.68-8.81-4.7s-5.47-1.12-6.56.45c-1.06,1.52-.43,4.57,1.54,7.5,1.98,2.93,5.2,5.56,7.92,6.48,4.8,1.61,6.86-1.93,11.33-1.21,2.61.42,5.81,2.3,8.67,4.67,2.86,2.37,5.43,5.22,7.78,8.09,1.09,1.32,2.23,2.75,3.6,3.65,4.73,3.1,1.37-2.86-.3-4.86Z"/><path class="cls-3" d="m448.56,647.81c7.09-.19,16.54,4.54,25.46,9.38,3.02,1.64,6.1,3.35,8.99,5.65,2.89,2.3,5.61,5.33,6.73,8.18,1.09,2.77.44,5.08-1.59,5.68-2.03.6-5.33-.56-8.11-2.85-4.9-4.04-7-9.99-11.54-14.51-2.65-2.64-5.89-4.51-8.78-5.48-2.89-.97-5.48-1.12-7.84-.99-1.09.06-2.24.15-3.62-.54-4.74-2.41-1.38-4.46.3-4.51Z"/><path class="cls-3" d="m435.54,640.24c-6.67-7.96-16.45-14.83-25.18-20.07-2.95-1.77-5.98-3.68-8.81-4.7s-5.47-1.12-6.56.45c-1.06,1.52-.43,4.57,1.54,7.5,1.98,2.93,5.2,5.56,7.92,6.48,4.8,1.61,6.86-1.93,11.33-1.2,2.61.42,5.81,2.3,8.67,4.67,2.86,2.37,5.43,5.22,7.78,8.09,1.09,1.32,2.23,2.75,3.6,3.65,4.73,3.1,1.37-2.86-.3-4.86Z"/><path class="cls-3" d="m448.56,672.59c7.09-.19,16.54,4.54,25.46,9.38,3.02,1.64,6.1,3.35,8.99,5.65,2.89,2.31,5.61,5.33,6.73,8.18,1.09,2.77.44,5.08-1.59,5.68-2.03.6-5.33-.56-8.11-2.85-4.9-4.04-7-9.99-11.54-14.51-2.65-2.64-5.89-4.51-8.78-5.48-2.89-.97-5.48-1.12-7.84-1-1.09.06-2.24.15-3.62-.55-4.74-2.41-1.38-4.46.3-4.51Z"/><path class="cls-3" d="m435.54,665.02c-6.67-7.96-16.45-14.83-25.18-20.07-2.95-1.77-5.98-3.68-8.81-4.71-2.82-1.02-5.47-1.12-6.56.44-1.06,1.52-.43,4.57,1.54,7.5,1.98,2.93,5.2,5.57,7.92,6.48,4.8,1.61,6.86-1.93,11.33-1.2,2.61.42,5.81,2.3,8.67,4.67,2.86,2.37,5.43,5.22,7.78,8.09,1.09,1.32,2.23,2.75,3.6,3.65,4.73,3.1,1.37-2.86-.3-4.86Z"/><path class="cls-3" d="m448.56,699.26c7.09-.19,16.54,4.54,25.46,9.39,3.02,1.64,6.1,3.35,8.99,5.65s5.61,5.33,6.73,8.18c1.09,2.77.44,5.08-1.59,5.68-2.03.6-5.33-.56-8.11-2.85-4.9-4.04-7-9.99-11.54-14.51-2.65-2.64-5.89-4.51-8.78-5.49-2.89-.97-5.48-1.12-7.84-1-1.09.06-2.24.15-3.62-.55-4.74-2.41-1.38-4.46.3-4.51Z"/><path class="cls-3" d="m435.54,691.68c-6.67-7.97-16.45-14.83-25.18-20.08-2.95-1.77-5.98-3.69-8.81-4.71-2.82-1.02-5.47-1.12-6.56.44-1.06,1.52-.43,4.57,1.54,7.5s5.2,5.57,7.92,6.48c4.8,1.61,6.86-1.93,11.33-1.2,2.61.42,5.81,2.3,8.67,4.67,2.86,2.38,5.43,5.22,7.78,8.1,1.09,1.33,2.23,2.75,3.6,3.65,4.73,3.1,1.37-2.86-.3-4.86Z"/><path class="cls-3" d="m448.56,725.17c7.09-.19,16.54,4.55,25.46,9.39,3.02,1.64,6.1,3.35,8.99,5.66,2.89,2.31,5.61,5.33,6.73,8.19,1.09,2.77.44,5.08-1.59,5.68-2.03.59-5.33-.57-8.11-2.85-4.9-4.04-7-10-11.54-14.51-2.65-2.64-5.89-4.51-8.78-5.49-2.89-.97-5.48-1.13-7.84-1-1.09.06-2.24.15-3.62-.55-4.74-2.41-1.38-4.46.3-4.51Z"/><path class="cls-3" d="m435.54,717.59c-6.67-7.97-16.45-14.83-25.18-20.08-2.95-1.77-5.98-3.69-8.81-4.71s-5.47-1.12-6.56.44c-1.06,1.52-.43,4.57,1.54,7.5s5.2,5.57,7.92,6.48c4.8,1.61,6.86-1.92,11.33-1.2,2.61.42,5.81,2.3,8.67,4.68,2.86,2.38,5.43,5.22,7.78,8.1,1.09,1.33,2.23,2.75,3.6,3.65,4.73,3.1,1.37-2.86-.3-4.86Z"/><path class="cls-3" d="m448.56,749.96c7.09-.19,16.54,4.55,25.46,9.4,3.02,1.64,6.1,3.35,8.99,5.66,2.89,2.31,5.61,5.33,6.73,8.19,1.09,2.77.44,5.08-1.59,5.68-2.03.59-5.33-.57-8.11-2.86-4.9-4.04-7-10-11.54-14.52-2.65-2.64-5.89-4.51-8.78-5.49-2.89-.97-5.48-1.13-7.84-1-1.09.06-2.24.15-3.62-.55-4.74-2.41-1.38-4.46.3-4.51Z"/><path class="cls-3" d="m435.54,742.37c-6.67-7.97-16.45-14.84-25.18-20.09-2.95-1.77-5.98-3.69-8.81-4.71-2.82-1.02-5.47-1.12-6.56.44-1.06,1.52-.43,4.57,1.54,7.5s5.2,5.57,7.92,6.48c4.8,1.61,6.86-1.92,11.33-1.2,2.61.42,5.81,2.3,8.67,4.68,2.86,2.38,5.43,5.22,7.78,8.1,1.09,1.33,2.23,2.75,3.6,3.65,4.73,3.1,1.37-2.86-.3-4.86Z"/><path class="cls-3" d="m448.56,770.61c7.09-.19,16.54,4.55,25.46,9.4,3.02,1.64,6.1,3.35,8.99,5.66,2.89,2.31,5.61,5.33,6.73,8.19,1.09,2.77.44,5.08-1.59,5.68-2.03.59-5.33-.57-8.11-2.86-4.9-4.04-7-10-11.54-14.52-2.65-2.64-5.89-4.52-8.78-5.49-2.89-.97-5.48-1.13-7.84-1-1.09.06-2.24.15-3.62-.55-4.74-2.41-1.38-4.47.3-4.51Z"/><path class="cls-3" d="m435.54,763.03c-6.67-7.97-16.45-14.84-25.18-20.09-2.95-1.78-5.98-3.69-8.81-4.71s-5.47-1.12-6.56.44c-1.06,1.52-.43,4.57,1.54,7.5,1.98,2.93,5.2,5.57,7.92,6.48,4.8,1.61,6.86-1.92,11.33-1.19,2.61.42,5.81,2.3,8.67,4.68,2.86,2.38,5.43,5.23,7.78,8.1,1.09,1.33,2.23,2.75,3.6,3.65,4.73,3.1,1.37-2.86-.3-4.86Z"/><path class="cls-3" d="m448.56,796.52c7.09-.19,16.54,4.56,25.46,9.4,3.02,1.64,6.1,3.35,8.99,5.66,2.89,2.31,5.61,5.33,6.73,8.19,1.09,2.77.44,5.08-1.59,5.68-2.03.59-5.33-.57-8.11-2.86-4.9-4.04-7-10-11.54-14.52-2.65-2.64-5.89-4.52-8.78-5.49-2.89-.98-5.48-1.13-7.84-1-1.09.06-2.24.15-3.62-.55-4.74-2.41-1.38-4.47.3-4.51Z"/><path class="cls-3" d="m435.54,788.94c-6.67-7.97-16.45-14.84-25.18-20.1-2.95-1.78-5.98-3.69-8.81-4.71-2.82-1.02-5.47-1.12-6.56.44-1.06,1.52-.43,4.57,1.54,7.5,1.98,2.93,5.2,5.57,7.92,6.49,4.8,1.61,6.86-1.92,11.33-1.19,2.61.43,5.81,2.3,8.67,4.68,2.86,2.38,5.43,5.23,7.78,8.1,1.09,1.33,2.23,2.75,3.6,3.66,4.73,3.11,1.37-2.86-.3-4.86Z"/><path class="cls-3" d="m448.56,821.31c7.09-.18,16.54,4.56,25.46,9.41,3.02,1.64,6.1,3.35,8.99,5.66,2.89,2.31,5.61,5.34,6.73,8.19,1.09,2.77.44,5.08-1.59,5.68-2.03.59-5.33-.57-8.11-2.86-4.9-4.04-7-10-11.54-14.52-2.65-2.64-5.89-4.52-8.78-5.49-2.89-.98-5.48-1.13-7.84-1-1.09.06-2.24.15-3.62-.55-4.74-2.41-1.38-4.47.3-4.51Z"/><path class="cls-3" d="m435.54,813.72c-6.67-7.97-16.45-14.85-25.18-20.1-2.95-1.78-5.98-3.69-8.81-4.72-2.82-1.02-5.47-1.13-6.56.44-1.06,1.52-.43,4.57,1.54,7.5,1.98,2.93,5.2,5.57,7.92,6.49,4.8,1.62,6.86-1.92,11.33-1.19,2.61.43,5.81,2.3,8.67,4.68,2.86,2.38,5.43,5.23,7.78,8.1,1.09,1.33,2.23,2.75,3.6,3.66,4.73,3.11,1.37-2.86-.3-4.86Z"/><path class="cls-2" d="m442.03,448.73v125.82"/><path class="cls-2" d="m740.7,602.82c.14-.97.25-2.04.53-2.83,4.14-11.25,19.66,9.08,23.49,14.32,12.12,16.59,42.6,73.07,4.73,80.63-11.17,2.49-22.35,4.91-33.55,7.26-1.76.36-2.64.54-4.39.9-6.3,1.29-13.2-.02-19.78-3.2t-.02,0"/><path class="cls-2" d="m683.08,582.61h0c-.18-1.64-.44-3.31-.73-4.95-2.3-12.87-15.93-8.26-23.15-3.38-28.71,19.39-25.16,53.2-4.63,77.01,12.4,12.34,24.87,24.6,37.41,36.8,1.7,1.64,3.44,3.13,5.21,4.46.01,0,.02.02.03.02,4.76,3.58,9.71,6.02,14.5,7.34t.02,0"/><path class="cls-2" d="m753.65,615.12c-13.57-12.87-27.05-25.82-40.46-38.85-13.36,2.92-26.75,5.7-40.17,8.33-26.04,4.79-18.82,34.88-11.26,51.15,8.51,14.83,17.05,29.63,25.63,44.42,8.86,15.21,34.58,35.33,51.72,19.61,8.69-8.26,17.35-16.55,25.99-24.87,17.5-17.29,3.17-46.04-11.45-59.79Z"/><path class="cls-2" d="m913.41,580.11c6.9,7.75,17.63,10.38,24.54,6.02h0c6.92-4.36,17.67-1.88,24.61,5.68,0,0,0,0,0,0,6.93,7.56,17.72,9.9,24.67,5.34h0c6.95-4.56,17.76-2.37,24.73,5.01h0c6.97,7.37,17.8,9.42,24.78,4.67,0,0,0,0,0,0,6.98-4.75,17.84-2.86,24.83,4.33,0,0,0,0,0,0,6.99,7.18,17.87,8.93,24.88,3.99,0,0,0,0,0,0,7.01-4.94,17.9-3.34,24.92,3.65,0,0,0,0,0,0,7.02,7,17.93,8.44,24.96,3.31,0,0,0,0,0,0,7.03-5.13,17.96-3.83,24.99,2.97,0,0,0,0,0,0,7.04,6.81,17.98,7.96,25.03,2.63,0,0,0,0,0,0,7.05-5.32,18-4.32,25.05,2.3,0,0,0,0,0,0,7.05,6.62,18.02,7.47,25.08,1.96,0,0,0,0,0,0,7.06-5.52,18.03-4.81,25.1,1.62,0,0,0,0,0,0,7.07,6.43,18.04,6.99,25.11,1.28,0,0,0,0,0,0,7.07-5.71,18.05-5.3,25.13.94,0,0,0,0,0,0,7.07,6.24,18.06,6.5,25.14.6,0,0,0,0,0,0,7.07-5.9,18.06-5.79,25.14.26,0,0,0,0,0,0,7.08,6.05,18.07,6.02,25.14-.08,0,0,0,0,0,0,7.08-6.1,18.07-6.28,25.14-.42,0,0,0,0,0,0,7.07,5.86,18.06,5.53,25.13-.75,0,0,0,0,0,0,7.07-6.29,18.05-6.77,25.12-1.09,0,0,0,0,.01,0,7.07,5.67,18.04,5.05,25.11-1.43,0,0,0,0,.01-.01,7.06-6.48,18.03-7.25,25.09-1.77,0,0,0,0,.01,0,7.06,5.48,18.02,4.56,25.07-2.11,0,0,0,0,.01-.01,7.05-6.67,18-7.74,25.04-2.45,0,0,.01,0,.02.01"/><path class="cls-3" d="m1315.99,1120.1c-23.46-52.77-51.61-104.07-63.69-160.23-6.99-32.5-13.18-66.49-16.05-99.46-2.6-29.9-.48-60.61.96-91.01.11-2.24-.21-5.11-2.54-6.05-6.12-2.46-13.6,12.69-15.68,15.91-15.54,24.13-22.76,49.78-20.95,78.37.41,6.5,2.36,13.43,4.27,19.91,5.95,20.27,13.47,40.35,21.28,60.08,9.84,24.85,20.37,49.67,31.12,74.18,10.45,23.82,21.23,47.63,32.18,71.24,8.01,17.29,16.17,34.58,24.41,51.78,2.16,4.52,4.34,9.04,6.53,13.55.27.55.92,2.77,1.55,3.08,5.08,2.44,1.13-11.02.8-12.63-1.29-6.26-2.7-12.49-4.19-18.72Z"/><path class="cls-3" d="m1389.16,1121.83c23.51-52.32,51.68-103.12,63.73-158.9,7-32.43,13.2-66.35,16.06-99.26,2.61-29.95.48-60.72-.96-91.17-.11-2.25.21-5.12,2.54-6.01,6.13-2.35,13.62,12.97,15.7,16.25,15.49,24.36,22.8,50.2,20.97,78.95-.41,6.5-2.37,13.41-4.27,19.86-5.95,20.16-13.48,40.11-21.31,59.73-9.84,24.66-20.39,49.28-31.16,73.6-10.45,23.6-21.25,47.19-32.2,70.57-8.01,17.11-16.18,34.22-24.42,51.23-2.17,4.47-4.35,8.94-6.53,13.39-.27.54-.92,2.75-1.55,3.04-5.08,2.31-1.13-11.05-.8-12.66,1.29-6.23,2.7-12.43,4.2-18.63Z"/><path class="cls-1" d="m1355.36,823.88c0,107.57,0,215.15,0,322.72"/><path class="cls-3" d="m1362.69,867.78c8.08-4.25,19.61-5.12,28.45-5.13,3.3,0,6.79-.11,10.01.57,3.21.68,6.23,2.18,7.47,4.41,1.21,2.17.49,4.86-1.76,6.62-2.25,1.75-5.92,2.46-9.01,1.74-5.45-1.27-7.79-6.07-12.85-8.02-2.95-1.14-6.58-1.17-9.81-.5s-6.13,2.01-8.78,3.49c-1.22.69-2.51,1.44-4.05,1.53-5.32.3-1.54-3.72.33-4.71Z"/><path class="cls-3" d="m1348.06,867.66c-8.05-4.39-19.57-5.47-28.45-5.63-3.3-.06-6.79-.23-10,.39s-6.23,2.06-7.47,4.27c-1.21,2.15-.49,4.85,1.76,6.64,2.25,1.79,5.92,2.57,9.01,1.9,5.45-1.17,7.78-5.93,12.85-7.79,2.95-1.09,6.58-1.06,9.81-.32,3.23.73,6.13,2.12,8.78,3.65,1.22.71,2.51,1.48,4.05,1.6,5.32.4,1.54-3.69-.33-4.72Z"/><path class="cls-3" d="m1362.69,893.86c8.08-4.25,19.61-5.12,28.45-5.12,3.3,0,6.79-.11,10.01.57,3.21.68,6.23,2.18,7.47,4.41,1.21,2.17.49,4.86-1.76,6.62-2.25,1.75-5.92,2.46-9.01,1.74-5.45-1.27-7.79-6.07-12.85-8.03-2.95-1.14-6.58-1.17-9.81-.5-3.23.68-6.13,2.01-8.78,3.49-1.22.69-2.51,1.44-4.05,1.53-5.32.3-1.54-3.72.33-4.71Z"/><path class="cls-3" d="m1348.06,893.73c-8.05-4.39-19.57-5.47-28.45-5.64-3.3-.06-6.79-.23-10,.39-3.21.62-6.23,2.06-7.47,4.27-1.21,2.15-.49,4.85,1.76,6.64,2.25,1.79,5.92,2.57,9.01,1.9,5.45-1.17,7.78-5.93,12.85-7.79,2.95-1.09,6.58-1.05,9.81-.32,3.23.73,6.13,2.12,8.78,3.65,1.22.71,2.51,1.48,4.05,1.6,5.32.4,1.54-3.69-.33-4.72Z"/><path class="cls-3" d="m1362.69,918.81c8.08-4.25,19.61-5.12,28.45-5.12,3.3,0,6.79-.11,10.01.57,3.21.68,6.23,2.18,7.47,4.41,1.21,2.17.49,4.86-1.76,6.62-2.25,1.75-5.92,2.46-9.01,1.74-5.45-1.27-7.79-6.07-12.85-8.03-2.95-1.14-6.58-1.18-9.81-.5s-6.13,2.01-8.78,3.49c-1.22.69-2.51,1.44-4.05,1.53-5.32.3-1.54-3.72.33-4.71Z"/><path class="cls-3" d="m1348.06,918.67c-8.05-4.39-19.57-5.47-28.45-5.64-3.3-.06-6.79-.23-10,.39-3.21.62-6.23,2.06-7.47,4.27-1.21,2.15-.49,4.85,1.76,6.64,2.25,1.79,5.92,2.57,9.01,1.91,5.45-1.17,7.78-5.93,12.85-7.79,2.95-1.09,6.58-1.05,9.81-.32,3.23.73,6.13,2.12,8.78,3.65,1.22.71,2.51,1.48,4.05,1.6,5.32.4,1.54-3.69-.33-4.72Z"/><path class="cls-3" d="m1362.69,945.64c8.08-4.25,19.61-5.11,28.45-5.11,3.29,0,6.79-.11,10.01.57,3.21.68,6.23,2.18,7.47,4.41,1.21,2.17.49,4.86-1.76,6.62-2.25,1.75-5.92,2.46-9.01,1.74-5.45-1.27-7.79-6.07-12.85-8.03-2.95-1.14-6.58-1.18-9.81-.5-3.23.68-6.13,2-8.78,3.49-1.22.68-2.51,1.44-4.05,1.52-5.32.3-1.54-3.72.33-4.71Z"/><path class="cls-3" d="m1348.06,945.5c-8.05-4.39-19.57-5.48-28.45-5.65-3.3-.06-6.79-.23-10,.38-3.21.62-6.23,2.06-7.47,4.27-1.21,2.15-.49,4.85,1.76,6.64,2.25,1.79,5.92,2.57,9.01,1.91,5.45-1.17,7.78-5.92,12.85-7.78,2.95-1.09,6.58-1.05,9.81-.32,3.23.74,6.13,2.12,8.78,3.65,1.22.71,2.51,1.49,4.05,1.6,5.32.4,1.54-3.69-.33-4.72Z"/><path class="cls-3" d="m1362.69,971.72c8.08-4.25,19.61-5.11,28.45-5.11,3.29,0,6.79-.1,10.01.57,3.21.68,6.23,2.18,7.47,4.42,1.21,2.17.49,4.86-1.76,6.62s-5.92,2.46-9.01,1.74c-5.45-1.27-7.79-6.08-12.85-8.03-2.95-1.14-6.58-1.18-9.81-.5-3.23.67-6.13,2-8.78,3.49-1.22.68-2.51,1.44-4.05,1.52-5.32.3-1.54-3.72.33-4.71Z"/><path class="cls-3" d="m1348.06,971.58c-8.05-4.39-19.57-5.48-28.45-5.65-3.3-.06-6.79-.23-10,.38-3.21.62-6.23,2.06-7.47,4.27-1.21,2.15-.49,4.85,1.76,6.64,2.25,1.79,5.92,2.57,9.01,1.91,5.45-1.17,7.78-5.92,12.85-7.78,2.95-1.09,6.58-1.05,9.81-.32,3.23.74,6.13,2.12,8.78,3.66,1.22.71,2.51,1.49,4.05,1.6,5.32.4,1.54-3.69-.33-4.72Z"/><path class="cls-3" d="m1362.69,996.66c8.08-4.25,19.61-5.1,28.45-5.1,3.29,0,6.79-.1,10.01.58,3.21.68,6.23,2.18,7.47,4.42,1.21,2.17.49,4.86-1.76,6.62-2.25,1.75-5.92,2.46-9.01,1.74-5.45-1.28-7.79-6.08-12.85-8.04-2.95-1.14-6.58-1.18-9.81-.51-3.23.67-6.13,2-8.78,3.49-1.22.68-2.51,1.44-4.05,1.52-5.32.3-1.54-3.73.33-4.71Z"/><path class="cls-3" d="m1348.06,996.52c-8.05-4.39-19.57-5.48-28.45-5.66-3.3-.06-6.79-.23-10,.38-3.21.62-6.23,2.06-7.47,4.27-1.21,2.15-.49,4.85,1.76,6.64,2.25,1.79,5.92,2.57,9.01,1.91,5.45-1.17,7.78-5.92,12.85-7.78,2.95-1.09,6.58-1.05,9.81-.31,3.23.74,6.13,2.12,8.78,3.66,1.22.71,2.51,1.49,4.05,1.6,5.32.4,1.54-3.69-.33-4.72Z"/><path class="cls-3" d="m1362.69,1017.44c8.08-4.25,19.61-5.1,28.45-5.1,3.29,0,6.79-.1,10.01.58,3.21.68,6.23,2.18,7.47,4.42,1.21,2.17.49,4.86-1.76,6.61-2.25,1.75-5.92,2.46-9.01,1.73-5.45-1.28-7.79-6.08-12.85-8.04-2.95-1.14-6.58-1.18-9.81-.51-3.23.67-6.13,2-8.78,3.49-1.22.68-2.51,1.44-4.05,1.52-5.32.3-1.54-3.73.33-4.71Z"/><path class="cls-3" d="m1348.06,1017.3c-8.05-4.39-19.57-5.49-28.45-5.66-3.3-.06-6.79-.24-10,.38-3.21.61-6.23,2.06-7.47,4.27-1.21,2.15-.49,4.85,1.76,6.65s5.92,2.57,9.01,1.91c5.45-1.17,7.78-5.92,12.85-7.78,2.95-1.08,6.58-1.05,9.81-.31s6.13,2.12,8.78,3.66c1.22.71,2.51,1.49,4.05,1.6,5.32.4,1.54-3.69-.33-4.72Z"/><path class="cls-3" d="m1362.69,1043.52c8.08-4.25,19.61-5.1,28.45-5.09,3.29,0,6.79-.1,10.01.58,3.21.68,6.23,2.18,7.47,4.42,1.21,2.17.49,4.86-1.76,6.61s-5.92,2.46-9.01,1.73c-5.45-1.28-7.79-6.08-12.85-8.04-2.95-1.14-6.58-1.18-9.81-.51-3.23.67-6.13,2-8.78,3.48-1.22.68-2.51,1.44-4.05,1.52-5.32.3-1.54-3.73.33-4.71Z"/><path class="cls-3" d="m1348.06,1043.38c-8.05-4.39-19.57-5.49-28.45-5.66-3.3-.06-6.79-.24-10,.38-3.21.61-6.23,2.06-7.47,4.27-1.21,2.15-.49,4.85,1.76,6.65s5.92,2.57,9.01,1.91c5.45-1.17,7.78-5.92,12.85-7.78,2.95-1.08,6.58-1.05,9.81-.31,3.23.74,6.13,2.12,8.78,3.66,1.22.71,2.51,1.49,4.05,1.6,5.32.4,1.54-3.69-.33-4.72Z"/><path class="cls-3" d="m1362.69,1068.47c8.08-4.24,19.61-5.1,28.45-5.09,3.29,0,6.79-.1,10.01.58,3.21.68,6.23,2.18,7.47,4.42,1.21,2.17.49,4.87-1.76,6.61-2.25,1.75-5.92,2.46-9.01,1.73-5.45-1.28-7.79-6.08-12.85-8.04-2.95-1.14-6.58-1.18-9.81-.51-3.23.67-6.13,2-8.78,3.48-1.22.68-2.51,1.44-4.05,1.52-5.32.29-1.54-3.73.33-4.71Z"/><path class="cls-3" d="m1348.06,1068.32c-8.05-4.4-19.57-5.49-28.45-5.67-3.3-.07-6.79-.24-10,.38-3.21.61-6.23,2.06-7.47,4.26-1.21,2.14-.49,4.85,1.76,6.65s5.92,2.58,9.01,1.92c5.45-1.17,7.78-5.92,12.85-7.77,2.95-1.08,6.58-1.05,9.81-.31s6.13,2.12,8.78,3.66c1.22.71,2.51,1.49,4.05,1.6,5.32.4,1.54-3.69-.33-4.72Z"/><path class="cls-2" d="m1355.36,697.27c0,42.21,0,84.41,0,126.62"/><path class="cls-2" d="m1090.46,691.06c.14-1,.3-2.02.55-2.94,3.67-13.19,20.19,4.84,24.43,9.59,17.04,19.06,40.69,65.85,4.91,79.87-11.59,4.79-23.22,9.48-34.89,14.08-1.83.72-2.75,1.08-4.58,1.8-6.56,2.58-13.76,2.67-20.63.83t-.02,0"/><path class="cls-2" d="m1030.3,682.57h0c-.18-1.61-.43-3.22-.77-4.81-2.94-14.03-18.26-3.48-24.27,1.38-23.98,19.39-34.24,57.95-4.86,78.16,13,9.82,26.06,19.57,39.21,29.19,1.78,1.3,3.6,2.43,5.45,3.4.01,0,.02.01.03.02,4.97,2.61,10.15,4.05,15.15,4.4t.02,0"/><path class="cls-2" d="m1103.94,700.76c-14.12-10.15-28.17-20.38-42.16-30.71-13.97,5.63-27.98,11.15-42.03,16.58-22.73,8.54-24.1,35.82-11.81,53.59,8.92,13.11,17.87,26.19,26.87,39.25,11.42,16.5,38.57,25.92,54,9.09,9.04-10.04,18.05-20.1,27.03-30.2,16.15-18.23,5.92-44.93-11.9-57.61Z"/><path class="cls-1" d="m1061.57,798.03c0,107.36,0,214.72,0,322.09"/><path class="cls-3" d="m1068.82,843.01c8.29-3.04,19.73-1.97,28.17-.62,3.25.52,6.73.97,9.92,2.15,3.19,1.18,6.18,3.16,7.41,5.58,1.2,2.36.49,4.93-1.75,6.33-2.23,1.39-5.87,1.52-8.94.32-5.41-2.13-7.72-7.29-12.73-10.04-2.93-1.61-6.51-2.21-9.71-2.05s-6.07,1.03-8.69,2.1c-1.21.49-2.48,1.04-4.01.88-5.26-.54-1.51-3.97.33-4.65Z"/><path class="cls-3" d="m1054.35,840.56c-7.73-5.52-19-8.48-28.08-10.12-3.26-.59-6.7-1.3-9.86-1.19-3.16.11-6.13,1.07-7.36,3.08-1.19,1.95-.48,4.77,1.73,6.91,2.22,2.14,5.83,3.5,8.88,3.32,5.37-.31,7.67-4.68,12.67-5.74,2.91-.62,6.49-.01,9.68,1.23,3.19,1.24,6.05,3.08,8.67,5.03,1.21.9,2.48,1.88,4.01,2.24,5.26,1.24,1.52-3.43-.33-4.76Z"/><path class="cls-3" d="m1068.82,869.03c8.29-3.04,19.73-1.97,28.17-.61,3.25.52,6.73.97,9.92,2.15,3.19,1.18,6.18,3.16,7.41,5.58,1.2,2.36.49,4.93-1.75,6.33s-5.87,1.52-8.94.31c-5.41-2.13-7.72-7.29-12.73-10.04-2.93-1.61-6.51-2.21-9.71-2.05s-6.07,1.03-8.69,2.1c-1.21.49-2.48,1.04-4.01.88-5.26-.54-1.51-3.97.33-4.65Z"/><path class="cls-3" d="m1054.35,866.59c-7.73-5.52-19-8.49-28.08-10.12-3.26-.59-6.7-1.3-9.86-1.2s-6.13,1.07-7.36,3.08c-1.19,1.95-.48,4.76,1.73,6.91,2.22,2.14,5.83,3.5,8.88,3.33,5.37-.31,7.67-4.68,12.67-5.74,2.91-.62,6.49-.01,9.68,1.23,3.19,1.24,6.05,3.08,8.67,5.03,1.21.9,2.48,1.88,4.01,2.24,5.26,1.24,1.52-3.43-.33-4.76Z"/><path class="cls-3" d="m1068.82,893.93c8.29-3.04,19.73-1.96,28.17-.61,3.25.52,6.73.97,9.92,2.15,3.19,1.18,6.18,3.16,7.41,5.59,1.2,2.36.49,4.93-1.75,6.32-2.23,1.39-5.87,1.52-8.94.31-5.41-2.13-7.72-7.29-12.73-10.04-2.93-1.61-6.51-2.21-9.71-2.05-3.2.16-6.07,1.03-8.69,2.1-1.21.49-2.48,1.04-4.01.88-5.26-.54-1.51-3.97.33-4.65Z"/><path class="cls-3" d="m1054.35,891.48c-7.73-5.52-19-8.49-28.08-10.13-3.26-.59-6.7-1.3-9.86-1.2s-6.13,1.07-7.36,3.08c-1.19,1.95-.48,4.76,1.73,6.91,2.22,2.14,5.83,3.5,8.88,3.33,5.37-.31,7.67-4.68,12.67-5.74,2.91-.62,6.49-.01,9.68,1.23,3.19,1.24,6.05,3.08,8.67,5.03,1.21.9,2.48,1.88,4.01,2.24,5.26,1.24,1.52-3.43-.33-4.76Z"/><path class="cls-3" d="m1068.82,920.71c8.3-3.04,19.73-1.96,28.17-.61,3.25.52,6.73.97,9.92,2.15,3.19,1.18,6.18,3.16,7.41,5.59,1.2,2.36.49,4.93-1.75,6.32-2.23,1.39-5.87,1.52-8.94.31-5.41-2.13-7.72-7.29-12.73-10.05-2.93-1.61-6.51-2.21-9.71-2.05-3.2.16-6.07,1.03-8.69,2.09-1.21.49-2.48,1.04-4.01.88-5.26-.54-1.51-3.97.33-4.65Z"/><path class="cls-3" d="m1054.35,918.26c-7.73-5.53-19-8.49-28.08-10.13-3.26-.59-6.7-1.31-9.86-1.2-3.16.11-6.13,1.07-7.36,3.08-1.19,1.95-.48,4.76,1.73,6.91,2.22,2.15,5.83,3.5,8.88,3.33,5.37-.3,7.67-4.68,12.67-5.74,2.91-.62,6.49-.01,9.68,1.23,3.19,1.25,6.05,3.08,8.67,5.04,1.21.9,2.48,1.88,4.01,2.24,5.26,1.24,1.52-3.43-.33-4.76Z"/><path class="cls-3" d="m1068.82,946.73c8.3-3.04,19.73-1.96,28.17-.6,3.25.52,6.73.97,9.92,2.15,3.19,1.18,6.18,3.16,7.41,5.59,1.2,2.36.49,4.93-1.75,6.32s-5.87,1.52-8.94.31c-5.41-2.13-7.72-7.29-12.73-10.05-2.93-1.61-6.51-2.21-9.71-2.05-3.2.16-6.07,1.03-8.69,2.09-1.21.49-2.48,1.04-4.01.88-5.26-.54-1.51-3.97.33-4.65Z"/><path class="cls-3" d="m1054.35,944.28c-7.73-5.53-19-8.5-28.08-10.14-3.26-.59-6.7-1.31-9.86-1.2s-6.13,1.07-7.36,3.08c-1.19,1.95-.48,4.76,1.73,6.91,2.22,2.15,5.83,3.5,8.88,3.33,5.37-.3,7.67-4.68,12.67-5.74,2.91-.62,6.49,0,9.68,1.24,3.19,1.25,6.05,3.09,8.67,5.04,1.21.9,2.48,1.88,4.01,2.24,5.26,1.24,1.52-3.43-.33-4.76Z"/><path class="cls-3" d="m1068.82,971.63c8.3-3.03,19.73-1.95,28.17-.6,3.25.52,6.73.97,9.92,2.16,3.19,1.18,6.18,3.16,7.41,5.59,1.2,2.36.49,4.93-1.75,6.32-2.23,1.39-5.87,1.52-8.94.31-5.41-2.13-7.72-7.3-12.73-10.05-2.93-1.61-6.51-2.22-9.71-2.05-3.2.16-6.07,1.03-8.69,2.09-1.21.49-2.48,1.04-4.01.88-5.26-.54-1.51-3.97.33-4.65Z"/><path class="cls-3" d="m1054.35,969.17c-7.73-5.53-19-8.5-28.08-10.14-3.26-.59-6.7-1.31-9.86-1.2s-6.13,1.07-7.36,3.08c-1.19,1.95-.48,4.76,1.73,6.91s5.83,3.5,8.88,3.33c5.37-.3,7.67-4.68,12.67-5.73,2.91-.62,6.49,0,9.68,1.24,3.19,1.25,6.05,3.09,8.67,5.04,1.21.9,2.48,1.88,4.01,2.24,5.26,1.24,1.52-3.43-.33-4.76Z"/><path class="cls-3" d="m1068.82,992.37c8.3-3.03,19.73-1.95,28.17-.59,3.25.52,6.73.97,9.92,2.16,3.19,1.19,6.18,3.16,7.41,5.59,1.2,2.36.49,4.93-1.75,6.32-2.23,1.39-5.87,1.52-8.94.31-5.41-2.14-7.72-7.3-12.73-10.05-2.93-1.61-6.51-2.22-9.71-2.06-3.2.16-6.07,1.03-8.69,2.09-1.21.49-2.48,1.04-4.01.88-5.26-.54-1.51-3.97.33-4.65Z"/><path class="cls-3" d="m1054.35,989.92c-7.73-5.53-19-8.5-28.08-10.15-3.26-.59-6.7-1.31-9.86-1.2-3.16.11-6.13,1.07-7.36,3.08-1.19,1.95-.48,4.76,1.73,6.91s5.83,3.51,8.88,3.33c5.37-.3,7.67-4.68,12.67-5.73,2.91-.62,6.49,0,9.68,1.24,3.19,1.25,6.05,3.09,8.67,5.04,1.21.9,2.48,1.88,4.01,2.24,5.26,1.24,1.52-3.43-.33-4.76Z"/><path class="cls-3" d="m1068.82,1018.4c8.3-3.03,19.73-1.95,28.17-.59,3.25.52,6.73.97,9.92,2.16s6.18,3.16,7.41,5.59c1.2,2.36.49,4.93-1.75,6.32s-5.87,1.52-8.94.3c-5.41-2.14-7.72-7.3-12.73-10.05-2.93-1.61-6.51-2.22-9.71-2.06-3.2.16-6.07,1.03-8.69,2.09-1.21.49-2.48,1.04-4.01.88-5.26-.55-1.51-3.97.33-4.65Z"/><path class="cls-3" d="m1054.35,1015.94c-7.73-5.53-19-8.51-28.08-10.15-3.26-.59-6.7-1.31-9.86-1.21s-6.13,1.07-7.36,3.08c-1.19,1.95-.48,4.76,1.73,6.91,2.22,2.15,5.83,3.51,8.88,3.34,5.37-.3,7.67-4.68,12.67-5.73,2.91-.61,6.49,0,9.68,1.24,3.19,1.25,6.05,3.09,8.67,5.04,1.21.9,2.48,1.88,4.01,2.24,5.26,1.24,1.52-3.43-.33-4.76Z"/><path class="cls-3" d="m1068.82,1043.29c8.3-3.03,19.73-1.94,28.17-.58,3.25.52,6.73.97,9.92,2.16,3.19,1.19,6.18,3.16,7.41,5.59,1.2,2.36.49,4.93-1.75,6.32-2.23,1.39-5.87,1.52-8.94.3-5.41-2.14-7.72-7.3-12.73-10.06-2.93-1.61-6.51-2.22-9.71-2.06-3.2.16-6.07,1.03-8.69,2.09-1.21.49-2.48,1.04-4.01.88-5.26-.55-1.51-3.97.33-4.65Z"/><path class="cls-3" d="m1054.35,1040.83c-7.73-5.53-19-8.51-28.08-10.16-3.26-.59-6.7-1.31-9.86-1.21-3.16.1-6.13,1.07-7.36,3.07-1.19,1.95-.48,4.76,1.73,6.91s5.83,3.51,8.88,3.34c5.37-.3,7.67-4.67,12.67-5.73,2.91-.61,6.49,0,9.68,1.24,3.19,1.25,6.05,3.09,8.67,5.04,1.21.9,2.48,1.88,4.01,2.24,5.26,1.24,1.52-3.43-.33-4.76Z"/><path class="cls-2" d="m1061.57,671.66v126.37"/><path class="cls-2" d="m1384.09,712.42c.14-1.02.31-2.06.56-3.03,3.47-13.63,19.42.73,24.64,5.72,20.9,19.96,37.66,61.27,4.95,79.24-11.68,6.64-23.41,13.2-35.19,19.67-1.85,1.02-2.77,1.52-4.62,2.53-6.63,3.63-13.91,4.87-20.86,4.13t-.02,0"/><path class="cls-2" d="m1323.22,713.54h0c-.19-1.58-.42-3.17-.78-4.7-3.33-14.14-19.67.54-24.63,5.28-20.5,19.59-38.26,61.59-4.94,79.09,13.22,7.73,26.48,15.38,39.79,22.95,1.8,1.02,3.64,1.86,5.52,2.54.01,0,.02.01.03.01,5.04,1.82,10.27,2.43,15.33,1.98t.02,0"/><path class="cls-2" d="m1397.69,719.99c-14.27-7.88-28.45-15.91-42.59-24.04-14.12,7.92-28.32,15.68-42.58,23.35-20.54,10.91-26.33,37.19-11.99,55.59,9.06,11.69,18.15,23.36,27.26,35.01,13.44,17,40.98,17.5,54.63.47,9.11-11.5,18.2-23.02,27.26-34.57,14.53-18.43,8.31-44.7-11.99-55.83Z"/><path class="cls-2" d="m1563.05,626.59c7.05,5.3,17.98,4.08,25.02-2.79h0c7.04-6.87,17.96-8.24,24.99-3.13,0,0,0,0,0,0,7.03,5.11,17.94,3.6,24.95-3.46,0,0,0,0,0,0,7.02-7.06,17.91-8.72,24.91-3.8h0c7,4.92,17.88,3.11,24.87-4.14,0,0,0,0,0,0,6.99-7.25,17.84-9.21,24.82-4.48,0,0,0,0,0,0,6.98,4.73,17.81,2.63,24.77-4.82,0,0,0,0,0,0,6.96-7.45,17.77-9.7,24.71-5.16,0,0,0,0,0,0,6.95,4.54,17.73,2.14,24.66-5.5,0,0,0,0,0,0,6.93-7.64,17.68-10.19,24.59-5.84,0,0,0,0,0,0,6.91,4.35,17.63,1.66,24.53-6.17,0,0,0,0,0,0,6.89-7.83,17.58-10.68,24.46-6.51,0,0,0,0,0,0,6.87,4.16,17.53,1.17,24.38-6.85,0,0,0,0,0,0,6.85-8.02,17.48-11.17,24.3-7.19,0,0,0,0,0,0,6.83,3.98,17.42.69,24.22-7.53,0,0,0,0,0,0,6.81-8.22,17.36-11.66,24.14-7.87,0,0,0,0,0,0,6.78,3.79,17.3.2,24.05-8.21,0,0,0,0,0,0,6.76-8.41,17.23-12.15,23.96-8.55,0,0,0,0,0,0,6.73,3.6,17.16-.28,23.86-8.88,0,0,0,0,0,0,6.7-8.6,17.09-12.63,23.76-9.22,0,0,0,0,0,0,6.67,3.41,17.01-.77,23.66-9.56,0,0,0,0,0-.01,6.64-8.79,16.94-13.12,23.55-9.9,0,0,0,0,.01,0,6.61,3.22,16.86-1.25,23.44-10.24,0,0,0,0,.01-.02,6.58-8.98,16.77-13.61,23.32-10.58,0,0,0,0,.01,0,6.55,3.03,16.69-1.74,23.2-10.92,0,0,0-.01.01-.02,6.51-9.18,16.6-14.1,23.08-11.25,0,0,.01,0,.02,0"/><path class="cls-3" d="m1961.38,1026.28c-22.92-45.56-50.2-89.06-61.33-138.58-6.9-30.72-12.82-62.99-15.55-94.26-2.63-30.07-.45-61.12.93-91.74.1-2.29-.2-5.06-2.46-5.18-5.94-.32-13.19,17.48-15.24,21.5-13.46,26.29-23.11,55.72-20.42,86.08.57,6.47,2.31,12.65,4.16,18.5,5.7,17.94,13.04,35.57,20.73,52.86,9.5,21.35,19.73,42.63,30.19,63.57,10.07,20.17,20.49,40.33,31.05,60.26,7.69,14.51,15.54,29.03,23.45,43.45,2.07,3.78,4.16,7.56,6.26,11.32.26.46.88,2.46,1.49,2.55,4.87.67,1.08-11.46.76-12.97-1.23-5.83-2.59-11.6-4.02-17.33Z"/><path class="cls-3" d="m2031.08,1002.38c21.95-60.07,48.37-119.33,60.02-181.92,6.44-34.6,12.29-70.43,15.03-105.32,2.36-30.04.47-60.76-.89-91.23-.1-2.22.19-5.21,2.37-6.92,5.72-4.51,12.6,8.27,14.65,10.82,16.72,20.76,20.96,46.69,19.51,71.94-.39,6.75-2.2,14.29-3.97,21.45-5.58,22.67-12.59,45.2-19.83,67.46-9.23,28.37-19.06,56.72-29.13,84.84-9.82,27.44-19.96,54.88-30.26,82.16-7.57,20.02-15.27,40.06-23.06,60.01-2.05,5.25-4.11,10.5-6.19,15.74-.25.64-.87,3.08-1.47,3.6-4.82,4.11-1.07-10.7-.76-12.43,1.22-6.71,2.56-13.44,3.97-20.18Z"/><path class="cls-1" d="m1998.99,714.98c0,108.04,0,216.08,0,324.12"/><path class="cls-3" d="m2005.97,756.51c7.25-6.77,17.94-11.74,27-15.12,3.15-1.18,6.43-2.49,9.46-2.94,3.04-.45,5.88,0,7.06,1.81,1.14,1.76.46,4.71-1.66,7.26-2.13,2.55-5.59,4.55-8.51,4.91-5.16.63-7.37-3.37-12.16-3.56-2.8-.11-6.23,1.13-9.3,2.94s-5.82,4.16-8.34,6.59c-1.16,1.12-2.39,2.32-3.85,2.95-5.06,2.17-1.47-3.18.32-4.85Z"/><path class="cls-3" d="m1992.04,761.5c-7.58-1.64-17.67,1.23-27.18,4.32-3.22,1.05-6.51,2.15-9.59,3.9-3.08,1.75-5.97,4.26-7.17,6.91-1.16,2.58-.47,5.05,1.69,6.06s5.68.5,8.64-1.25c5.23-3.09,7.46-8.68,12.3-12.33,2.83-2.13,6.29-3.37,9.38-3.76,3.09-.4,5.85-.02,8.38.59,1.17.28,2.39.61,3.87.19,5.07-1.47,1.47-4.23-.32-4.62Z"/><path class="cls-3" d="m2005.97,782.7c7.25-6.77,17.94-11.74,27-15.11,3.15-1.17,6.43-2.49,9.46-2.93,3.04-.45,5.88,0,7.06,1.81,1.14,1.76.46,4.71-1.66,7.26-2.13,2.55-5.59,4.55-8.51,4.91-5.16.63-7.37-3.37-12.16-3.56-2.8-.11-6.23,1.12-9.3,2.94-3.07,1.81-5.82,4.16-8.34,6.58-1.16,1.12-2.39,2.32-3.85,2.95-5.06,2.17-1.47-3.18.32-4.85Z"/><path class="cls-3" d="m1992.04,787.69c-7.58-1.64-17.67,1.22-27.18,4.31-3.22,1.05-6.51,2.15-9.59,3.9-3.08,1.75-5.97,4.25-7.17,6.91-1.16,2.58-.47,5.05,1.69,6.06,2.16,1.01,5.68.5,8.64-1.25,5.23-3.09,7.46-8.68,12.3-12.33,2.83-2.13,6.29-3.36,9.38-3.76,3.09-.4,5.85-.02,8.38.59,1.17.28,2.39.61,3.87.19,5.07-1.46,1.47-4.23-.32-4.62Z"/><path class="cls-3" d="m2005.97,807.75c7.25-6.76,17.94-11.74,27-15.11,3.15-1.17,6.43-2.49,9.46-2.93,3.04-.45,5.88,0,7.06,1.81,1.14,1.76.46,4.71-1.66,7.26-2.13,2.55-5.59,4.55-8.51,4.9-5.16.63-7.37-3.37-12.16-3.56-2.8-.11-6.23,1.12-9.3,2.93-3.07,1.81-5.82,4.16-8.34,6.58-1.16,1.12-2.39,2.32-3.85,2.95-5.06,2.17-1.47-3.18.32-4.85Z"/><path class="cls-3" d="m1992.04,812.74c-7.58-1.64-17.67,1.22-27.18,4.31-3.22,1.05-6.51,2.15-9.59,3.89-3.08,1.75-5.97,4.25-7.17,6.91-1.16,2.58-.47,5.05,1.69,6.06s5.68.51,8.64-1.24c5.23-3.09,7.46-8.68,12.3-12.32,2.83-2.13,6.29-3.36,9.38-3.76,3.09-.39,5.85-.02,8.38.59,1.17.28,2.39.61,3.87.19,5.07-1.46,1.47-4.23-.32-4.62Z"/><path class="cls-3" d="m2005.97,834.7c7.25-6.76,17.94-11.73,27-15.1,3.15-1.17,6.43-2.49,9.46-2.93,3.04-.45,5.88,0,7.06,1.82,1.14,1.76.46,4.71-1.66,7.26-2.13,2.55-5.59,4.55-8.51,4.9-5.16.63-7.37-3.37-12.16-3.56-2.8-.11-6.23,1.12-9.3,2.93-3.07,1.81-5.82,4.16-8.34,6.58-1.16,1.12-2.39,2.32-3.85,2.95-5.06,2.16-1.47-3.18.32-4.85Z"/><path class="cls-3" d="m1992.04,839.69c-7.58-1.64-17.67,1.22-27.18,4.3-3.22,1.04-6.51,2.15-9.59,3.89-3.08,1.75-5.97,4.25-7.17,6.91-1.16,2.58-.47,5.05,1.69,6.06,2.16,1.01,5.68.51,8.64-1.24,5.23-3.09,7.46-8.68,12.3-12.32,2.83-2.13,6.29-3.36,9.38-3.76,3.09-.39,5.85-.02,8.38.59,1.17.28,2.39.61,3.87.19,5.07-1.46,1.47-4.23-.32-4.62Z"/><path class="cls-3" d="m2005.97,860.89c7.25-6.76,17.94-11.73,27-15.1,3.15-1.17,6.43-2.48,9.46-2.93,3.04-.44,5.88,0,7.06,1.82,1.14,1.76.46,4.71-1.66,7.26-2.13,2.55-5.59,4.54-8.51,4.9-5.16.63-7.37-3.37-12.16-3.57-2.8-.11-6.23,1.12-9.3,2.93s-5.82,4.16-8.34,6.58c-1.16,1.12-2.39,2.32-3.85,2.95-5.06,2.16-1.47-3.18.32-4.85Z"/><path class="cls-3" d="m1992.04,865.87c-7.58-1.64-17.67,1.21-27.18,4.3-3.22,1.04-6.51,2.15-9.59,3.89-3.08,1.74-5.97,4.25-7.17,6.91-1.16,2.58-.47,5.05,1.69,6.06,2.16,1.01,5.68.51,8.64-1.24,5.23-3.09,7.46-8.68,12.3-12.32,2.83-2.13,6.29-3.36,9.38-3.75,3.09-.39,5.85-.02,8.38.59,1.17.28,2.39.61,3.87.19,5.07-1.46,1.47-4.23-.32-4.62Z"/><path class="cls-3" d="m2005.97,885.94c7.25-6.76,17.94-11.73,27-15.09,3.15-1.17,6.43-2.48,9.46-2.93,3.04-.44,5.88,0,7.06,1.82,1.14,1.76.46,4.71-1.66,7.26-2.13,2.55-5.59,4.54-8.51,4.9-5.16.63-7.37-3.38-12.16-3.57-2.8-.11-6.23,1.12-9.3,2.93-3.07,1.81-5.82,4.16-8.34,6.58-1.16,1.12-2.39,2.32-3.85,2.95-5.06,2.16-1.47-3.18.32-4.85Z"/><path class="cls-3" d="m1992.04,890.92c-7.58-1.65-17.67,1.21-27.18,4.29-3.22,1.04-6.51,2.15-9.59,3.89-3.08,1.74-5.97,4.25-7.17,6.91-1.16,2.58-.47,5.05,1.69,6.06,2.16,1.01,5.68.51,8.64-1.24,5.23-3.08,7.46-8.68,12.3-12.32,2.83-2.13,6.29-3.36,9.38-3.75,3.09-.39,5.85-.02,8.38.6,1.17.28,2.39.61,3.87.19,5.07-1.46,1.47-4.23-.32-4.62Z"/><path class="cls-3" d="m2005.97,906.82c7.25-6.76,17.95-11.72,27-15.09,3.15-1.17,6.43-2.48,9.46-2.93,3.04-.44,5.88,0,7.06,1.82,1.14,1.76.46,4.71-1.66,7.26-2.13,2.55-5.59,4.54-8.51,4.9-5.16.63-7.37-3.38-12.16-3.57-2.8-.11-6.23,1.12-9.3,2.93-3.07,1.81-5.82,4.16-8.34,6.58-1.16,1.12-2.39,2.32-3.85,2.95-5.06,2.16-1.47-3.18.32-4.85Z"/><path class="cls-3" d="m1992.04,911.8c-7.58-1.65-17.67,1.21-27.18,4.29-3.22,1.04-6.51,2.14-9.59,3.89-3.08,1.74-5.97,4.25-7.17,6.91-1.16,2.58-.47,5.05,1.69,6.06,2.16,1.01,5.68.51,8.64-1.24,5.23-3.08,7.46-8.68,12.3-12.32,2.83-2.13,6.29-3.36,9.38-3.75,3.09-.39,5.85-.02,8.38.6,1.17.28,2.39.61,3.87.19,5.07-1.46,1.47-4.23-.32-4.62Z"/><path class="cls-3" d="m2005.97,933.01c7.25-6.76,17.95-11.72,27-15.08,3.15-1.17,6.43-2.48,9.46-2.92,3.04-.44,5.88.01,7.06,1.82,1.14,1.76.46,4.71-1.66,7.26-2.13,2.55-5.59,4.54-8.51,4.9-5.16.63-7.37-3.38-12.16-3.57-2.8-.11-6.23,1.12-9.3,2.93-3.07,1.81-5.82,4.16-8.34,6.58-1.16,1.12-2.39,2.32-3.85,2.95-5.06,2.16-1.47-3.18.32-4.85Z"/><path class="cls-3" d="m1992.04,937.99c-7.58-1.65-17.67,1.21-27.18,4.28-3.22,1.04-6.51,2.14-9.59,3.89-3.08,1.74-5.97,4.25-7.17,6.9-1.16,2.58-.47,5.05,1.69,6.06,2.16,1.01,5.68.51,8.64-1.24,5.23-3.08,7.46-8.67,12.3-12.31,2.83-2.12,6.29-3.36,9.38-3.75,3.09-.39,5.85-.02,8.38.6,1.17.28,2.39.61,3.87.19,5.07-1.46,1.47-4.23-.32-4.62Z"/><path class="cls-3" d="m2005.97,958.06c7.25-6.76,17.95-11.72,27-15.08,3.15-1.17,6.43-2.48,9.46-2.92,3.04-.44,5.88.01,7.06,1.82,1.14,1.76.46,4.71-1.66,7.26-2.13,2.55-5.59,4.54-8.51,4.9-5.16.63-7.37-3.38-12.16-3.58-2.8-.11-6.23,1.12-9.3,2.92-3.07,1.81-5.82,4.16-8.34,6.57-1.16,1.12-2.39,2.32-3.85,2.95-5.06,2.16-1.47-3.18.32-4.85Z"/><path class="cls-3" d="m1992.04,963.03c-7.58-1.65-17.67,1.2-27.18,4.28-3.22,1.04-6.51,2.14-9.59,3.88-3.08,1.74-5.97,4.25-7.17,6.9-1.16,2.58-.47,5.05,1.69,6.06,2.16,1.01,5.68.51,8.64-1.24,5.23-3.08,7.46-8.67,12.3-12.31,2.83-2.12,6.29-3.36,9.38-3.75,3.09-.39,5.85-.01,8.38.6,1.17.28,2.39.61,3.87.19,5.07-1.46,1.47-4.23-.32-4.62Z"/><path class="cls-2" d="m1998.99,587.82v127.17"/><path class="cls-2" d="m1741.37,674.79c.14-1.05.32-2.11.55-3.15,3.09-13.68,17.7-4.09,24.21.99,25.15,19.57,32.7,57.42,4.86,78.48-11.48,8.89-23.01,17.72-34.58,26.49-1.82,1.37-2.73,2.06-4.55,3.43-6.53,4.92-13.7,7.56-20.55,8.15t-.02,0"/><path class="cls-2" d="m1681.34,687.62h0c-.18-1.55-.39-3.13-.77-4.56-3.62-13.53-20.13,5.12-24.39,10.04-15.82,18.26-41.87,67.88-4.89,80.23,13.1,5.2,26.22,10.31,39.38,15.34,1.78.67,3.6,1.17,5.45,1.48.01,0,.02,0,.03,0,4.98.85,10.14.46,15.13-.97t.02,0"/><path class="cls-2" d="m1754.75,679.75c-14.01-5.2-27.98-10.5-41.92-15.89-13.96,10.63-27.98,21.16-42.07,31.61-17.56,12.89-28.16,39.79-11.87,58.04,8.96,9.97,17.96,19.92,26.97,29.85,15.6,16.85,42.69,6.42,53.87-10.04,8.97-13.27,17.9-26.57,26.79-39.9,12.02-17.71,11.23-45.35-11.78-53.65Z"/><path class="cls-1" d="m1712.61,792.47c0,107.83,0,215.66,0,323.49"/><path class="cls-3" d="m1719.84,835.07c7.68-5.65,18.92-8.82,28.01-10.61,3.26-.64,6.68-1.42,9.83-1.36,3.16.06,6.12.98,7.34,2.98,1.19,1.94.48,4.78-1.73,6.97-2.21,2.19-5.81,3.61-8.85,3.48-5.36-.23-7.65-4.59-12.63-5.57-2.91-.58-6.47.09-9.65,1.39-3.18,1.3-6.04,3.19-8.65,5.19-1.2.92-2.47,1.93-4,2.31-5.24,1.33-1.52-3.42.33-4.79Z"/><path class="cls-3" d="m1705.41,837.75c-8.3-2.93-19.72-1.66-28.11-.17-3.24.57-6.72,1.08-9.9,2.31s-6.16,3.27-7.4,5.72c-1.2,2.38-.49,4.96,1.74,6.32,2.23,1.36,5.86,1.44,8.92.17,5.4-2.22,7.7-7.44,12.71-10.28,2.92-1.66,6.5-2.32,9.69-2.21,3.19.11,6.05.94,8.67,1.97,1.21.47,2.48,1,4,.82,5.25-.63,1.51-4.01-.33-4.66Z"/><path class="cls-3" d="m1719.84,861.21c7.68-5.65,18.92-8.81,28.01-10.61,3.26-.64,6.68-1.41,9.83-1.35,3.16.06,6.12.98,7.34,2.99,1.19,1.94.48,4.78-1.73,6.97-2.21,2.19-5.81,3.61-8.85,3.48-5.36-.23-7.65-4.59-12.63-5.58-2.91-.58-6.47.09-9.65,1.39s-6.04,3.19-8.65,5.19c-1.2.92-2.47,1.92-4,2.31-5.24,1.32-1.52-3.42.33-4.79Z"/><path class="cls-3" d="m1705.41,863.89c-8.3-2.93-19.72-1.66-28.11-.18-3.24.57-6.72,1.08-9.9,2.31-3.18,1.24-6.16,3.27-7.4,5.72-1.2,2.38.5,4.51,2.24,6.1,1.73,1.59,5.37,1.66,8.42.4,5.4-2.22,7.7-7.44,12.71-10.28,2.92-1.66,6.5-2.32,9.69-2.21,3.19.11,6.05.94,8.67,1.97,1.21.47,2.48,1.01,4,.82,5.25-.62,1.51-4.01-.33-4.66Z"/><path class="cls-3" d="m1719.84,886.21c7.68-5.65,18.92-8.81,28.01-10.6,3.26-.64,6.68-1.41,9.83-1.35,3.16.06,6.12.99,7.34,2.99,1.19,1.94.48,4.78-1.73,6.97-2.21,2.19-5.81,3.61-8.85,3.48-5.36-.23-7.65-4.59-12.63-5.58-2.91-.58-6.47.09-9.65,1.39s-6.04,3.19-8.65,5.19c-1.2.92-2.47,1.92-4,2.31-5.24,1.32-1.52-3.42.33-4.79Z"/><path class="cls-3" d="m1705.41,888.89c-8.3-2.93-19.72-1.67-28.11-.18-3.24.57-6.74,1.07-9.9,2.31-3.05,1.2-4.85,3.15-5.55,5.68-.68,2.45-2.33,5-.1,6.36,2.23,1.36,5.86,1.44,8.92.18,5.4-2.22,7.7-7.44,12.71-10.28,2.92-1.66,6.5-2.32,9.69-2.21,3.19.11,6.05.94,8.67,1.97,1.21.47,2.48,1.01,4,.82,5.25-.62,1.51-4.01-.33-4.66Z"/><path class="cls-3" d="m1719.84,913.11c7.68-5.65,18.92-8.81,28.01-10.6,3.26-.64,6.68-1.41,9.83-1.35,3.16.06,6.12.99,7.34,2.99,1.19,1.94.48,4.78-1.73,6.97-2.21,2.19-5.81,3.6-8.85,3.48-5.36-.23-7.65-4.59-12.63-5.58-2.91-.58-6.47.08-9.65,1.38-3.18,1.3-6.04,3.19-8.65,5.19-1.2.92-2.47,1.92-4,2.31-5.24,1.32-1.52-3.42.33-4.79Z"/><path class="cls-3" d="m1705.41,915.79c-8.3-2.93-19.72-1.67-28.11-.19-3.24.57-6.72,1.07-9.9,2.31-3.18,1.24-6.17,3.26-7.4,5.72-1.2,2.38-.49,4.96,1.74,6.32,2.23,1.36,5.86,1.44,8.92.18,5.4-2.22,7.7-7.44,12.71-10.27,2.92-1.66,6.5-2.32,9.69-2.2,3.19.12,6.05.95,8.67,1.97,1.21.47,2.48,1.01,4,.83,5.25-.62,1.51-4.01-.33-4.66Z"/><path class="cls-3" d="m1719.84,939.25c7.68-5.65,18.92-8.8,28.01-10.59,3.26-.64,6.68-1.41,9.83-1.35,3.16.06,6.12.99,7.34,2.99,1.19,1.94.48,4.78-1.73,6.97-2.21,2.19-5.81,3.6-8.85,3.47-5.36-.23-7.65-4.59-12.63-5.58-2.91-.58-6.47.08-9.65,1.38-3.18,1.3-6.04,3.19-8.65,5.18-1.2.92-2.47,1.92-4,2.31-5.24,1.32-1.52-3.42.33-4.78Z"/><path class="cls-3" d="m1705.41,941.92c-8.3-2.93-19.72-1.67-28.11-.19-3.24.57-6.72,1.07-9.9,2.31-3.18,1.24-6.17,3.26-7.4,5.72-1.2,2.38-.49,4.96,1.74,6.32,2.23,1.36,5.86,1.44,8.92.18,5.4-2.22,7.7-7.43,12.71-10.27,2.92-1.66,6.5-2.32,9.69-2.2,3.19.12,6.05.95,8.67,1.98,1.21.47,2.48,1.01,4,.83,5.25-.62,1.51-4.01-.33-4.66Z"/><path class="cls-3" d="m1719.84,964.25c7.68-5.65,18.93-8.8,28.01-10.59,3.26-.64,6.68-1.41,9.83-1.35,3.16.06,6.12.99,7.34,2.99,1.19,1.94.48,4.78-1.73,6.97-2.21,2.19-5.81,3.6-8.85,3.47-5.36-.23-7.65-4.59-12.63-5.58-2.91-.58-6.47.08-9.65,1.38-3.18,1.3-6.04,3.19-8.65,5.18-1.2.92-2.47,1.92-4,2.31-5.24,1.32-1.52-3.43.33-4.79Z"/><path class="cls-3" d="m1705.41,966.92c-8.3-2.94-19.72-1.68-28.11-.2-3.24.57-6.72,1.07-9.9,2.31-3.18,1.23-6.16,3.26-7.4,5.72-1.2,2.38-.49,4.96,1.74,6.32,2.23,1.36,5.86,1.44,8.92.18,5.4-2.22,7.7-7.43,12.71-10.27,2.92-1.66,6.5-2.32,9.69-2.2,3.19.12,6.05.95,8.67,1.98,1.21.47,2.48,1.01,4,.83,5.25-.62,1.51-4.01-.33-4.66Z"/><path class="cls-3" d="m1719.84,985.09c7.68-5.64,18.92-8.8,28.01-10.58,3.26-.64,6.68-1.41,9.83-1.35,3.16.06,6.12.99,7.34,2.99,1.19,1.94.48,4.78-1.73,6.97-2.21,2.19-5.81,3.6-8.85,3.47-5.36-.23-7.65-4.6-12.63-5.59-2.91-.58-6.47.08-9.65,1.38-3.18,1.3-6.04,3.18-8.65,5.18-1.2.92-2.47,1.92-4,2.31-5.24,1.32-1.52-3.43.33-4.78Z"/><path class="cls-3" d="m1705.41,987.76c-8.3-2.94-19.72-1.68-28.11-.2-3.24.57-6.72,1.07-9.9,2.3-3.18,1.23-6.16,3.26-7.4,5.72-1.2,2.38-.49,4.96,1.74,6.32,2.23,1.36,5.86,1.44,8.92.18,5.4-2.22,7.7-7.43,12.71-10.27,2.92-1.66,6.5-2.32,9.69-2.2,3.19.12,6.05.95,8.67,1.98,1.21.47,2.48,1.01,4,.83,5.25-.62,1.51-4.01-.33-4.66Z"/><path class="cls-3" d="m1719.84,1011.23c7.68-5.64,18.93-8.8,28.01-10.58,3.26-.64,6.68-1.41,9.83-1.34,3.16.06,6.12.99,7.34,2.99,1.19,1.94.48,4.78-1.73,6.97-2.21,2.19-5.81,3.6-8.85,3.47-5.36-.23-7.65-4.6-12.63-5.59-2.91-.58-6.47.08-9.65,1.38-3.18,1.3-6.04,3.18-8.65,5.18-1.2.92-2.47,1.92-4,2.31-5.24,1.32-1.52-3.43.33-4.78Z"/><path class="cls-3" d="m1705.41,1013.89c-8.3-2.94-19.72-1.68-28.11-.2-3.24.57-6.72,1.07-9.9,2.3-3.18,1.23-6.16,3.26-7.4,5.71-1.2,2.38-.49,4.96,1.74,6.32,2.23,1.36,5.86,1.44,8.92.18,5.4-2.22,7.7-7.43,12.71-10.27,2.92-1.66,6.5-2.32,9.69-2.2,3.19.12,6.05.95,8.67,1.98,1.21.48,2.48,1.01,4,.83,5.25-.62,1.51-4.01-.33-4.66Z"/><path class="cls-3" d="m1719.84,1036.23c7.69-5.64,18.93-8.79,28.01-10.57,3.26-.64,6.68-1.41,9.83-1.34,3.16.06,6.12.99,7.34,2.99,1.19,1.94.48,4.78-1.73,6.97-2.21,2.19-5.81,3.6-8.85,3.47-5.36-.23-7.65-4.6-12.63-5.59-2.91-.58-6.47.08-9.65,1.38s-6.04,3.18-8.65,5.18c-1.2.92-2.47,1.92-4,2.3-5.24,1.32-1.52-3.43.33-4.78Z"/><path class="cls-3" d="m1705.41,1038.89c-8.3-2.94-19.71-1.69-28.11-.21-3.24.57-6.72,1.07-9.9,2.3-3.18,1.23-6.16,3.26-7.4,5.71-1.2,2.38-.49,4.96,1.74,6.32,2.23,1.37,5.86,1.44,8.92.19,5.4-2.22,7.7-7.43,12.71-10.26,2.92-1.65,6.5-2.31,9.69-2.2,3.19.12,6.05.95,8.67,1.98,1.21.48,2.48,1.01,4,.83,5.25-.62,1.51-4.01-.33-4.66Z"/><path class="cls-2" d="m1712.61,665.56c0,42.31,0,84.61,0,126.92"/><path class="cls-2" d="m2026.28,592.97c.14-1.08.31-2.16.53-3.24,2.6-12.87,15.87-8.19,23.3-2.89,28.55,20.33,26.16,53.36,4.67,77.85-11.04,10.75-22.13,21.44-33.28,32.09-1.75,1.67-2.63,2.5-4.38,4.16-6.29,5.97-13.21,9.77-19.83,11.45t-.02,0"/><path class="cls-2" d="m1968.32,615.42h0c-.18-1.53-.35-3.12-.75-4.45-3.72-12.47-20.02,9.05-23.62,13.94-13.18,17.87-42.25,71.64-4.75,81.17,12.68,3.16,25.4,6.19,38.14,9.1,1.72.39,3.48.59,5.27.61.01,0,.02,0,.03,0,4.81.06,9.8-1.16,14.62-3.39t.02,0"/><path class="cls-2" d="m2039.15,595.81c-13.5-2.93-26.97-6.01-40.41-9.22-13.48,12.88-27.04,25.67-40.68,38.37-14.97,13.84-28.89,42.48-11.5,60.04,8.68,8.56,17.39,17.1,26.12,25.61,17.01,16.05,42.95-3.26,52.01-18.67,8.63-14.74,17.23-29.49,25.79-44.27,7.78-16.63,14.68-46.49-11.33-51.87Z"/><path class="cls-2" d="m2193.36,444.02c6.48,2.85,16.52-2.22,22.96-11.6h0c6.44-9.37,16.42-14.59,22.83-11.93,0,0,0,0,0,0,6.41,2.66,16.33-2.71,22.69-12.27,0,0,0,0,0,0,6.37-9.56,16.23-15.08,22.56-12.61h0c6.33,2.47,16.13-3.19,22.42-12.95,0,0,0,0,0,0,6.29-9.76,16.02-15.57,22.27-13.29,0,0,0,0,0,0,6.25,2.28,15.92-3.68,22.12-13.63,0,0,0,0,0,0,6.2-9.95,15.81-16.06,21.97-13.97,0,0,0,0,0,0,6.16,2.09,15.7-4.16,21.81-14.3,0,0,0,0,0,0,6.12-10.14,15.58-16.55,21.65-14.64,0,0,0,0,0,0,6.07,1.9,15.46-4.65,21.49-14.98,0,0,0,0,0,0,6.02-10.33,15.34-17.03,21.32-15.32,0,0,0,0,0,0,5.98,1.71,15.22-5.13,21.15-15.66,0,0,0,0,0-.01,5.93-10.53,15.1-17.52,20.97-16,0,0,0,0,0,0,5.88,1.52,14.97-5.62,20.79-16.34,0,0,0,0,0-.01,5.83-10.72,14.84-18.01,20.61-16.68,0,0,0,0,0,0,9.8.44,15.88-10.38,20.43-17.02,0,0,0,0,0,0,4.53-6.66,10.52-17.42,20.23-17.35,0,0,0,0,0,0,9.76.04,15.63-10.98,20.04-17.69,0,0,0,0,0,0,4.4-6.74,10.19-17.71,19.84-18.03,0,0,0,0,0,0,9.7-.35,15.36-11.57,19.64-18.37,0,0,0,0,0-.01,4.27-6.83,9.85-17.98,19.44-18.71,0,0,0,0,0,0,9.62-.76,15.08-12.17,19.23-19.05,0,0,0-.01,0-.02,4.14-6.91,9.51-18.24,19.01-19.38,0,0,0,0,0,0,9.54-1.18,14.78-12.76,18.8-19.72,0,0,0-.01.01-.02,4.01-7.01,9.17-18.5,18.58-20.06,0,0,0,0,.01,0"/><path class="cls-2" d="m310.52,285.23c6.03,10.2,15.44,16.69,21.52,14.83h0c6.08-1.86,15.56,4.47,21.69,14.49,0,0,0,0,0,0,6.12,10.01,15.68,16.2,21.84,14.15,0,0,0,0,0,0,6.17-2.05,15.79,3.99,22,13.81h0c6.21,9.83,15.9,15.72,22.15,13.47,0,0,0,0,0,0,6.25-2.24,16,3.5,22.3,13.13,0,0,0,0,0,0,6.3,9.64,16.11,15.23,22.44,12.79,0,0,0,0,0,0,6.34-2.44,16.21,3.01,22.58,12.46,0,0,0,0,0,0,6.38,9.45,16.31,14.75,22.72,12.12,0,0,0,0,0,0,6.41-2.63,16.4,2.52,22.85,11.78,0,0,0,0,0,0,6.45,9.26,16.5,14.26,22.98,11.44h0c6.49-2.82,16.59,2.03,23.11,11.1,0,0,0,0,0,.01,6.52,9.07,16.68,13.77,23.23,10.76,0,0,0,0,0,0,6.55-3.01,16.76,1.54,23.35,10.42,0,0,0,0,0,0,6.59,8.88,16.84,13.29,23.46,10.08,0,0,0,0,0,0,6.62-3.21,16.92,1.05,23.57,9.74,0,0,0,0,0,0,6.65,8.69,17,12.8,23.68,9.41,0,0,0,0,0,0,6.68-3.4,17.08.56,23.78,9.07,0,0,0,0,0,0,6.71,8.5,17.15,12.32,23.88,8.73,0,0,0,0,0,0,6.73-3.59,17.22.07,23.98,8.39,0,0,0,0,0,0,6.76,8.31,17.28,11.84,24.07,8.05,0,0,0,0,0,0,6.79-3.78,17.35-.41,24.16,7.71h.01c6.81,8.14,17.41,11.36,24.24,7.39,0,0,0,0,.01,0,6.83-3.98,17.46-.9,24.32,7.03,0,0,0,0,.01.01,6.86,7.94,17.52,10.86,24.4,6.7,0,0,0,0,.01,0,6.88-4.17,17.57-1.39,24.47,6.36,0,0,.01.01.02.02"/><path class="cls-2" d="m6.64,37.98c3.95.83,8.96,4.13,13.69,11.29,4.1,6.19,7.32,14.84,12.25,20.87,6.42,7.85,12.19,5.85,17.31,8.98,3.22,1.96,7.44,6.71,10.81,12.91,5.23,9.62,12.75,24.99,26.05,24.64,4.99-.13,12.63,12.5,17.01,21.16,3.99,7.89,9.96,11.57,12.86,12.98,3.25,1.57,7.12,2.76,10.35,3.54,2.32.55,6.22,3.54,9.54,8.61,5.28,8.06,11.32,21.12,20.09,24.69,6.19,2.52,13.39.54,21.17,11.22,5.34,7.33,9.86,17.6,16.91,22.05,7.55,4.76,13.42-.9,21.54,8.57,5.41,6.31,9.03,14.21,14.47,19.39,6.27,5.97,13.39,6.57,18.21,8.13,10.31,3.35,17.71,18.62,24.8,25.55,1.41,1.38,3.78,3.82,5.55,4.07,4.36.61,9.91-.49,13.91,1.14,5.25,2.15,11.18,8.95,14.53,14.84"/><path class="cls-3" d="m105.66,618.1c-17.88-67.5-39.24-134.77-49-203.64-5.14-36.29-9.9-73.49-12.14-109.9-1.83-29.59-.39-59.66.72-89.54.08-2.15-.16-5.21-1.91-7.78-4.61-6.76-10.16,3.05-11.78,4.72-15.84,16.34-16.49,41.96-15.61,62.91.29,6.88,1.76,14.98,3.17,22.75,4.52,24.93,10.11,49.84,15.89,74.57,7.45,31.87,15.37,63.75,23.5,95.46,7.98,31.12,16.22,62.25,24.62,93.27,6.19,22.84,12.5,45.7,18.89,68.5,1.68,6.01,3.38,12.01,5.09,18.02.21.73.71,3.39,1.21,4.14,3.98,6.01.88-10.13.62-11.96-1-7.11-2.11-14.29-3.27-21.51Z"/><path class="cls-3" d="m163.52,671.23c20.09-37.23,42.85-71.67,51.74-112.75,6.11-28.25,10.98-58.21,13.24-87.11,2.34-29.86.37-60.68-.79-91.05-.09-2.3.67-5.06,2.1-4.17,6.84,4.26,9.82,18.11,13.03,27.14,10.48,29.61,20.02,61.19,17.52,93.01-.48,6.16-1.97,11.62-3.58,16.69-4.78,15.04-11.05,29.82-17.77,44.23-8.01,17.18-16.76,34.31-25.73,51.06-8.48,15.85-17.32,31.72-26.28,47.33-6.45,11.24-13.06,22.49-19.72,33.63-1.74,2.91-3.49,5.81-5.24,8.69-.21.35-.74,2.08-1.24,1.92-4.1-1.28-.9-11.75-.64-13.11,1.03-5.27,2.17-10.43,3.36-15.52Z"/><path class="cls-1" d="m136.58,352.14c0,106.64,0,213.27,0,319.9"/><path class="cls-3" d="m142.4,400.81c6.31,1.36,14.74,8.14,22.72,14.91,2.7,2.29,5.46,4.66,8.05,7.59,2.59,2.93,5.02,6.53,6.03,9.62.98,3,.4,5.17-1.42,5.32s-4.78-1.72-7.27-4.6c-4.39-5.09-6.26-11.49-10.32-16.98-2.37-3.21-5.26-5.78-7.84-7.38s-4.89-2.32-6.99-2.71c-.97-.18-1.99-.34-3.22-1.33-4.22-3.44-1.23-4.75.27-4.43Z"/><path class="cls-3" d="m130.81,390.41c-6.26-9.23-13.95-17.79-22.33-25.58-2.62-2.44-5.3-5-7.79-6.65-2.5-1.64-4.83-2.33-5.8-1.01-.94,1.28-.38,4.46,1.36,7.82,1.75,3.36,4.59,6.71,7,8.22,4.24,2.67,6.07-.4,10.03,1.31,2.31,1,5.15,3.57,7.69,6.57,2.54,3,4.82,6.4,6.91,9.79.96,1.56,1.98,3.23,3.2,4.43,4.2,4.13,1.25-2.68-.26-4.91Z"/><path class="cls-3" d="m142.4,426.66c6.31,1.36,14.74,8.14,22.72,14.91,2.7,2.29,5.46,4.67,8.05,7.59,2.59,2.93,5.02,6.53,6.03,9.62.98,3,.4,5.17-1.42,5.32s-4.78-1.72-7.27-4.6c-4.39-5.09-6.26-11.49-10.32-16.98-2.37-3.21-5.26-5.78-7.84-7.38s-4.89-2.32-6.99-2.71c-.97-.18-1.99-.34-3.22-1.34-4.22-3.44-1.23-4.76.27-4.43Z"/><path class="cls-3" d="m130.81,416.25c-6.26-9.23-13.95-17.79-22.33-25.58-2.62-2.44-5.3-5-7.79-6.65-2.5-1.65-4.83-2.33-5.8-1.02-.94,1.28-.38,4.46,1.36,7.82,1.75,3.36,4.59,6.71,7,8.22,4.24,2.67,6.07-.4,10.03,1.31,2.31,1,5.15,3.58,7.69,6.58,2.54,3,4.82,6.41,6.91,9.79.96,1.56,1.98,3.23,3.2,4.43,4.2,4.13,1.25-2.68-.26-4.91Z"/><path class="cls-3" d="m142.4,451.39c6.31,1.36,14.74,8.15,22.72,14.92,2.7,2.29,5.46,4.67,8.05,7.59,2.59,2.93,5.02,6.53,6.03,9.62.98,3,.4,5.17-1.42,5.32-1.82.15-4.78-1.72-7.27-4.6-4.39-5.09-6.26-11.49-10.32-16.98-2.37-3.21-5.26-5.78-7.84-7.39s-4.89-2.32-6.99-2.71c-.97-.18-1.99-.34-3.22-1.34-4.22-3.44-1.23-4.76.27-4.43Z"/><path class="cls-3" d="m130.81,440.98c-6.26-9.23-13.95-17.8-22.33-25.58-2.62-2.44-5.3-5-7.79-6.65-2.5-1.65-4.83-2.33-5.8-1.02-.94,1.28-.38,4.46,1.36,7.82,1.75,3.36,4.59,6.71,7,8.22,4.24,2.67,6.07-.4,10.03,1.31,2.31,1,5.15,3.58,7.69,6.58,2.54,3,4.82,6.41,6.91,9.79.96,1.56,1.98,3.23,3.2,4.44,4.2,4.13,1.25-2.68-.26-4.91Z"/><path class="cls-3" d="m142.4,477.99c6.31,1.36,14.74,8.15,22.72,14.92,2.7,2.29,5.46,4.67,8.05,7.59,2.59,2.93,5.02,6.53,6.03,9.62.98,3,.4,5.17-1.42,5.32s-4.78-1.72-7.27-4.61c-4.39-5.09-6.26-11.49-10.32-16.99-2.37-3.21-5.26-5.79-7.84-7.39s-4.89-2.32-6.99-2.71c-.97-.18-1.99-.34-3.22-1.34-4.22-3.44-1.23-4.76.27-4.43Z"/><path class="cls-3" d="m130.81,467.57c-6.26-9.23-13.95-17.8-22.33-25.59-2.62-2.44-5.3-5-7.79-6.65s-4.83-2.33-5.8-1.02c-.94,1.28-.38,4.46,1.36,7.82,1.75,3.36,4.59,6.71,7,8.23,4.24,2.67,6.07-.4,10.03,1.31,2.31,1,5.15,3.58,7.69,6.58,2.54,3,4.82,6.41,6.91,9.79.96,1.56,1.98,3.24,3.2,4.44,4.2,4.13,1.25-2.68-.26-4.91Z"/><path class="cls-3" d="m142.4,503.84c6.31,1.36,14.74,8.15,22.72,14.93,2.7,2.29,5.46,4.67,8.05,7.6,2.59,2.93,5.02,6.53,6.03,9.63.98,3,.4,5.17-1.42,5.32-1.82.15-4.78-1.72-7.27-4.61-4.39-5.09-6.26-11.49-10.32-16.99-2.37-3.21-5.26-5.79-7.84-7.39s-4.89-2.32-6.99-2.71c-.97-.18-1.99-.34-3.22-1.34-4.22-3.44-1.23-4.76.27-4.43Z"/><path class="cls-3" d="m130.81,493.42c-6.26-9.23-13.95-17.8-22.33-25.59-2.62-2.44-5.3-5.01-7.79-6.65-2.5-1.65-4.83-2.34-5.8-1.02-.94,1.28-.38,4.46,1.36,7.82,1.75,3.36,4.59,6.71,7,8.23,4.24,2.67,6.07-.4,10.03,1.31,2.31,1,5.15,3.58,7.69,6.58,2.54,3,4.82,6.41,6.91,9.79.96,1.56,1.98,3.24,3.2,4.44,4.2,4.14,1.25-2.68-.26-4.91Z"/><path class="cls-3" d="m142.4,528.56c6.31,1.37,14.74,8.16,22.72,14.93,2.7,2.29,5.46,4.67,8.05,7.6,2.59,2.93,5.02,6.54,6.03,9.63.98,3,.4,5.17-1.42,5.32-1.82.15-4.78-1.72-7.27-4.61-4.39-5.09-6.26-11.49-10.32-16.99-2.37-3.21-5.26-5.79-7.84-7.39-2.58-1.6-4.89-2.32-6.99-2.71-.97-.18-1.99-.34-3.22-1.34-4.22-3.44-1.23-4.76.27-4.43Z"/><path class="cls-3" d="m130.81,518.14c-6.26-9.23-13.95-17.81-22.33-25.6-2.62-2.44-5.3-5.01-7.79-6.65s-4.83-2.34-5.8-1.02c-.94,1.28-.38,4.46,1.36,7.82,1.75,3.36,4.59,6.71,7,8.23,4.24,2.67,6.07-.4,10.03,1.32,2.31,1,5.15,3.58,7.69,6.58,2.54,3,4.82,6.41,6.91,9.8.96,1.56,1.98,3.24,3.2,4.44,4.2,4.14,1.25-2.68-.26-4.91Z"/><path class="cls-3" d="m142.4,549.17c6.31,1.37,14.74,8.16,22.72,14.93,2.7,2.29,5.46,4.67,8.05,7.6,2.59,2.93,5.02,6.54,6.03,9.63.98,3,.4,5.17-1.42,5.32-1.82.15-4.78-1.72-7.27-4.61-4.39-5.1-6.26-11.49-10.32-16.99-2.37-3.21-5.26-5.79-7.84-7.39s-4.89-2.32-6.99-2.71c-.97-.18-1.99-.34-3.22-1.34-4.22-3.44-1.23-4.76.27-4.43Z"/><path class="cls-3" d="m130.81,538.75c-6.26-9.23-13.95-17.81-22.33-25.6-2.62-2.44-5.3-5.01-7.79-6.66s-4.83-2.34-5.8-1.02c-.94,1.28-.38,4.46,1.36,7.82,1.75,3.36,4.59,6.71,7,8.23,4.24,2.68,6.07-.4,10.03,1.32,2.31,1,5.15,3.58,7.69,6.58s4.82,6.41,6.91,9.8c.96,1.56,1.98,3.24,3.2,4.44,4.2,4.14,1.25-2.68-.26-4.91Z"/><path class="cls-3" d="m142.4,575.02c6.31,1.37,14.74,8.16,22.72,14.94,2.7,2.3,5.46,4.67,8.05,7.6,2.59,2.93,5.02,6.54,6.03,9.63.98,3,.4,5.17-1.42,5.32-1.82.15-4.78-1.72-7.27-4.61-4.39-5.1-6.26-11.5-10.32-16.99-2.37-3.21-5.26-5.79-7.84-7.39-2.58-1.6-4.89-2.32-6.99-2.72-.97-.18-1.99-.34-3.22-1.34-4.22-3.44-1.23-4.76.27-4.43Z"/><path class="cls-3" d="m130.81,564.59c-6.26-9.24-13.95-17.81-22.33-25.61-2.62-2.44-5.29-5.01-7.79-6.66-2.5-1.65-4.83-2.34-5.8-1.02-.94,1.28-.38,4.46,1.36,7.82,1.75,3.36,4.59,6.71,7,8.23,4.24,2.68,6.07-.39,10.03,1.32,2.31,1,5.15,3.58,7.69,6.59,2.54,3,4.82,6.41,6.91,9.8.96,1.56,1.98,3.24,3.2,4.44,4.2,4.14,1.25-2.68-.26-4.91Z"/><path class="cls-3" d="m142.4,599.74c6.31,1.37,14.74,8.17,22.72,14.94,2.7,2.3,5.46,4.67,8.05,7.6,2.59,2.93,5.02,6.54,6.03,9.63.98,3,.4,5.17-1.42,5.32-1.82.15-4.78-1.72-7.27-4.61-4.39-5.1-6.26-11.5-10.32-17-2.37-3.21-5.26-5.79-7.84-7.4s-4.89-2.32-6.99-2.72c-.97-.18-1.99-.34-3.22-1.34-4.22-3.45-1.23-4.76.27-4.43Z"/><path class="cls-3" d="m130.81,589.32c-6.26-9.24-13.95-17.82-22.33-25.61-2.62-2.44-5.3-5.01-7.79-6.66-2.5-1.65-4.83-2.34-5.8-1.02-.94,1.28-.38,4.46,1.36,7.83,1.75,3.36,4.59,6.71,7,8.23,4.24,2.68,6.07-.39,10.03,1.32,2.31,1,5.15,3.58,7.69,6.59,2.54,3,4.82,6.41,6.91,9.8.96,1.56,1.98,3.24,3.2,4.44,4.2,4.14,1.25-2.68-.26-4.91Z"/><path class="cls-2" d="m136.58,226.63c0,41.84,0,83.67,0,125.51"/><path class="cls-2" d="m159.46,261.83c.11-.91.17-2.01.45-2.61,3.67-7.9,17.36,17.94,19.83,22.97,4.45,9.11,37.84,90.02,4.01,82.03-9.46-1.61-18.9-3.35-28.31-5.22-1.48-.29-2.21-.44-3.69-.73-5.29-1.06-11.07-4.94-16.57-10.56t-.02-.02"/><path class="cls-2" d="m111.3,220.18h0c-.15-1.7-.33-3.43-.61-5.2-2.64-17.02-15.17-13.28-19.15-12.09-32.48,9.75-13.76,56.41-3.82,74.93,10.19,16.99,20.52,33.89,30.97,50.72,1.41,2.27,2.86,4.41,4.34,6.39,0,0,.02.03.03.03,3.96,5.34,8.09,9.63,12.09,12.74t.02.02"/><path class="cls-2" d="m170.37,278.89c-11.44-17.84-22.77-35.75-33.99-53.74-11.17-2.15-22.3-4.4-33.42-6.78-25.15-6.65-11.93,38.66-9.31,46.68,7.03,17.97,14.11,35.93,21.23,53.87,5.41,13.58,23.71,47.56,43.24,38.85,8.73-5.96,13.11-8.99,21.93-15.11,18.36-14.42-1.46-49.59-9.67-63.76Z"/><path class="cls-2" d="m2.87,17.76c3.68,3.79,7.38,1.35,10.96,4.74,1.62,1.53,4.39,4.4,5.68,6.1,5.71,7.53,9.86,20.67,18.82,26.74,5.74,3.89,11.4,3.22,17.37,10.86,7.01,8.97,12.96,25.74,22.6,29.39,4,1.51,10.88,1.04,16.93,9.4,1.74,2.4,3.69,5.27,5.96,8.63,4.38,6.46,9.73,15.66,13.7,17.76,5.87,3.1,11.71,2.31,17.27,6.86,5.16,4.22,9.52,13.72,13.92,20.36,6.69,10.08,13.39,10.91,19.3,11.87,2.49.41,6.16,2.48,8.83,5.56,7.7,8.89,16.2,27.16,25.82,28.46,4.09.55,12.05-.36,18.88,9.29,5.63,7.96,12.09,20.18,22.68,22.73,5.38,1.3,10.78.76,16.46,6.6,6.13,6.3,10.84,16.29,17.49,21.95,3.25,2.76,6.47,1.77,10.18,2.47,1.85.35,5.04,1.82,6.5,1.71,4.21-.33,11.18,6.98,15.46,14.02"/><path class="cls-2" d="m913.41,560.67c6.9,7.75,17.63,10.38,24.54,6.02h0c6.92-4.36,17.67-1.88,24.61,5.68,0,0,0,0,0,0,6.93,7.56,17.72,9.9,24.67,5.34,0,0,0,0,0,0,6.95-4.56,17.76-2.37,24.73,5h0c6.97,7.37,17.8,9.41,24.78,4.67,0,0,0,0,0,0,6.98-4.75,17.84-2.86,24.83,4.32,0,0,0,0,0,0,6.99,7.18,17.87,8.93,24.88,3.99,0,0,0,0,0,0,7.01-4.94,17.9-3.35,24.92,3.65,0,0,0,0,0,0,7.02,7,17.93,8.44,24.96,3.31,0,0,0,0,0,0,7.03-5.13,17.96-3.84,24.99,2.97,0,0,0,0,0,0,7.04,6.81,17.98,7.96,25.03,2.63,0,0,0,0,0,0,7.05-5.33,18-4.32,25.05,2.29,0,0,0,0,0,0,7.05,6.62,18.02,7.47,25.08,1.95,0,0,0,0,0,0,7.06-5.52,18.03-4.81,25.1,1.61,0,0,0,0,0,0,7.07,6.43,18.04,6.99,25.11,1.28,0,0,0,0,0,0,7.07-5.71,18.05-5.3,25.13.94,0,0,0,0,0,0,7.07,6.24,18.06,6.5,25.14.6,0,0,0,0,0,0,7.07-5.9,18.06-5.79,25.14.26,0,0,0,0,0,0,7.08,6.05,18.07,6.02,25.14-.08,0,0,0,0,0,0,7.08-6.1,18.07-6.28,25.14-.42,0,0,0,0,0,0,7.07,5.86,18.06,5.53,25.13-.76,0,0,0,0,0,0,7.07-6.29,18.05-6.77,25.12-1.1,0,0,0,0,.01,0,7.07,5.67,18.04,5.05,25.11-1.43,0,0,0,0,.01-.01,7.06-6.48,18.03-7.26,25.09-1.77,0,0,0,0,.01.01,7.06,5.48,18.02,4.56,25.07-2.11,0,0,0,0,.01-.01,7.05-6.67,18-7.75,25.04-2.45,0,0,.01,0,.02.01"/><path class="cls-2" d="m1563.05,607.07c7.05,5.3,17.98,4.08,25.02-2.79h0c7.04-6.87,17.96-8.24,24.99-3.13,0,0,0,0,0,0,7.03,5.11,17.94,3.59,24.95-3.47,0,0,0,0,0,0,7.02-7.06,17.91-8.73,24.91-3.81h0c7,4.92,17.88,3.11,24.87-4.14,0,0,0,0,0,0,6.99-7.25,17.84-9.21,24.82-4.48,0,0,0,0,0,0,6.98,4.73,17.81,2.62,24.77-4.82,0,0,0,0,0,0,6.96-7.45,17.77-9.7,24.71-5.16,0,0,0,0,0,0,6.95,4.54,17.73,2.14,24.66-5.5,0,0,0,0,0,0,6.93-7.64,17.68-10.19,24.59-5.84,0,0,0,0,0,0,6.91,4.35,17.63,1.65,24.53-6.18,0,0,0,0,0,0,6.89-7.83,17.58-10.68,24.46-6.52,0,0,0,0,0,0,6.87,4.16,17.53,1.17,24.38-6.85,0,0,0,0,0,0,6.85-8.02,17.48-11.17,24.3-7.19,0,0,0,0,0,0,6.83,3.98,17.42.68,24.22-7.53,0,0,0,0,0,0,6.81-8.22,17.36-11.66,24.14-7.87,0,0,0,0,0,0,6.78,3.79,17.3.2,24.05-8.21,0,0,0,0,0,0,6.76-8.41,17.23-12.15,23.96-8.55,0,0,0,0,0,0,6.73,3.6,17.16-.29,23.86-8.89,0,0,0,0,0,0,6.7-8.6,17.09-12.64,23.76-9.23,0,0,0,0,0,0,6.67,3.41,17.01-.77,23.66-9.56,0,0,0,0,0-.01,6.64-8.79,16.94-13.12,23.55-9.9,0,0,0,0,.01,0,6.61,3.22,16.86-1.26,23.44-10.24,0,0,0,0,.01-.02,6.58-8.99,16.77-13.61,23.32-10.58,0,0,0,0,.01,0,6.55,3.03,16.69-1.74,23.2-10.92,0,0,0-.01.01-.02,6.51-9.18,16.6-14.1,23.08-11.26,0,0,.01,0,.02,0"/><path class="cls-2" d="m2193.36,424.41c6.48,2.84,16.52-2.23,22.96-11.6h0c6.44-9.37,16.42-14.59,22.83-11.94,0,0,0,0,0,0,6.41,2.66,16.33-2.71,22.69-12.28,0,0,0,0,0,0,6.37-9.57,16.23-15.08,22.56-12.61h0c6.33,2.47,16.13-3.19,22.42-12.95,0,0,0,0,0,0,6.29-9.76,16.02-15.57,22.27-13.29,0,0,0,0,0,0,6.25,2.28,15.92-3.68,22.12-13.63,0,0,0,0,0,0,6.2-9.95,15.81-16.06,21.97-13.97,0,0,0,0,0,0,6.16,2.09,15.7-4.16,21.81-14.31,0,0,0,0,0,0,6.12-10.14,15.58-16.55,21.65-14.65,0,0,0,0,0,0,6.07,1.9,15.46-4.65,21.49-14.98,0,0,0,0,0,0,6.02-10.34,15.34-17.04,21.32-15.32,0,0,0,0,0,0,5.98,1.71,15.22-5.13,21.15-15.66,0,0,0,0,0-.01,5.93-10.53,15.1-17.52,20.97-16,0,0,0,0,0,0,5.88,1.52,14.97-5.62,20.79-16.34,0,0,0,0,0-.01,5.83-10.72,14.84-18.01,20.61-16.68,0,0,0,0,0,0,9.8.43,15.88-10.38,20.43-17.02,0,0,0,0,0,0,4.53-6.66,10.52-17.43,20.23-17.36,0,0,0,0,0,0,9.76.04,15.63-10.98,20.04-17.7,0,0,0,0,0,0,4.4-6.74,10.19-17.71,19.84-18.03,0,0,0,0,0,0,9.7-.36,15.36-11.58,19.64-18.37,0,0,0,0,0-.01,4.27-6.83,9.85-17.98,19.44-18.71,0,0,0,0,0,0,9.62-.76,15.08-12.17,19.23-19.05,0,0,0-.01,0-.02,4.14-6.91,9.51-18.24,19.01-19.39,0,0,0,0,0,0,9.54-1.18,14.78-12.76,18.8-19.73,0,0,0-.01.01-.02,4.01-7.01,9.17-18.5,18.58-20.06,0,0,0,0,.01,0"/><path class="cls-3" d="m2546.38,703.42c-20.25-38.64-43.51-74.47-52.54-116.93-6.15-28.95-11.13-59.51-13.43-89.05-2.36-30.33-.37-61.63.8-92.48.09-2.34-.72-5.17-2.13-4.32-6.84,4.13-9.94,17.94-13.21,27.08-10.68,29.85-20.28,61.66-17.76,93.79.49,6.28,2,11.88,3.63,17.08,4.86,15.5,11.22,30.76,18.02,45.63,8.14,17.8,17.02,35.56,26.1,52.96,8.61,16.5,17.54,33,26.67,49.27,6.59,11.74,13.27,23.47,20.02,35.11,1.76,3.04,3.55,6.07,5.33,9.08.22.37.76,2.15,1.26,2.01,4.16-1.11.92-11.91.65-13.3-1.05-5.41-2.2-10.71-3.42-15.95Z"/><path class="cls-3" d="m2605.21,653.89c18.22-67.93,39.98-135.58,49.88-204.93,5.25-36.78,10.09-74.48,12.37-111.38,1.87-30.16.4-60.82-.74-91.29-.08-2.2.16-5.3,1.95-7.84,4.7-6.66,10.33,3.62,12.01,5.38,15.95,16.71,16.8,43.93,15.92,64.92-.3,7-1.79,15.18-3.23,23.03-4.6,25.14-10.31,50.27-16.2,75.2-7.58,32.07-15.66,64.16-23.95,96.08-8.12,31.28-16.51,62.58-25.07,93.75-6.3,22.94-12.72,45.89-19.23,68.79-1.71,6.03-3.44,12.06-5.18,18.09-.21.73-.73,3.41-1.23,4.15-4.05,5.91-.9-10.36-.63-12.21,1.02-7.18,2.15-14.44,3.33-21.73Z"/><path class="cls-1" d="m2578.24,377.04c0,108.51,0,217.02,0,325.53"/><path class="cls-3" d="m2584.12,416.18c6.34-9.12,14.14-17.52,22.66-25.11,2.66-2.37,5.37-4.87,7.91-6.44,2.53-1.57,4.91-2.17,5.89-.79.95,1.34.39,4.56-1.39,7.91-1.77,3.34-4.66,6.63-7.11,8.07-4.31,2.54-6.16-.67-10.18.91-2.35.92-5.23,3.42-7.8,6.37-2.58,2.95-4.89,6.32-7.01,9.68-.98,1.55-2.01,3.21-3.24,4.38-4.26,4.03-1.26-2.78.27-4.99Z"/><path class="cls-3" d="m2572.37,426.3c-6.4,1.13-14.95,7.69-23.04,14.26-2.74,2.23-5.53,4.53-8.16,7.41-2.62,2.88-5.09,6.45-6.11,9.55-.99,3.01-.4,5.24,1.44,5.47,1.84.23,4.84-1.56,7.36-4.4,4.45-5.01,6.35-11.44,10.46-16.87,2.4-3.17,5.34-5.67,7.95-7.2,2.62-1.53,4.95-2.16,7.09-2.47.99-.14,2.02-.26,3.27-1.23,4.28-3.33,1.24-4.79-.27-4.52Z"/><path class="cls-3" d="m2584.12,442.49c6.34-9.12,14.14-17.52,22.66-25.1,2.66-2.37,5.37-4.87,7.91-6.44,2.53-1.57,4.91-2.17,5.89-.78.95,1.34.39,4.56-1.39,7.91-1.77,3.34-4.66,6.63-7.11,8.07-4.31,2.54-6.16-.67-10.18.91-2.35.92-5.23,3.42-7.8,6.37s-4.89,6.32-7.01,9.68c-.98,1.55-2.01,3.21-3.24,4.38-4.26,4.03-1.26-2.78.27-4.99Z"/><path class="cls-3" d="m2572.37,452.61c-6.4,1.13-14.95,7.69-23.04,14.26-2.74,2.22-5.53,4.53-8.16,7.4-2.62,2.87-5.09,6.45-6.11,9.55-.99,3.01-.4,5.24,1.44,5.47s4.84-1.56,7.36-4.4c4.45-5,6.35-11.44,10.46-16.86,2.4-3.17,5.34-5.67,7.95-7.2,2.62-1.53,4.95-2.16,7.09-2.47.99-.14,2.02-.26,3.27-1.23,4.28-3.33,1.24-4.79-.27-4.52Z"/><path class="cls-3" d="m2584.12,467.65c6.34-9.12,14.14-17.52,22.66-25.1,2.66-2.37,5.37-4.87,7.91-6.43,2.53-1.57,4.91-2.17,5.89-.78.95,1.34.39,4.56-1.39,7.91-1.77,3.34-4.66,6.63-7.11,8.07-4.31,2.54-6.16-.67-10.18.9-2.35.92-5.23,3.42-7.8,6.37-2.58,2.95-4.89,6.32-7.01,9.67-.98,1.55-2.01,3.21-3.24,4.38-4.26,4.03-1.26-2.78.27-4.99Z"/><path class="cls-3" d="m2572.37,477.76c-6.4,1.13-14.95,7.69-23.04,14.25-2.74,2.22-5.53,4.53-8.16,7.4-2.62,2.87-5.09,6.45-6.11,9.55-.99,3.01-.4,5.24,1.44,5.47s4.84-1.56,7.36-4.39c4.45-5,6.35-11.44,10.46-16.86,2.4-3.17,5.34-5.67,7.95-7.2,2.62-1.52,4.95-2.16,7.09-2.47.99-.14,2.02-.26,3.27-1.23,4.28-3.33,1.24-4.79-.27-4.52Z"/><path class="cls-3" d="m2584.12,494.71c6.34-9.11,14.14-17.51,22.66-25.09,2.66-2.37,5.37-4.87,7.91-6.43,2.53-1.57,4.91-2.17,5.89-.78.95,1.34.39,4.56-1.39,7.91-1.77,3.34-4.66,6.63-7.11,8.07-4.31,2.54-6.16-.67-10.18.9-2.35.92-5.23,3.42-7.8,6.37-2.58,2.95-4.89,6.32-7.01,9.67-.98,1.55-2.01,3.21-3.24,4.38-4.26,4.03-1.26-2.78.27-4.98Z"/><path class="cls-3" d="m2572.37,504.83c-6.4,1.12-14.95,7.68-23.04,14.25-2.74,2.22-5.53,4.53-8.16,7.4-2.62,2.87-5.09,6.44-6.11,9.55-.99,3.01-.4,5.24,1.44,5.47,1.84.23,4.84-1.56,7.36-4.39,4.45-5,6.35-11.43,10.46-16.86,2.4-3.17,5.34-5.67,7.95-7.2,2.62-1.52,4.95-2.16,7.09-2.47.99-.14,2.02-.26,3.27-1.23,4.28-3.33,1.24-4.79-.27-4.52Z"/><path class="cls-3" d="m2584.12,521.02c6.34-9.11,14.14-17.51,22.66-25.09,2.66-2.37,5.37-4.86,7.91-6.43,2.53-1.57,4.91-2.16,5.89-.78.95,1.34.39,4.56-1.39,7.91-1.77,3.34-4.66,6.63-7.11,8.07-4.31,2.53-6.16-.67-10.18.9-2.35.92-5.23,3.42-7.8,6.37-2.58,2.95-4.89,6.31-7.01,9.67-.98,1.55-2.01,3.21-3.24,4.38-4.26,4.03-1.26-2.78.27-4.98Z"/><path class="cls-3" d="m2572.37,531.13c-6.4,1.12-14.95,7.68-23.04,14.24-2.74,2.22-5.53,4.53-8.16,7.4-2.62,2.87-5.09,6.44-6.11,9.54-.99,3.01-.4,5.24,1.44,5.47s4.84-1.56,7.36-4.39c4.45-5,6.35-11.43,10.46-16.86,2.4-3.17,5.34-5.67,7.95-7.19,2.62-1.52,4.95-2.16,7.09-2.47.99-.14,2.02-.26,3.27-1.23,4.28-3.32,1.24-4.79-.27-4.52Z"/><path class="cls-3" d="m2584.12,546.18c6.34-9.11,14.14-17.51,22.66-25.08,2.66-2.37,5.37-4.86,7.91-6.43,2.53-1.57,4.91-2.16,5.89-.78.95,1.34.39,4.56-1.39,7.91s-4.66,6.63-7.11,8.06c-4.31,2.53-6.16-.67-10.18.9-2.35.92-5.23,3.42-7.8,6.36-2.58,2.95-4.89,6.31-7.01,9.67-.98,1.55-2.01,3.21-3.24,4.38-4.26,4.03-1.26-2.79.27-4.98Z"/><path class="cls-3" d="m2572.37,556.29c-6.4,1.12-14.95,7.68-23.04,14.24-2.74,2.22-5.53,4.53-8.16,7.4-2.62,2.87-5.09,6.44-6.11,9.54-.99,3.01-.4,5.24,1.44,5.47,1.84.23,4.84-1.56,7.36-4.39,4.45-5,6.35-11.43,10.46-16.85,2.4-3.17,5.34-5.67,7.95-7.19,2.62-1.52,4.95-2.16,7.09-2.47.99-.14,2.02-.26,3.27-1.23,4.28-3.32,1.24-4.79-.27-4.52Z"/><path class="cls-3" d="m2584.12,567.14c6.34-9.11,14.14-17.5,22.66-25.08,2.66-2.37,5.37-4.86,7.91-6.43,2.53-1.57,4.91-2.16,5.89-.78.95,1.34.39,4.56-1.39,7.91-1.77,3.34-4.66,6.63-7.11,8.06-4.31,2.53-6.16-.68-10.18.9-2.35.92-5.23,3.42-7.8,6.36-2.58,2.94-4.89,6.31-7.01,9.67-.98,1.55-2.01,3.21-3.24,4.38-4.26,4.03-1.26-2.79.27-4.98Z"/><path class="cls-3" d="m2572.37,577.25c-6.4,1.12-14.95,7.68-23.04,14.23-2.74,2.22-5.53,4.52-8.16,7.4-2.62,2.87-5.09,6.44-6.11,9.54-.99,3.01-.4,5.24,1.44,5.47s4.84-1.55,7.36-4.39c4.45-5,6.35-11.43,10.46-16.85,2.4-3.17,5.34-5.67,7.95-7.19,2.62-1.52,4.95-2.15,7.09-2.46.99-.14,2.02-.26,3.27-1.22,4.28-3.32,1.24-4.79-.27-4.52Z"/><path class="cls-3" d="m2584.12,593.45c6.34-9.11,14.14-17.5,22.66-25.08,2.66-2.36,5.37-4.86,7.91-6.43,2.53-1.57,4.91-2.16,5.89-.78.95,1.34.39,4.56-1.39,7.91-1.77,3.34-4.66,6.63-7.11,8.06-4.31,2.53-6.16-.68-10.18.89-2.35.92-5.23,3.42-7.8,6.36-2.58,2.94-4.89,6.31-7.01,9.67-.98,1.55-2.01,3.21-3.24,4.38-4.26,4.03-1.26-2.79.27-4.98Z"/><path class="cls-3" d="m2572.37,603.55c-6.4,1.12-14.95,7.67-23.04,14.23-2.74,2.22-5.53,4.52-8.16,7.39-2.62,2.87-5.09,6.44-6.11,9.54-.99,3.01-.4,5.24,1.44,5.47,1.84.23,4.84-1.55,7.36-4.39,4.45-5,6.35-11.43,10.46-16.85,2.4-3.16,5.34-5.67,7.95-7.19,2.62-1.52,4.95-2.15,7.09-2.46.99-.14,2.02-.26,3.27-1.22,4.28-3.32,1.24-4.79-.27-4.52Z"/><path class="cls-3" d="m2584.12,618.61c6.34-9.11,14.14-17.5,22.66-25.07,2.66-2.36,5.37-4.86,7.91-6.42,2.53-1.56,4.91-2.16,5.89-.78.95,1.34.39,4.56-1.39,7.91-1.77,3.34-4.66,6.62-7.11,8.06-4.31,2.53-6.16-.68-10.18.89-2.35.92-5.23,3.42-7.8,6.36-2.58,2.94-4.89,6.31-7.01,9.67-.98,1.55-2.01,3.21-3.24,4.38-4.26,4.03-1.26-2.79.27-4.98Z"/><path class="cls-3" d="m2572.37,628.71c-6.4,1.12-14.95,7.67-23.04,14.22-2.74,2.22-5.53,4.52-8.16,7.39s-5.09,6.44-6.11,9.54c-.99,3.01-.4,5.24,1.44,5.47s4.84-1.55,7.36-4.39c4.45-5,6.35-11.43,10.46-16.85,2.4-3.16,5.34-5.67,7.95-7.19,2.62-1.52,4.95-2.15,7.09-2.46.99-.14,2.02-.26,3.27-1.22,4.28-3.32,1.24-4.79-.27-4.52Z"/><path class="cls-2" d="m2578.24,249.32c0,42.57,0,85.14,0,127.72"/><path class="cls-2" d="m2354.76,429.47c.12-1.11.29-2.23.49-3.36,2.01-11.63,12.83-12.39,21.51-7.62,30.66,16.84,20.14,53.94,4.3,77.09-10.15,13.04-20.4,26-30.71,38.91-1.62,2.03-2.43,3.04-4.06,5.06-5.82,7.25-12.23,12.46-18.37,15.48t-.02.01"/><path class="cls-2" d="m2301.01,463.64h0c-.17-1.49-.29-3.11-.69-4.31-3.61-10.75-19.07,13.78-22.01,18.7-8.57,14.32-41.93,80.36-4.43,82.31,11.84.63,23.68,1.13,35.52,1.49,1.6.05,3.24-.1,4.9-.45,0,0,.02,0,.03,0,4.47-.9,9.1-3.13,13.57-6.33t.02-.01"/><path class="cls-2" d="m2366.65,429.7c-12.46-.2-24.92-.56-37.38-1.08-12.48,15.64-25.07,31.19-37.8,46.63-11.81,14.28-28.75,46.29-10.72,62.48,8.09,6.84,16.2,13.65,24.33,20.44,18.09,14.11,41.65-15.61,48.22-29.18,7.97-16.51,15.91-33.05,23.8-49.6,5.08-12.93,16.07-49.77-10.45-49.69Z"/><path class="cls-1" d="m2329.08,557.87c0,108.3,0,216.6,0,324.89"/><path class="cls-3" d="m2335.55,598.09c6.58-8.11,16.29-15.17,24.97-20.6,2.93-1.83,5.93-3.79,8.73-4.86,2.8-1.06,5.42-1.19,6.51.39,1.05,1.53.43,4.63-1.53,7.62-1.96,2.99-5.16,5.69-7.85,6.64-4.76,1.68-6.8-1.89-11.23-1.11-2.59.45-5.76,2.39-8.6,4.82-2.84,2.44-5.39,5.35-7.72,8.28-1.08,1.35-2.21,2.81-3.57,3.74-4.69,3.19-1.36-2.89.29-4.92Z"/><path class="cls-3" d="m2322.64,605.9c-7.03-.12-16.41,4.78-25.26,9.77-3,1.69-6.06,3.46-8.93,5.82-2.87,2.37-5.57,5.46-6.68,8.36-1.08,2.82-.44,5.15,1.58,5.73s5.29-.63,8.05-2.98c4.87-4.14,6.95-10.19,11.45-14.82,2.63-2.7,5.85-4.63,8.72-5.65,2.87-1.02,5.44-1.2,7.78-1.09,1.08.05,2.22.13,3.59-.59,4.71-2.49,1.37-4.54-.3-4.57Z"/><path class="cls-3" d="m2335.55,624.34c6.58-8.1,16.29-15.17,24.97-20.6,2.93-1.83,5.93-3.79,8.73-4.86,2.8-1.06,5.42-1.19,6.51.39,1.05,1.53.43,4.63-1.53,7.62-1.96,2.99-5.16,5.69-7.85,6.64-4.76,1.68-6.8-1.89-11.23-1.11-2.59.45-5.76,2.39-8.6,4.82-2.84,2.44-5.39,5.35-7.72,8.28-1.08,1.35-2.21,2.81-3.57,3.74-4.69,3.19-1.36-2.89.29-4.92Z"/><path class="cls-3" d="m2322.64,632.15c-7.03-.12-16.41,4.77-25.26,9.77-3,1.69-6.06,3.46-8.93,5.82-2.87,2.37-5.57,5.46-6.68,8.36-1.08,2.82-.44,5.15,1.58,5.73,2.01.58,5.29-.63,8.05-2.97,4.87-4.14,6.95-10.19,11.45-14.82,2.63-2.7,5.85-4.63,8.72-5.65,2.87-1.02,5.44-1.2,7.78-1.09,1.08.05,2.22.13,3.59-.59,4.71-2.49,1.37-4.54-.3-4.57Z"/><path class="cls-3" d="m2335.55,649.45c6.58-8.1,16.29-15.17,24.97-20.59,2.93-1.83,5.93-3.79,8.73-4.85,2.8-1.06,5.42-1.19,6.51.39,1.05,1.53.43,4.63-1.53,7.62-1.96,2.98-5.16,5.69-7.85,6.64-4.76,1.68-6.8-1.89-11.23-1.11-2.59.45-5.76,2.38-8.6,4.82-2.84,2.43-5.39,5.34-7.72,8.28-1.08,1.35-2.21,2.81-3.57,3.74-4.69,3.19-1.36-2.89.29-4.92Z"/><path class="cls-3" d="m2322.64,657.26c-7.03-.12-16.41,4.77-25.26,9.77-3,1.69-6.06,3.45-8.93,5.82-2.87,2.36-5.57,5.46-6.68,8.36-1.08,2.82-.44,5.15,1.58,5.73,2.01.58,5.29-.63,8.05-2.97,4.87-4.14,6.95-10.19,11.45-14.81,2.63-2.7,5.85-4.63,8.72-5.65,2.87-1.01,5.44-1.19,7.78-1.09,1.08.05,2.22.13,3.59-.59,4.71-2.49,1.37-4.54-.3-4.57Z"/><path class="cls-3" d="m2335.55,676.47c6.58-8.1,16.29-15.16,24.97-20.59,2.93-1.83,5.93-3.79,8.73-4.85,2.8-1.06,5.42-1.19,6.51.39,1.05,1.53.43,4.63-1.53,7.62-1.96,2.98-5.16,5.69-7.85,6.64-4.76,1.68-6.8-1.89-11.23-1.11-2.59.45-5.76,2.38-8.6,4.82-2.84,2.43-5.39,5.34-7.72,8.28-1.08,1.35-2.21,2.81-3.57,3.74-4.69,3.19-1.36-2.89.29-4.92Z"/><path class="cls-3" d="m2322.64,684.27c-7.03-.12-16.41,4.77-25.26,9.76-3,1.69-6.06,3.45-8.93,5.82-2.87,2.36-5.57,5.46-6.68,8.36-1.08,2.82-.44,5.15,1.58,5.73,2.01.58,5.29-.63,8.05-2.97,4.87-4.14,6.95-10.19,11.45-14.81,2.63-2.7,5.85-4.63,8.72-5.64,2.87-1.01,5.44-1.19,7.78-1.09,1.08.05,2.22.13,3.59-.59,4.71-2.49,1.37-4.54-.3-4.57Z"/><path class="cls-3" d="m2335.55,702.72c6.58-8.1,16.29-15.16,24.97-20.58,2.93-1.83,5.93-3.79,8.73-4.85,2.8-1.06,5.42-1.18,6.51.39,1.05,1.53.43,4.63-1.53,7.61-1.96,2.98-5.16,5.69-7.85,6.64-4.76,1.68-6.8-1.89-11.23-1.12-2.59.45-5.76,2.38-8.6,4.82-2.84,2.43-5.39,5.34-7.72,8.28-1.08,1.35-2.21,2.81-3.57,3.73-4.69,3.19-1.36-2.89.29-4.92Z"/><path class="cls-3" d="m2322.64,710.52c-7.03-.13-16.41,4.76-25.26,9.76-3,1.69-6.06,3.45-8.93,5.82-2.87,2.36-5.57,5.45-6.68,8.35-1.08,2.82-.44,5.15,1.58,5.73,2.01.58,5.29-.62,8.05-2.97,4.87-4.14,6.95-10.19,11.45-14.81,2.63-2.7,5.85-4.63,8.72-5.64,2.87-1.01,5.44-1.19,7.78-1.09,1.08.05,2.22.13,3.59-.59,4.71-2.48,1.37-4.54-.3-4.57Z"/><path class="cls-3" d="m2335.55,727.83c6.58-8.1,16.29-15.16,24.97-20.58,2.93-1.82,5.93-3.79,8.73-4.85,2.8-1.06,5.42-1.18,6.51.39,1.05,1.53.43,4.63-1.53,7.61-1.96,2.98-5.16,5.69-7.85,6.64-4.76,1.67-6.8-1.89-11.23-1.12-2.59.45-5.76,2.38-8.6,4.81-2.84,2.43-5.39,5.34-7.72,8.27-1.08,1.35-2.21,2.81-3.57,3.73-4.69,3.19-1.36-2.89.29-4.92Z"/><path class="cls-3" d="m2322.64,735.63c-7.03-.13-16.41,4.76-25.26,9.75-3,1.69-6.06,3.45-8.93,5.81-2.87,2.36-5.57,5.45-6.68,8.35-1.08,2.82-.44,5.15,1.58,5.73s5.29-.62,8.05-2.97c4.87-4.14,6.95-10.19,11.45-14.81,2.63-2.7,5.85-4.63,8.72-5.64,2.87-1.01,5.44-1.19,7.78-1.08,1.08.05,2.22.13,3.59-.59,4.71-2.48,1.37-4.54-.3-4.57Z"/><path class="cls-3" d="m2335.55,748.76c6.58-8.1,16.29-15.16,24.97-20.57,2.93-1.82,5.93-3.79,8.73-4.85,2.8-1.06,5.42-1.18,6.51.39,1.05,1.53.43,4.63-1.53,7.61s-5.16,5.69-7.85,6.64c-4.76,1.67-6.8-1.89-11.23-1.12-2.59.45-5.76,2.38-8.6,4.81-2.84,2.43-5.39,5.34-7.72,8.27-1.08,1.35-2.21,2.81-3.57,3.73-4.69,3.19-1.36-2.89.29-4.92Z"/><path class="cls-3" d="m2322.64,756.55c-7.03-.13-16.41,4.76-25.26,9.75-3,1.69-6.06,3.45-8.93,5.81-2.87,2.36-5.57,5.45-6.68,8.35-1.08,2.82-.44,5.15,1.58,5.73,2.01.58,5.29-.62,8.05-2.97,4.87-4.14,6.95-10.19,11.45-14.81,2.63-2.7,5.85-4.63,8.72-5.64,2.87-1.01,5.44-1.19,7.78-1.08,1.08.05,2.22.13,3.59-.59,4.71-2.48,1.37-4.54-.3-4.57Z"/><path class="cls-3" d="m2335.55,775.01c6.58-8.1,16.29-15.15,24.97-20.57,2.93-1.82,5.93-3.79,8.73-4.85,2.8-1.06,5.42-1.18,6.51.39,1.05,1.53.43,4.63-1.53,7.61-1.96,2.98-5.16,5.69-7.85,6.63-4.76,1.67-6.8-1.9-11.23-1.12-2.59.45-5.76,2.38-8.6,4.81-2.84,2.43-5.39,5.34-7.72,8.27-1.08,1.35-2.21,2.81-3.57,3.73-4.69,3.18-1.36-2.89.29-4.92Z"/><path class="cls-3" d="m2322.64,782.8c-7.03-.13-16.41,4.75-25.26,9.74-3,1.69-6.06,3.45-8.93,5.81-2.87,2.36-5.57,5.45-6.68,8.35-1.08,2.82-.44,5.15,1.58,5.73s5.29-.62,8.05-2.97c4.87-4.13,6.95-10.19,11.45-14.8,2.63-2.7,5.85-4.62,8.72-5.64,2.87-1.01,5.44-1.19,7.78-1.08,1.08.05,2.22.13,3.59-.59,4.71-2.48,1.37-4.54-.3-4.57Z"/><path class="cls-3" d="m2335.55,800.12c6.58-8.1,16.29-15.15,24.97-20.56,2.93-1.82,5.93-3.79,8.73-4.84,2.8-1.06,5.42-1.18,6.51.4,1.05,1.53.43,4.63-1.53,7.61-1.96,2.98-5.16,5.68-7.85,6.63-4.76,1.67-6.8-1.9-11.23-1.12-2.59.45-5.76,2.38-8.6,4.81-2.84,2.43-5.39,5.34-7.72,8.27-1.08,1.35-2.21,2.81-3.57,3.73-4.69,3.18-1.36-2.89.29-4.92Z"/><path class="cls-3" d="m2322.64,807.91c-7.03-.13-16.41,4.75-25.26,9.74-3,1.69-6.06,3.45-8.93,5.81-2.87,2.36-5.57,5.45-6.68,8.35-1.08,2.82-.44,5.15,1.58,5.74,2.01.58,5.29-.62,8.05-2.96,4.87-4.13,6.95-10.18,11.45-14.8,2.63-2.69,5.85-4.62,8.72-5.64,2.87-1.01,5.44-1.19,7.78-1.08,1.08.05,2.22.14,3.59-.59,4.71-2.48,1.37-4.53-.3-4.57Z"/><path class="cls-2" d="m2329.08,430.4v127.47"/><path class="cls-2" d="m2601.19,244.48c.11-1.13.26-2.28.44-3.45,2.7-17.23,15.52-12.93,19.47-11.5,31.71,11.5,14.98,56.26,3.89,76.46-9.2,14.88-18.46,29.71-27.81,44.5-1.47,2.32-2.21,3.48-3.68,5.79-5.29,8.31-11.11,14.66-16.69,18.78t-.02.02"/><path class="cls-2" d="m2552.28,288.25h0c-.15-1.47-.19-3.27-.63-4.19-3.66-7.55-16.96,16.2-20.12,22.6-5.38,10.87-38.96,88.18-4.06,83.24,10.84-1.49,21.66-3.07,32.47-4.75,1.46-.24,2.95-.68,4.47-1.31,0,0,.02,0,.03-.01,4.07-1.7,8.29-4.75,12.36-8.75t.02-.02"/><path class="cls-2" d="m2611.96,242.58c-11.3,1.98-22.59,3.84-33.92,5.59-11.38,17.87-22.87,35.67-34.48,53.4-8.64,14.65-28.18,49.38-9.81,64.48,8.94,6.56,13.38,9.8,22.23,16.21,19.5,9.68,38.39-24.2,43.87-37.8,7.23-17.97,14.41-35.96,21.55-53.97,2.89-8.73,16.05-53.46-9.45-47.91Z"/></g></svg>