<?xml version="1.0" encoding="UTF-8"?><svg id="Layer_2" xmlns="http://www.w3.org/2000/svg" width="2740.41" height="899.6" viewBox="0 0 2740.41 899.6"><defs><style>.cls-1{fill:#00593b;stroke:#5b1627;}.cls-1,.cls-2{stroke-miterlimit:10;stroke-width:8px;}.cls-3{fill:#5b1627;stroke-width:0px;}.cls-2{fill:none;stroke:#00593b;}</style></defs><g id="Layer_1-2"><path class="cls-2" d="m338.92,190.77c6.31,8.43,16.12,12.19,22.44,8.6h0c6.32-3.59,16.16.08,22.49,8.4,0,0,0,0,0,0,6.34,8.32,16.19,11.91,22.55,8.2,0,0,0,0,0,0,6.35-3.7,16.23-.21,22.6,8.01h0c6.37,8.21,16.27,11.63,22.65,7.81,0,0,0,0,0,0,6.38-3.82,16.3-.49,22.7,7.61,0,0,0,0,0,0,6.4,8.1,16.34,11.34,22.75,7.41h0c6.41-3.93,16.38-.78,22.8,7.22,0,0,0,0,0,0,6.42,7.99,16.41,11.06,22.84,7.02,0,0,0,0,0,0,6.43-4.04,16.44-1.06,22.89,6.82,0,0,0,0,0,0,6.45,7.88,16.47,10.78,22.93,6.63h0c6.46-4.16,16.5-1.35,22.97,6.43,0,0,0,0,0,0,6.47,7.78,16.53,10.5,23.01,6.23,0,0,0,0,0,0,6.48-4.27,16.56-1.63,23.05,6.04,0,0,0,0,0,0,6.49,7.67,16.59,10.22,23.09,5.84,0,0,0,0,0,0,6.5-4.38,16.62-1.91,23.13,5.64,0,0,0,0,0,0,6.51,7.56,16.64,9.94,23.17,5.45,0,0,0,0,0,0,6.52-4.49,16.67-2.2,23.2,5.25,0,0,0,0,0,0,6.53,7.45,16.69,9.66,23.23,5.05,0,0,0,0,0,0,6.54-4.61,16.71-2.48,23.27,4.86,0,0,0,0,0,0,6.55,7.34,16.74,9.38,23.3,4.66,0,0,0,0,0,0,6.56-4.72,16.76-2.77,23.33,4.46,0,0,0,0,.01.01,6.57,7.23,16.78,9.1,23.35,4.27,0,0,0,0,.01,0,6.58-4.83,16.8-3.05,23.38,4.07,0,0,0,0,.01.01,6.58,7.12,16.81,8.82,23.41,3.87,0,0,0,0,.01-.01,6.59-4.94,16.83-3.34,23.43,3.68,0,0,.01.01.02.02"/><path class="cls-3" d="m707.68,787.66c-21.42-56.57-47.33-112.12-58.59-171.26-6.36-33.42-12.08-68.1-14.74-101.84-2.35-29.77-.45-60.25.88-90.45.1-2.22-.19-5.13-2.33-6.46-5.62-3.51-12.38,10.29-14.39,13.15-15.71,22.31-20.72,48.42-19.21,74.52.38,6.58,2.17,13.76,3.91,20.53,5.49,21.3,12.38,42.5,19.52,63.41,9.05,26.52,18.72,53.02,28.58,79.28,9.63,25.64,19.53,51.28,29.58,76.76,7.38,18.73,14.89,37.46,22.47,56.13,1.99,4.91,4,9.83,6.02,14.73.25.6.85,2.94,1.43,3.36,4.68,3.4,1.04-10.75.74-12.42-1.18-6.48-2.49-12.96-3.86-19.45Z"/><path class="cls-3" d="m775.21,803.96c21.98-47.63,48.23-93.51,59.06-144.55,6.6-31.1,12.28-63.66,14.92-95.24,2.5-29.86.43-60.62-.89-90.99-.1-2.26.19-5.05,2.36-5.41,5.7-.96,12.64,15.98,14.61,19.75,13.27,25.46,22.05,53.97,19.54,83.46-.55,6.48-2.2,12.79-3.98,18.78-5.47,18.45-12.49,36.66-19.84,54.56-9.13,22.23-18.94,44.4-28.96,66.28-9.69,21.16-19.71,42.31-29.86,63.26-7.42,15.31-14.99,30.63-22.61,45.86-2,4-4.02,8-6.04,11.98-.25.48-.85,2.55-1.44,2.71-4.7,1.25-1.04-11.24-.74-12.77,1.19-5.94,2.5-11.82,3.88-17.68Z"/><path class="cls-1" d="m743.99,500.43c0,107.11,0,214.21,0,321.32"/><path class="cls-3" d="m750.76,545.61c7.34-2.64,17.11-1.13,26.3.71,3.11.63,6.28,1.31,9.26,2.65,2.97,1.35,5.76,3.48,6.92,5.97,1.12,2.42.46,4.95-1.63,6.22-2.08,1.27-5.48,1.21-8.34-.16-5.05-2.41-7.2-7.67-11.89-10.66-2.73-1.75-6.08-2.52-9.07-2.51-2.99.01-5.66.75-8.11,1.7-1.13.44-2.32.93-3.74.7-4.91-.77-1.43-4,.31-4.62Z"/><path class="cls-3" d="m737.25,542.56c-7.06-5.72-17.66-9.19-26.23-11.15-3.05-.7-6.26-1.53-9.21-1.52s-5.73.88-6.88,2.85c-1.11,1.91-.45,4.74,1.62,6.95,2.07,2.21,5.45,3.67,8.3,3.6,5.02-.13,7.17-4.42,11.84-5.29,2.72-.51,6.06.22,9.04,1.58,2.98,1.36,5.65,3.31,8.1,5.36,1.13.95,2.32,1.97,3.74,2.39,4.91,1.45,1.43-3.36-.31-4.76Z"/><path class="cls-3" d="m750.76,571.58c7.34-2.64,17.11-1.13,26.3.72,3.11.63,6.28,1.31,9.26,2.66s5.76,3.48,6.92,5.97c1.12,2.42.46,4.95-1.63,6.22-2.08,1.27-5.48,1.2-8.34-.16-5.05-2.41-7.2-7.67-11.89-10.66-2.73-1.75-6.08-2.52-9.07-2.51-2.99.01-5.66.75-8.11,1.69-1.13.43-2.32.93-3.74.7-4.91-.77-1.43-4,.31-4.62Z"/><path class="cls-3" d="m737.25,568.52c-7.06-5.72-17.66-9.19-26.23-11.16-3.05-.7-6.26-1.53-9.21-1.52-2.96,0-5.73.88-6.88,2.84-1.11,1.91-.45,4.74,1.62,6.95s5.45,3.68,8.3,3.6c5.02-.13,7.17-4.41,11.84-5.29,2.72-.51,6.06.22,9.04,1.59,2.98,1.36,5.65,3.31,8.1,5.36,1.13.95,2.32,1.97,3.74,2.39,4.91,1.45,1.43-3.36-.31-4.76Z"/><path class="cls-3" d="m750.76,596.41c7.34-2.64,17.11-1.13,26.3.72,3.11.63,6.28,1.31,9.26,2.66,2.97,1.35,5.76,3.48,6.92,5.97,1.12,2.42.46,4.95-1.63,6.22-2.08,1.27-5.48,1.2-8.34-.16-5.05-2.41-7.2-7.67-11.89-10.66-2.73-1.75-6.08-2.52-9.07-2.51-2.99.01-5.66.75-8.11,1.69-1.13.43-2.32.93-3.74.7-4.91-.77-1.43-4,.31-4.62Z"/><path class="cls-3" d="m737.25,593.36c-7.06-5.72-17.66-9.19-26.23-11.16-3.05-.7-6.26-1.53-9.21-1.52-2.96,0-5.73.88-6.88,2.84-1.11,1.91-.45,4.74,1.62,6.95,2.07,2.21,5.45,3.68,8.3,3.6,5.02-.13,7.17-4.41,11.84-5.29,2.72-.51,6.06.22,9.04,1.59,2.98,1.36,5.65,3.31,8.1,5.36,1.13.95,2.32,1.97,3.74,2.4,4.91,1.45,1.43-3.36-.31-4.76Z"/><path class="cls-3" d="m750.76,623.13c7.34-2.64,17.11-1.12,26.3.73,3.11.63,6.28,1.31,9.26,2.66,2.97,1.35,5.76,3.48,6.92,5.97,1.12,2.42.46,4.95-1.63,6.21-2.08,1.27-5.48,1.2-8.34-.16-5.05-2.41-7.2-7.67-11.89-10.67-2.73-1.75-6.08-2.52-9.07-2.51-2.99.01-5.66.75-8.11,1.69-1.13.43-2.32.92-3.74.7-4.91-.77-1.43-4,.31-4.62Z"/><path class="cls-3" d="m737.25,620.07c-7.06-5.72-17.66-9.19-26.23-11.17-3.05-.7-6.26-1.53-9.21-1.53-2.96,0-5.73.88-6.88,2.84-1.11,1.91-.45,4.74,1.62,6.95,2.07,2.21,5.45,3.68,8.3,3.61,5.02-.13,7.17-4.41,11.84-5.29,2.72-.51,6.06.23,9.04,1.59,2.98,1.36,5.65,3.31,8.1,5.36,1.13.95,2.32,1.97,3.74,2.4,4.91,1.45,1.43-3.36-.31-4.76Z"/><path class="cls-3" d="m750.76,649.09c7.34-2.64,17.11-1.12,26.3.73,3.11.63,6.28,1.31,9.26,2.66,2.97,1.35,5.76,3.48,6.92,5.97,1.12,2.42.46,4.95-1.63,6.21-2.08,1.27-5.48,1.2-8.34-.16-5.05-2.41-7.2-7.67-11.89-10.67-2.73-1.75-6.08-2.53-9.07-2.51-2.99.01-5.66.75-8.11,1.69-1.13.43-2.32.92-3.74.7-4.91-.77-1.43-4,.31-4.62Z"/><path class="cls-3" d="m737.25,646.03c-7.06-5.72-17.66-9.2-26.23-11.17-3.05-.7-6.26-1.53-9.21-1.53-2.96,0-5.73.87-6.88,2.84-1.11,1.91-.45,4.74,1.62,6.95,2.07,2.21,5.45,3.68,8.3,3.61,5.02-.13,7.17-4.41,11.84-5.28,2.72-.51,6.06.23,9.04,1.59,2.98,1.36,5.65,3.31,8.1,5.36,1.13.95,2.31,1.97,3.74,2.4,4.91,1.45,1.43-3.36-.31-4.76Z"/><path class="cls-3" d="m750.76,673.93c7.34-2.64,17.11-1.12,26.3.74,3.11.63,6.28,1.31,9.26,2.66,2.97,1.35,5.76,3.48,6.92,5.97,1.12,2.42.46,4.95-1.63,6.21-2.08,1.27-5.48,1.2-8.34-.17-5.05-2.41-7.2-7.68-11.89-10.67-2.73-1.75-6.08-2.53-9.07-2.52-2.99.01-5.66.75-8.11,1.69-1.13.43-2.32.92-3.74.7-4.91-.77-1.43-4,.31-4.62Z"/><path class="cls-3" d="m737.25,670.86c-7.06-5.72-17.65-9.2-26.23-11.18-3.05-.7-6.26-1.53-9.21-1.53-2.96,0-5.73.87-6.88,2.84-1.11,1.91-.45,4.74,1.62,6.95,2.07,2.21,5.45,3.68,8.3,3.61,5.02-.12,7.17-4.41,11.84-5.28,2.72-.51,6.06.23,9.04,1.59s5.65,3.31,8.1,5.37c1.13.95,2.32,1.97,3.74,2.4,4.91,1.45,1.43-3.36-.31-4.76Z"/><path class="cls-3" d="m750.76,694.62c7.34-2.64,17.11-1.12,26.3.74,3.11.63,6.28,1.31,9.26,2.66s5.76,3.48,6.92,5.97c1.12,2.42.46,4.95-1.63,6.21s-5.48,1.2-8.34-.17c-5.05-2.41-7.2-7.68-11.89-10.67-2.73-1.75-6.08-2.53-9.07-2.52-2.99.01-5.66.74-8.11,1.69-1.13.43-2.32.92-3.74.7-4.91-.78-1.43-4,.31-4.62Z"/><path class="cls-3" d="m737.25,691.56c-7.06-5.72-17.65-9.2-26.23-11.18-3.05-.7-6.26-1.53-9.21-1.53-2.96,0-5.73.87-6.88,2.84-1.11,1.91-.45,4.74,1.62,6.95s5.45,3.68,8.3,3.61c5.02-.12,7.17-4.41,11.84-5.28,2.72-.51,6.06.23,9.04,1.59,2.98,1.37,5.65,3.31,8.1,5.37,1.13.95,2.32,1.98,3.74,2.4,4.91,1.45,1.43-3.35-.31-4.76Z"/><path class="cls-3" d="m750.76,720.59c7.34-2.64,17.11-1.11,26.3.75,3.11.63,6.28,1.31,9.26,2.67s5.76,3.48,6.92,5.97c1.12,2.42.46,4.95-1.63,6.21-2.08,1.27-5.48,1.2-8.34-.17-5.05-2.41-7.2-7.68-11.89-10.67-2.73-1.75-6.08-2.53-9.07-2.52-2.99,0-5.66.74-8.11,1.68-1.13.43-2.32.92-3.74.7-4.91-.78-1.43-4,.31-4.62Z"/><path class="cls-3" d="m737.25,717.52c-7.06-5.72-17.65-9.21-26.23-11.19-3.05-.7-6.26-1.53-9.21-1.53-2.96,0-5.73.87-6.88,2.84-1.11,1.91-.45,4.74,1.62,6.95,2.07,2.21,5.45,3.68,8.3,3.61,5.02-.12,7.17-4.41,11.84-5.28,2.72-.51,6.06.23,9.04,1.6,2.98,1.37,5.65,3.31,8.1,5.37,1.13.95,2.32,1.98,3.74,2.4,4.91,1.46,1.43-3.35-.31-4.76Z"/><path class="cls-3" d="m750.76,745.42c7.34-2.63,17.11-1.11,26.3.75,3.11.63,6.28,1.32,9.26,2.67,2.97,1.35,5.76,3.49,6.92,5.98,1.12,2.42.46,4.95-1.63,6.21-2.08,1.27-5.48,1.2-8.34-.17-5.05-2.41-7.2-7.68-11.89-10.68-2.73-1.75-6.08-2.53-9.07-2.52-2.99,0-5.66.74-8.11,1.68-1.13.43-2.32.92-3.74.7-4.91-.78-1.43-4,.31-4.62Z"/><path class="cls-3" d="m737.25,742.35c-7.06-5.73-17.65-9.21-26.23-11.19-3.05-.71-6.26-1.54-9.21-1.53-2.96,0-5.73.87-6.88,2.84-1.11,1.91-.45,4.74,1.62,6.95,2.07,2.21,5.45,3.68,8.3,3.61,5.02-.12,7.17-4.41,11.84-5.28,2.72-.51,6.06.23,9.04,1.6,2.98,1.37,5.65,3.32,8.1,5.37,1.13.95,2.32,1.98,3.74,2.4,4.91,1.46,1.43-3.35-.31-4.76Z"/><path class="cls-2" d="m743.99,374.37c0,42.02,0,84.04,0,126.07"/><path class="cls-2" d="m500.78,322.95c.13-.97.23-2.05.51-2.85,3.86-11.06,18.47,7.73,22.35,13.09,12.39,17.09,40.16,70.79,4.5,80.25-10.63,3.03-21.27,6.02-31.92,8.97-1.67.46-2.51.69-4.18,1.15-6,1.65-12.59.75-18.87-2.02t-.02,0"/><path class="cls-2" d="m445.77,306.35h0c-.17-1.63-.43-3.29-.7-4.89-2.17-12.99-15.85-6.66-22.19-1.69-24.11,18.93-28.57,55.81-4.44,77.22,11.9,11.39,23.84,22.74,35.84,34.03,1.62,1.53,3.29,2.9,4.98,4.1,0,0,.02.02.03.02,4.55,3.26,9.28,5.38,13.85,6.4t.02,0"/><path class="cls-2" d="m513.11,334.54c-12.9-12.12-25.75-24.28-38.56-36.49-12.78,3.75-25.59,7.41-38.42,11-23.24,6.4-20.27,35.73-10.8,51.88,8.16,14.18,16.35,28.34,24.56,42.49,8.57,14.78,33.5,32.54,49.38,16.39,8.26-8.7,16.5-17.42,24.73-26.16,16.08-17.53,3.91-45.25-10.89-59.1Z"/><path class="cls-1" d="m474.36,425.45c0,106.89,0,213.79,0,320.68"/><path class="cls-3" d="m480.99,471.22c7.19-1.91,16.76.58,25.77,3.34,3.05.94,6.16,1.93,9.07,3.57s5.65,4.04,6.78,6.64c1.1,2.52.45,4.98-1.6,6.04-2.04,1.06-5.37.66-8.18-.99-4.95-2.9-7.06-8.37-11.65-11.82-2.68-2.01-5.96-3.12-8.88-3.41s-5.55.18-7.95.88c-1.11.32-2.27.69-3.67.33-4.81-1.26-1.4-4.13.3-4.58Z"/><path class="cls-3" d="m467.76,466.82c-6.82-6.34-17.1-10.87-25.67-13.76-2.99-1.01-6.12-2.15-9.01-2.44-2.89-.29-5.61.3-6.73,2.15-1.09,1.79-.44,4.68,1.58,7.09s5.33,4.21,8.11,4.43c4.91.37,7.01-3.69,11.58-4.1,2.66-.24,5.93.83,8.85,2.49,2.92,1.66,5.53,3.87,7.93,6.16,1.1,1.06,2.27,2.2,3.66,2.76,4.81,1.94,1.4-3.2-.3-4.78Z"/><path class="cls-3" d="m480.99,497.13c7.19-1.91,16.76.58,25.77,3.34,3.05.94,6.16,1.93,9.07,3.57s5.65,4.05,6.78,6.64c1.1,2.52.45,4.98-1.6,6.04s-5.37.66-8.18-.99c-4.95-2.9-7.06-8.37-11.65-11.82-2.68-2.01-5.96-3.12-8.88-3.41-2.93-.28-5.55.18-7.95.88-1.11.32-2.27.69-3.67.33-4.81-1.26-1.4-4.13.3-4.58Z"/><path class="cls-3" d="m467.76,492.73c-6.82-6.34-17.1-10.87-25.67-13.76-2.99-1.01-6.12-2.15-9.01-2.44-2.89-.29-5.61.3-6.73,2.15-1.09,1.79-.44,4.68,1.58,7.09,2.03,2.41,5.33,4.21,8.11,4.43,4.91.37,7.01-3.69,11.58-4.1,2.66-.24,5.93.83,8.85,2.49,2.92,1.66,5.53,3.87,7.93,6.16,1.1,1.06,2.27,2.2,3.66,2.76,4.81,1.94,1.4-3.2-.3-4.78Z"/><path class="cls-3" d="m480.99,521.91c7.19-1.9,16.76.58,25.77,3.35,3.05.94,6.16,1.93,9.07,3.57s5.65,4.05,6.78,6.65c1.1,2.52.45,4.98-1.6,6.04-2.04,1.06-5.37.66-8.18-.99-4.95-2.91-7.06-8.37-11.65-11.83-2.68-2.02-5.96-3.12-8.89-3.41s-5.55.18-7.95.88c-1.11.32-2.27.69-3.67.33-4.81-1.26-1.4-4.13.3-4.58Z"/><path class="cls-3" d="m467.76,517.52c-6.82-6.35-17.1-10.87-25.67-13.77-2.99-1.01-6.12-2.15-9.01-2.44-2.89-.29-5.61.3-6.73,2.15-1.09,1.79-.44,4.68,1.58,7.09s5.33,4.22,8.11,4.43c4.91.38,7.01-3.69,11.58-4.09,2.66-.24,5.93.83,8.85,2.49,2.92,1.66,5.53,3.87,7.93,6.16,1.1,1.06,2.27,2.2,3.66,2.76,4.81,1.94,1.4-3.2-.3-4.78Z"/><path class="cls-3" d="m480.99,548.58c7.19-1.9,16.76.59,25.77,3.35,3.05.94,6.16,1.93,9.07,3.58,2.91,1.64,5.65,4.05,6.78,6.65,1.1,2.52.45,4.98-1.6,6.04-2.04,1.06-5.37.65-8.18-.99-4.95-2.91-7.06-8.38-11.65-11.83-2.68-2.02-5.96-3.13-8.88-3.41-2.93-.29-5.55.18-7.95.88-1.11.32-2.27.69-3.67.32-4.81-1.26-1.4-4.13.3-4.58Z"/><path class="cls-3" d="m467.76,544.18c-6.82-6.35-17.1-10.88-25.67-13.77-2.99-1.01-6.12-2.15-9.01-2.45-2.89-.29-5.61.3-6.73,2.15-1.09,1.79-.44,4.68,1.58,7.1s5.33,4.22,8.11,4.43c4.91.38,7.01-3.69,11.58-4.09,2.66-.24,5.93.83,8.85,2.49,2.92,1.66,5.53,3.87,7.93,6.16,1.1,1.06,2.27,2.2,3.66,2.77,4.81,1.94,1.4-3.2-.3-4.78Z"/><path class="cls-3" d="m480.99,574.49c7.19-1.9,16.76.59,25.77,3.36,3.05.94,6.16,1.94,9.07,3.58,2.91,1.64,5.65,4.05,6.78,6.65,1.1,2.52.45,4.98-1.6,6.04s-5.37.65-8.18-1c-4.95-2.91-7.06-8.38-11.65-11.83-2.68-2.02-5.96-3.13-8.88-3.41s-5.55.18-7.95.88c-1.11.32-2.27.69-3.67.32-4.81-1.26-1.4-4.13.3-4.58Z"/><path class="cls-3" d="m467.76,570.09c-6.82-6.35-17.1-10.88-25.67-13.78-2.99-1.01-6.12-2.16-9.01-2.45-2.89-.29-5.61.3-6.73,2.15-1.09,1.79-.44,4.68,1.58,7.1,2.03,2.41,5.33,4.22,8.11,4.43,4.91.38,7.01-3.68,11.58-4.09,2.66-.24,5.93.83,8.85,2.49,2.92,1.66,5.53,3.87,7.93,6.16,1.1,1.06,2.27,2.2,3.66,2.77,4.81,1.94,1.4-3.2-.3-4.78Z"/><path class="cls-3" d="m480.99,599.28c7.19-1.9,16.76.59,25.77,3.36,3.05.94,6.16,1.94,9.07,3.58s5.65,4.05,6.78,6.65c1.1,2.52.45,4.98-1.6,6.04-2.04,1.06-5.37.65-8.18-1-4.95-2.91-7.06-8.38-11.65-11.83-2.68-2.02-5.96-3.13-8.88-3.42s-5.55.18-7.95.87c-1.11.32-2.27.69-3.67.32-4.81-1.26-1.4-4.13.3-4.58Z"/><path class="cls-3" d="m467.76,594.87c-6.82-6.35-17.1-10.88-25.67-13.78-2.99-1.01-6.12-2.16-9.01-2.45-2.89-.29-5.61.3-6.73,2.14-1.09,1.79-.44,4.68,1.58,7.1,2.03,2.41,5.33,4.22,8.11,4.43,4.91.38,7.01-3.68,11.58-4.09,2.66-.24,5.93.83,8.85,2.49s5.53,3.87,7.93,6.16c1.1,1.06,2.27,2.2,3.66,2.77,4.81,1.94,1.4-3.2-.3-4.78Z"/><path class="cls-3" d="m480.99,619.93c7.19-1.9,16.76.59,25.77,3.36,3.05.94,6.16,1.94,9.07,3.58s5.65,4.05,6.78,6.65c1.1,2.52.45,4.98-1.6,6.04-2.04,1.06-5.37.65-8.18-1-4.95-2.91-7.06-8.38-11.65-11.84-2.68-2.02-5.96-3.13-8.88-3.42s-5.55.18-7.95.87c-1.11.32-2.27.69-3.67.32-4.81-1.26-1.4-4.13.3-4.58Z"/><path class="cls-3" d="m467.76,615.52c-6.82-6.35-17.1-10.88-25.67-13.78-2.99-1.01-6.12-2.16-9.01-2.45-2.89-.29-5.61.3-6.73,2.14-1.09,1.79-.44,4.68,1.58,7.1,2.03,2.41,5.33,4.22,8.11,4.43,4.91.38,7.01-3.68,11.58-4.09,2.66-.24,5.93.84,8.85,2.5s5.53,3.87,7.93,6.17c1.1,1.06,2.27,2.2,3.66,2.77,4.81,1.94,1.4-3.2-.3-4.78Z"/><path class="cls-3" d="m480.99,645.84c7.19-1.9,16.76.6,25.77,3.37,3.05.94,6.16,1.94,9.07,3.58s5.65,4.05,6.78,6.65c1.1,2.52.45,4.98-1.6,6.04-2.04,1.06-5.37.65-8.18-1-4.95-2.91-7.06-8.38-11.65-11.84-2.68-2.02-5.96-3.13-8.88-3.42-2.93-.29-5.55.18-7.95.87-1.11.32-2.27.69-3.67.32-4.81-1.27-1.4-4.13.3-4.58Z"/><path class="cls-3" d="m467.76,641.43c-6.82-6.35-17.1-10.89-25.67-13.79-2.99-1.01-6.12-2.16-9.01-2.45-2.89-.29-5.61.29-6.73,2.14-1.09,1.79-.44,4.68,1.58,7.1,2.03,2.41,5.33,4.22,8.11,4.44,4.91.38,7.01-3.68,11.58-4.08,2.66-.24,5.93.84,8.85,2.5,2.92,1.66,5.53,3.87,7.93,6.17,1.1,1.06,2.27,2.2,3.66,2.77,4.81,1.94,1.4-3.2-.3-4.78Z"/><path class="cls-3" d="m480.99,670.63c7.19-1.9,16.76.6,25.77,3.37,3.05.94,6.16,1.94,9.07,3.58,2.91,1.64,5.65,4.05,6.78,6.65,1.1,2.52.45,4.98-1.6,6.04s-5.37.65-8.18-1c-4.95-2.91-7.06-8.38-11.65-11.84-2.68-2.02-5.96-3.13-8.88-3.42-2.93-.29-5.55.18-7.95.87-1.11.32-2.27.69-3.67.32-4.81-1.27-1.4-4.13.3-4.58Z"/><path class="cls-3" d="m467.76,666.22c-6.82-6.35-17.1-10.89-25.67-13.79-2.99-1.01-6.12-2.16-9.01-2.45-2.89-.29-5.61.29-6.73,2.14-1.09,1.79-.44,4.68,1.58,7.1s5.33,4.22,8.11,4.44c4.91.38,7.01-3.68,11.58-4.08,2.66-.23,5.93.84,8.85,2.5,2.92,1.66,5.53,3.87,7.93,6.17,1.1,1.06,2.27,2.2,3.66,2.77,4.81,1.94,1.4-3.2-.3-4.78Z"/><path class="cls-2" d="m474.36,299.63c0,41.94,0,83.88,0,125.82"/><path class="cls-2" d="m770.53,395.28c.13-.99.24-2.07.52-2.91,3.81-11.74,18.5,5.44,22.8,10.84,14.64,18.39,39.31,67.37,4.58,79.95-10.84,4.11-21.69,8.19-32.56,12.24-1.71.63-2.56.95-4.27,1.58-6.13,2.26-12.85,2.03-19.26-.1t-.02,0"/><path class="cls-2" d="m714.35,384.26h0c-.17-1.61-.43-3.24-.72-4.83-2.43-13.47-17.03-4.34-22.69.58-22.42,19.52-31.39,57.19-4.54,77.83,12.17,10.19,24.38,20.34,36.65,30.42,1.66,1.36,3.36,2.56,5.09,3.6.01,0,.02.01.03.02,4.65,2.8,9.48,4.44,14.15,5t.02,0"/><path class="cls-2" d="m783.11,405.64c-13.17-10.81-26.28-21.71-39.36-32.64-13.07,5.04-26.15,10.02-39.26,14.95-22.28,8.28-21.87,35.99-11.04,53.09,8.35,13.36,16.71,26.72,25.11,40.06,9.83,15.62,35.41,28.03,50.43,11.38,8.43-9.56,16.83-19.13,25.23-28.72,15.46-17.94,5.2-44.74-11.1-58.11Z"/><path class="cls-2" d="m936.98,350.34c6.6,7.02,16.85,8.54,23.46,3.48h0c6.6-5.06,16.87-3.62,23.48,3.28,0,0,0,0,0,0,6.61,6.91,16.88,8.26,23.5,3.09,0,0,0,0,0,0,6.62-5.17,16.9-3.91,23.52,2.89h0c6.62,6.8,16.91,7.98,23.54,2.7,0,0,0,0,0,0,6.63-5.28,16.92-4.19,23.55,2.5,0,0,0,0,0,0,6.63,6.69,16.93,7.69,23.57,2.3,0,0,0,0,0,0,6.63-5.4,16.95-4.48,23.58,2.1,0,0,0,0,0,0,6.64,6.58,16.96,7.41,23.6,1.91h0c6.64-5.51,16.96-4.76,23.61,1.71,0,0,0,0,0,0,6.65,6.47,16.97,7.13,23.62,1.51,0,0,0,0,0,0,6.65-5.62,16.98-5.05,23.63,1.32,0,0,0,0,0,0,6.65,6.36,16.98,6.85,23.64,1.12,0,0,0,0,0,0,6.65-5.73,16.99-5.33,23.64.92,0,0,0,0,0,0,6.65,6.25,16.99,6.57,23.65.73,0,0,0,0,0,0,6.66-5.85,17-5.62,23.65.53,0,0,0,0,0,0,6.66,6.14,17,6.29,23.66.33,0,0,0,0,0,0,6.66-5.96,17-5.9,23.66.13,0,0,0,0,0,0,6.66,6.04,17,6.01,23.66-.06,0,0,0,0,0,0,6.66-6.07,17-6.19,23.66-.26,0,0,0,0,0,0,6.66,5.93,17,5.73,23.66-.45,0,0,0,0,0,0,6.66-6.18,17-6.47,23.65-.65,0,0,0,0,.01,0,6.66,5.82,16.99,5.45,23.65-.85,0,0,0,0,.01-.01,6.65-6.3,16.99-6.75,23.64-1.04,0,0,0,0,.01.01,6.65,5.71,16.98,5.17,23.63-1.24,0,0,0,0,.01-.01,6.65-6.41,16.98-7.04,23.62-1.44,0,0,.01,0,.02.01"/><path class="cls-3" d="m1318.16,866.64c-22.08-52.44-48.67-103.5-59.97-158.97-6.6-32.39-12.42-66.19-15.12-99-2.46-29.93-.45-60.64.9-91.04.1-2.25-.19-5.11-2.39-5.97-5.77-2.27-12.82,13.13-14.78,16.43-14.63,24.63-21.47,50.59-19.75,79.14.39,6.48,2.23,13.33,4.02,19.75,5.59,19.99,12.69,39.81,20.06,59.32,9.27,24.53,19.2,49.02,29.33,73.25,9.85,23.56,20.01,47.12,30.3,70.51,7.55,17.15,15.23,34.31,22.98,51.38,2.04,4.49,4.09,8.98,6.15,13.46.25.55.87,2.76,1.46,3.06,4.78,2.37,1.06-11.03.75-12.64-1.21-6.24-2.54-12.46-3.95-18.67Z"/><path class="cls-3" d="m1387.02,868.06c22.11-52.18,48.71-102.95,59.98-158.2,6.61-32.37,12.43-66.15,15.12-98.94,2.46-29.97.45-60.74-.9-91.19-.1-2.25.19-5.11,2.39-5.95,5.77-2.21,12.82,13.29,14.79,16.63,14.6,24.79,21.48,50.88,19.76,79.54-.39,6.49-2.23,13.33-4.03,19.74-5.59,19.94-12.69,39.7-20.07,59.16-9.27,24.43-19.2,48.82-29.34,72.94-9.85,23.43-20.01,46.86-30.31,70.12-7.55,17.04-15.22,34.08-22.98,51.05-2.04,4.46-4.09,8.92-6.15,13.37-.25.54-.87,2.75-1.46,3.03-4.78,2.29-1.06-11.06-.75-12.66,1.21-6.22,2.54-12.43,3.95-18.62Z"/><path class="cls-1" d="m1355.21,570.11c0,107.57,0,215.15,0,322.72"/><path class="cls-3" d="m1362.11,613.99c7.48-4.28,17.43-4.92,26.78-5.1,3.17-.06,6.39-.08,9.42.62,3.02.7,5.86,2.22,7.03,4.47,1.14,2.18.46,4.87-1.66,6.6-2.12,1.73-5.57,2.42-8.48,1.68-5.13-1.3-7.33-6.11-12.09-8.08-2.78-1.15-6.19-1.19-9.23-.51-3.04.67-5.77,2.01-8.26,3.5-1.15.69-2.36,1.44-3.82,1.53-5.01.31-1.45-3.7.31-4.71Z"/><path class="cls-3" d="m1348.34,613.91c-7.48-4.36-17.43-5.11-26.77-5.39-3.17-.09-6.39-.14-9.41.52-3.02.66-5.86,2.16-7.03,4.39-1.14,2.17-.46,4.86,1.66,6.62s5.57,2.48,8.48,1.77c5.13-1.24,7.33-6.03,12.09-7.94,2.78-1.12,6.19-1.12,9.23-.41,3.04.71,5.77,2.07,8.26,3.59,1.15.7,2.36,1.47,3.82,1.58,5.01.37,1.45-3.68-.31-4.71Z"/><path class="cls-3" d="m1362.11,640.06c7.48-4.28,17.43-4.92,26.78-5.09,3.17-.06,6.39-.07,9.42.62,3.02.7,5.86,2.22,7.03,4.47,1.14,2.18.46,4.87-1.66,6.6s-5.57,2.42-8.48,1.68c-5.13-1.3-7.33-6.11-12.09-8.08-2.78-1.15-6.19-1.19-9.23-.52-3.04.67-5.77,2.01-8.26,3.5-1.15.69-2.36,1.44-3.82,1.53-5.01.31-1.45-3.7.31-4.71Z"/><path class="cls-3" d="m1348.34,639.99c-7.48-4.36-17.43-5.11-26.77-5.39-3.17-.09-6.39-.15-9.41.52-3.02.66-5.86,2.15-7.03,4.38-1.14,2.17-.46,4.86,1.66,6.62s5.57,2.48,8.48,1.78c5.13-1.24,7.33-6.03,12.09-7.94,2.78-1.12,6.19-1.12,9.23-.41,3.04.71,5.77,2.07,8.26,3.59,1.15.7,2.36,1.47,3.82,1.58,5.01.37,1.45-3.68-.31-4.71Z"/><path class="cls-3" d="m1362.11,665.01c7.48-4.28,17.43-4.92,26.78-5.09,3.17-.06,6.39-.07,9.42.62,3.02.7,5.86,2.22,7.03,4.47,1.14,2.18.46,4.87-1.66,6.6s-5.57,2.42-8.48,1.68c-5.13-1.3-7.33-6.11-12.09-8.08-2.78-1.15-6.19-1.19-9.23-.52-3.04.67-5.77,2-8.26,3.49-1.15.69-2.36,1.44-3.82,1.53-5.01.31-1.45-3.7.31-4.71Z"/><path class="cls-3" d="m1348.34,664.93c-7.48-4.37-17.43-5.12-26.77-5.4-3.17-.09-6.39-.15-9.41.52-3.02.66-5.86,2.15-7.03,4.38-1.14,2.17-.46,4.86,1.66,6.62,2.12,1.76,5.57,2.48,8.48,1.78,5.13-1.24,7.33-6.02,12.09-7.94,2.78-1.12,6.19-1.12,9.23-.41,3.04.71,5.77,2.07,8.26,3.59,1.15.7,2.36,1.47,3.82,1.58,5.01.37,1.45-3.68-.31-4.71Z"/><path class="cls-3" d="m1362.11,691.84c7.48-4.28,17.43-4.91,26.78-5.08,3.17-.06,6.39-.07,9.42.63,3.02.7,5.86,2.22,7.03,4.47,1.14,2.18.46,4.87-1.66,6.6s-5.57,2.42-8.48,1.68c-5.13-1.3-7.33-6.11-12.09-8.09-2.78-1.15-6.19-1.19-9.23-.52-3.04.67-5.77,2-8.26,3.49-1.15.69-2.36,1.44-3.82,1.53-5.01.31-1.45-3.7.31-4.71Z"/><path class="cls-3" d="m1348.34,691.76c-7.48-4.37-17.43-5.12-26.77-5.4-3.17-.09-6.39-.15-9.41.51-3.02.66-5.86,2.15-7.03,4.38-1.14,2.16-.46,4.86,1.66,6.62,2.12,1.76,5.57,2.48,8.48,1.78,5.13-1.24,7.33-6.02,12.09-7.94,2.78-1.12,6.19-1.12,9.23-.41,3.04.71,5.77,2.07,8.26,3.59,1.15.7,2.36,1.47,3.82,1.58,5.01.37,1.45-3.68-.31-4.71Z"/><path class="cls-3" d="m1362.11,717.92c7.48-4.28,17.43-4.91,26.78-5.08,3.17-.06,6.39-.07,9.42.63,3.02.7,5.86,2.22,7.03,4.47,1.14,2.18.46,4.87-1.66,6.6s-5.57,2.42-8.48,1.68c-5.13-1.31-7.33-6.12-12.09-8.09-2.78-1.15-6.19-1.19-9.23-.52-3.04.67-5.77,2-8.26,3.49-1.15.69-2.36,1.44-3.82,1.53-5.01.31-1.45-3.7.31-4.71Z"/><path class="cls-3" d="m1348.34,717.83c-7.48-4.37-17.43-5.12-26.77-5.41-3.17-.1-6.39-.15-9.41.51-3.02.66-5.86,2.15-7.03,4.38-1.14,2.16-.46,4.86,1.66,6.62s5.57,2.48,8.48,1.78c5.13-1.24,7.33-6.02,12.09-7.93,2.78-1.12,6.19-1.12,9.23-.41,3.04.71,5.77,2.07,8.26,3.59,1.15.7,2.36,1.47,3.82,1.58,5.01.37,1.45-3.68-.31-4.71Z"/><path class="cls-3" d="m1362.11,742.86c7.48-4.27,17.43-4.91,26.78-5.07,3.17-.06,6.39-.07,9.42.63s5.86,2.23,7.03,4.47c1.14,2.18.46,4.87-1.66,6.6-2.12,1.73-5.57,2.42-8.48,1.67-5.13-1.31-7.33-6.12-12.09-8.09-2.78-1.15-6.19-1.19-9.23-.52s-5.77,2-8.26,3.49c-1.15.69-2.36,1.44-3.82,1.53-5.01.31-1.45-3.7.31-4.71Z"/><path class="cls-3" d="m1348.34,742.77c-7.48-4.37-17.43-5.13-26.77-5.41-3.17-.1-6.39-.15-9.41.51-3.02.66-5.86,2.15-7.03,4.38-1.14,2.16-.46,4.86,1.66,6.62s5.57,2.49,8.48,1.78c5.13-1.24,7.33-6.02,12.09-7.93,2.78-1.12,6.19-1.12,9.23-.41,3.04.71,5.77,2.07,8.26,3.59,1.15.7,2.36,1.47,3.82,1.58,5.01.37,1.45-3.68-.31-4.71Z"/><path class="cls-3" d="m1362.11,763.65c7.48-4.27,17.43-4.91,26.78-5.07,3.17-.06,6.39-.07,9.42.63,3.02.7,5.86,2.23,7.03,4.47,1.14,2.18.46,4.87-1.66,6.6-2.12,1.73-5.57,2.41-8.48,1.67-5.13-1.31-7.33-6.12-12.09-8.09-2.78-1.15-6.19-1.2-9.23-.52-3.04.67-5.77,2-8.26,3.49-1.15.69-2.36,1.44-3.82,1.53-5.01.31-1.45-3.7.31-4.71Z"/><path class="cls-3" d="m1348.34,763.56c-7.48-4.37-17.43-5.13-26.77-5.41-3.17-.1-6.39-.15-9.41.51-3.02.66-5.86,2.15-7.03,4.38-1.14,2.16-.46,4.86,1.66,6.62,2.12,1.76,5.57,2.49,8.48,1.78,5.13-1.24,7.33-6.02,12.09-7.93,2.78-1.12,6.19-1.11,9.23-.4,3.04.71,5.77,2.08,8.26,3.59,1.15.7,2.36,1.47,3.82,1.58,5.01.37,1.45-3.68-.31-4.71Z"/><path class="cls-3" d="m1362.11,789.72c7.48-4.27,17.43-4.9,26.78-5.06,3.17-.05,6.39-.07,9.42.63,3.02.7,5.86,2.23,7.03,4.47,1.14,2.18.46,4.87-1.66,6.6-2.12,1.73-5.57,2.41-8.48,1.67-5.13-1.31-7.33-6.12-12.09-8.1-2.78-1.15-6.19-1.2-9.23-.53-3.04.67-5.77,2-8.26,3.49-1.15.69-2.36,1.44-3.82,1.53-5.01.31-1.45-3.7.31-4.71Z"/><path class="cls-3" d="m1348.34,789.63c-7.48-4.37-17.43-5.13-26.77-5.42-3.17-.1-6.39-.15-9.41.51-3.02.66-5.86,2.15-7.03,4.38-1.14,2.16-.46,4.86,1.66,6.62s5.57,2.49,8.48,1.78c5.13-1.24,7.33-6.02,12.09-7.93,2.78-1.11,6.19-1.11,9.23-.4,3.04.71,5.77,2.08,8.26,3.6,1.15.7,2.36,1.47,3.82,1.58,5.01.37,1.45-3.68-.31-4.71Z"/><path class="cls-3" d="m1362.11,814.67c7.48-4.27,17.43-4.9,26.78-5.06,3.17-.05,6.39-.07,9.42.63,3.02.7,5.86,2.23,7.03,4.48,1.14,2.18.46,4.87-1.66,6.6-2.12,1.73-5.57,2.41-8.48,1.67-5.13-1.31-7.33-6.12-12.09-8.1-2.78-1.15-6.19-1.2-9.23-.53s-5.77,2-8.26,3.49c-1.15.69-2.36,1.44-3.82,1.53-5.01.31-1.45-3.7.31-4.71Z"/><path class="cls-3" d="m1348.34,814.57c-7.48-4.37-17.43-5.14-26.77-5.42-3.17-.1-6.39-.15-9.41.51-3.02.66-5.86,2.15-7.03,4.38-1.14,2.16-.46,4.86,1.66,6.62,2.12,1.76,5.57,2.49,8.48,1.79,5.13-1.24,7.33-6.02,12.09-7.93,2.78-1.11,6.19-1.11,9.23-.4,3.04.71,5.77,2.08,8.26,3.6,1.15.7,2.36,1.47,3.82,1.58,5.01.38,1.45-3.68-.31-4.71Z"/><path class="cls-2" d="m1355.21,443.49c0,42.21,0,84.41,0,126.62"/><path class="cls-2" d="m1105.41,446.22c.13-1.01.26-2.08.53-2.98,3.67-12.42,18.28,2.67,23.12,8.1,17.31,19.41,37.7,63.8,4.65,79.58-10.98,5.46-21.98,10.86-33.01,16.22-1.73.84-2.6,1.26-4.33,2.1-6.22,3.01-13.04,3.6-19.55,2.25t-.02,0"/><path class="cls-2" d="m1048.37,442h0c-.17-1.6-.42-3.19-.73-4.75-2.78-14.1-18.07-1.34-23.07,3.35-20.96,19.7-34.48,59.53-4.62,78.57,12.39,8.72,24.81,17.39,37.26,26.02,1.69,1.16,3.41,2.16,5.17,2.99.01,0,.02.01.03.01,4.72,2.24,9.63,3.3,14.37,3.29t.02,0"/><path class="cls-2" d="m1118.17,455.08c-13.36-9.24-26.66-18.56-39.93-27.93-13.27,6.64-26.56,13.23-39.89,19.77-20.88,10.17-23.56,36.71-11.22,54.56,8.49,12.37,17,24.74,25.52,37.09,11.35,16.39,37.4,22.17,51.19,5.27,8.54-10.6,17.07-21.22,25.58-31.85,14.45-18.22,6.81-44.42-11.25-56.9Z"/><path class="cls-1" d="m1078.03,555.14c0,107.36,0,214.72,0,322.09"/><path class="cls-3" d="m1084.91,599.61c7.45-3.54,17.36-3.21,26.68-2.47,3.16.25,6.37.55,9.39,1.54,3.01.99,5.84,2.79,7.01,5.14,1.13,2.29.46,4.9-1.65,6.43-2.11,1.52-5.56,1.87-8.46.85-5.12-1.8-7.31-6.81-12.05-9.24-2.77-1.42-6.17-1.79-9.2-1.41-3.03.38-5.75,1.44-8.23,2.68-1.15.57-2.35,1.21-3.8,1.16-4.99-.18-1.45-3.83.31-4.67Z"/><path class="cls-3" d="m1071.19,598.19c-7.31-4.94-18.17-7.09-26.65-7.99-3.09-.33-6.36-.77-9.37-.4-3.01.37-5.83,1.58-6.99,3.69-1.13,2.05-.46,4.8,1.65,6.76s5.54,3.02,8.43,2.6c5.1-.74,7.29-5.3,12.03-6.75,2.77-.84,6.16-.51,9.19.49,3.03,1,5.74,2.63,8.23,4.39,1.15.81,2.35,1.7,3.8,1.94,4.99.86,1.45-3.54-.31-4.73Z"/><path class="cls-3" d="m1084.91,625.63c7.45-3.54,17.36-3.21,26.68-2.47,3.16.25,6.37.55,9.39,1.54,3.01.99,5.84,2.79,7.01,5.14,1.13,2.29.46,4.9-1.65,6.43-2.11,1.52-5.56,1.87-8.46.85-5.12-1.8-7.31-6.82-12.05-9.25-2.77-1.42-6.17-1.79-9.2-1.42s-5.75,1.44-8.23,2.68c-1.15.57-2.35,1.21-3.8,1.16-4.99-.18-1.45-3.83.31-4.67Z"/><path class="cls-3" d="m1071.19,624.21c-7.31-4.95-18.17-7.1-26.65-7.99-3.09-.33-6.36-.77-9.37-.4-3.01.37-5.83,1.58-6.99,3.69-1.13,2.05-.46,4.8,1.65,6.77,2.11,1.96,5.54,3.02,8.43,2.6,5.1-.74,7.29-5.3,12.03-6.75,2.77-.84,6.16-.51,9.19.49,3.03,1,5.74,2.63,8.23,4.39,1.15.81,2.35,1.7,3.8,1.95,4.99.86,1.45-3.54-.31-4.73Z"/><path class="cls-3" d="m1084.91,650.53c7.45-3.54,17.36-3.21,26.68-2.47,3.16.25,6.37.55,9.39,1.54,3.01.99,5.84,2.79,7.01,5.15,1.13,2.29.46,4.9-1.65,6.43s-5.56,1.87-8.46.85c-5.12-1.8-7.31-6.82-12.05-9.25-2.77-1.42-6.17-1.79-9.2-1.42s-5.75,1.44-8.23,2.68c-1.15.57-2.35,1.21-3.8,1.16-4.99-.18-1.45-3.83.31-4.67Z"/><path class="cls-3" d="m1071.19,649.11c-7.31-4.95-18.17-7.1-26.65-8-3.09-.33-6.36-.77-9.37-.4-3.01.37-5.83,1.58-6.99,3.69-1.13,2.05-.46,4.8,1.65,6.77,2.11,1.96,5.54,3.02,8.43,2.6,5.1-.74,7.29-5.3,12.03-6.74,2.77-.84,6.16-.51,9.19.49,3.03,1,5.74,2.63,8.23,4.39,1.15.81,2.35,1.7,3.8,1.95,4.99.86,1.45-3.54-.31-4.73Z"/><path class="cls-3" d="m1084.91,677.31c7.45-3.54,17.36-3.2,26.68-2.46,3.16.25,6.37.55,9.39,1.54,3.01.99,5.84,2.79,7.01,5.15,1.13,2.29.46,4.9-1.65,6.43s-5.56,1.87-8.46.85c-5.12-1.8-7.31-6.82-12.05-9.25-2.77-1.42-6.17-1.79-9.2-1.42-3.03.37-5.75,1.44-8.23,2.68-1.15.57-2.35,1.21-3.8,1.16-4.99-.18-1.45-3.83.31-4.67Z"/><path class="cls-3" d="m1071.19,675.88c-7.31-4.95-18.17-7.1-26.65-8-3.09-.33-6.36-.77-9.37-.41-3.01.37-5.83,1.58-6.99,3.69-1.13,2.05-.46,4.8,1.65,6.77s5.54,3.02,8.43,2.6c5.1-.74,7.29-5.3,12.03-6.74,2.77-.84,6.16-.51,9.19.49,3.03,1,5.74,2.63,8.23,4.39,1.15.81,2.35,1.7,3.8,1.95,4.99.86,1.45-3.54-.31-4.73Z"/><path class="cls-3" d="m1084.91,703.33c7.45-3.54,17.36-3.2,26.68-2.46,3.16.25,6.37.55,9.39,1.54,3.01.99,5.84,2.79,7.01,5.15,1.13,2.29.46,4.9-1.65,6.43-2.11,1.52-5.56,1.87-8.46.85-5.12-1.8-7.31-6.82-12.05-9.25-2.77-1.42-6.17-1.79-9.2-1.42-3.03.37-5.75,1.44-8.23,2.68-1.15.57-2.35,1.21-3.8,1.16-4.99-.18-1.45-3.83.31-4.67Z"/><path class="cls-3" d="m1071.19,701.91c-7.31-4.95-18.17-7.1-26.65-8.01-3.09-.33-6.36-.77-9.37-.41-3.01.36-5.83,1.57-6.99,3.69-1.13,2.05-.46,4.8,1.65,6.77,2.11,1.96,5.54,3.02,8.43,2.6,5.1-.74,7.29-5.3,12.03-6.74,2.77-.84,6.16-.51,9.19.49,3.03,1.01,5.74,2.63,8.23,4.39,1.15.81,2.35,1.7,3.8,1.95,4.99.86,1.45-3.54-.31-4.74Z"/><path class="cls-3" d="m1084.91,728.23c7.45-3.54,17.36-3.2,26.68-2.45,3.16.25,6.37.55,9.39,1.55,3.01.99,5.84,2.79,7.01,5.15,1.13,2.29.46,4.9-1.65,6.43-2.11,1.52-5.56,1.87-8.46.84-5.12-1.8-7.31-6.82-12.05-9.25-2.77-1.42-6.17-1.8-9.2-1.42-3.03.37-5.75,1.44-8.23,2.68-1.15.57-2.35,1.21-3.8,1.16-4.99-.18-1.45-3.83.31-4.67Z"/><path class="cls-3" d="m1071.19,726.8c-7.31-4.95-18.17-7.11-26.65-8.01-3.09-.33-6.36-.77-9.37-.41s-5.83,1.57-6.99,3.68c-1.13,2.05-.46,4.8,1.65,6.77,2.11,1.96,5.54,3.02,8.43,2.61,5.1-.74,7.29-5.29,12.03-6.74,2.77-.84,6.16-.51,9.19.5,3.03,1.01,5.74,2.63,8.23,4.39,1.15.81,2.35,1.7,3.8,1.95,4.99.86,1.45-3.54-.31-4.74Z"/><path class="cls-3" d="m1084.91,748.97c7.45-3.54,17.36-3.2,26.68-2.45,3.16.25,6.37.55,9.39,1.55,3.01.99,5.84,2.79,7.01,5.15,1.13,2.29.46,4.9-1.65,6.43-2.11,1.52-5.56,1.87-8.46.84-5.12-1.81-7.31-6.82-12.05-9.26-2.77-1.42-6.17-1.8-9.2-1.42-3.03.37-5.75,1.43-8.23,2.68-1.15.57-2.35,1.21-3.8,1.15-4.99-.18-1.45-3.83.31-4.67Z"/><path class="cls-3" d="m1071.19,747.54c-7.31-4.95-18.17-7.11-26.65-8.02-3.09-.33-6.36-.78-9.37-.41s-5.83,1.57-6.99,3.68c-1.13,2.05-.46,4.8,1.65,6.77,2.11,1.96,5.54,3.02,8.43,2.61,5.1-.74,7.29-5.29,12.03-6.74,2.77-.84,6.16-.51,9.19.5,3.03,1.01,5.74,2.63,8.23,4.39,1.15.81,2.35,1.7,3.8,1.95,4.99.86,1.45-3.54-.31-4.74Z"/><path class="cls-3" d="m1084.91,775c7.45-3.53,17.36-3.19,26.68-2.44,3.16.25,6.37.56,9.39,1.55s5.84,2.79,7.01,5.15c1.13,2.29.46,4.9-1.65,6.43s-5.56,1.87-8.46.84c-5.12-1.81-7.31-6.82-12.05-9.26-2.77-1.42-6.17-1.8-9.2-1.43s-5.75,1.43-8.23,2.67c-1.15.57-2.35,1.21-3.8,1.15-4.99-.18-1.45-3.83.31-4.67Z"/><path class="cls-3" d="m1071.19,773.56c-7.31-4.95-18.17-7.11-26.65-8.02-3.09-.33-6.36-.78-9.37-.41-3.01.36-5.83,1.57-6.99,3.68-1.13,2.05-.46,4.8,1.65,6.77s5.54,3.03,8.43,2.61c5.1-.74,7.29-5.29,12.03-6.73,2.77-.84,6.16-.51,9.19.5,3.03,1.01,5.74,2.64,8.23,4.4,1.15.81,2.35,1.7,3.8,1.95,4.99.86,1.45-3.54-.31-4.74Z"/><path class="cls-3" d="m1084.91,799.89c7.45-3.53,17.36-3.19,26.68-2.44,3.16.25,6.37.56,9.39,1.55,3.01.99,5.84,2.8,7.01,5.15,1.13,2.29.46,4.9-1.65,6.43-2.11,1.52-5.56,1.86-8.46.84-5.12-1.81-7.31-6.82-12.05-9.26-2.77-1.42-6.17-1.8-9.2-1.43s-5.75,1.43-8.23,2.67c-1.15.57-2.35,1.21-3.8,1.15-4.99-.18-1.45-3.83.31-4.67Z"/><path class="cls-3" d="m1071.19,798.46c-7.31-4.95-18.17-7.12-26.65-8.03-3.09-.33-6.36-.78-9.37-.41-3.01.36-5.83,1.57-6.99,3.68-1.13,2.05-.46,4.8,1.65,6.77,2.11,1.96,5.54,3.03,8.43,2.61,5.1-.73,7.29-5.29,12.03-6.73,2.77-.84,6.16-.51,9.19.5,3.03,1.01,5.74,2.64,8.23,4.4,1.15.81,2.35,1.7,3.8,1.95,4.99.86,1.45-3.54-.31-4.74Z"/><path class="cls-2" d="m1078.03,428.77c0,42.12,0,84.24,0,126.37"/><path class="cls-2" d="m1382.25,458.63c.13-1.02.3-2.05.53-3.03,3.19-13.76,18.44,1,23.19,5.85,19.49,19.95,35.88,61.32,4.66,79.29-11.01,6.54-22.05,13.04-33.12,19.48-1.74,1.01-2.61,1.52-4.35,2.53-6.24,3.63-13.09,4.88-19.63,4.17h-.02"/><path class="cls-2" d="m1324.97,460h0c-.18-1.58-.41-3.15-.73-4.69-3.01-14.28-18.79,1.07-23.19,5.62-18.83,19.47-36.67,61.96-4.65,79.18,12.46,7.52,24.94,14.99,37.45,22.42,1.69,1,3.43,1.83,5.2,2.49.01,0,.02.01.03.01,4.74,1.78,9.67,2.36,14.43,1.89h.02"/><path class="cls-2" d="m1395.05,466.25c-13.4-7.95-26.75-15.99-40.07-24.08-13.33,7.96-26.68,15.86-40.07,23.72-19.6,11.44-24.7,37.59-11.28,55.77,8.54,11.56,17.09,23.12,25.65,34.66,12.55,16.79,38.73,17.08,51.4.26,8.57-11.46,17.12-22.94,25.66-34.42,13.51-18.2,8.19-44.36-11.29-55.91Z"/><path class="cls-2" d="m1550.82,376.89c6.65,5.6,16.97,4.89,23.62-1.64h0c6.64-6.52,16.97-7.33,23.61-1.83,0,0,0,0,0,0,6.64,5.49,16.96,4.61,23.6-2.03,0,0,0,0,0,0,6.64-6.64,16.95-7.61,23.58-2.23h0c6.63,5.39,16.94,4.33,23.57-2.42,0,0,0,0,0,0,6.63-6.75,16.92-7.89,23.55-2.62,0,0,0,0,0,0,6.63,5.28,16.91,4.04,23.53-2.82,0,0,0,0,0,0,6.62-6.86,16.9-8.18,23.52-3.01,0,0,0,0,0,0,6.61,5.17,16.89,3.76,23.5-3.21,0,0,0,0,0,0,6.61-6.97,16.87-8.46,23.47-3.41,0,0,0,0,0,0,6.6,5.06,16.85,3.48,23.45-3.6,0,0,0,0,0,0,6.6-7.09,16.84-8.75,23.43-3.8,0,0,0,0,0,0,6.59,4.95,16.82,3.2,23.4-4,0,0,0,0,0,0,6.58-7.2,16.8-9.03,23.38-4.19,0,0,0,0,0,0,6.57,4.84,16.78,2.92,23.35-4.39,0,0,0,0,0,0,6.57-7.31,16.76-9.32,23.32-4.59,0,0,0,0,0,0,6.56,4.73,16.74,2.64,23.29-4.78,0,0,0,0,0,0,6.55-7.42,16.72-9.6,23.26-4.98,0,0,0,0,0,0,6.54,4.62,16.7,2.36,23.23-5.18,0,0,0,0,0,0,6.53-7.54,16.67-9.89,23.19-5.37,0,0,0,0,0,0,6.52,4.51,16.65,2.08,23.16-5.57,0,0,0,0,0,0,6.51-7.65,16.62-10.17,23.12-5.77,0,0,0,0,.01,0,6.5,4.4,16.59,1.8,23.08-5.96,0,0,0,0,.01-.01,6.49-7.76,16.56-10.46,23.04-6.16,0,0,0,0,.01,0,6.48,4.3,16.54,1.52,23-6.36,0,0,0-.01.01-.02,6.47-7.87,16.5-10.74,22.96-6.55,0,0,.01,0,.02.01"/><path class="cls-3" d="m1930.56,812.6c-21.98-48.33-48.29-95.01-59.17-146.69-6.61-31.39-12.32-64.28-14.95-96.16-2.48-30.1-.44-61.04.89-91.63.1-2.28-.19-5.09-2.36-5.48-5.71-1.04-12.67,15.93-14.63,19.7-13.34,25.55-22.08,54.16-19.57,83.77.55,6.54,2.21,12.9,3.99,18.96,5.49,18.67,12.52,37.11,19.88,55.23,9.15,22.54,18.98,45.02,29.01,67.22,9.71,21.49,19.75,42.97,29.92,64.26,7.44,15.57,15.02,31.15,22.65,46.63,2.01,4.07,4.03,8.14,6.06,12.19.25.49.86,2.59,1.44,2.75,4.7,1.35,1.05-11.31.74-12.86-1.19-6.01-2.5-11.97-3.89-17.9Z"/><path class="cls-3" d="m1998.25,799.13c21.5-56.77,47.48-112.5,58.73-171.86,6.38-33.68,12.11-68.63,14.78-102.64,2.36-30.08.45-60.88-.88-91.39-.1-2.24.19-5.18,2.33-6.5,5.63-3.47,12.41,10.58,14.43,13.5,15.72,22.72,20.78,49.17,19.26,75.61-.38,6.64-2.17,13.87-3.92,20.69-5.5,21.42-12.41,42.72-19.57,63.75-9.07,26.63-18.76,53.23-28.65,79.6-9.65,25.71-19.58,51.42-29.66,76.98-7.4,18.77-14.93,37.54-22.52,56.24-2,4.92-4.01,9.84-6.03,14.75-.25.6-.85,2.95-1.43,3.36-4.69,3.34-1.04-10.87-.74-12.55,1.19-6.51,2.5-13.03,3.87-19.55Z"/><path class="cls-1" d="m1967.02,506.76c0,108.04,0,216.08,0,324.12"/><path class="cls-3" d="m1973.8,549.34c7.07-5.67,17.71-9.04,26.28-10.91,3.06-.67,6.27-1.46,9.23-1.41,2.96.05,5.74.96,6.89,2.96,1.11,1.94.45,4.79-1.62,6.99-2.08,2.2-5.46,3.64-8.31,3.52-5.03-.2-7.19-4.55-11.86-5.5-2.73-.55-6.07.14-9.06,1.48s-5.66,3.26-8.11,5.3c-1.13.94-2.32,1.96-3.75,2.37-4.92,1.4-1.43-3.41.31-4.8Z"/><path class="cls-3" d="m1960.27,552.24c-7.36-2.76-17.14-1.37-26.35.38-3.12.59-6.3,1.24-9.27,2.56-2.98,1.32-5.77,3.43-6.93,5.93-1.12,2.42-.46,4.98,1.63,6.29,2.09,1.31,5.49,1.29,8.36-.05,5.05-2.36,7.22-7.64,11.91-10.59,2.74-1.72,6.09-2.46,9.08-2.41,2.99.05,5.67.83,8.13,1.81,1.13.45,2.32.96,3.75.76,4.92-.71,1.43-4.01-.31-4.67Z"/><path class="cls-3" d="m1973.8,575.53c7.07-5.67,17.71-9.04,26.28-10.9,3.06-.67,6.27-1.46,9.23-1.41,2.96.05,5.74.96,6.89,2.97,1.11,1.94.45,4.79-1.62,6.99-2.08,2.2-5.46,3.63-8.31,3.52-5.03-.2-7.19-4.55-11.86-5.5-2.73-.55-6.07.14-9.06,1.48-2.99,1.33-5.66,3.26-8.11,5.3-1.13.94-2.32,1.96-3.75,2.36-4.92,1.4-1.43-3.41.31-4.8Z"/><path class="cls-3" d="m1960.27,578.43c-7.36-2.76-17.14-1.37-26.35.38-3.12.59-6.3,1.24-9.27,2.56-2.98,1.32-5.77,3.43-6.93,5.92-1.12,2.42-.46,4.98,1.63,6.29s5.49,1.29,8.36-.05c5.05-2.36,7.22-7.64,11.91-10.59,2.74-1.72,6.09-2.46,9.08-2.41,2.99.05,5.67.83,8.13,1.82,1.13.45,2.32.96,3.75.76,4.92-.71,1.43-4.01-.31-4.67Z"/><path class="cls-3" d="m1973.8,600.58c7.07-5.67,17.71-9.03,26.28-10.9,3.06-.67,6.27-1.46,9.23-1.41,2.96.05,5.74.96,6.89,2.97,1.11,1.94.45,4.79-1.62,6.99-2.08,2.2-5.46,3.63-8.31,3.52-5.03-.2-7.19-4.56-11.86-5.51-2.73-.55-6.07.14-9.06,1.48-2.99,1.33-5.66,3.26-8.11,5.3-1.13.94-2.32,1.96-3.75,2.36-4.92,1.4-1.43-3.41.31-4.8Z"/><path class="cls-3" d="m1960.27,603.48c-7.36-2.77-17.14-1.37-26.35.37-3.12.59-6.3,1.24-9.27,2.55-2.98,1.32-5.77,3.43-6.93,5.92-1.12,2.42-.46,4.98,1.63,6.29,2.09,1.31,5.49,1.29,8.36-.05,5.05-2.36,7.22-7.64,11.91-10.59,2.74-1.72,6.09-2.46,9.08-2.41,2.99.05,5.67.83,8.13,1.82,1.13.45,2.32.97,3.75.76,4.92-.71,1.43-4.01-.31-4.67Z"/><path class="cls-3" d="m1973.8,627.53c7.07-5.67,17.71-9.03,26.28-10.89,3.06-.66,6.27-1.45,9.23-1.41,2.96.05,5.74.97,6.89,2.97,1.11,1.94.45,4.79-1.62,6.99-2.08,2.2-5.46,3.63-8.31,3.52-5.03-.2-7.19-4.56-11.86-5.51-2.73-.55-6.07.14-9.06,1.47s-5.66,3.26-8.11,5.29c-1.13.94-2.32,1.96-3.75,2.36-4.92,1.39-1.43-3.41.31-4.8Z"/><path class="cls-3" d="m1960.27,630.42c-7.36-2.77-17.14-1.37-26.35.37-3.12.59-6.3,1.23-9.27,2.55-2.98,1.32-5.77,3.43-6.93,5.92-1.12,2.42-.46,4.98,1.63,6.29,2.09,1.31,5.49,1.29,8.36-.05,5.05-2.36,7.22-7.63,11.91-10.59,2.74-1.72,6.09-2.46,9.08-2.41,2.99.05,5.67.83,8.13,1.82,1.13.45,2.32.97,3.75.76,4.92-.71,1.43-4.01-.31-4.67Z"/><path class="cls-3" d="m1973.8,653.72c7.07-5.67,17.71-9.03,26.28-10.89,3.06-.66,6.27-1.45,9.23-1.41,2.96.05,5.74.97,6.89,2.97,1.11,1.94.45,4.79-1.62,6.99-2.08,2.2-5.46,3.63-8.31,3.52-5.03-.2-7.19-4.56-11.86-5.51-2.73-.56-6.07.14-9.06,1.47-2.99,1.33-5.66,3.26-8.11,5.29-1.13.94-2.32,1.96-3.75,2.36-4.92,1.39-1.43-3.41.31-4.8Z"/><path class="cls-3" d="m1960.27,656.61c-7.36-2.77-17.14-1.38-26.35.36-3.12.59-6.3,1.23-9.27,2.55-2.98,1.32-5.77,3.43-6.93,5.92-1.12,2.42-.46,4.98,1.63,6.29,2.09,1.31,5.49,1.29,8.36-.05,5.05-2.36,7.22-7.63,11.91-10.58,2.74-1.72,6.09-2.46,9.08-2.41,2.99.05,5.67.84,8.13,1.82,1.13.45,2.32.97,3.75.76,4.92-.71,1.43-4.01-.31-4.67Z"/><path class="cls-3" d="m1973.8,678.77c7.07-5.66,17.71-9.02,26.28-10.88,3.06-.66,6.27-1.45,9.23-1.4,2.96.05,5.74.97,6.89,2.97,1.11,1.94.45,4.79-1.62,6.99-2.08,2.2-5.46,3.63-8.31,3.52-5.03-.2-7.19-4.56-11.86-5.51-2.73-.56-6.07.14-9.06,1.47-2.99,1.33-5.66,3.26-8.11,5.29-1.13.94-2.32,1.96-3.75,2.36-4.92,1.39-1.43-3.41.31-4.8Z"/><path class="cls-3" d="m1960.27,681.66c-7.36-2.77-17.14-1.38-26.35.36-3.12.59-6.3,1.23-9.27,2.55-2.98,1.32-5.77,3.43-6.93,5.92-1.12,2.42-.46,4.98,1.63,6.29,2.09,1.31,5.49,1.29,8.36-.04,5.05-2.36,7.22-7.63,11.91-10.58,2.74-1.72,6.09-2.46,9.08-2.4,2.99.06,5.67.84,8.13,1.82,1.13.45,2.32.97,3.75.76,4.92-.71,1.43-4.01-.31-4.67Z"/><path class="cls-3" d="m1973.8,699.65c7.07-5.66,17.71-9.02,26.28-10.88,3.06-.66,6.27-1.45,9.23-1.4,2.96.05,5.74.97,6.89,2.97,1.11,1.94.45,4.79-1.62,6.99-2.08,2.2-5.46,3.63-8.31,3.51-5.03-.2-7.19-4.56-11.86-5.51-2.73-.56-6.07.14-9.06,1.47-2.99,1.33-5.66,3.26-8.11,5.29-1.13.94-2.32,1.96-3.75,2.36-4.92,1.39-1.43-3.41.31-4.8Z"/><path class="cls-3" d="m1960.27,702.54c-7.36-2.77-17.14-1.38-26.35.35-3.12.59-6.3,1.23-9.27,2.55-2.98,1.32-5.77,3.43-6.93,5.92-1.12,2.42-.46,4.98,1.63,6.29,2.09,1.31,5.49,1.29,8.36-.04,5.05-2.35,7.22-7.63,11.91-10.58,2.74-1.72,6.09-2.46,9.08-2.4,2.99.06,5.67.84,8.13,1.82,1.13.45,2.32.97,3.75.76,4.92-.71,1.43-4.01-.31-4.67Z"/><path class="cls-3" d="m1973.8,725.84c7.07-5.66,17.71-9.02,26.28-10.88,3.06-.66,6.27-1.45,9.23-1.4,2.96.05,5.74.97,6.89,2.97,1.11,1.94.45,4.79-1.62,6.99-2.08,2.2-5.46,3.63-8.31,3.51-5.03-.2-7.19-4.56-11.86-5.52-2.73-.56-6.07.14-9.06,1.47-2.99,1.33-5.66,3.26-8.11,5.29-1.13.94-2.32,1.96-3.75,2.36-4.92,1.39-1.43-3.41.31-4.8Z"/><path class="cls-3" d="m1960.27,728.72c-7.36-2.77-17.14-1.39-26.35.35-3.12.59-6.3,1.23-9.27,2.55-2.98,1.32-5.77,3.43-6.93,5.92-1.12,2.42-.46,4.98,1.63,6.29,2.09,1.31,5.49,1.29,8.36-.04,5.05-2.35,7.22-7.63,11.91-10.58,2.74-1.72,6.09-2.46,9.08-2.4,2.99.06,5.67.84,8.13,1.82,1.13.46,2.32.97,3.75.76,4.92-.71,1.43-4.01-.31-4.67Z"/><path class="cls-3" d="m1973.8,750.89c7.07-5.66,17.71-9.02,26.28-10.87,3.06-.66,6.27-1.45,9.23-1.4,2.96.05,5.74.97,6.89,2.97,1.11,1.94.45,4.79-1.62,6.99-2.08,2.2-5.46,3.63-8.31,3.51-5.03-.21-7.19-4.56-11.86-5.52-2.73-.56-6.07.14-9.06,1.47-2.99,1.33-5.66,3.25-8.11,5.29-1.13.94-2.32,1.96-3.75,2.36-4.92,1.39-1.43-3.41.31-4.8Z"/><path class="cls-3" d="m1960.27,753.77c-7.36-2.77-17.14-1.39-26.35.34-3.12.59-6.3,1.23-9.27,2.54-2.98,1.32-5.77,3.42-6.93,5.92-1.12,2.42-.46,4.98,1.63,6.29,2.09,1.31,5.49,1.29,8.36-.04,5.05-2.35,7.22-7.63,11.91-10.58,2.74-1.72,6.09-2.46,9.08-2.4,2.99.06,5.67.84,8.13,1.83,1.13.46,2.32.97,3.75.76,4.92-.71,1.43-4.01-.31-4.67Z"/><path class="cls-2" d="m1967.02,379.59c0,42.39,0,84.78,0,127.17"/><path class="cls-2" d="m1719.67,436.46c.13-1.04.3-2.08.52-3.1,2.98-13.83,17.54-1.91,23.04,3.11,22.02,20.11,33.2,58.9,4.63,78.92-10.94,7.87-21.91,15.69-32.91,23.46-1.73,1.22-2.59,1.83-4.32,3.05-6.2,4.38-13.02,6.45-19.52,6.51t-.02,0"/><path class="cls-2" d="m1662.68,444.64h0c-.17-1.56-.32-3.25-.73-4.61-3.75-12.35-18.21,2.72-23.1,8.39-16.3,18.89-38.75,65.38-4.63,79.92,12.41,6.07,24.84,12.07,37.31,18.02,1.69.8,3.41,1.43,5.17,1.88.01,0,.02,0,.03,0,4.72,1.22,9.62,1.22,14.36.18t.02,0"/><path class="cls-2" d="m1732.39,442.58c-13.31-6.41-26.59-12.86-39.85-19.37-13.25,9.58-26.55,19.09-39.9,28.54-17.94,12.67-25.83,38.99-11.25,57.24,8.5,10.58,17.02,21.14,25.56,31.69,13.91,16.97,39.95,10.54,51.15-5.84,8.52-12.51,17.01-25.02,25.5-37.55,12.18-17.86,9.86-44.62-11.21-54.7Z"/><path class="cls-1" d="m1692.34,551.81c0,107.83,0,215.66,0,323.49"/><path class="cls-3" d="m1699.21,594.98c7.28-5.03,18.13-7.3,26.63-8.29,3.09-.36,6.35-.83,9.36-.49,3,.34,5.82,1.53,6.99,3.64,1.13,2.05.46,4.82-1.65,6.81-2.11,1.99-5.54,3.09-8.43,2.69-5.1-.7-7.28-5.26-12.02-6.66-2.76-.82-6.15-.46-9.18.58-3.03,1.04-5.74,2.7-8.22,4.49-1.14.83-2.35,1.73-3.8,1.99-4.98.91-1.44-3.55.31-4.76Z"/><path class="cls-3" d="m1685.51,596.53c-7.45-3.48-17.35-3.06-26.66-2.22-3.15.28-6.37.61-9.38,1.64-3.01,1.02-5.84,2.86-7.01,5.23-1.13,2.31-.46,4.93,1.65,6.44,2.11,1.51,5.55,1.82,8.45.77,5.11-1.86,7.3-6.91,12.04-9.4,2.77-1.45,6.16-1.86,9.19-1.51,3.03.35,5.74,1.39,8.23,2.61,1.15.56,2.35,1.19,3.8,1.13,4.98-.22,1.45-3.86-.31-4.69Z"/><path class="cls-3" d="m1699.21,621.11c7.28-5.02,18.13-7.3,26.63-8.28,3.09-.36,6.35-.83,9.36-.49,3,.34,5.82,1.53,6.99,3.64,1.13,2.05.46,4.82-1.65,6.81-2.11,1.99-5.54,3.09-8.43,2.69-5.1-.7-7.28-5.26-12.02-6.67-2.76-.82-6.15-.46-9.18.58-3.03,1.04-5.74,2.7-8.22,4.48-1.14.82-2.35,1.73-3.8,1.99-4.98.91-1.44-3.55.31-4.76Z"/><path class="cls-3" d="m1685.51,622.67c-7.45-3.49-17.35-3.06-26.66-2.23-3.15.28-6.37.61-9.38,1.64-3.01,1.02-5.84,2.85-7.01,5.23-1.13,2.31.48,4.55,2.12,6.25,1.64,1.7,5.08,2.02,7.98.96,5.11-1.86,7.3-6.91,12.04-9.4,2.77-1.45,6.16-1.86,9.19-1.51,3.03.35,5.74,1.39,8.23,2.62,1.15.56,2.35,1.19,3.8,1.13,4.98-.22,1.45-3.86-.31-4.69Z"/><path class="cls-3" d="m1699.21,646.12c7.28-5.02,18.14-7.29,26.63-8.28,3.09-.36,6.35-.83,9.36-.49,3,.34,5.82,1.53,6.99,3.64,1.13,2.05.46,4.82-1.65,6.81-2.11,1.99-5.54,3.09-8.43,2.69-5.1-.7-7.28-5.26-12.02-6.67-2.76-.82-6.15-.46-9.18.58-3.03,1.04-5.74,2.69-8.22,4.48-1.14.82-2.35,1.73-3.8,1.99-4.98.91-1.44-3.55.31-4.76Z"/><path class="cls-3" d="m1685.51,647.67c-7.45-3.49-17.35-3.06-26.66-2.23-3.15.28-6.39.6-9.38,1.63-2.89,1-4.6,2.83-5.26,5.31-.64,2.41-2.21,4.84-.1,6.35,2.11,1.51,5.55,1.83,8.45.77,5.11-1.86,7.3-6.91,12.04-9.39,2.77-1.45,6.16-1.86,9.19-1.51,3.03.35,5.74,1.39,8.23,2.62,1.15.56,2.35,1.19,3.8,1.13,4.98-.22,1.45-3.86-.31-4.69Z"/><path class="cls-3" d="m1699.21,673.01c7.28-5.02,18.13-7.29,26.63-8.27,3.09-.36,6.35-.83,9.36-.49,3,.34,5.82,1.53,6.99,3.65,1.13,2.05.46,4.82-1.65,6.81-2.11,1.99-5.54,3.08-8.43,2.69-5.1-.7-7.28-5.26-12.02-6.67-2.76-.82-6.15-.46-9.18.57s-5.74,2.69-8.22,4.48c-1.14.82-2.35,1.73-3.8,1.99-4.98.91-1.44-3.55.31-4.76Z"/><path class="cls-3" d="m1685.51,674.57c-7.45-3.49-17.35-3.07-26.66-2.24-3.15.28-6.37.61-9.38,1.63-3.01,1.02-5.84,2.85-7.01,5.23-1.13,2.3-.46,4.93,1.65,6.44,2.11,1.51,5.55,1.83,8.45.78,5.11-1.85,7.3-6.91,12.04-9.39,2.77-1.45,6.16-1.85,9.19-1.51s5.74,1.39,8.23,2.62c1.15.57,2.35,1.19,3.8,1.13,4.98-.22,1.45-3.86-.31-4.69Z"/><path class="cls-3" d="m1699.21,699.15c7.28-5.02,18.14-7.29,26.63-8.27,3.09-.36,6.35-.83,9.36-.49,3,.34,5.82,1.53,6.99,3.65,1.13,2.05.46,4.83-1.65,6.81-2.11,1.99-5.54,3.08-8.43,2.69-5.1-.7-7.28-5.26-12.02-6.67-2.76-.82-6.15-.46-9.18.57-3.03,1.03-5.74,2.69-8.22,4.48-1.14.82-2.35,1.72-3.8,1.99-4.98.91-1.44-3.55.31-4.76Z"/><path class="cls-3" d="m1685.51,700.7c-7.45-3.49-17.35-3.07-26.66-2.24-3.15.28-6.37.61-9.38,1.63-3.01,1.02-5.84,2.85-7.01,5.23-1.13,2.3-.46,4.93,1.65,6.44,2.11,1.51,5.55,1.83,8.45.78,5.11-1.85,7.3-6.91,12.04-9.39,2.77-1.45,6.16-1.85,9.19-1.5,3.03.35,5.74,1.39,8.23,2.62,1.15.57,2.35,1.19,3.8,1.13,4.98-.22,1.45-3.86-.31-4.69Z"/><path class="cls-3" d="m1699.21,724.16c7.28-5.02,18.14-7.28,26.63-8.26,3.09-.36,6.35-.83,9.36-.49,3,.34,5.82,1.54,6.99,3.65,1.13,2.05.46,4.83-1.65,6.81-2.11,1.99-5.54,3.08-8.43,2.68-5.1-.7-7.28-5.26-12.02-6.68-2.76-.82-6.15-.46-9.18.57s-5.74,2.69-8.22,4.48c-1.14.82-2.35,1.72-3.8,1.99-4.98.9-1.44-3.55.31-4.76Z"/><path class="cls-3" d="m1685.51,725.7c-7.45-3.49-17.35-3.07-26.66-2.25-3.15.28-6.37.61-9.38,1.63-3.01,1.02-5.84,2.85-7.01,5.22-1.13,2.3-.46,4.93,1.65,6.44,2.11,1.51,5.55,1.83,8.45.78,5.11-1.85,7.3-6.91,12.04-9.39,2.77-1.45,6.16-1.85,9.19-1.5s5.74,1.39,8.23,2.62c1.15.57,2.35,1.19,3.8,1.13,4.98-.22,1.45-3.86-.31-4.69Z"/><path class="cls-3" d="m1699.21,744.99c7.28-5.02,18.14-7.28,26.63-8.26,3.09-.36,6.35-.83,9.36-.48,3,.34,5.82,1.54,6.99,3.65,1.13,2.05.46,4.83-1.65,6.81-2.11,1.99-5.54,3.08-8.43,2.68-5.1-.7-7.28-5.26-12.02-6.68-2.76-.82-6.15-.46-9.18.57-3.03,1.03-5.74,2.69-8.22,4.48-1.14.82-2.35,1.72-3.8,1.99-4.98.9-1.44-3.55.31-4.76Z"/><path class="cls-3" d="m1685.51,746.54c-7.45-3.49-17.35-3.07-26.66-2.25-3.15.28-6.37.61-9.38,1.63-3.01,1.02-5.84,2.85-7.01,5.22-1.13,2.3-.46,4.93,1.65,6.44,2.11,1.51,5.55,1.83,8.45.78,5.11-1.85,7.3-6.9,12.04-9.39,2.77-1.45,6.16-1.85,9.19-1.5,3.03.35,5.74,1.4,8.23,2.62,1.15.57,2.35,1.19,3.8,1.13,4.98-.22,1.45-3.86-.31-4.69Z"/><path class="cls-3" d="m1699.21,771.13c7.28-5.02,18.14-7.28,26.63-8.25,3.09-.35,6.35-.83,9.36-.48,3,.34,5.82,1.54,6.99,3.65,1.13,2.05.46,4.83-1.65,6.81-2.11,1.99-5.54,3.08-8.43,2.68-5.1-.7-7.28-5.27-12.02-6.68-2.76-.83-6.15-.46-9.18.57-3.03,1.03-5.74,2.69-8.22,4.48-1.14.82-2.35,1.72-3.8,1.99-4.98.9-1.44-3.55.31-4.76Z"/><path class="cls-3" d="m1685.51,772.67c-7.45-3.49-17.35-3.08-26.66-2.25-3.15.28-6.37.61-9.38,1.63-3.01,1.02-5.84,2.85-7.01,5.22-1.13,2.3-.46,4.93,1.65,6.44,2.11,1.51,5.55,1.83,8.45.78,5.11-1.85,7.3-6.9,12.04-9.38,2.77-1.45,6.16-1.85,9.19-1.5,3.03.35,5.74,1.4,8.23,2.62,1.15.57,2.35,1.19,3.8,1.13,4.98-.22,1.45-3.86-.31-4.69Z"/><path class="cls-3" d="m1699.21,796.13c7.28-5.02,18.14-7.27,26.63-8.25,3.09-.35,6.35-.83,9.36-.48,3,.34,5.82,1.54,6.99,3.65,1.13,2.05.46,4.83-1.65,6.81-2.11,1.99-5.54,3.08-8.43,2.68-5.1-.7-7.28-5.27-12.02-6.68-2.76-.83-6.15-.47-9.18.57-3.03,1.03-5.74,2.69-8.22,4.47-1.14.82-2.35,1.72-3.8,1.98-4.98.9-1.44-3.55.31-4.76Z"/><path class="cls-3" d="m1685.51,797.67c-7.45-3.5-17.35-3.08-26.66-2.26-3.15.28-6.37.6-9.38,1.62-3.01,1.02-5.84,2.85-7.01,5.22-1.13,2.3-.46,4.93,1.65,6.44,2.11,1.51,5.55,1.83,8.45.78,5.11-1.85,7.3-6.9,12.04-9.38,2.77-1.45,6.16-1.85,9.19-1.5,3.03.35,5.74,1.4,8.23,2.63,1.15.57,2.35,1.2,3.8,1.13,4.98-.22,1.45-3.86-.31-4.69Z"/><path class="cls-2" d="m1692.34,424.89c0,42.31,0,84.61,0,126.92"/><path class="cls-2" d="m1993.57,388.95c.13-1.05.3-2.11.52-3.16,2.78-13.73,16.66-4.35,22.74.86,23.53,20.19,31.35,56.9,4.56,78.62-10.8,8.94-21.62,17.85-32.47,26.72-1.71,1.39-2.56,2.09-4.27,3.48-6.13,4.99-12.85,7.73-19.28,8.43t-.02,0"/><path class="cls-2" d="m1937.27,402.71h0c-.17-1.55-.3-3.26-.72-4.55-3.87-11.79-18.37,4.97-22.85,10.66-14.06,17.88-40.07,68.75-4.58,80.53,12.27,4.87,24.57,9.67,36.89,14.41,1.67.64,3.37,1.1,5.11,1.38.01,0,.02,0,.03,0,4.66.76,9.51.28,14.19-1.22t.02,0"/><path class="cls-2" d="m2006.12,393.84c-13.13-5.12-26.25-10.29-39.34-15.52-13.1,10.88-26.24,21.72-39.43,32.49-16.51,13.45-26.48,40.35-11.12,58.45,8.41,9.77,16.83,19.52,25.27,29.26,14.91,16.86,40.59,4.93,50.52-10.85,8.41-13.36,16.8-26.73,25.16-40.12,10.94-17.28,11.18-45.12-11.06-53.72Z"/><path class="cls-2" d="m2158.13,270.42c6.46,4.19,16.48,1.24,22.92-6.75h0c6.44-7.99,16.45-11.03,22.88-6.95,0,0,0,0,0,0,6.43,4.08,16.41.96,22.83-7.14,0,0,0,0,0,0,6.42-8.1,16.38-11.31,22.79-7.34h0c6.41,3.97,16.35.68,22.74-7.54,0,0,0,0,0,0,6.39-8.21,16.31-11.6,22.69-7.73,0,0,0,0,0,0,6.38,3.86,16.28.4,22.64-7.93,0,0,0,0,0,0,6.36-8.33,16.24-11.88,22.59-8.13,0,0,0,0,0,0,6.35,3.75,16.2.12,22.54-8.32,0,0,0,0,0,0,6.33-8.44,16.16-12.17,22.48-8.52,0,0,0,0,0,0,6.32,3.64,16.12-.17,22.43-8.72,0,0,0,0,0,0,6.3-8.55,16.08-12.45,22.37-8.92,0,0,0,0,0,0,6.29,3.54,16.04-.45,22.31-9.11,0,0,0,0,0,0,6.27-8.66,16-12.74,22.25-9.31,0,0,0,0,0,0,6.25,3.43,15.96-.73,22.19-9.5,0,0,0,0,0,0,6.24-8.78,15.91-13.02,22.13-9.7,0,0,0,0,0,0,6.22,3.32,15.87-1.01,22.07-9.9,0,0,0,0,0,0,6.2-8.89,15.82-13.31,22-10.1,0,0,0,0,0,0,6.18,3.21,15.77-1.29,21.94-10.29,0,0,0,0,0,0,6.16-9,15.73-13.59,21.87-10.49,0,0,0,0,0,0,6.15,3.1,15.68-1.57,21.8-10.69,0,0,0,0,0-.01,6.13-9.12,15.63-13.87,21.73-10.88,0,0,0,0,.01,0,6.11,2.99,15.58-1.85,21.66-11.08,0,0,0-.01.01-.02,6.09-9.23,15.52-14.16,21.59-11.27,0,0,0,0,.01,0,6.07,2.88,15.47-2.13,21.52-11.47,0,0,0-.01.01-.02,6.04-9.34,15.42-14.44,21.44-11.67,0,0,0,0,.02,0"/><path class="cls-2" d="m338.92,171.41c6.31,8.43,16.12,12.19,22.44,8.59h0c6.32-3.59,16.16.08,22.49,8.4,0,0,0,0,0,0,6.34,8.32,16.19,11.9,22.55,8.2,0,0,0,0,0,0,6.35-3.71,16.23-.21,22.6,8h0c6.37,8.21,16.27,11.63,22.65,7.81,0,0,0,0,0,0,6.38-3.82,16.3-.49,22.7,7.61,0,0,0,0,0,0,6.4,8.1,16.34,11.34,22.75,7.41,0,0,0,0,0,0,6.41-3.93,16.37-.78,22.8,7.22,0,0,0,0,0,0,6.42,7.99,16.41,11.06,22.84,7.02,0,0,0,0,0,0,6.43-4.04,16.44-1.06,22.89,6.82,0,0,0,0,0,0,6.45,7.88,16.47,10.78,22.93,6.63h0c6.46-4.16,16.5-1.35,22.97,6.42,0,0,0,0,0,0,6.47,7.77,16.53,10.5,23.01,6.23,0,0,0,0,0,0,6.48-4.27,16.56-1.63,23.05,6.03,0,0,0,0,0,0,6.49,7.67,16.59,10.22,23.09,5.84,0,0,0,0,0,0,6.5-4.38,16.62-1.92,23.13,5.64,0,0,0,0,0,0,6.51,7.56,16.64,9.94,23.17,5.44,0,0,0,0,0,0,6.52-4.49,16.67-2.2,23.2,5.25,0,0,0,0,0,0,6.53,7.45,16.69,9.66,23.23,5.05,0,0,0,0,0,0,6.54-4.61,16.71-2.49,23.27,4.85,0,0,0,0,0,0,6.55,7.34,16.74,9.38,23.3,4.66,0,0,0,0,0,0,6.56-4.72,16.76-2.77,23.33,4.46,0,0,0,0,.01.01,6.57,7.23,16.78,9.09,23.35,4.26,0,0,0,0,.01,0,6.58-4.83,16.8-3.05,23.38,4.07,0,0,0,0,.01.01,6.58,7.12,16.81,8.81,23.41,3.87,0,0,0,0,.01-.01,6.59-4.94,16.83-3.34,23.43,3.67,0,0,.01.01.02.02"/><path class="cls-2" d="m6.13,36.17c4.58-.98,10.39.08,15.82,5.09,4.68,4.32,8.46,11.6,14.07,15.43,7.33,5.01,13.82.5,19.76,1.46,3.49.57,8.96,3.49,12.26,8.32,5.91,8.64,17.94,18.64,29.33,13.87,5.37-2.25,14.16,7.48,18.99,14.35,4.38,6.23,10.97,7.64,14.28,7.94,3.39.31,7.97,0,11.44-.45,2.66-.34,7.13,1.22,10.51,4.99,5.13,5.72,13.82,16.99,22.02,17.23,7.03.21,14.64-4.29,23.04,3.59,5.77,5.41,10.84,14.15,18.29,16.11,8.18,2.16,14.47-5.52,23.17,1.22,5.8,4.49,9.69,11.2,15.48,14.58,6.68,3.9,14.1,2.21,19.4,2.21,9.63.02,19.48,13.42,26.26,17.73,1.45.92,4.01,2.65,5.85,2.36,4.67-.73,10.35-3.55,14.63-3.09,5.28.56,11.72,5.61,15.23,10.51"/><path class="cls-3" d="m118.47,574.22c-20.02-60.74-44.26-120.85-55.01-183.61-5.9-34.46-11.28-70.03-13.8-104.7-2.16-29.61-.43-59.85.82-89.85.09-2.19-.18-5.15-2.18-6.96-5.26-4.76-11.59,7.47-13.46,9.86-15.83,20.21-19.15,45.69-17.95,69.87.33,6.66,2.03,14.18,3.65,21.32,5.15,22.64,11.59,45.19,18.25,67.52,8.5,28.52,17.53,57.03,26.76,85.35,9.03,27.72,18.32,55.45,27.75,83.04,6.94,20.31,14,40.64,21.12,60.9,1.88,5.34,3.76,10.68,5.66,16.01.23.65.79,3.11,1.35,3.66,4.41,4.43.98-10.48.69-12.2-1.11-6.71-2.34-13.46-3.64-20.22Z"/><path class="cls-3" d="m182.16,605.48c21.1-43.12,45.97-84.13,55.94-130.82,6.37-29.82,11.7-61.17,14.17-91.52,2.43-29.78.4-60.49-.85-90.79-.09-2.27.18-4.98,2.24-4.87,5.41.31,12.01,18.69,13.88,22.89,12.11,27.13,21.09,57.01,18.59,87.41-.52,6.33-2.09,12.26-3.79,17.82-5.17,16.89-11.83,33.61-18.88,49.94-8.62,19.99-17.97,39.96-27.51,59.59-9.16,18.86-18.68,37.72-28.31,56.37-7.01,13.57-14.18,27.15-21.4,40.64-1.89,3.54-3.8,7.07-5.71,10.58-.23.43-.81,2.35-1.36,2.37-4.44.2-.99-11.42-.7-12.87,1.12-5.65,2.36-11.22,3.67-16.74Z"/><path class="cls-1" d="m152.67,296.34c0,106.64,0,213.27,0,319.91"/><path class="cls-3" d="m159.06,342.83c6.93-1,16.15,2.67,24.84,6.56,2.94,1.31,5.94,2.7,8.75,4.7,2.81,2,5.45,4.74,6.55,7.47,1.06,2.65.43,5.03-1.54,5.83s-5.19-.02-7.89-2.01c-4.77-3.52-6.81-9.23-11.24-13.25-2.58-2.34-5.75-3.86-8.57-4.51-2.82-.65-5.35-.51-7.66-.12-1.07.18-2.19.41-3.53-.13-4.64-1.86-1.35-4.3.29-4.53Z"/><path class="cls-3" d="m146.32,336.79c-6.47-7.1-16.25-12.88-24.71-16.95-2.89-1.39-5.89-2.92-8.67-3.57-2.78-.65-5.39-.41-6.47,1.3-1.05,1.65-.43,4.62,1.52,7.28,1.95,2.66,5.12,4.88,7.8,5.44,4.72.99,6.75-2.8,11.14-2.63,2.56.1,5.71,1.57,8.52,3.59,2.81,2.02,5.33,4.55,7.63,7.14,1.06,1.19,2.18,2.48,3.53,3.22,4.63,2.54,1.34-3.02-.29-4.81Z"/><path class="cls-3" d="m159.06,368.68c6.93-1,16.15,2.68,24.84,6.56,2.94,1.32,5.94,2.7,8.75,4.7s5.45,4.74,6.55,7.48c1.06,2.65.43,5.03-1.54,5.83-1.97.8-5.19-.02-7.89-2.01-4.77-3.52-6.81-9.24-11.24-13.25-2.58-2.35-5.75-3.86-8.57-4.51-2.82-.65-5.35-.51-7.66-.12-1.07.18-2.19.41-3.53-.13-4.64-1.86-1.35-4.3.29-4.53Z"/><path class="cls-3" d="m146.32,362.63c-6.47-7.1-16.25-12.88-24.71-16.96-2.89-1.39-5.89-2.92-8.67-3.57-2.78-.65-5.39-.41-6.47,1.3-1.05,1.65-.43,4.62,1.52,7.28s5.12,4.88,7.8,5.44c4.72.99,6.75-2.8,11.14-2.63,2.56.1,5.71,1.57,8.52,3.59,2.81,2.02,5.33,4.55,7.63,7.14,1.06,1.19,2.18,2.48,3.53,3.22,4.63,2.54,1.34-3.02-.29-4.81Z"/><path class="cls-3" d="m159.06,393.41c6.93-1,16.15,2.68,24.84,6.57,2.94,1.32,5.94,2.7,8.75,4.7s5.45,4.74,6.55,7.48c1.06,2.65.43,5.03-1.54,5.83-1.97.8-5.19-.02-7.89-2.01-4.77-3.52-6.81-9.24-11.24-13.26-2.58-2.35-5.75-3.86-8.57-4.51-2.82-.65-5.35-.51-7.66-.12-1.07.18-2.19.41-3.53-.14-4.64-1.86-1.35-4.3.29-4.53Z"/><path class="cls-3" d="m146.32,387.36c-6.47-7.1-16.25-12.89-24.71-16.96-2.89-1.39-5.89-2.92-8.67-3.57-2.78-.65-5.39-.41-6.47,1.29-1.05,1.65-.43,4.62,1.52,7.28,1.95,2.66,5.12,4.88,7.8,5.44,4.72.99,6.75-2.79,11.14-2.63,2.56.1,5.71,1.58,8.52,3.6s5.33,4.55,7.63,7.14c1.06,1.19,2.18,2.48,3.53,3.22,4.63,2.54,1.34-3.02-.29-4.81Z"/><path class="cls-3" d="m159.06,420.01c6.93-1,16.15,2.68,24.84,6.57,2.94,1.32,5.94,2.7,8.75,4.7,2.81,2,5.45,4.74,6.55,7.48,1.06,2.65.43,5.03-1.54,5.83s-5.19-.02-7.89-2.01c-4.77-3.52-6.81-9.24-11.24-13.26-2.58-2.35-5.75-3.86-8.57-4.52-2.82-.65-5.35-.51-7.66-.12-1.07.18-2.19.41-3.53-.14-4.64-1.86-1.35-4.3.29-4.53Z"/><path class="cls-3" d="m146.32,413.95c-6.47-7.1-16.25-12.89-24.71-16.97-2.89-1.39-5.89-2.92-8.67-3.57-2.78-.66-5.39-.41-6.47,1.29-1.05,1.65-.43,4.62,1.52,7.28s5.12,4.88,7.8,5.44c4.72.99,6.75-2.79,11.14-2.62,2.56.1,5.71,1.58,8.52,3.6s5.33,4.56,7.63,7.14c1.06,1.19,2.18,2.48,3.53,3.22,4.63,2.54,1.34-3.02-.29-4.81Z"/><path class="cls-3" d="m159.06,445.86c6.93-.99,16.15,2.69,24.84,6.58,2.94,1.32,5.94,2.7,8.75,4.7s5.45,4.75,6.55,7.48c1.06,2.65.43,5.03-1.54,5.83-1.97.8-5.19-.02-7.89-2.02-4.77-3.52-6.81-9.24-11.24-13.26-2.58-2.35-5.75-3.87-8.57-4.52-2.82-.65-5.35-.52-7.66-.12-1.07.18-2.19.4-3.53-.14-4.64-1.86-1.35-4.3.29-4.53Z"/><path class="cls-3" d="m146.32,439.8c-6.47-7.1-16.25-12.89-24.71-16.97-2.89-1.39-5.89-2.92-8.67-3.58s-5.39-.41-6.47,1.29c-1.05,1.65-.43,4.62,1.52,7.28,1.95,2.66,5.12,4.88,7.8,5.44,4.72,1,6.75-2.79,11.14-2.62,2.56.1,5.71,1.58,8.52,3.6,2.81,2.02,5.33,4.56,7.63,7.14,1.06,1.19,2.18,2.48,3.53,3.22,4.63,2.54,1.34-3.02-.29-4.81Z"/><path class="cls-3" d="m159.06,470.58c6.93-.99,16.15,2.69,24.84,6.58,2.94,1.32,5.94,2.7,8.75,4.71s5.45,4.75,6.55,7.48c1.06,2.65.43,5.03-1.54,5.83s-5.19-.02-7.89-2.02c-4.77-3.52-6.81-9.24-11.24-13.26-2.58-2.35-5.75-3.87-8.57-4.52-2.82-.65-5.35-.52-7.66-.12-1.07.18-2.19.4-3.53-.14-4.64-1.86-1.35-4.3.29-4.53Z"/><path class="cls-3" d="m146.32,464.52c-6.47-7.11-16.25-12.9-24.71-16.98-2.89-1.39-5.89-2.92-8.67-3.58-2.78-.66-5.39-.41-6.47,1.29-1.05,1.65-.43,4.62,1.52,7.28,1.95,2.66,5.12,4.88,7.8,5.45,4.72,1,6.75-2.79,11.14-2.62,2.56.1,5.71,1.58,8.52,3.6,2.81,2.02,5.33,4.56,7.63,7.15,1.06,1.19,2.18,2.48,3.53,3.22,4.63,2.54,1.34-3.02-.29-4.81Z"/><path class="cls-3" d="m159.06,491.19c6.93-.99,16.15,2.69,24.84,6.58,2.94,1.32,5.94,2.7,8.75,4.71,2.81,2,5.45,4.75,6.55,7.48,1.06,2.65.43,5.03-1.54,5.83-1.97.8-5.19-.02-7.89-2.02-4.77-3.52-6.81-9.24-11.24-13.26-2.58-2.35-5.75-3.87-8.57-4.52-2.82-.65-5.35-.52-7.66-.12-1.07.18-2.19.4-3.53-.14-4.64-1.87-1.35-4.3.29-4.53Z"/><path class="cls-3" d="m146.32,485.13c-6.47-7.11-16.25-12.9-24.71-16.98-2.89-1.39-5.89-2.92-8.67-3.58-2.78-.66-5.39-.41-6.47,1.29-1.05,1.65-.43,4.62,1.52,7.28,1.95,2.66,5.12,4.88,7.8,5.45,4.72,1,6.75-2.79,11.14-2.62,2.56.1,5.71,1.58,8.52,3.6,2.81,2.02,5.33,4.56,7.63,7.15,1.06,1.19,2.18,2.48,3.53,3.22,4.63,2.54,1.34-3.02-.29-4.81Z"/><path class="cls-3" d="m159.06,517.04c6.93-.99,16.15,2.7,24.84,6.59,2.94,1.32,5.94,2.7,8.76,4.71,2.81,2,5.45,4.75,6.55,7.48,1.06,2.65.43,5.03-1.54,5.82s-5.19-.02-7.89-2.02c-4.77-3.52-6.81-9.24-11.24-13.27-2.58-2.35-5.75-3.87-8.57-4.52-2.82-.65-5.35-.52-7.66-.13-1.07.18-2.19.4-3.53-.14-4.64-1.87-1.35-4.3.29-4.53Z"/><path class="cls-3" d="m146.32,510.97c-6.47-7.11-16.25-12.9-24.71-16.98-2.89-1.4-5.89-2.92-8.67-3.58-2.78-.66-5.39-.41-6.47,1.29-1.05,1.65-.43,4.62,1.52,7.28,1.95,2.66,5.12,4.88,7.8,5.45,4.72,1,6.75-2.79,11.14-2.62,2.56.1,5.71,1.58,8.52,3.6,2.81,2.02,5.33,4.56,7.63,7.15,1.06,1.19,2.18,2.48,3.53,3.22,4.63,2.54,1.34-3.02-.29-4.81Z"/><path class="cls-3" d="m159.06,541.76c6.93-.99,16.15,2.7,24.84,6.59,2.94,1.32,5.94,2.71,8.75,4.71s5.45,4.75,6.55,7.48c1.06,2.65.43,5.03-1.54,5.82-1.97.8-5.19-.02-7.89-2.02-4.77-3.52-6.81-9.24-11.24-13.27-2.58-2.35-5.75-3.87-8.57-4.52-2.82-.65-5.35-.52-7.66-.13-1.07.18-2.19.4-3.53-.14-4.64-1.87-1.35-4.3.29-4.53Z"/><path class="cls-3" d="m146.32,535.7c-6.47-7.11-16.25-12.91-24.71-16.99-2.89-1.4-5.89-2.93-8.67-3.58-2.78-.66-5.39-.41-6.47,1.29-1.05,1.65-.43,4.62,1.52,7.28,1.95,2.66,5.12,4.88,7.8,5.45,4.72,1,6.75-2.79,11.14-2.61,2.56.1,5.71,1.58,8.52,3.61s5.33,4.56,7.63,7.15c1.06,1.19,2.18,2.48,3.53,3.22,4.63,2.54,1.34-3.02-.29-4.81Z"/><path class="cls-2" d="m152.67,170.83c0,41.84,0,83.67,0,125.51"/><path class="cls-2" d="m177.73,197.56c.12-.95.22-2.02.49-2.78,3.88-10.81,18.43,10.96,21.56,15.85,9.62,15.03,40.39,75.53,4.34,80.61-10.25,1.72-20.52,3.37-30.79,4.95-1.61.25-2.42.37-4.03.62-5.79.89-12.13-.83-18.18-4.38t-.02,0"/><path class="cls-2" d="m124.74,174.08h0c-.16-1.64-.37-3.29-.68-4.97-2.93-15.98-16.91-7.29-21.34-4.49-28.98,18.35-22.25,53.12-4.27,76.47,11.45,12.86,22.94,25.68,34.48,38.47,1.56,1.73,3.17,3.3,4.8,4.72,0,0,.02.02.03.02,4.38,3.82,8.93,6.53,13.34,8.13t.02,0"/><path class="cls-2" d="m189.62,210.66c-12.44-13.7-24.83-27.45-37.17-41.24-12.31,2.13-24.64,4.18-36.98,6.13-25.13,3.81-16.62,35.59-10.38,50.39,7.85,15.17,15.73,30.33,23.62,45.48,7.06,13.55,30.86,37.68,47.56,22.55,7.96-7.66,15.91-15.32,23.86-23,16.63-16.82,2.42-46.13-10.5-60.32Z"/><path class="cls-2" d="m1.76,17.68c4.27,2.1,8.57-2.04,12.69-.26,1.78.77,5.19,2.45,6.56,3.54,5.41,4.3,12.76,16.55,21.59,18.42,6.52,1.38,13.11-1.65,19.78,3.38,7.7,5.81,16.13,20.21,25.52,19.95,4.84-.13,12.33-3.29,18.96,2.53,1.89,1.66,4.17,3.85,6.65,6.25,4.75,4.6,10.77,11.81,15.22,12.38,6.34.8,12.96-2.21,19.08.23,5.52,2.2,10.51,10.17,15.3,15.14,7.28,7.54,14.74,5.95,21.09,4.8,2.77-.5,6.74.26,9.61,2.39,8.4,6.27,18.78,21.1,27.93,19.41,4.87-.9,13.04-4.42,20.29,2.88,6.18,6.23,13.77,16.27,24.22,15.26,5.79-.56,11.23-2.61,17.48,1.32,6.68,4.2,11.88,13.34,18.49,16.48,3.57,1.7,6.82-.23,10.72-.66,1.95-.21,5.14.32,6.83-.26,4.34-1.5,11.72,3.63,16.21,9.4"/><path class="cls-2" d="m936.98,330.9c6.6,7.01,16.85,8.54,23.46,3.48h0c6.6-5.06,16.87-3.63,23.48,3.28,0,0,0,0,0,0,6.61,6.91,16.88,8.25,23.5,3.08,0,0,0,0,0,0,6.62-5.17,16.9-3.91,23.52,2.89h0c6.62,6.8,16.91,7.98,23.54,2.69,0,0,0,0,0,0,6.63-5.28,16.92-4.19,23.55,2.49,0,0,0,0,0,0,6.63,6.69,16.93,7.69,23.57,2.3,0,0,0,0,0,0,6.63-5.4,16.95-4.48,23.58,2.1,0,0,0,0,0,0,6.64,6.58,16.96,7.41,23.6,1.9,0,0,0,0,0,0,6.64-5.51,16.96-4.76,23.61,1.71,0,0,0,0,0,0,6.65,6.47,16.97,7.13,23.62,1.51,0,0,0,0,0,0,6.65-5.62,16.98-5.05,23.63,1.31,0,0,0,0,0,0,6.65,6.36,16.98,6.85,23.64,1.12,0,0,0,0,0,0,6.65-5.73,16.99-5.33,23.64.92,0,0,0,0,0,0,6.65,6.25,16.99,6.57,23.65.72,0,0,0,0,0,0,6.66-5.85,17-5.62,23.65.53,0,0,0,0,0,0,6.66,6.14,17,6.29,23.66.33,0,0,0,0,0,0,6.66-5.96,17-5.9,23.66.13,0,0,0,0,0,0,6.66,6.03,17,6.01,23.66-.07,0,0,0,0,0,0,6.66-6.07,17-6.19,23.66-.26,0,0,0,0,0,0,6.66,5.93,17,5.73,23.66-.46,0,0,0,0,0,0,6.66-6.18,17-6.47,23.65-.66,0,0,0,0,.01,0,6.66,5.82,16.99,5.45,23.65-.85,0,0,0,0,.01-.01,6.65-6.3,16.99-6.76,23.64-1.05,0,0,0,0,.01.01,6.65,5.71,16.98,5.16,23.63-1.24,0,0,0,0,.01-.01,6.65-6.41,16.98-7.04,23.62-1.44,0,0,.01,0,.02.01"/><path class="cls-2" d="m1550.82,357.36c6.65,5.6,16.97,4.89,23.62-1.64h0c6.64-6.52,16.97-7.33,23.61-1.84h0c6.64,5.49,16.96,4.61,23.6-2.03,0,0,0,0,0,0,6.64-6.64,16.95-7.61,23.58-2.23h0c6.63,5.38,16.94,4.33,23.57-2.42,0,0,0,0,0,0,6.63-6.75,16.92-7.9,23.55-2.62,0,0,0,0,0,0,6.63,5.27,16.91,4.04,23.53-2.82,0,0,0,0,0,0,6.62-6.86,16.9-8.18,23.52-3.02,0,0,0,0,0,0,6.61,5.17,16.89,3.76,23.5-3.21,0,0,0,0,0,0,6.61-6.98,16.87-8.47,23.47-3.41,0,0,0,0,0,0,6.6,5.06,16.85,3.48,23.45-3.61,0,0,0,0,0,0,6.6-7.09,16.84-8.75,23.43-3.8,0,0,0,0,0,0,6.59,4.95,16.82,3.2,23.4-4,0,0,0,0,0,0,6.58-7.2,16.8-9.04,23.38-4.2,0,0,0,0,0,0,6.57,4.84,16.78,2.92,23.35-4.39,0,0,0,0,0,0,6.57-7.31,16.76-9.32,23.32-4.59,0,0,0,0,0,0,6.56,4.73,16.74,2.64,23.29-4.79,0,0,0,0,0,0,6.55-7.43,16.72-9.61,23.26-4.98,0,0,0,0,0,0,6.54,4.62,16.7,2.36,23.23-5.18,0,0,0,0,0,0,6.53-7.54,16.67-9.89,23.19-5.38,0,0,0,0,0,0,6.52,4.51,16.65,2.08,23.16-5.57,0,0,0,0,0,0,6.51-7.65,16.62-10.17,23.12-5.77,0,0,0,0,.01,0,6.5,4.4,16.59,1.8,23.08-5.97,0,0,0,0,.01-.01,6.49-7.76,16.56-10.46,23.04-6.16,0,0,0,0,.01,0,6.48,4.29,16.54,1.52,23-6.36,0,0,0-.01.01-.02,6.47-7.87,16.5-10.74,22.96-6.56,0,0,.01,0,.02.01"/><path class="cls-2" d="m2158.13,250.8c6.46,4.19,16.48,1.24,22.92-6.76h0c6.44-7.99,16.45-11.03,22.88-6.95,0,0,0,0,0,0,6.43,4.08,16.41.96,22.83-7.15,0,0,0,0,0,0,6.42-8.1,16.38-11.31,22.79-7.34h0c6.41,3.97,16.35.68,22.74-7.54,0,0,0,0,0,0,6.39-8.21,16.31-11.6,22.69-7.74,0,0,0,0,0,0,6.38,3.86,16.28.39,22.64-7.93h0c6.36-8.33,16.24-11.89,22.59-8.14,0,0,0,0,0,0,6.35,3.75,16.2.11,22.54-8.33,0,0,0,0,0,0,6.33-8.44,16.16-12.17,22.48-8.52,0,0,0,0,0,0,6.32,3.64,16.12-.17,22.43-8.72,0,0,0,0,0,0,6.3-8.55,16.08-12.45,22.37-8.92,0,0,0,0,0,0,6.29,3.53,16.04-.45,22.31-9.12,0,0,0,0,0,0,6.27-8.67,16-12.74,22.25-9.31,0,0,0,0,0,0,6.25,3.43,15.96-.73,22.19-9.51,0,0,0,0,0,0,6.24-8.78,15.91-13.02,22.13-9.7,0,0,0,0,0,0,6.22,3.32,15.87-1.01,22.07-9.9,0,0,0,0,0,0,6.2-8.89,15.82-13.31,22-10.1,0,0,0,0,0,0,6.18,3.21,15.77-1.29,21.94-10.3,0,0,0,0,0,0,6.16-9,15.73-13.59,21.87-10.49,0,0,0,0,0,0,6.15,3.1,15.68-1.57,21.8-10.69,0,0,0,0,0-.01,6.13-9.12,15.63-13.88,21.73-10.89,0,0,0,0,.01,0,6.11,2.99,15.58-1.85,21.66-11.08,0,0,0-.01.01-.02,6.09-9.23,15.52-14.16,21.59-11.28,0,0,0,0,.01,0,6.07,2.88,15.47-2.13,21.52-11.47,0,0,0-.01.01-.02,6.04-9.34,15.42-14.44,21.44-11.67,0,0,0,0,.02,0"/><path class="cls-3" d="m2522.59,625.53c-21.16-44.33-46.17-86.6-56.21-134.4-6.39-30.43-11.75-62.37-14.24-93.32-2.43-30.26-.4-61.45.85-92.22.09-2.31-.18-5.07-2.25-4.99-5.44.2-12.06,18.75-13.95,22.97-12.22,27.45-21.17,57.65-18.68,88.39.52,6.44,2.13,12.42,3.81,18.18,5.07,17.42,11.81,34.43,18.96,51.14,8.8,20.57,18.05,41.02,27.63,61.19,9.21,19.4,18.77,38.81,28.45,58,7.05,13.99,14.25,27.98,21.5,41.88,1.9,3.65,3.82,7.29,5.74,10.92.23.44.81,2.41,1.36,2.45,4.46.33.99-11.59.7-13.07-1.13-5.77-2.37-11.47-3.69-17.13Z"/><path class="cls-3" d="m2586.61,597.17c20.15-61.38,44.54-122.11,55.31-185.51,5.94-35,11.34-71.12,13.88-106.34,2.17-30.19.43-61.02-.83-91.6-.09-2.23.18-5.24,2.19-7.04,5.29-4.73,11.65,7.89,13.54,10.38,15.84,20.85,19.37,46.83,18.05,71.69-.36,6.81-2.04,14.41-3.67,21.65-5.17,22.92-11.65,45.75-18.35,68.35-8.54,28.82-17.62,57.64-26.91,86.26-9.08,27.98-18.42,55.98-27.9,83.83-6.98,20.49-14.07,40.99-21.23,61.43-1.89,5.38-3.78,10.76-5.69,16.14-.23.65-.8,3.14-1.35,3.69-4.43,4.39-.98-10.69-.7-12.44,1.12-6.8,2.36-13.63,3.66-20.49Z"/><path class="cls-1" d="m2557.11,310.39c0,108.51,0,217.02,0,325.53"/><path class="cls-3" d="m2563.52,351.66c6.48-7.06,16.34-12.77,24.82-16.72,2.9-1.35,5.91-2.84,8.71-3.44,2.79-.6,5.42-.29,6.5,1.46,1.05,1.71.43,4.71-1.53,7.38-1.96,2.67-5.15,4.85-7.84,5.36-4.75.91-6.78-3-11.19-2.92-2.58.04-5.73,1.48-8.55,3.47s-5.35,4.52-7.67,7.1c-1.07,1.19-2.19,2.48-3.54,3.2-4.65,2.48-1.35-3.1.29-4.89Z"/><path class="cls-3" d="m2550.72,357.54c-6.96-1.16-16.22,2.38-24.95,6.15-2.96,1.28-5.97,2.62-8.79,4.6-2.82,1.98-5.48,4.71-6.57,7.47-1.06,2.68-.43,5.1,1.55,5.96,1.98.85,5.21.09,7.93-1.88,4.79-3.48,6.84-9.25,11.29-13.24,2.59-2.33,5.77-3.81,8.6-4.41,2.83-.6,5.37-.41,7.69.04,1.07.21,2.2.46,3.55-.06,4.66-1.79,1.35-4.34-.29-4.62Z"/><path class="cls-3" d="m2563.52,377.97c6.48-7.06,16.34-12.76,24.82-16.71,2.9-1.35,5.91-2.84,8.71-3.44,2.79-.6,5.42-.29,6.5,1.47,1.05,1.71.43,4.71-1.53,7.38-1.96,2.67-5.15,4.85-7.84,5.36-4.75.9-6.78-3-11.19-2.92-2.58.04-5.73,1.48-8.55,3.47s-5.35,4.52-7.67,7.1c-1.07,1.19-2.19,2.48-3.54,3.2-4.65,2.48-1.35-3.1.29-4.89Z"/><path class="cls-3" d="m2550.72,383.84c-6.96-1.17-16.22,2.38-24.95,6.14-2.96,1.28-5.97,2.62-8.79,4.59-2.82,1.98-5.48,4.71-6.57,7.47-1.06,2.68-.43,5.1,1.55,5.96,1.98.86,5.21.09,7.93-1.88,4.79-3.48,6.84-9.25,11.29-13.24,2.59-2.33,5.77-3.81,8.6-4.41s5.37-.41,7.69.04c1.07.21,2.2.46,3.55-.06,4.66-1.79,1.35-4.34-.29-4.62Z"/><path class="cls-3" d="m2563.52,403.13c6.48-7.06,16.34-12.76,24.82-16.71,2.9-1.35,5.91-2.84,8.71-3.44,2.79-.6,5.42-.29,6.5,1.47,1.05,1.71.43,4.71-1.53,7.38-1.96,2.67-5.15,4.85-7.84,5.36-4.75.9-6.78-3-11.19-2.93-2.58.04-5.73,1.47-8.55,3.47s-5.35,4.52-7.67,7.1c-1.07,1.19-2.19,2.48-3.54,3.2-4.65,2.48-1.35-3.1.29-4.89Z"/><path class="cls-3" d="m2550.72,409c-6.96-1.17-16.22,2.38-24.95,6.14-2.96,1.28-5.97,2.62-8.79,4.59-2.82,1.98-5.48,4.71-6.57,7.46-1.06,2.68-.43,5.1,1.55,5.96,1.98.86,5.21.09,7.93-1.88,4.79-3.47,6.84-9.25,11.29-13.24,2.59-2.33,5.77-3.81,8.6-4.41,2.83-.6,5.37-.41,7.69.05,1.07.21,2.2.46,3.55-.06,4.66-1.79,1.35-4.34-.29-4.62Z"/><path class="cls-3" d="m2563.52,430.19c6.48-7.06,16.34-12.76,24.82-16.71,2.9-1.35,5.91-2.84,8.71-3.44,2.79-.6,5.42-.29,6.5,1.47,1.05,1.71.43,4.71-1.53,7.38-1.96,2.66-5.15,4.85-7.84,5.36-4.75.9-6.78-3-11.19-2.93-2.58.04-5.73,1.47-8.55,3.47s-5.35,4.52-7.67,7.1c-1.07,1.19-2.19,2.48-3.54,3.2-4.65,2.48-1.35-3.1.29-4.89Z"/><path class="cls-3" d="m2550.72,436.06c-6.96-1.17-16.22,2.37-24.95,6.13-2.96,1.27-5.97,2.62-8.79,4.59-2.82,1.98-5.48,4.71-6.57,7.46-1.06,2.68-.43,5.1,1.55,5.96,1.98.86,5.21.09,7.93-1.87,4.79-3.47,6.84-9.25,11.29-13.24,2.59-2.33,5.77-3.8,8.6-4.4,2.83-.6,5.37-.4,7.69.05,1.07.21,2.2.46,3.55-.06,4.66-1.79,1.35-4.34-.29-4.62Z"/><path class="cls-3" d="m2563.52,456.5c6.48-7.06,16.34-12.76,24.82-16.7,2.9-1.35,5.91-2.84,8.71-3.44,2.79-.6,5.42-.29,6.5,1.47,1.05,1.71.43,4.71-1.53,7.38-1.96,2.66-5.15,4.85-7.84,5.36-4.75.9-6.78-3-11.19-2.93-2.58.04-5.73,1.47-8.55,3.47s-5.35,4.51-7.67,7.09c-1.07,1.19-2.19,2.47-3.54,3.19-4.65,2.48-1.35-3.1.29-4.89Z"/><path class="cls-3" d="m2550.72,462.37c-6.96-1.17-16.22,2.37-24.95,6.13-2.96,1.27-5.97,2.61-8.79,4.59-2.82,1.97-5.48,4.71-6.57,7.46-1.06,2.68-.43,5.1,1.55,5.96,1.98.86,5.21.1,7.93-1.87,4.79-3.47,6.84-9.24,11.29-13.23,2.59-2.33,5.77-3.8,8.6-4.4,2.83-.6,5.37-.4,7.69.05,1.07.21,2.2.46,3.55-.06,4.66-1.79,1.35-4.34-.29-4.62Z"/><path class="cls-3" d="m2563.52,481.66c6.48-7.06,16.34-12.75,24.82-16.7,2.9-1.35,5.91-2.83,8.71-3.44,2.79-.6,5.42-.29,6.5,1.47,1.05,1.71.43,4.71-1.53,7.37-1.96,2.66-5.15,4.84-7.84,5.36-4.75.9-6.78-3-11.19-2.93-2.58.04-5.73,1.47-8.55,3.46-2.82,1.99-5.35,4.51-7.67,7.09-1.07,1.19-2.19,2.47-3.54,3.19-4.65,2.48-1.35-3.1.29-4.89Z"/><path class="cls-3" d="m2550.72,487.52c-6.96-1.17-16.22,2.37-24.95,6.12-2.96,1.27-5.97,2.61-8.79,4.59-2.82,1.97-5.48,4.7-6.57,7.46-1.06,2.68-.43,5.1,1.55,5.96,1.98.86,5.21.1,7.93-1.87,4.79-3.47,6.84-9.24,11.29-13.23,2.59-2.33,5.77-3.8,8.6-4.4s5.37-.4,7.69.05c1.07.21,2.2.46,3.55-.06,4.66-1.79,1.35-4.34-.29-4.62Z"/><path class="cls-3" d="m2563.52,502.62c6.48-7.06,16.34-12.75,24.82-16.69,2.9-1.35,5.91-2.83,8.71-3.43,2.79-.6,5.42-.29,6.5,1.47,1.05,1.71.43,4.71-1.53,7.37s-5.15,4.84-7.84,5.35c-4.75.9-6.78-3-11.19-2.94-2.58.04-5.73,1.47-8.55,3.46-2.82,1.99-5.35,4.51-7.67,7.09-1.07,1.19-2.19,2.47-3.54,3.19-4.65,2.48-1.35-3.1.29-4.89Z"/><path class="cls-3" d="m2550.72,508.49c-6.96-1.17-16.22,2.36-24.95,6.12-2.96,1.27-5.97,2.61-8.79,4.59-2.82,1.97-5.48,4.7-6.57,7.46-1.06,2.68-.43,5.1,1.55,5.96,1.98.86,5.21.1,7.93-1.87,4.79-3.47,6.84-9.24,11.29-13.23,2.59-2.33,5.77-3.8,8.6-4.4,2.83-.6,5.37-.4,7.69.05,1.07.21,2.2.46,3.55-.06,4.66-1.79,1.35-4.34-.29-4.62Z"/><path class="cls-3" d="m2563.52,528.93c6.48-7.05,16.34-12.75,24.82-16.69,2.9-1.35,5.91-2.83,8.71-3.43,2.79-.6,5.42-.29,6.5,1.47,1.05,1.71.43,4.71-1.53,7.37-1.96,2.66-5.15,4.84-7.84,5.35-4.75.9-6.78-3-11.19-2.94-2.58.04-5.73,1.47-8.55,3.46-2.82,1.99-5.35,4.51-7.67,7.09-1.07,1.19-2.19,2.47-3.54,3.19-4.65,2.48-1.35-3.1.29-4.89Z"/><path class="cls-3" d="m2550.72,534.79c-6.96-1.17-16.22,2.36-24.95,6.12-2.96,1.27-5.97,2.61-8.79,4.58s-5.48,4.7-6.57,7.46c-1.06,2.67-.43,5.1,1.55,5.96,1.98.86,5.21.1,7.93-1.87,4.79-3.47,6.84-9.24,11.29-13.23,2.59-2.33,5.77-3.8,8.6-4.4s5.37-.4,7.69.05c1.07.21,2.2.46,3.55-.06,4.66-1.79,1.35-4.34-.29-4.62Z"/><path class="cls-3" d="m2563.52,554.09c6.48-7.05,16.34-12.74,24.82-16.68,2.9-1.35,5.91-2.83,8.71-3.43,2.79-.6,5.42-.29,6.5,1.47,1.05,1.71.43,4.71-1.53,7.37-1.96,2.66-5.15,4.84-7.84,5.35-4.75.9-6.78-3.01-11.19-2.94-2.58.04-5.73,1.47-8.55,3.46-2.82,1.99-5.35,4.51-7.67,7.09-1.07,1.19-2.19,2.47-3.54,3.19-4.65,2.47-1.35-3.1.29-4.89Z"/><path class="cls-3" d="m2550.72,559.95c-6.96-1.17-16.22,2.36-24.95,6.11-2.96,1.27-5.97,2.61-8.79,4.58s-5.48,4.7-6.57,7.46c-1.06,2.67-.43,5.1,1.55,5.96,1.98.86,5.21.1,7.93-1.87,4.79-3.47,6.84-9.24,11.29-13.23,2.59-2.33,5.77-3.8,8.6-4.4,2.83-.6,5.37-.4,7.69.05,1.07.21,2.2.46,3.55-.06,4.66-1.79,1.35-4.34-.29-4.62Z"/><path class="cls-2" d="m2557.11,182.67c0,42.57,0,85.14,0,127.72"/><path class="cls-2" d="m2321.27,293.68c.13-1.07.3-2.15.5-3.23,2.4-12.85,15.34-7.34,22.13-1.88,24.76,19.91,28.05,55.6,4.44,78.26-10.51,10.27-21.04,20.5-31.61,30.7-1.66,1.6-2.49,2.4-4.16,4-5.97,5.74-12.52,9.3-18.79,10.77t-.02,0"/><path class="cls-2" d="m2266.4,314.25h0c-.17-1.53-.27-3.26-.7-4.48-3.94-10.96-18.3,7.71-22.3,13.43-12.59,17.98-39.97,70.8-4.48,81.27,11.98,3.41,23.99,6.75,36.01,10.01,1.63.44,3.29.69,4.99.77,0,0,.02,0,.03,0,4.55.2,9.27-.86,13.84-2.93t.02,0"/><path class="cls-2" d="m2333.49,297.07c-12.79-3.53-25.57-7.13-38.32-10.81-12.77,12.48-25.59,24.92-38.46,37.31-14.73,14.13-26.96,42.21-10.86,59.93,8.21,8.78,16.43,17.54,24.67,26.29,15.94,16.38,40.87-2.2,49.24-16.96,8.19-14.4,16.35-28.82,24.49-43.25,9.28-16.16,12.66-46.11-10.77-52.51Z"/><path class="cls-1" d="m2294.98,415.45c0,108.3,0,216.6,0,324.89"/><path class="cls-3" d="m2301.59,457.32c6.77-6.44,17.03-11.11,25.6-14.1,2.99-1.04,6.1-2.22,8.99-2.53,2.88-.31,5.59.27,6.71,2.14,1.08,1.81.44,4.75-1.58,7.2s-5.31,4.3-8.09,4.53c-4.9.41-6.99-3.7-11.55-4.09-2.66-.23-5.91.88-8.82,2.57-2.91,1.7-5.52,3.95-7.91,6.29-1.1,1.08-2.26,2.24-3.65,2.82-4.79,1.99-1.39-3.24.3-4.85Z"/><path class="cls-3" d="m2288.4,461.85c-7.17-1.89-16.72.69-25.7,3.55-3.04.97-6.14,2-9.05,3.68-2.91,1.68-5.64,4.13-6.77,6.77-1.09,2.56-.45,5.05,1.59,6.11s5.36.63,8.16-1.06c4.93-2.97,7.04-8.52,11.62-12.05,2.67-2.06,5.94-3.2,8.86-3.51s5.53.15,7.93.84c1.1.32,2.26.69,3.66.31,4.8-1.31,1.39-4.19-.3-4.64Z"/><path class="cls-3" d="m2301.59,483.57c6.77-6.44,17.03-11.1,25.6-14.09,2.99-1.04,6.1-2.22,8.99-2.53,2.88-.31,5.59.27,6.71,2.14,1.08,1.81.44,4.75-1.58,7.2s-5.31,4.3-8.09,4.53c-4.9.41-6.99-3.7-11.55-4.09-2.66-.23-5.91.87-8.82,2.57-2.91,1.7-5.52,3.95-7.91,6.29-1.1,1.08-2.26,2.24-3.65,2.82-4.79,1.99-1.39-3.24.3-4.85Z"/><path class="cls-3" d="m2288.4,488.1c-7.17-1.89-16.72.69-25.7,3.54-3.04.97-6.14,1.99-9.05,3.67-2.91,1.68-5.64,4.13-6.77,6.77-1.09,2.56-.45,5.05,1.59,6.11,2.04,1.06,5.36.63,8.16-1.05,4.93-2.97,7.04-8.52,11.62-12.05,2.67-2.06,5.94-3.2,8.86-3.51s5.53.15,7.93.84c1.1.32,2.26.69,3.66.31,4.8-1.3,1.39-4.19-.3-4.64Z"/><path class="cls-3" d="m2301.59,508.68c6.77-6.44,17.03-11.1,25.6-14.09,2.99-1.04,6.1-2.21,8.99-2.52,2.88-.31,5.59.27,6.71,2.14,1.08,1.81.44,4.75-1.58,7.2-2.02,2.45-5.31,4.3-8.09,4.53-4.9.41-6.99-3.7-11.55-4.09-2.66-.23-5.91.87-8.82,2.57-2.91,1.7-5.52,3.95-7.91,6.28-1.1,1.08-2.26,2.24-3.65,2.82-4.79,1.99-1.39-3.24.3-4.85Z"/><path class="cls-3" d="m2288.4,513.21c-7.17-1.89-16.72.68-25.7,3.54-3.04.97-6.14,1.99-9.05,3.67-2.91,1.68-5.64,4.13-6.77,6.77-1.09,2.56-.45,5.05,1.59,6.11,2.04,1.06,5.36.63,8.16-1.05,4.93-2.97,7.04-8.52,11.62-12.04,2.67-2.06,5.94-3.2,8.86-3.5,2.92-.31,5.53.15,7.93.85,1.1.32,2.26.69,3.66.31,4.8-1.3,1.39-4.19-.3-4.64Z"/><path class="cls-3" d="m2301.59,535.7c6.77-6.44,17.03-11.1,25.6-14.08,2.99-1.04,6.1-2.21,8.99-2.52,2.88-.31,5.59.28,6.71,2.14,1.08,1.81.44,4.75-1.58,7.2-2.02,2.45-5.31,4.3-8.09,4.53-4.9.4-6.99-3.7-11.55-4.09-2.66-.23-5.91.87-8.82,2.57-2.91,1.7-5.52,3.95-7.91,6.28-1.1,1.08-2.26,2.24-3.65,2.82-4.79,1.99-1.39-3.24.3-4.85Z"/><path class="cls-3" d="m2288.4,540.23c-7.17-1.89-16.72.68-25.7,3.53-3.04.97-6.14,1.99-9.05,3.67-2.91,1.68-5.64,4.13-6.77,6.77-1.09,2.56-.45,5.05,1.59,6.11s5.36.63,8.16-1.05c4.93-2.97,7.04-8.52,11.62-12.04,2.67-2.06,5.94-3.2,8.86-3.5,2.92-.31,5.53.15,7.93.85,1.1.32,2.26.69,3.66.31,4.8-1.3,1.39-4.19-.3-4.64Z"/><path class="cls-3" d="m2301.59,561.95c6.77-6.44,17.03-11.09,25.6-14.08,2.99-1.04,6.1-2.21,8.99-2.52,2.88-.31,5.59.28,6.71,2.15,1.08,1.81.44,4.75-1.58,7.2-2.02,2.45-5.31,4.3-8.09,4.53-4.9.4-6.99-3.7-11.55-4.09-2.66-.23-5.91.87-8.82,2.57-2.91,1.7-5.52,3.95-7.91,6.28-1.1,1.08-2.26,2.24-3.65,2.82-4.79,1.99-1.39-3.24.3-4.85Z"/><path class="cls-3" d="m2288.4,566.48c-7.17-1.89-16.72.68-25.7,3.53-3.04.97-6.14,1.99-9.05,3.67s-5.64,4.13-6.77,6.77c-1.09,2.56-.45,5.05,1.59,6.11,2.04,1.06,5.36.63,8.16-1.05,4.93-2.97,7.04-8.52,11.62-12.04,2.67-2.06,5.94-3.2,8.86-3.5,2.92-.3,5.53.16,7.93.85,1.1.32,2.26.69,3.66.31,4.8-1.3,1.39-4.19-.3-4.64Z"/><path class="cls-3" d="m2301.59,587.06c6.77-6.44,17.03-11.09,25.6-14.07,2.99-1.04,6.1-2.21,8.99-2.52,2.88-.31,5.59.28,6.71,2.15,1.08,1.81.44,4.75-1.58,7.2-2.02,2.45-5.31,4.3-8.09,4.53-4.9.4-6.99-3.71-11.55-4.1-2.66-.23-5.91.87-8.82,2.57-2.91,1.7-5.52,3.95-7.91,6.28-1.1,1.08-2.26,2.24-3.65,2.82-4.79,1.99-1.39-3.24.3-4.85Z"/><path class="cls-3" d="m2288.4,591.58c-7.17-1.89-16.72.68-25.7,3.52-3.04.96-6.14,1.99-9.05,3.67-2.91,1.68-5.64,4.13-6.77,6.77-1.09,2.56-.45,5.05,1.59,6.11s5.36.64,8.16-1.05c4.93-2.97,7.04-8.52,11.62-12.04,2.67-2.06,5.94-3.2,8.86-3.5s5.53.16,7.93.85c1.1.32,2.26.69,3.66.31,4.8-1.3,1.39-4.19-.3-4.64Z"/><path class="cls-3" d="m2301.59,607.99c6.77-6.44,17.03-11.09,25.6-14.07,2.99-1.04,6.1-2.21,8.99-2.52s5.59.28,6.71,2.15c1.08,1.81.44,4.75-1.58,7.2-2.02,2.45-5.31,4.3-8.09,4.52-4.9.4-6.99-3.71-11.55-4.1-2.66-.23-5.91.87-8.82,2.56-2.91,1.69-5.52,3.95-7.91,6.28-1.1,1.08-2.26,2.24-3.65,2.82-4.79,1.99-1.39-3.24.3-4.85Z"/><path class="cls-3" d="m2288.4,612.51c-7.17-1.89-16.72.67-25.7,3.52-3.04.96-6.14,1.99-9.05,3.67-2.91,1.68-5.64,4.13-6.77,6.76-1.09,2.56-.45,5.05,1.59,6.11s5.36.64,8.16-1.05c4.93-2.97,7.04-8.52,11.62-12.04,2.67-2.05,5.94-3.19,8.86-3.5s5.53.16,7.93.85c1.1.32,2.26.69,3.66.31,4.8-1.3,1.39-4.19-.3-4.64Z"/><path class="cls-3" d="m2301.59,634.24c6.77-6.43,17.03-11.09,25.6-14.06,2.99-1.04,6.1-2.21,8.99-2.52,2.88-.31,5.59.28,6.71,2.15,1.08,1.81.44,4.75-1.58,7.2-2.02,2.45-5.31,4.3-8.09,4.52-4.9.4-6.99-3.71-11.55-4.1-2.66-.23-5.91.87-8.82,2.56-2.91,1.69-5.52,3.94-7.91,6.28-1.1,1.08-2.26,2.24-3.65,2.82-4.79,1.99-1.39-3.24.3-4.85Z"/><path class="cls-3" d="m2288.4,638.76c-7.17-1.89-16.72.67-25.7,3.51-3.04.96-6.14,1.99-9.05,3.66-2.91,1.68-5.64,4.13-6.77,6.76-1.09,2.56-.45,5.05,1.59,6.11s5.36.64,8.16-1.04c4.93-2.97,7.04-8.51,11.62-12.03,2.67-2.05,5.94-3.19,8.86-3.5s5.53.16,7.93.85c1.1.32,2.26.69,3.66.31,4.8-1.3,1.39-4.19-.3-4.64Z"/><path class="cls-3" d="m2301.59,659.35c6.77-6.43,17.03-11.08,25.6-14.06,2.99-1.04,6.1-2.21,8.99-2.51,2.88-.31,5.59.28,6.71,2.15,1.08,1.81.44,4.75-1.58,7.2-2.02,2.45-5.31,4.29-8.09,4.52-4.9.4-6.99-3.71-11.55-4.1-2.66-.23-5.91.87-8.82,2.56-2.91,1.69-5.52,3.94-7.91,6.28-1.1,1.08-2.26,2.24-3.65,2.82-4.79,1.99-1.39-3.24.3-4.85Z"/><path class="cls-3" d="m2288.4,663.87c-7.17-1.9-16.72.67-25.7,3.51-3.04.96-6.14,1.99-9.05,3.66-2.91,1.68-5.64,4.12-6.77,6.76-1.09,2.56-.45,5.05,1.59,6.11,2.04,1.06,5.36.64,8.16-1.04,4.93-2.97,7.04-8.51,11.62-12.03,2.67-2.05,5.94-3.19,8.86-3.5,2.92-.3,5.53.16,7.93.85,1.1.32,2.26.69,3.66.31,4.8-1.3,1.39-4.19-.3-4.64Z"/><path class="cls-2" d="m2294.98,287.99c0,42.49,0,84.98,0,127.47"/><path class="cls-2" d="m2582.19,186.25c.12-1.09.3-2.19.49-3.29,2.13-12.27,14-9.52,21.45-4.12,27.57,20,23.07,53.69,4.3,77.96-10.18,11.35-20.39,22.67-30.63,33.97-1.61,1.77-2.42,2.66-4.03,4.43-5.79,6.36-12.14,10.58-18.22,12.69t-.02,0"/><path class="cls-2" d="m2528.95,212.4h0c-.16-1.52-.25-3.24-.68-4.41-3.86-10.56-17.96,9.88-21.67,15.7-10.48,16.43-40.25,74.75-4.35,81.88,11.65,2.21,23.31,4.35,34.98,6.41,1.58.28,3.2.36,4.84.26,0,0,.02,0,.03,0,4.42-.25,9-1.8,13.43-4.34t.02,0"/><path class="cls-2" d="m2594.04,188.4c-12.4-2.24-24.78-4.56-37.15-6.96-12.4,13.8-24.84,27.55-37.34,41.26-13.25,14.49-27.07,43.9-10.55,61.14,7.98,7.96,15.97,15.92,23.96,23.86,16.62,15.68,40.66-8.24,47.78-21.97,7.93-15.26,15.84-30.53,23.73-45.81,6.37-15.19,14.76-47.08-10.43-51.52Z"/></g></svg>