<?xml version="1.0" encoding="UTF-8"?><svg id="Layer_2" xmlns="http://www.w3.org/2000/svg" width="2385.82" height="863.18" viewBox="0 0 2385.82 863.18"><defs><style>.cls-1{fill:none;stroke:#00593b;}.cls-1,.cls-2{stroke-miterlimit:10;stroke-width:4px;}.cls-3{fill:#5b1627;stroke-width:0px;}.cls-2{fill:#00593b;stroke:#5b1627;}</style></defs><g id="Layer_1-2"><path class="cls-1" d="m1.34,185.92c6.33,4.47,16.17,2.2,22.51-5.5h0c6.34-7.7,16.19-10.2,22.53-5.4,0,0,0,0,0,0,6.34,4.8,16.2,2.62,22.55-5.29,0,0,0,0,0,0,6.35-7.91,16.22-10.3,22.57-5.18h0c6.36,5.12,16.23,3.02,22.6-5.07,0,0,0,0,0,0,6.36-8.1,16.25-10.39,22.62-4.97,0,0,0,0,0,0,6.37,5.42,16.26,3.42,22.64-4.86,0,0,0,0,0,0,6.37-8.28,16.28-10.47,22.66-4.76,0,0,0,0,0,0,6.38,5.72,16.29,3.8,22.68-4.65,0,0,0,0,0,0,6.38-8.45,16.31-10.55,22.7-4.54,0,0,0,0,0,0,6.39,6.01,16.32,4.18,22.72-4.43,0,0,0,0,0,0,6.4-8.61,16.33-10.61,22.73-4.33,0,0,0,0,0,0,6.4,6.28,16.35,4.54,22.75-4.22,0,0,0,0,0,0,6.41-8.76,16.36-10.66,22.77-4.11,0,0,0,0,0,0,6.41,6.54,16.37,4.89,22.79-4.01,0,0,0,0,0,0,6.42-8.9,16.39-10.7,22.81-3.9,0,0,0,0,0,0,6.42,6.8,16.4,5.23,22.82-3.79,0,0,0,0,0,0,6.42-9.03,16.41-10.73,22.84-3.69,0,0,0,0,0,0,6.43,7.04,16.42,5.57,22.85-3.58,0,0,0,0,0,0,6.43-9.15,16.43-10.75,22.87-3.47,0,0,0,0,0,0,6.44,7.28,16.44,5.89,22.88-3.37,0,0,0,0,0-.01,6.44-9.25,16.45-10.76,22.9-3.26,0,0,0,0,.01.01,6.45,7.5,16.46,6.2,22.91-3.15,0,0,0-.01.01-.02,6.45-9.35,16.47-10.76,22.92-3.05,0,0,0,0,.01.01,6.45,7.71,16.48,6.5,22.94-2.94,0,0,0-.01.01-.02,6.46-9.44,16.49-10.74,22.95-2.83,0,0,.01.01.02.02"/><path class="cls-3" d="m367.75,744.82c-20.62-69.52-46.89-137.99-57.8-209.44-6.28-41.16-11.91-83.37-14.56-124.8-2.43-37.91-.42-76.56.87-114.83.1-2.85-.19-6.41-2.3-7.2-5.55-2.07-12.31,18.2-14.23,22.6-13.86,31.82-20.79,65.72-19.01,100.37.41,8.02,2.15,16.25,3.87,24.09,5.38,24.47,12.25,48.81,19.31,72.96,9.06,31,18.61,61.97,28.24,92.83,9.64,30.89,19.41,61.77,29.2,92.62,7.36,23.2,14.75,46.4,22.15,69.59,1.97,6.16,3.94,12.34,5.93,18.53.24.75.83,3.75,1.41,4.23,4.59,3.83,1.02-14.33.72-16.49-1.17-8.37-2.45-16.72-3.81-25.05Z"/><path class="cls-3" d="m434.23,756.39c21.95-69.57,47.74-137.99,58.01-210.06,6.44-45.16,11.98-91.41,14.65-136.88,2.47-42.11.42-84.91-.87-127.35-.1-3.15.74-8.08,2.32-8.35,5.61-.95,11.53,16.17,14.33,23.21,14.14,35.55,20.93,74.51,19.16,112.76-.43,9.26-2.17,18.69-3.9,27.68-5.3,27.45-12.2,54.77-19.46,81.83-8.88,33.07-18.47,66.14-28.41,98.92-9.42,31.04-19.23,62.09-29.33,92.92-7.23,22.08-14.66,44.18-22.22,66.16-1.97,5.72-3.95,11.43-5.94,17.1-.24.69-.84,3.57-1.41,3.86-4.58,2.28-1.03-15.12-.73-17.24,1.17-8.22,2.46-16.4,3.82-24.57Z"/><path class="cls-2" d="m403.51,354.08c0,143.57,0,287.15,0,430.72"/><path class="cls-3" d="m410.17,412.55c7.23-5.83,16.83-6.82,25.87-7.08,3.06-.09,6.18-.11,9.1.84,2.92.95,5.67,3.05,6.8,6.12,1.1,2.98.45,6.65-1.6,8.99-2.05,2.34-5.39,3.23-8.2,2.21-4.96-1.81-7.08-8.33-11.69-10.98-2.69-1.55-5.98-1.58-8.92-.65s-5.57,2.75-7.98,4.77c-1.11.93-2.28,1.96-3.68,2.09-4.83.47-1.4-4.93.3-6.31Z"/><path class="cls-3" d="m396.88,412.67c-7.22-5.66-16.82-6.36-25.84-6.39-3.05-.01-6.17.04-9.08,1.03-2.91.99-5.65,3.05-6.78,6-1.1,2.87-.45,6.34,1.6,8.56,2.04,2.22,5.37,3.06,8.18,2.05,4.95-1.78,7.07-8.12,11.66-10.79,2.68-1.55,5.97-1.66,8.91-.8,2.94.86,5.57,2.6,7.97,4.57,1.11.91,2.28,1.91,3.68,2.03,4.83.41,1.4-4.93-.3-6.27Z"/><path class="cls-3" d="m410.17,447.46c7.23-5.71,16.83-6.54,25.87-6.65,3.06-.04,6.18-.01,9.1.99,2.92,1,5.67,3.14,6.8,6.23,1.1,3,.45,6.66-1.6,8.97-2.05,2.31-5.39,3.15-8.2,2.08-4.96-1.89-7.08-8.45-11.69-11.17-2.69-1.59-5.98-1.68-8.92-.79-2.94.88-5.57,2.65-7.98,4.63-1.11.91-2.28,1.92-3.68,2.03-4.83.39-1.4-4.96.3-6.3Z"/><path class="cls-3" d="m396.88,447.36c-7.22-5.78-16.82-6.65-25.84-6.84-3.05-.06-6.17-.07-9.08.87s-5.65,2.95-6.78,5.88c-1.1,2.85-.45,6.34,1.6,8.59,2.04,2.25,5.37,3.15,8.18,2.19,4.95-1.69,7.07-8,11.66-10.58,2.68-1.51,5.97-1.55,8.91-.64,2.94.91,5.57,2.7,7.97,4.71,1.11.93,2.28,1.95,3.68,2.09,4.83.49,1.4-4.9-.3-6.27Z"/><path class="cls-3" d="m410.17,480.86c7.23-5.59,16.83-6.27,25.87-6.24,3.06,0,6.18.08,9.1,1.13,2.92,1.05,5.67,3.23,6.8,6.34,1.1,3.02.45,6.66-1.6,8.94-2.05,2.28-5.39,3.07-8.2,1.95-4.96-1.97-7.08-8.56-11.69-11.36-2.69-1.63-5.98-1.77-8.92-.94-2.94.83-5.57,2.56-7.98,4.51-1.11.9-2.28,1.88-3.68,1.97-4.83.31-1.4-4.98.3-6.3Z"/><path class="cls-3" d="m396.88,480.54c-7.22-5.9-16.82-6.93-25.84-7.27-3.05-.12-6.17-.17-9.08.71-2.91.88-5.65,2.85-6.78,5.76-1.1,2.83-.45,6.33,1.6,8.62,2.04,2.29,5.37,3.25,8.18,2.34,4.95-1.61,7.07-7.88,11.66-10.38,2.68-1.46,5.97-1.45,8.91-.49,2.94.96,5.57,2.79,7.97,4.84,1.11.94,2.28,1.98,3.68,2.15,4.83.57,1.4-4.88-.3-6.28Z"/><path class="cls-3" d="m410.17,516.79c7.23-5.46,16.83-5.98,25.87-5.8,3.06.06,6.18.19,9.1,1.28,2.92,1.09,5.67,3.32,6.8,6.45,1.1,3.04.45,6.67-1.6,8.92-2.05,2.24-5.39,2.98-8.2,1.81-4.96-2.05-7.08-8.68-11.69-11.55-2.69-1.68-5.98-1.87-8.92-1.09-2.94.78-5.57,2.47-7.98,4.37-1.11.88-2.28,1.84-3.68,1.91-4.83.23-1.4-5,.3-6.29Z"/><path class="cls-3" d="m396.88,516.23c-7.22-6.03-16.82-7.22-25.84-7.73-3.05-.17-6.17-.28-9.08.55s-5.65,2.74-6.78,5.63c-1.1,2.81-.45,6.32,1.6,8.65,2.04,2.33,5.37,3.35,8.18,2.49,4.95-1.52,7.07-7.75,11.66-10.17,2.68-1.41,5.97-1.34,8.91-.33s5.57,2.89,7.97,4.98c1.11.96,2.28,2.03,3.68,2.22,4.83.66,1.4-4.86-.3-6.28Z"/><path class="cls-3" d="m410.17,551.7c7.23-5.34,16.83-5.69,25.87-5.37,3.06.11,6.18.29,9.1,1.43,2.92,1.14,5.67,3.41,6.8,6.56,1.1,3.05.45,6.68-1.6,8.89-2.05,2.21-5.39,2.89-8.2,1.68-4.96-2.13-7.08-8.79-11.69-11.74-2.69-1.72-5.98-1.97-8.92-1.23s-5.57,2.38-7.98,4.24c-1.11.86-2.28,1.8-3.68,1.84-4.83.15-1.4-5.03.3-6.29Z"/><path class="cls-3" d="m396.88,550.92c-7.22-6.15-16.82-7.52-25.84-8.19-3.05-.23-6.17-.39-9.08.38s-5.65,2.64-6.78,5.51c-1.1,2.79-.45,6.31,1.6,8.68,2.04,2.36,5.37,3.44,8.18,2.63,4.95-1.43,7.07-7.62,11.66-9.96,2.68-1.37,5.97-1.24,8.91-.17s5.57,2.99,7.97,5.12c1.11.98,2.28,2.06,3.68,2.28,4.83.74,1.4-4.83-.3-6.29Z"/><path class="cls-3" d="m410.17,585.1c7.23-5.23,16.83-5.42,25.87-4.96,3.06.16,6.18.38,9.1,1.57,2.92,1.19,5.67,3.5,6.8,6.66,1.1,3.07.45,6.69-1.6,8.87-2.05,2.18-5.39,2.81-8.2,1.56-4.96-2.21-7.08-8.9-11.69-11.93-2.69-1.76-5.98-2.06-8.92-1.38-2.94.69-5.57,2.29-7.98,4.11-1.11.84-2.28,1.77-3.68,1.79-4.83.07-1.4-5.05.3-6.28Z"/><path class="cls-3" d="m396.88,584.1c-7.22-6.27-16.82-7.8-25.84-8.62-3.05-.28-6.17-.5-9.08.23s-5.65,2.54-6.78,5.39c-1.1,2.77-.45,6.3,1.6,8.7s5.37,3.54,8.18,2.77c4.95-1.34,7.07-7.5,11.66-9.76,2.68-1.32,5.97-1.14,8.91-.03,2.94,1.11,5.57,3.08,7.97,5.25,1.11,1,2.28,2.1,3.68,2.34,4.83.82,1.4-4.81-.3-6.29Z"/><path class="cls-3" d="m410.17,612.93c7.23-5.13,16.83-5.2,25.87-4.61,3.06.2,6.18.46,9.1,1.69,2.92,1.22,5.67,3.57,6.8,6.75,1.1,3.08.45,6.69-1.6,8.84-2.05,2.15-5.39,2.74-8.2,1.45-4.96-2.27-7.08-8.99-11.69-12.08-2.69-1.8-5.98-2.14-8.92-1.49-2.94.65-5.57,2.21-7.98,4-1.11.82-2.28,1.74-3.68,1.74-4.83,0-1.4-5.07.3-6.28Z"/><path class="cls-3" d="m396.88,611.75c-7.22-6.37-16.82-8.03-25.84-8.98-3.05-.32-6.17-.59-9.08.1s-5.65,2.46-6.78,5.3c-1.1,2.75-.45,6.3,1.6,8.73,2.04,2.43,5.37,3.61,8.18,2.89,4.95-1.27,7.07-7.4,11.66-9.6,2.68-1.28,5.97-1.05,8.91.1,2.94,1.15,5.57,3.16,7.97,5.36,1.11,1.02,2.28,2.13,3.68,2.39,4.83.88,1.4-4.79-.3-6.3Z"/><path class="cls-3" d="m410.17,647.85c7.23-5.01,16.83-4.92,25.87-4.19,3.06.25,6.18.56,9.1,1.83,2.92,1.27,5.67,3.66,6.8,6.86,1.1,3.1.45,6.7-1.6,8.82-2.05,2.12-5.39,2.65-8.2,1.32-4.96-2.35-7.08-9.11-11.69-12.27-2.69-1.84-5.98-2.24-8.92-1.64-2.94.6-5.57,2.12-7.98,3.87-1.11.81-2.28,1.7-3.68,1.67-4.83-.08-1.4-5.09.3-6.28Z"/><path class="cls-3" d="m396.88,646.44c-7.22-6.49-16.82-8.32-25.84-9.43-3.05-.38-6.17-.7-9.08-.06-2.91.63-5.65,2.36-6.78,5.18-1.1,2.73-.45,6.29,1.6,8.76,2.04,2.47,5.37,3.71,8.18,3.04,4.95-1.18,7.07-7.27,11.66-9.39,2.68-1.24,5.97-.95,8.91.26,2.94,1.2,5.57,3.26,7.97,5.5,1.11,1.04,2.28,2.17,3.68,2.45,4.83.97,1.4-4.77-.3-6.3Z"/><path class="cls-3" d="m410.17,681.24c7.23-4.89,16.83-4.65,25.87-3.77,3.06.3,6.18.66,9.1,1.97,2.92,1.32,5.67,3.75,6.8,6.96,1.1,3.12.45,6.71-1.6,8.79-2.05,2.09-5.39,2.57-8.2,1.19-4.96-2.43-7.08-9.22-11.69-12.45-2.69-1.89-5.98-2.34-8.92-1.78-2.94.55-5.57,2.03-7.98,3.74-1.11.79-2.28,1.66-3.68,1.61-4.83-.16-1.4-5.11.3-6.27Z"/><path class="cls-3" d="m396.88,679.62c-6.45-5.95-17.52-8.94-25.84-9.86-2.98-.33-6.17-.8-9.08-.22-2.91.58-5.65,2.26-6.78,5.06-1.1,2.71-.45,6.28,1.6,8.78,2.04,2.5,5.37,3.8,8.18,3.18,4.95-1.1,7.07-7.15,11.66-9.19,2.68-1.19,5.97-.85,8.91.41,2.94,1.25,5.57,3.35,7.97,5.64,1.11,1.05,2.28,2.21,3.68,2.51,4.83,1.05,1.39-4.74-.3-6.31Z"/><path class="cls-1" d="m403.51,185.09c0,56.33,0,112.66,0,168.99"/><path class="cls-1" d="m163.01,235.8c.13-1.19.32-2.4.5-3.57,2.49-15.76,17.21-1.91,22.21,3.84,20.82,23.93,33.82,69.76,4.46,92.63-10.5,8.23-21.07,16.37-31.72,24.41-1.67,1.26-2.5,1.88-4.16,3.13-5.97,4.49-12.52,6.26-18.78,5.84t-.02,0"/><path class="cls-1" d="m108.23,245.87h0c-.17-1.72-.3-3.54-.7-5.06-3.57-13.62-17.9,4.35-22.14,10.1-15.48,20.99-37.51,69.31-4.44,86.26,12.03,6.9,23.92,14.04,35.76,21.25,1.62.99,3.28,1.8,4.97,2.42,0,0,.02.01.03,0,4.53,1.67,9.24,2.03,13.8,1.22t.02,0"/><path class="cls-1" d="m175.26,242.99c-12.7-7.47-25.47-14.77-38.36-21.91-12.64,11.11-25.42,22.07-38.29,32.92-17.63,14.92-24.57,42.65-10.77,62.41,8.26,11.77,16.42,23.6,24.5,35.49,12.5,18.71,38.37,15.24,49.16-3.13,8.29-13.81,16.49-27.66,24.57-41.59,11.46-19.87,10.65-51.11-10.81-64.18Z"/><path class="cls-2" d="m136.71,365.99c0,121.51,0,243.02,0,364.52"/><path class="cls-3" d="m143.31,415.44c7.16-4.98,16.68-5.88,25.63-6.16,3.03-.09,6.12-.14,9.02.66,2.9.8,5.62,2.58,6.74,5.21,1.09,2.55.44,5.7-1.59,7.72-2.03,2.01-5.34,2.78-8.12,1.91-4.92-1.54-7.02-7.11-11.58-9.34-2.66-1.31-5.92-1.32-8.84-.51-2.91.81-5.52,2.36-7.91,4.08-1.1.79-2.26,1.67-3.65,1.79-4.79.41-1.39-4.18.3-5.35Z"/><path class="cls-3" d="m130.15,415.61c-7.15-4.75-16.66-5.26-25.59-5.23-3.02.01-6.1.08-8.99.92-2.89.84-5.59,2.58-6.71,5.05-1.09,2.4-.44,5.29,1.58,7.14,2.02,1.85,5.32,2.54,8.1,1.69,4.9-1.5,7-6.82,11.55-9.08,2.66-1.32,5.91-1.42,8.82-.71,2.91.71,5.51,2.17,7.9,3.82,1.1.76,2.26,1.6,3.65,1.7,4.79.33,1.39-4.17-.3-5.29Z"/><path class="cls-3" d="m143.31,445.05c7.16-4.81,16.68-5.5,25.63-5.58,3.03-.03,6.12,0,9.02.86,2.9.86,5.62,2.7,6.74,5.36,1.09,2.58.44,5.71-1.59,7.68s-5.34,2.66-8.12,1.73c-4.92-1.65-7.02-7.26-11.58-9.6-2.66-1.37-5.92-1.45-8.84-.71-2.91.74-5.52,2.23-7.91,3.9-1.1.77-2.26,1.62-3.65,1.7-4.79.3-1.39-4.21.3-5.34Z"/><path class="cls-3" d="m130.15,444.91c-7.15-4.91-16.66-5.65-25.59-5.83-3.02-.06-6.1-.07-8.99.7-2.89.77-5.59,2.44-6.71,4.89-1.09,2.37-.44,5.28,1.58,7.17,2.02,1.89,5.32,2.67,8.1,1.89,4.9-1.38,7-6.65,11.55-8.8,2.66-1.25,5.91-1.28,8.82-.5s5.51,2.3,7.9,4c1.1.79,2.26,1.66,3.65,1.78,4.79.44,1.39-4.14-.3-5.3Z"/><path class="cls-3" d="m143.31,473.37c7.16-4.65,16.68-5.14,25.63-5.03,3.03.04,6.12.13,9.02,1.06,2.9.93,5.62,2.82,6.74,5.5,1.09,2.6.44,5.72-1.59,7.65-2.03,1.92-5.34,2.55-8.12,1.56-4.92-1.75-7.02-7.41-11.58-9.85-2.66-1.42-5.92-1.58-8.84-.9-2.91.68-5.52,2.11-7.91,3.73-1.1.75-2.26,1.57-3.65,1.62-4.79.2-1.39-4.24.3-5.34Z"/><path class="cls-3" d="m130.15,472.94c-7.15-5.07-16.66-6.03-25.59-6.41-3.02-.13-6.1-.21-8.99.5-2.89.71-5.59,2.32-6.71,4.73-1.09,2.34-.44,5.27,1.58,7.21,2.02,1.94,5.32,2.79,8.1,2.07,4.9-1.27,7-6.49,11.55-8.54,2.66-1.19,5.91-1.15,8.82-.31s5.51,2.42,7.9,4.18c1.1.81,2.26,1.71,3.65,1.86,4.79.55,1.39-4.11-.3-5.31Z"/><path class="cls-3" d="m143.31,503.83c7.16-4.49,16.68-4.75,25.63-4.43,3.03.11,6.12.27,9.02,1.26,2.9.99,5.62,2.95,6.74,5.66,1.09,2.63.44,5.73-1.59,7.61-2.03,1.88-5.34,2.43-8.12,1.37-4.92-1.87-7.02-7.57-11.58-10.12-2.66-1.49-5.92-1.71-8.84-1.11-2.91.61-5.52,1.98-7.91,3.55-1.1.72-2.26,1.51-3.65,1.54-4.79.09-1.39-4.27.3-5.33Z"/><path class="cls-3" d="m130.15,503.09c-7.15-5.24-16.66-6.43-25.59-7.03-3.02-.2-6.1-.36-8.99.28-2.89.63-5.59,2.18-6.71,4.56-1.09,2.32-.44,5.26,1.58,7.25,2.02,1.99,5.32,2.93,8.1,2.27,4.9-1.15,7-6.32,11.55-8.26,2.66-1.13,5.91-1,8.82-.09,2.91.91,5.51,2.55,7.9,4.37,1.1.84,2.26,1.76,3.65,1.95,4.79.66,1.39-4.07-.3-5.31Z"/><path class="cls-3" d="m143.31,533.44c7.16-4.32,16.68-4.37,25.63-3.85,3.03.18,6.12.41,9.02,1.46,2.9,1.06,5.62,3.07,6.74,5.8,1.09,2.65.44,5.74-1.59,7.58-2.03,1.83-5.34,2.31-8.12,1.19-4.92-1.98-7.02-7.73-11.58-10.38-2.66-1.55-5.92-1.85-8.84-1.31-2.91.54-5.52,1.86-7.91,3.37-1.1.69-2.26,1.46-3.65,1.45-4.79-.02-1.39-4.3.3-5.32Z"/><path class="cls-3" d="m130.15,532.39c-7.15-5.41-16.66-6.82-25.59-7.63-3.02-.28-6.1-.5-8.99.06s-5.59,2.04-6.71,4.4c-1.09,2.29-.44,5.25,1.58,7.29,2.02,2.04,5.32,3.05,8.1,2.47,4.9-1.03,7-6.15,11.55-7.98,2.66-1.07,5.91-.86,8.82.12,2.91.98,5.51,2.68,7.9,4.56,1.1.86,2.26,1.81,3.65,2.04,4.79.77,1.39-4.04-.3-5.32Z"/><path class="cls-3" d="m143.31,561.75c7.16-4.16,16.68-4.01,25.63-3.3,3.03.24,6.12.54,9.02,1.65,2.9,1.12,5.62,3.19,6.74,5.95,1.09,2.67.44,5.75-1.59,7.54-2.03,1.79-5.34,2.2-8.12,1.02-4.92-2.08-7.02-7.88-11.58-10.62-2.66-1.6-5.92-1.98-8.84-1.5-2.91.48-5.52,1.74-7.91,3.19-1.1.67-2.26,1.41-3.65,1.37-4.79-.13-1.39-4.33.3-5.32Z"/><path class="cls-3" d="m130.15,560.42c-7.15-5.57-16.66-7.19-25.59-8.21-3.02-.35-6.1-.64-8.99-.14s-5.59,1.91-6.71,4.25c-1.09,2.27-.44,5.24,1.58,7.33,2.02,2.09,5.32,3.18,8.1,2.66,4.9-.92,7-5.99,11.55-7.72,2.66-1.01,5.91-.73,8.82.32,2.91,1.05,5.51,2.81,7.9,4.73,1.1.89,2.26,1.86,3.65,2.12,4.79.88,1.39-4.01-.3-5.33Z"/><path class="cls-3" d="m143.31,585.35c7.16-4.03,16.68-3.7,25.63-2.83,3.03.29,6.12.65,9.02,1.81,2.9,1.17,5.62,3.29,6.74,6.06,1.09,2.69.44,5.76-1.59,7.52-2.03,1.76-5.34,2.1-8.12.88-4.92-2.17-7.02-8-11.58-10.83-2.66-1.65-5.92-2.08-8.84-1.66-2.91.43-5.52,1.64-7.91,3.05-1.1.65-2.26,1.37-3.65,1.31-4.79-.22-1.39-4.36.3-5.31Z"/><path class="cls-3" d="m130.15,583.77c-7.15-5.7-16.66-7.5-25.59-8.69-3.02-.4-6.1-.76-8.99-.32-2.89.44-5.59,1.81-6.71,4.12-1.09,2.24-.44,5.23,1.58,7.36,2.02,2.13,5.32,3.28,8.1,2.81,4.9-.83,7-5.86,11.55-7.5,2.66-.96,5.91-.62,8.82.48,2.91,1.1,5.51,2.91,7.9,4.88,1.1.91,2.26,1.9,3.65,2.19,4.79.97,1.39-3.98-.3-5.33Z"/><path class="cls-3" d="m143.31,614.96c7.16-3.87,16.68-3.32,25.63-2.25,3.03.36,6.12.78,9.02,2.02,2.9,1.23,5.62,3.42,6.74,6.21,1.09,2.72.44,5.77-1.59,7.48-2.03,1.71-5.34,1.99-8.12.7-4.92-2.28-7.02-8.16-11.58-11.09-2.66-1.71-5.92-2.22-8.84-1.85-2.91.36-5.52,1.51-7.91,2.87-1.1.63-2.26,1.32-3.65,1.22-4.79-.33-1.39-4.39.3-5.3Z"/><path class="cls-3" d="m130.15,613.07c-7.15-5.87-16.66-7.89-25.59-9.29-3.02-.47-6.1-.9-8.99-.53-2.89.37-5.59,1.67-6.71,3.96-1.09,2.22-.44,5.22,1.58,7.39,2.02,2.17,5.32,3.41,8.1,3.01,4.9-.71,7-5.69,11.55-7.22,2.66-.89,5.91-.48,8.82.69,2.91,1.17,5.51,3.04,7.9,5.06,1.1.93,2.26,1.96,3.65,2.27,4.79,1.08,1.39-3.95-.3-5.34Z"/><path class="cls-3" d="m143.31,643.28c7.16-3.71,16.68-2.96,25.63-1.7,3.03.43,6.12.91,9.02,2.21,2.9,1.29,5.62,3.53,6.74,6.36,1.09,2.74.44,5.78-1.59,7.45-2.03,1.67-5.34,1.87-8.12.52-4.92-2.38-7.02-8.31-11.58-11.34-2.66-1.77-5.92-2.34-8.84-2.05-2.91.3-5.52,1.39-7.91,2.7-1.1.6-2.26,1.27-3.65,1.14-4.79-.43-1.39-4.42.3-5.3Z"/><path class="cls-3" d="m130.15,641.1c-7.15-6.03-16.66-8.26-25.59-9.87-3.02-.54-6.1-1.04-8.99-.74-2.89.31-5.59,1.54-6.71,3.8-1.09,2.19-.44,5.21,1.58,7.43,2.02,2.22,5.32,3.53,8.1,3.19,4.9-.6,7-5.53,11.55-6.96,2.66-.83,5.91-.35,8.82.89s5.51,3.16,7.9,5.24c1.1.96,2.26,2.01,3.65,2.35,4.79,1.19,1.39-3.92-.3-5.35Z"/><path class="cls-1" d="m136.71,222.98c0,47.67,0,95.34,0,143.02"/><path class="cls-1" d="m429.62,202.47c.13-1.39.41-2.87.51-4.15,1.38-18.56,18.94,1.03,22.41,5.89,20.29,28.37,35.21,81.22,4.5,108.09-10.63,9.25-21.3,18.45-32.01,27.61-1.68,1.43-2.52,2.15-4.2,3.57-6.03,5.12-12.64,7.07-18.95,6.42t-.02,0"/><path class="cls-1" d="m374.32,210.78h0c-.17-2.06-.45-4.13-.71-6.07-2.41-18.3-19.03,5.43-22.36,10.54-17.31,26.54-37.33,79.83-4.48,103.34,12.11,8.75,24.14,17.59,36.12,26.51,1.63,1.22,3.31,2.22,5.01,3,0,0,.02.01.03.01,4.58,2.1,9.33,2.63,13.93,1.78t.02,0"/><path class="cls-1" d="m441.99,211.64c-12.79-9.58-25.7-18.99-38.71-28.27-12.83,12.22-25.71,24.38-38.67,36.46-19.91,17.82-23.49,51.36-10.88,74.11,8.33,14.38,16.58,28.8,24.74,43.27,11.96,21.97,38.91,18.95,49.63-2.32,8.32-15.91,16.58-31.84,24.8-47.81,12.26-22.83,10.44-58.5-10.91-75.43Z"/><path class="cls-1" d="m592.93,77.55c6.46,7.91,16.5,6.79,22.96-2.73h0c6.46-9.52,16.51-10.73,22.97-2.62,0,0,0,0,0,0,6.47,8.11,16.52,7.07,22.99-2.51,0,0,0,0,0,0,6.47-9.58,16.52-10.69,23-2.4h0c6.47,8.29,16.53,7.34,23.01-2.3,0,0,0,0,0,0,6.48-9.64,16.54-10.65,23.01-2.19,0,0,0,0,0,0,6.48,8.46,16.54,7.6,23.02-2.09,0,0,0,0,0,0,6.48-9.68,16.55-10.6,23.03-1.98,0,0,0,0,0,0,6.48,8.62,16.56,7.85,23.04-1.87,0,0,0,0,0,0,4.39-8.58,17.67-10.52,23.05-1.76,0,0,0,0,0,0,5.36,8.74,18.65,6.96,23.06-1.66,0,0,0,0,0,0,4.42-8.66,17.76-10.39,23.06-1.55h0c5.27,8.83,18.62,7.26,23.07-1.43,0,0,0,0,0,0,4.46-8.74,17.86-10.24,23.07-1.34,0,0,0,0,0,0,5.19,8.88,18.6,7.53,23.08-1.23,0,0,0,0,0,0,4.5-8.81,17.95-10.08,23.08-1.12,0,0,0,0,0,0,5.11,8.93,18.56,7.81,23.09-1.02,0,0,0,0,0,0,4.54-8.87,18.03-9.91,23.09-.91,0,0,0,0,0,0,5.04,8.97,18.52,8.07,23.1-.8,0,0,0,0,0,0,4.59-8.92,18.11-9.72,23.1-.7,0,0,0,0,0,0,4.97,8.99,18.48,8.33,23.1-.59,0,0,0,0,0-.01,4.64-8.97,18.19-9.52,23.1-.48,0,0,0,0,.01.02,4.9,9,18.43,8.58,23.11-.38,0,0,0-.01.01-.02,4.7-9,18.26-9.31,23.11-.27,0,0,0,.01.01.02,4.83,9,18.37,8.82,23.11-.16,0,0,0-.01.01-.02,4.75-9.02,18.32-9.09,23.11-.06,0,.01.01.02.02.03"/><path class="cls-3" d="m965.29,806.66c-21.34-82.28-47.89-163.6-58.52-247.78-6.4-50.68-12.05-102.29-14.76-153.22-2.49-46.91-.42-94.44.88-141.65.1-3.51-.93-8.97-2.33-9.06-5.69-.37-11.46,18.53-14.43,26.98-13.77,39.31-21.1,82.46-19.28,124.5.43,9.97,2.11,20.3,3.93,30.18,5.57,30.32,12.35,60.47,19.58,90.44,9.07,37.59,18.74,75.16,28.62,112.58,9.65,36.55,19.55,73.11,29.57,109.57,7.39,26.88,14.88,53.77,22.43,80.61,1.99,7.07,3.99,14.15,6,21.22.24.86.84,4.35,1.43,4.83,4.62,3.78,1.04-17.31.73-19.84-1.17-9.8-2.47-19.6-3.85-29.38Z"/><path class="cls-3" d="m1032.5,810.54c21.63-82.31,48.07-163.62,58.58-247.93,6.44-51.66,12.08-104.25,14.78-156.17,2.49-47.93.42-96.48-.88-144.7-.1-3.58.86-9.16,2.34-9.34,5.69-.68,11.69,19.22,14.45,27.13,13.97,39.99,21.12,84.67,19.31,127.52-.43,10.26-2.11,20.88-3.94,31.06-5.56,31.04-12.34,61.92-19.62,92.61-9.03,38.09-18.72,76.18-28.66,114.07-9.6,36.59-19.51,73.19-29.6,109.65-7.36,26.6-14.86,53.22-22.44,79.77-1.99,6.97-3.99,13.93-6,20.87-.24.85-.84,4.31-1.43,4.73-4.62,3.4-1.04-17.5-.73-20.02,1.17-9.76,2.47-19.52,3.86-29.26Z"/><path class="cls-2" d="m1001.46,340.08c0,169.5,0,339,0,508.5"/><path class="cls-3" d="m1008.19,409.17c6.36-5.99,17.93-8.14,26.14-8.03,2.99.04,6.24-.06,9.19,1.08,2.95,1.14,5.72,3.6,6.87,7.17,1.11,3.47.45,7.71-1.62,10.41-2.07,2.71-5.44,3.74-8.28,2.53-5.01-2.12-7.16-9.74-11.81-12.87-2.71-1.83-6.04-1.9-9.01-.83-2.97,1.07-5.63,3.18-8.07,5.54-1.12,1.09-2.31,2.29-3.72,2.44-4.89.53-1.4-5.82.31-7.43Z"/><path class="cls-3" d="m994.75,409.2c-7.3-6.76-17.01-7.72-26.13-7.87-3.09-.05-6.24-.02-9.19,1.13-2.95,1.15-5.72,3.6-6.86,7.14-1.11,3.44-.45,7.63,1.62,10.31,2.07,2.68,5.44,3.69,8.28,2.49,5.01-2.12,7.15-9.69,11.8-12.83,2.71-1.83,6.04-1.92,9.01-.87,2.97,1.05,5.63,3.14,8.07,5.49,1.12,1.08,2.3,2.27,3.72,2.42,4.89.51,1.42-5.82-.31-7.42Z"/><path class="cls-3" d="m1008.19,450.28c7.3-6.77,17.01-7.77,26.14-7.94,3.09-.06,6.24-.04,9.19,1.11,2.95,1.15,5.72,3.62,6.87,7.19,1.11,3.47.45,7.71-1.62,10.41-2.07,2.7-5.44,3.72-8.28,2.51-5.01-2.14-7.16-9.76-11.81-12.91-2.71-1.84-6.04-1.92-9.01-.87-2.97,1.05-5.63,3.15-8.07,5.51-1.12,1.08-2.31,2.28-3.72,2.42-4.89.51-1.42-5.83.31-7.43Z"/><path class="cls-3" d="m994.75,450.25c-7.3-6.79-17.01-7.79-26.13-7.98-3.09-.06-6.24-.05-9.19,1.08s-5.72,3.57-6.86,7.11c-1.11,3.43-.45,7.63,1.62,10.32,2.07,2.69,5.44,3.72,8.28,2.53,5.01-2.09,7.15-9.65,11.8-12.77,2.71-1.82,6.04-1.89,9.01-.83,2.97,1.06,5.63,3.17,8.07,5.52,1.12,1.09,2.3,2.28,3.72,2.44,4.89.53,1.42-5.81-.31-7.42Z"/><path class="cls-3" d="m1008.19,489.61c7.3-6.75,17.01-7.71,26.14-7.85,3.09-.05,6.24-.02,9.19,1.14,2.95,1.16,5.72,3.63,6.87,7.21,1.11,3.47.45,7.71-1.62,10.4-2.07,2.69-5.44,3.7-8.28,2.48-5.01-2.16-7.16-9.79-11.81-12.95-2.71-1.85-6.04-1.94-9.01-.9-2.97,1.04-5.63,3.13-8.07,5.48-1.12,1.08-2.31,2.27-3.72,2.41-4.89.49-1.42-5.83.31-7.43Z"/><path class="cls-3" d="m994.75,489.53c-6.35-6-17.92-8.17-26.13-8.1-2.98.03-6.24-.08-9.19,1.04s-5.72,3.54-6.86,7.07c-1.11,3.43-.45,7.63,1.62,10.33,2.07,2.7,5.44,3.75,8.28,2.57,5.01-2.07,7.15-9.62,11.8-12.72,2.71-1.81,6.04-1.86,9.01-.79,2.97,1.07,5.63,3.19,8.07,5.56,1.12,1.09,2.3,2.29,3.72,2.45,4.89.55,1.4-5.81-.31-7.42Z"/><path class="cls-3" d="m1008.19,531.91c7.3-6.72,17.01-7.64,26.14-7.75,3.09-.04,6.24,0,9.19,1.17,2.95,1.17,5.72,3.65,6.87,7.23,1.11,3.48.45,7.71-1.62,10.4-2.07,2.69-5.44,3.69-8.28,2.45-5.01-2.17-7.16-9.81-11.81-12.99-2.71-1.86-6.04-1.96-9.01-.93-2.97,1.03-5.63,3.11-8.07,5.45-1.12,1.08-2.31,2.26-3.72,2.4-4.89.47-1.42-5.84.31-7.42Z"/><path class="cls-3" d="m994.75,531.78c-6.34-6.02-17.91-8.25-26.13-8.22-2.99.01-6.24-.11-9.19.99-2.95,1.1-5.72,3.51-6.86,7.04-1.11,3.42-.45,7.63,1.62,10.33,2.07,2.71,5.44,3.77,8.28,2.62,5.01-2.04,7.15-9.59,11.8-12.66,2.71-1.79,6.04-1.83,9.01-.75,2.97,1.09,5.63,3.21,8.07,5.59,1.12,1.1,2.3,2.3,3.72,2.47,4.89.57,1.4-5.8-.31-7.42Z"/><path class="cls-3" d="m1008.19,573.03c7.3-6.69,17.01-7.57,26.14-7.65,3.09-.03,6.24.02,9.19,1.2,2.95,1.18,5.72,3.67,6.87,7.25,1.11,3.48.45,7.71-1.62,10.39-2.07,2.68-5.44,3.67-8.28,2.43-5.01-2.19-7.16-9.83-11.81-13.03-2.71-1.87-6.04-1.98-9.01-.96-2.97,1.02-5.63,3.09-8.07,5.41-1.12,1.07-2.31,2.25-3.72,2.38-4.89.45-1.42-5.84.31-7.42Z"/><path class="cls-3" d="m994.75,572.84c-6.34-6.04-17.89-8.33-26.13-8.33-2.99,0-6.24-.14-9.19.95s-5.72,3.48-6.86,7c-1.11,3.42-.45,7.62,1.62,10.34,2.07,2.72,5.44,3.8,8.28,2.66,5.01-2.02,7.15-9.55,11.8-12.6,2.71-1.78,6.04-1.81,9.01-.71s5.63,3.24,8.07,5.63c1.12,1.1,2.3,2.31,3.72,2.49,4.89.59,1.4-5.8-.31-7.42Z"/><path class="cls-3" d="m1008.19,612.35c7.3-6.66,17.01-7.51,26.14-7.56,3.09-.02,6.24.04,9.19,1.23,2.95,1.19,5.72,3.69,6.87,7.28,1.11,3.48.45,7.71-1.62,10.39-2.07,2.68-5.44,3.65-8.28,2.4-5.01-2.2-7.16-9.86-11.81-13.07-2.71-1.88-6.04-2-9.01-.99-2.97,1.01-5.63,3.07-8.07,5.39-1.12,1.07-2.31,2.24-3.72,2.37-4.89.43-1.42-5.85.31-7.42Z"/><path class="cls-3" d="m994.75,612.11c-6.33-6.06-17.88-8.4-26.13-8.45-2.99-.02-6.24-.17-9.19.9s-5.72,3.46-6.86,6.97c-1.11,3.41-.45,7.62,1.62,10.35s5.44,3.83,8.28,2.7c5.01-2,7.15-9.52,11.8-12.55,2.71-1.77,6.04-1.78,9.01-.67,2.97,1.11,5.63,3.26,8.07,5.66,1.12,1.11,2.3,2.32,3.72,2.5,4.89.61,1.4-5.79-.31-7.42Z"/><path class="cls-3" d="m1008.19,645.13c7.3-6.64,17.01-7.46,26.14-7.49,3.09,0,6.24.06,9.19,1.25,2.95,1.19,5.72,3.7,6.87,7.29,1.11,3.49.45,7.72-1.62,10.39-2.07,2.67-5.44,3.64-8.28,2.38-5.01-2.22-7.16-9.88-11.81-13.1-2.71-1.88-6.04-2.02-9.01-1.02-2.97,1-5.63,3.05-8.07,5.36-1.12,1.06-2.31,2.24-3.72,2.36-4.89.42-1.42-5.85.31-7.42Z"/><path class="cls-3" d="m994.75,644.84c-6.32-6.08-17.87-8.46-26.13-8.54-2.99-.03-6.24-.2-9.19.87-2.95,1.06-5.72,3.43-6.86,6.94-1.11,3.41-.45,7.62,1.62,10.36,2.07,2.74,5.44,3.85,8.28,2.73,5.01-1.98,7.15-9.49,11.8-12.5,2.71-1.76,6.04-1.76,9.01-.63,2.97,1.12,5.63,3.28,8.07,5.69,1.12,1.11,2.3,2.33,3.72,2.51,4.89.63,1.4-5.78-.31-7.43Z"/><path class="cls-3" d="m1008.19,686.24c7.3-6.61,17.01-7.4,26.14-7.39,3.09,0,6.24.08,9.19,1.28,2.95,1.2,5.72,3.72,6.87,7.31,1.11,3.49.45,7.72-1.62,10.38-2.07,2.66-5.44,3.62-8.28,2.36-5.01-2.23-7.16-9.9-11.81-13.14-2.71-1.89-6.04-2.04-9.01-1.05-2.97.99-5.63,3.03-8.07,5.33-1.12,1.06-2.31,2.23-3.72,2.34-4.89.4-1.42-5.86.31-7.42Z"/><path class="cls-3" d="m994.75,685.9c-6.31-6.1-17.86-8.54-26.13-8.66-2.99-.04-6.24-.23-9.19.82s-5.72,3.4-6.86,6.91c-1.11,3.4-.45,7.62,1.62,10.37,2.07,2.75,5.44,3.88,8.28,2.77,5.01-1.95,7.15-9.46,11.8-12.45,2.71-1.75,6.04-1.73,9.01-.59,2.97,1.14,5.63,3.31,8.07,5.73,1.12,1.11,2.3,2.34,3.72,2.53,4.89.65,1.4-5.78-.31-7.43Z"/><path class="cls-3" d="m1008.19,725.57c7.3-6.58,17.01-7.33,26.14-7.3,3.09.01,6.24.1,9.19,1.31,2.95,1.21,5.72,3.74,6.87,7.33,1.11,3.49.45,7.72-1.62,10.38-2.07,2.66-5.44,3.61-8.28,2.33-5.01-2.25-7.16-9.92-11.81-13.18-2.71-1.9-6.04-2.06-9.01-1.08-2.97.98-5.63,3.01-8.07,5.3-1.12,1.06-2.31,2.22-3.72,2.33-4.89.38-1.42-5.86.31-7.42Z"/><path class="cls-3" d="m994.75,725.17c-6.31-6.12-17.85-8.62-26.13-8.77-2.99-.06-6.24-.25-9.19.78s-5.72,3.38-6.86,6.87c-1.11,3.4-.45,7.62,1.62,10.37s5.44,3.9,8.28,2.81c5.01-1.93,7.15-9.42,11.8-12.39,2.71-1.73,6.04-1.7,9.01-.55,2.97,1.15,5.63,3.33,8.07,5.76,1.12,1.12,2.3,2.35,3.72,2.55,4.89.67,1.4-5.77-.31-7.43Z"/><path class="cls-1" d="m1001.46,140.58c0,66.5,0,133,0,199.51"/><path class="cls-1" d="m757.61,174.52c.13-1.55.45-3.22.51-4.62.95-20.68,19.72,3.3,22.58,7.88,19.94,31.95,36.48,90.49,4.54,120.53-10.73,10.02-21.47,20.01-32.24,29.98-1.69,1.57-2.54,2.35-4.23,3.91-6.07,5.61-12.74,7.67-19.1,6.79t-.02,0"/><path class="cls-1" d="m701.89,180.58h0c-.17-2.35-.64-4.88-.71-6.93-.68-19.86-19.96,6.28-22.55,10.61-18.47,30.9-37.64,89.65-4.52,117.76,12.19,10.32,24.34,20.7,36.42,31.16,1.65,1.42,3.34,2.59,5.05,3.51.01,0,.02.01.03.01,4.61,2.48,9.41,3.18,14.04,2.32t.02,0"/><path class="cls-1" d="m770.07,185.49c-12.95-11.42-25.94-22.77-39-34.06-12.96,12.98-25.95,25.93-38.98,38.85-21.38,20.53-23.12,58.37-10.97,83.85,8.35,16.64,16.67,33.31,24.95,49.99,11.49,24.46,39.24,22.49,50.02-1.36,8.35-17.53,16.68-35.08,24.98-52.64,12.57-25.6,10.59-64.26-10.99-84.62Z"/><path class="cls-2" d="m730.87,344.28c0,161.72,0,323.45,0,485.17"/><path class="cls-3" d="m737.59,410.17c7.28-6.52,16.96-7.55,26.06-7.79,3.08-.08,6.22-.09,9.17,1,2.94,1.08,5.71,3.43,6.85,6.86,1.11,3.33.45,7.41-1.61,10.01-2.06,2.6-5.43,3.6-8.26,2.44-5-2.03-7.13-9.33-11.77-12.32-2.71-1.74-6.02-1.8-8.98-.77s-5.61,3.05-8.04,5.32c-1.12,1.04-2.3,2.19-3.71,2.34-4.87.51-1.41-5.55.31-7.1Z"/><path class="cls-3" d="m724.19,410.24c-7.28-6.42-16.95-7.28-26.04-7.38-3.08-.03-6.22,0-9.15,1.11-2.94,1.1-5.7,3.43-6.84,6.79-1.11,3.26-.45,7.23,1.61,9.76,2.06,2.53,5.42,3.49,8.25,2.35,4.99-2.01,7.13-9.21,11.76-12.2,2.7-1.75,6.02-1.84,8.98-.86,2.96.99,5.61,2.97,8.04,5.2,1.12,1.03,2.3,2.16,3.71,2.3,4.87.48,1.41-5.55-.31-7.07Z"/><path class="cls-3" d="m737.59,449.44c7.28-6.45,16.96-7.39,26.06-7.54,3.08-.05,6.22-.03,9.17,1.08,2.94,1.11,5.71,3.48,6.85,6.92,1.11,3.34.45,7.41-1.61,10-2.06,2.59-5.43,3.55-8.26,2.37-5-2.08-7.13-9.4-11.77-12.43-2.71-1.77-6.02-1.85-8.98-.85-2.96,1-5.61,3-8.04,5.24-1.12,1.03-2.3,2.17-3.71,2.3-4.87.47-1.41-5.57.31-7.09Z"/><path class="cls-3" d="m724.19,449.38c-7.28-6.49-16.95-7.46-26.04-7.65-3.08-.07-6.22-.06-9.15,1.01s-5.7,3.37-6.84,6.72c-1.11,3.25-.45,7.22,1.61,9.78,2.06,2.55,5.42,3.55,8.25,2.44,4.99-1.96,7.13-9.13,11.76-12.08,2.7-1.72,6.02-1.78,8.98-.76,2.96,1.02,5.61,3.03,8.04,5.28,1.12,1.04,2.3,2.19,3.71,2.34,4.87.53,1.41-5.54-.31-7.07Z"/><path class="cls-3" d="m737.59,487c7.28-6.38,16.96-7.24,26.06-7.31,3.08-.02,6.22.02,9.17,1.16,2.94,1.13,5.71,3.53,6.85,6.98,1.11,3.35.45,7.42-1.61,9.98-2.06,2.57-5.43,3.5-8.26,2.3-5-2.12-7.13-9.46-11.77-12.53-2.71-1.79-6.02-1.91-8.98-.93s-5.61,2.95-8.04,5.17c-1.12,1.02-2.3,2.15-3.71,2.27-4.87.42-1.41-5.58.31-7.09Z"/><path class="cls-3" d="m724.19,486.81c-7.28-6.56-16.95-7.62-26.04-7.91-3.08-.1-6.22-.12-9.15.92s-5.7,3.31-6.84,6.65c-1.11,3.24-.45,7.22,1.61,9.79,2.06,2.58,5.42,3.61,8.25,2.52,4.99-1.91,7.13-9.06,11.76-11.96,2.7-1.69,6.02-1.72,8.98-.67,2.96,1.05,5.61,3.08,8.04,5.36,1.12,1.05,2.3,2.21,3.71,2.37,4.87.57,1.41-5.52-.31-7.08Z"/><path class="cls-3" d="m737.59,527.41c7.28-6.31,16.96-7.07,26.06-7.05,3.08,0,6.22.08,9.17,1.24,2.94,1.16,5.71,3.58,6.85,7.04,1.11,3.36.45,7.42-1.61,9.97-2.06,2.55-5.43,3.45-8.26,2.22-5-2.17-7.13-9.52-11.77-12.64-2.71-1.82-6.02-1.97-8.98-1.02-2.96.95-5.61,2.9-8.04,5.09-1.12,1.01-2.3,2.12-3.71,2.23-4.87.37-1.41-5.6.31-7.09Z"/><path class="cls-3" d="m724.19,527.08c-7.28-6.64-16.95-7.8-26.04-8.18-3.08-.13-6.22-.19-9.15.82s-5.7,3.25-6.84,6.57c-1.11,3.22-.45,7.21,1.61,9.81,2.06,2.6,5.42,3.67,8.25,2.62,4.99-1.85,7.13-8.98,11.76-11.83,2.7-1.66,6.02-1.66,8.98-.58,2.96,1.08,5.61,3.14,8.04,5.45,1.12,1.06,2.3,2.23,3.71,2.41,4.87.62,1.41-5.51-.31-7.08Z"/><path class="cls-3" d="m737.59,566.67c7.28-6.24,16.96-6.91,26.06-6.81,3.08.03,6.22.14,9.17,1.33,2.94,1.19,5.71,3.64,6.85,7.11,1.11,3.37.45,7.42-1.61,9.96-2.06,2.53-5.43,3.4-8.26,2.15-5-2.21-7.13-9.59-11.77-12.75-2.71-1.84-6.02-2.02-8.98-1.1-2.96.92-5.61,2.84-8.04,5.01-1.12,1-2.3,2.1-3.71,2.2-4.87.32-1.41-5.61.31-7.08Z"/><path class="cls-3" d="m724.19,566.22c-7.28-6.71-16.95-7.97-26.04-8.45-3.08-.16-6.22-.26-9.15.72-2.94.98-5.7,3.19-6.84,6.5-1.11,3.21-.45,7.21,1.61,9.83,2.06,2.62,5.42,3.73,8.25,2.7,4.99-1.8,7.13-8.9,11.76-11.71,2.7-1.64,6.02-1.59,8.98-.49,2.96,1.11,5.61,3.2,8.04,5.53,1.12,1.07,2.3,2.25,3.71,2.45,4.87.67,1.41-5.5-.31-7.08Z"/><path class="cls-3" d="m737.59,604.24c7.28-6.17,16.96-6.75,26.06-6.57,3.08.06,6.22.19,9.17,1.41,2.94,1.21,5.71,3.68,6.85,7.16,1.11,3.38.45,7.43-1.61,9.94-2.06,2.51-5.43,3.36-8.26,2.08-5-2.26-7.13-9.65-11.77-12.85-2.71-1.87-6.02-2.08-8.98-1.19-2.96.89-5.61,2.79-8.04,4.94-1.12.99-2.3,2.08-3.71,2.16-4.87.28-1.41-5.62.31-7.08Z"/><path class="cls-3" d="m724.19,603.65c-6.37-5.99-17.79-8.46-26.04-8.71-2.98-.09-6.22-.32-9.15.62-2.94.94-5.7,3.13-6.84,6.42-1.11,3.2-.45,7.2,1.61,9.85,2.06,2.64,5.42,3.78,8.25,2.79,4.99-1.75,7.13-8.83,11.76-11.59,2.7-1.61,6.02-1.53,8.98-.4,2.96,1.14,5.61,3.25,8.04,5.61,1.12,1.08,2.3,2.28,3.71,2.49,4.87.72,1.4-5.48-.31-7.08Z"/><path class="cls-3" d="m737.59,635.54c7.28-6.11,16.96-6.62,26.06-6.37,3.08.08,6.22.24,9.17,1.47,2.94,1.23,5.71,3.72,6.85,7.21,1.11,3.39.45,7.43-1.61,9.93-2.06,2.5-5.43,3.32-8.26,2.02-5-2.29-7.13-9.7-11.77-12.94-2.71-1.89-6.02-2.12-8.98-1.25-2.96.87-5.61,2.75-8.04,4.88-1.12.98-2.3,2.06-3.71,2.13-4.87.24-1.41-5.63.31-7.08Z"/><path class="cls-3" d="m724.19,634.85c-6.35-6.03-17.76-8.6-26.04-8.92-2.98-.12-6.22-.37-9.15.55-2.94.92-5.7,3.08-6.84,6.37-1.11,3.19-.45,7.2,1.61,9.86,2.06,2.66,5.42,3.83,8.25,2.86,4.99-1.71,7.13-8.77,11.76-11.49,2.7-1.59,6.02-1.48,8.98-.32,2.96,1.16,5.61,3.3,8.04,5.67,1.12,1.09,2.3,2.3,3.71,2.51,4.87.76,1.4-5.47-.31-7.09Z"/><path class="cls-3" d="m737.59,674.8c7.28-6.04,16.96-6.46,26.06-6.13,3.08.11,6.22.3,9.17,1.56,2.94,1.26,5.71,3.78,6.85,7.27,1.11,3.39.45,7.44-1.61,9.92-2.06,2.48-5.43,3.27-8.26,1.95-5-2.34-7.13-9.77-11.77-13.05-2.71-1.91-6.02-2.18-8.98-1.34-2.96.84-5.61,2.69-8.04,4.8-1.12.97-2.3,2.04-3.71,2.1-4.87.19-1.41-5.65.31-7.08Z"/><path class="cls-3" d="m724.19,673.98c-6.34-6.08-17.74-8.78-26.04-9.19-2.99-.15-6.22-.44-9.15.45s-5.7,3.02-6.84,6.29c-1.11,3.18-.45,7.2,1.61,9.88,2.06,2.68,5.42,3.89,8.25,2.95,4.99-1.65,7.13-8.7,11.76-11.36,2.7-1.56,6.02-1.42,8.98-.23,2.96,1.19,5.61,3.36,8.04,5.75,1.12,1.1,2.3,2.32,3.71,2.55,4.87.81,1.4-5.46-.31-7.09Z"/><path class="cls-3" d="m737.59,712.36c7.28-5.97,16.96-6.3,26.06-5.89,3.08.14,6.22.35,9.17,1.64,2.94,1.29,5.71,3.82,6.85,7.33,1.11,3.4.45,7.44-1.61,9.9-2.06,2.46-5.43,3.22-8.26,1.88-5-2.38-7.13-9.83-11.77-13.15-2.71-1.94-6.02-2.23-8.98-1.42-2.96.81-5.61,2.64-8.04,4.72-1.12.96-2.3,2.02-3.71,2.06-4.87.15-1.41-5.66.31-7.07Z"/><path class="cls-3" d="m724.19,711.42c-6.32-6.13-17.71-8.95-26.04-9.45-2.99-.18-6.22-.5-9.15.36-2.94.86-5.7,2.96-6.84,6.22-1.11,3.17-.45,7.19,1.61,9.9,2.06,2.7,5.42,3.94,8.25,3.04,4.99-1.6,7.13-8.62,11.76-11.25,2.7-1.53,6.02-1.36,8.98-.14,2.96,1.22,5.61,3.41,8.04,5.83,1.12,1.12,2.3,2.34,3.71,2.59,4.87.85,1.4-5.44-.31-7.09Z"/><path class="cls-1" d="m730.87,153.93c0,63.45,0,126.9,0,190.35"/><path class="cls-1" d="m1027.85,163.8c.13-1.61.46-3.36.51-4.8.76-21.51,20.11,4.81,22.64,9.12,19.58,33.31,37.15,94.3,4.55,125.47-10.77,10.22-21.55,20.44-32.34,30.65-1.7,1.61-2.55,2.41-4.25,4.02-6.09,5.77-12.78,7.83-19.16,6.82h-.02"/><path class="cls-1" d="m971.94,167.88v-.02c-.17-2.46-.67-5.15-.72-7.31-.47-20.89-19.95,5.64-22.63,10.25-19.11,32.89-37.62,93.95-4.54,124.32,12.21,11.14,24.4,22.32,36.55,33.53,1.65,1.52,3.35,2.78,5.07,3.77.01,0,.02.02.03.02,4.63,2.67,9.44,3.48,14.09,2.64h.02"/><path class="cls-1" d="m1040.35,175.73c-13.01-12.43-26.05-24.84-39.12-37.21-13.03,13.07-26.07,26.13-39.11,39.19-21.22,21.64-23.95,61.68-11.01,88.12,8.37,17.73,16.71,35.48,25.04,53.24,11.2,25.38,39.27,24.53,50.18-.56,8.36-18.11,16.71-36.22,25.05-54.33,11.89-26.13,11.47-67.51-11.02-88.44Z"/><path class="cls-1" d="m1192.58,41.4c4.77,9,18.32,9.05,23.11.05h0c4.82-9.04,18.39-8.86,23.11.16,0,0,0,0,0,0,4.71,8.98,18.25,9.27,23.11.27,0,0,0,0,0,0,4.88-9.04,18.44-8.61,23.11.37h0c4.65,8.95,18.18,9.48,23.11.48,0,0,0,0,0,0,4.95-9.03,18.49-8.36,23.1.59,0,0,0,0,0,0,4.6,8.9,18.1,9.67,23.1.69,0,0,0,0,0,0,5.02-9.01,18.53-8.1,23.1.8,0,0,0,0,0,0,4.55,8.85,18.02,9.86,23.09.91,0,0,0,0,0,0,5.1-8.98,18.57-7.83,23.09,1.01,0,0,0,0,0,0,4.51,8.8,17.93,10.03,23.09,1.12,0,0,0,0,0,0,5.18-8.93,18.6-7.55,23.08,1.23,0,0,0,0,0,.01,4.47,8.73,17.84,10.18,23.07,1.33,0,0,0,0,0,0,5.26-8.87,18.63-7.26,23.07,1.44,0,0,0,0,0,.01,4.43,8.65,17.75,10.33,23.06,1.55,0,0,0,0,0,0,5.34-8.8,18.65-6.97,23.06,1.65,0,0,0,0,0,0,6.49,9.73,16.56,10.46,23.05,1.76,0,0,0,0,0,0,6.48-8.7,16.56-7.83,23.04,1.87,0,0,0,0,0,0,6.48,9.7,16.55,10.51,23.03,1.97,0,0,0,0,0,0,6.48-8.54,16.55-7.58,23.02,2.08,0,0,0,0,0,0,6.48,9.66,16.54,10.56,23.01,2.19,0,0,0,0,0,0,6.47-8.37,16.53-7.32,23,2.29,0,0,0,0,.01.02,6.47,9.61,16.52,10.6,22.99,2.4,0,0,0,0,.01-.01,6.47-8.2,16.52-7.04,22.98,2.51,0,0,0,.01.01.02,6.47,9.55,16.51,10.63,22.97,2.62,0,0,0-.01.01-.02,6.46-8.01,16.5-6.75,22.96,2.72,0,.01.01.02.02.03"/><path class="cls-3" d="m1565.88,798.13c-21.75-79.58-48.03-158.14-58.47-239.82-6.45-50.47-12.06-101.91-14.75-152.66-2.49-46.9-.42-94.43.88-141.63.1-3.5-.91-9.04-2.33-9.19-5.63-.59-11.52,18.22-14.43,26.31-14.21,39.51-21.1,82.82-19.29,124.99.43,10.08,2.11,20.52,3.93,30.52,5.55,30.44,12.31,60.69,19.59,90.76,8.99,37.12,18.66,74.24,28.62,111.14,9.56,35.4,19.45,70.82,29.55,106.07,7.33,25.57,14.81,51.16,22.4,76.67,1.99,6.68,3.98,13.34,5.99,19.99.24.81.84,4.14,1.42,4.53,4.61,3.08,1.03-17.03.73-19.46-1.17-9.42-2.46-18.83-3.85-28.23Z"/><path class="cls-3" d="m1632.94,794.09c21.14-79.54,47.64-158.1,58.36-239.51,6.37-48.42,12.02-97.81,14.71-146.47,2.47-44.74.42-90.15-.88-135.22-.1-3.35.86-8.49,2.32-8.6,5.77-.41,11.55,18.1,14.38,26,13.73,38.36,21.02,78.06,19.21,118.65-.42,9.46-2.11,19.31-3.91,28.69-5.57,28.91-12.33,57.65-19.52,86.22-9.07,36.07-18.72,72.12-28.53,108.02-9.65,35.33-19.52,70.66-29.48,105.92-7.39,26.15-14.85,52.3-22.36,78.42-1.99,6.9-3.98,13.81-5.99,20.72-.24.84-.84,4.23-1.42,4.72-4.62,3.87-1.03-16.63-.73-19.08,1.17-9.5,2.46-19,3.84-28.47Z"/><path class="cls-2" d="m1601.97,343.19c0,163.76,0,327.51,0,491.27"/><path class="cls-3" d="m1608.69,409.97c7.29-6.51,16.97-7.39,26.07-7.5,3.08-.04,6.22,0,9.16,1.11,2.94,1.11,5.7,3.48,6.84,6.88,1.11,3.31.45,7.33-1.61,9.9-2.06,2.57-5.42,3.54-8.25,2.39-4.99-2.04-7.13-9.33-11.77-12.36-2.71-1.77-6.02-1.86-8.99-.86-2.96,1-5.61,3.01-8.05,5.27-1.12,1.04-2.3,2.19-3.72,2.33-4.87.49-1.42-5.62.31-7.16Z"/><path class="cls-3" d="m1595.28,409.91c-7.29-6.6-16.97-7.63-26.08-7.86-3.09-.08-6.23-.08-9.17,1.02-2.95,1.1-5.71,3.48-6.85,6.94-1.11,3.37-.45,7.49,1.61,10.12,2.07,2.63,5.43,3.63,8.26,2.47,5-2.06,7.14-9.44,11.78-12.47,2.71-1.77,6.03-1.82,8.99-.78,2.96,1.04,5.62,3.09,8.05,5.38,1.12,1.06,2.3,2.22,3.72,2.37,4.88.52,1.42-5.62-.31-7.18Z"/><path class="cls-3" d="m1608.69,449.61c7.29-6.57,16.97-7.55,26.07-7.74,3.08-.07,6.22-.06,9.16,1.03,2.94,1.09,5.7,3.42,6.84,6.81,1.11,3.29.45,7.33-1.61,9.91-2.06,2.59-5.42,3.6-8.25,2.47-4.99-1.99-7.13-9.26-11.77-12.25-2.71-1.75-6.02-1.81-8.99-.78-2.96,1.03-5.61,3.06-8.05,5.35-1.12,1.05-2.3,2.21-3.72,2.37-4.87.53-1.42-5.61.31-7.16Z"/><path class="cls-3" d="m1595.28,449.66c-7.29-6.53-16.97-7.49-26.08-7.64-3.09-.05-6.23-.03-9.17,1.09-2.95,1.12-5.71,3.52-6.85,7-1.11,3.38-.45,7.49,1.61,10.11,2.07,2.62,5.43,3.59,8.26,2.4,5-2.1,7.14-9.5,11.78-12.56,2.71-1.79,6.03-1.87,8.99-.86,2.96,1.01,5.62,3.04,8.05,5.31,1.12,1.05,2.3,2.2,3.72,2.33,4.88.48,1.42-5.64-.31-7.18Z"/><path class="cls-3" d="m1608.69,487.52c7.29-6.63,16.97-7.69,26.07-7.97,3.08-.09,6.22-.11,9.16.94,2.94,1.06,5.7,3.37,6.84,6.75,1.11,3.28.45,7.32-1.61,9.93-2.06,2.61-5.42,3.65-8.25,2.54-4.99-1.95-7.13-9.2-11.77-12.15-2.71-1.72-6.02-1.75-8.99-.7-2.96,1.06-5.61,3.11-8.05,5.42-1.12,1.06-2.3,2.23-3.72,2.4-4.87.57-1.42-5.6.31-7.17Z"/><path class="cls-3" d="m1595.28,487.69c-7.29-6.47-16.97-7.35-26.08-7.44-3.09-.03-6.23.02-9.17,1.16-2.95,1.14-5.71,3.56-6.85,7.05-1.11,3.38-.45,7.5,1.61,10.1,2.07,2.6,5.43,3.55,8.26,2.34,5-2.13,7.14-9.55,11.78-12.65,2.71-1.81,6.03-1.92,8.99-.93,2.96.99,5.62,3,8.05,5.24,1.12,1.04,2.3,2.18,3.72,2.3,4.88.44,1.42-5.65-.31-7.18Z"/><path class="cls-3" d="m1608.69,528.3c7.29-6.7,16.97-7.85,26.07-8.21,3.08-.12,6.22-.18,9.16.85,2.94,1.03,5.7,3.31,6.84,6.68,1.11,3.27.45,7.32-1.61,9.95-2.06,2.63-5.42,3.7-8.25,2.62-4.99-1.9-7.13-9.13-11.77-12.03-2.71-1.7-6.02-1.7-8.99-.61-2.96,1.08-5.61,3.17-8.05,5.49-1.12,1.07-2.3,2.25-3.72,2.43-4.87.61-1.42-5.58.31-7.17Z"/><path class="cls-3" d="m1595.28,528.59c-7.29-6.41-16.97-7.2-26.08-7.21-3.09,0-6.23.07-9.17,1.23-2.95,1.17-5.71,3.61-6.85,7.1-1.11,3.39-.45,7.5,1.61,10.09,2.07,2.58,5.43,3.51,8.26,2.28,5-2.17,7.14-9.61,11.78-12.75,2.71-1.83,6.03-1.97,8.99-1.01,2.96.97,5.62,2.95,8.05,5.17,1.12,1.03,2.3,2.16,3.72,2.27,4.88.39,1.42-5.66-.31-7.18Z"/><path class="cls-3" d="m1608.69,567.94c6.37-5.97,17.83-8.32,26.07-8.45,2.98-.05,6.22-.23,9.16.77,2.94,1,5.7,3.26,6.84,6.62,1.11,3.26.45,7.31-1.61,9.96-2.06,2.65-5.42,3.75-8.25,2.7-4.99-1.85-7.13-9.06-11.77-11.92-2.71-1.67-6.02-1.64-8.99-.53-2.96,1.11-5.61,3.22-8.05,5.56-1.12,1.08-2.3,2.27-3.72,2.46-4.87.66-1.4-5.57.31-7.17Z"/><path class="cls-3" d="m1595.28,568.34c-7.29-6.35-16.97-7.06-26.08-7-3.09.02-6.23.12-9.17,1.31-2.95,1.19-5.71,3.65-6.85,7.16-1.11,3.4-.45,7.5,1.61,10.07,2.07,2.57,5.43,3.47,8.26,2.21,5-2.21,7.14-9.67,11.78-12.84,2.71-1.85,6.03-2.02,8.99-1.08,2.96.94,5.62,2.9,8.05,5.11,1.12,1.02,2.3,2.14,3.72,2.24,4.88.35,1.42-5.67-.31-7.17Z"/><path class="cls-3" d="m1608.69,605.85c6.35-6.02,17.81-8.47,26.07-8.68,2.98-.08,6.22-.29,9.16.68s5.7,3.2,6.84,6.55c1.11,3.25.45,7.31-1.61,9.98-2.06,2.67-5.42,3.8-8.25,2.78-4.99-1.8-7.13-9-11.77-11.81-2.71-1.65-6.02-1.59-8.99-.45-2.96,1.14-5.61,3.27-8.05,5.63-1.12,1.09-2.3,2.29-3.72,2.5-4.87.7-1.4-5.56.31-7.17Z"/><path class="cls-3" d="m1595.28,606.37c-7.29-6.29-16.97-6.92-26.08-6.79-3.09.05-6.23.16-9.17,1.38-2.95,1.21-5.71,3.7-6.85,7.21-1.11,3.41-.45,7.51,1.61,10.06,2.07,2.55,5.43,3.43,8.26,2.15,5-2.25,7.14-9.72,11.78-12.93,2.71-1.88,6.03-2.07,8.99-1.15,2.96.92,5.62,2.85,8.05,5.04,1.12,1.01,2.3,2.12,3.72,2.21,4.88.31,1.42-5.68-.31-7.17Z"/><path class="cls-3" d="m1608.69,637.45c6.34-6.05,17.79-8.6,26.07-8.87,2.99-.1,6.22-.34,9.16.61s5.7,3.16,6.84,6.5c1.11,3.24.45,7.31-1.61,9.99-2.06,2.68-5.42,3.84-8.25,2.84-4.99-1.77-7.13-8.94-11.77-11.73-2.71-1.63-6.02-1.54-8.99-.39-2.96,1.16-5.61,3.31-8.05,5.69-1.12,1.1-2.3,2.31-3.72,2.52-4.87.73-1.4-5.55.31-7.18Z"/><path class="cls-3" d="m1595.28,638.05c-7.29-6.24-16.97-6.81-26.08-6.62-3.09.07-6.23.2-9.17,1.43-2.95,1.23-5.71,3.73-6.85,7.25-1.11,3.42-.45,7.51,1.61,10.05,2.07,2.54,5.43,3.39,8.26,2.1,5-2.28,7.14-9.77,11.78-13.01,2.71-1.89,6.03-2.11,8.99-1.21,2.96.9,5.62,2.82,8.05,4.99,1.12,1,2.3,2.1,3.72,2.18,4.88.28,1.42-5.69-.31-7.17Z"/><path class="cls-3" d="m1608.69,677.08c6.33-6.1,17.76-8.75,26.07-9.11,2.99-.13,6.22-.4,9.16.53,2.94.92,5.7,3.1,6.84,6.43,1.11,3.23.45,7.3-1.61,10.01-2.06,2.7-5.42,3.9-8.25,2.92-4.99-1.72-7.13-8.87-11.77-11.62-2.71-1.6-6.02-1.49-8.99-.3-2.96,1.18-5.61,3.36-8.04,5.76-1.12,1.11-2.3,2.33-3.72,2.55-4.87.78-1.4-5.54.31-7.18Z"/><path class="cls-3" d="m1595.28,677.81c-7.29-6.17-16.97-6.67-26.08-6.4-3.09.09-6.23.25-9.17,1.51-2.95,1.25-5.71,3.78-6.85,7.3-1.11,3.42-.45,7.51,1.61,10.04,2.07,2.52,5.43,3.35,8.26,2.03,5-2.32,7.14-9.82,11.78-13.1,2.71-1.91,6.03-2.16,8.99-1.28,2.96.87,5.62,2.77,8.05,4.92,1.12.99,2.3,2.08,3.72,2.15,4.88.24,1.42-5.71-.31-7.17Z"/><path class="cls-3" d="m1608.69,714.99c6.31-6.14,17.74-8.91,26.07-9.34,2.99-.15,6.22-.45,9.16.44,2.94.9,5.7,3.05,6.84,6.37,1.11,3.22.45,7.3-1.61,10.02-2.06,2.72-5.42,3.95-8.25,3-4.99-1.67-7.13-8.81-11.77-11.51-2.71-1.58-6.02-1.43-8.99-.22-2.96,1.21-5.61,3.41-8.04,5.83-1.12,1.12-2.3,2.35-3.72,2.59-4.87.82-1.4-5.52.31-7.18Z"/><path class="cls-3" d="m1595.28,715.83c-7.29-6.11-16.97-6.53-26.08-6.19-3.09.11-6.23.3-9.17,1.58-2.95,1.28-5.71,3.82-6.85,7.35-1.11,3.43-.45,7.52,1.61,10.03,2.07,2.51,5.43,3.31,8.26,1.97,5-2.36,7.14-9.88,11.78-13.19,2.71-1.94,6.03-2.2,8.99-1.35,2.96.85,5.62,2.73,8.05,4.85,1.12.98,2.3,2.06,3.72,2.12,4.88.2,1.42-5.72-.31-7.16Z"/><path class="cls-1" d="m1601.97,150.44v192.75"/><path class="cls-1" d="m1358.06,163.26c.13-1.61.47-3.34.51-4.77.74-21.5,20.37,6.19,22.64,10.13,19.03,33.09,37.59,94.42,4.55,125.09-10.79,9.95-21.57,19.93-32.33,29.91-1.7,1.58-2.55,2.37-4.25,3.95-6.09,5.67-12.78,7.63-19.16,6.51t-.02,0"/><path class="cls-1" d="m1302.13,164.81v-.02c-.17-2.49-.67-5.22-.72-7.42-.45-21.22-19.8,4.49-22.65,9.33-19.71,33.46-37.25,94.68-4.54,125.91,12.19,11.56,24.38,23.12,36.58,34.67,1.65,1.56,3.35,2.86,5.07,3.88.01,0,.02.02.03.02,4.63,2.77,9.44,3.66,14.09,2.9t.02,0"/><path class="cls-1" d="m1370.56,175.73c-13.04-13.03-26.08-26.06-39.13-39.09-13.07,12.52-26.11,25.08-39.13,37.65-21.76,21.5-23.65,62.3-11.02,88.8,8.35,18.14,16.7,36.29,25.06,54.43,10.94,25.23,39.04,25.85,50.2.41,8.33-17.89,16.68-35.76,25.05-53.63,12.19-26.36,10.99-67.19-11.02-88.56Z"/><path class="cls-2" d="m1331.23,339.67c0,170.27,0,340.54,0,510.81"/><path class="cls-3" d="m1337.97,409.09c7.31-6.8,17.02-7.77,26.14-7.93,3.09-.05,6.24-.03,9.19,1.12,2.95,1.15,5.72,3.61,6.86,7.18,1.11,3.46.45,7.68-1.62,10.37-2.07,2.69-5.44,3.72-8.28,2.51-5.01-2.13-7.15-9.74-11.8-12.89-2.71-1.84-6.04-1.92-9.01-.87s-5.63,3.16-8.07,5.52c-1.12,1.09-2.31,2.29-3.73,2.44-4.89.52-1.42-5.85.31-7.45Z"/><path class="cls-3" d="m1324.52,409.07c-6.35-6-17.94-8.16-26.15-8.05-2.99.04-6.24-.06-9.2,1.09-2.95,1.15-5.72,3.61-6.87,7.2-1.11,3.48-.45,7.73,1.62,10.45,2.07,2.71,5.44,3.75,8.28,2.54,5.01-2.13,7.16-9.78,11.81-12.93,2.72-1.84,6.04-1.91,9.01-.84,2.97,1.07,5.63,3.18,8.07,5.55,1.12,1.09,2.31,2.3,3.73,2.45,4.89.53,1.4-5.85-.31-7.46Z"/><path class="cls-3" d="m1337.97,450.34c6.35-6,17.94-8.13,26.14-8.01,2.98.04,6.24-.05,9.19,1.09,2.95,1.14,5.72,3.59,6.86,7.15,1.11,3.45.45,7.68-1.62,10.38-2.07,2.7-5.44,3.74-8.28,2.54-5.01-2.11-7.15-9.71-11.8-12.85-2.71-1.83-6.04-1.9-9.01-.84s-5.63,3.18-8.07,5.55c-1.12,1.09-2.31,2.29-3.73,2.45-4.89.53-1.4-5.84.31-7.45Z"/><path class="cls-3" d="m1324.52,450.36c-6.36-5.99-17.94-8.11-26.15-7.98-2.99.05-6.24-.04-9.2,1.11-2.95,1.15-5.72,3.63-6.87,7.21-1.11,3.48.47,7.27,2.08,10.21,1.61,2.94,4.98,3.97,7.82,2.75,5.01-2.14,7.16-9.79,11.81-12.95,2.72-1.84,6.04-1.92,9.01-.86,2.97,1.06,5.63,3.17,8.07,5.53,1.12,1.09,2.31,2.29,3.73,2.44,4.89.51,1.4-5.85-.31-7.46Z"/><path class="cls-3" d="m1337.97,489.8c6.35-6.01,17.93-8.18,26.14-8.1,2.99.03,6.24-.07,9.19,1.06,2.95,1.13,5.72,3.57,6.86,7.12,1.11,3.45.45,7.68-1.62,10.38-2.07,2.71-5.44,3.76-8.28,2.57-5.01-2.09-7.15-9.69-11.8-12.81-2.71-1.82-6.04-1.88-9.01-.81s-5.63,3.2-8.07,5.57c-1.12,1.1-2.31,2.3-3.73,2.46-4.89.55-1.4-5.84.31-7.45Z"/><path class="cls-3" d="m1324.52,489.86c-7.31-6.79-17.02-7.76-26.15-7.92-3.09-.05-6.28-.04-9.2,1.13-2.83,1.14-4.51,3.78-5.16,7.61-.63,3.72-2.16,7.34-.09,10.05,2.07,2.71,5.44,3.73,8.28,2.5,5.01-2.15,7.16-9.81,11.81-12.98,2.72-1.85,6.04-1.94,9.01-.89,2.97,1.05,5.63,3.16,8.07,5.51,1.12,1.09,2.31,2.28,3.73,2.43,4.89.5,1.42-5.85-.31-7.46Z"/><path class="cls-3" d="m1337.97,532.25c6.34-6.03,17.92-8.24,26.14-8.19,2.99.02,6.24-.1,9.19,1.02,2.95,1.12,5.72,3.55,6.86,7.1,1.11,3.45.45,7.67-1.62,10.39-2.07,2.72-5.44,3.78-8.28,2.61-5.01-2.07-7.15-9.66-11.8-12.76-2.71-1.81-6.04-1.86-9.01-.78-2.97,1.08-5.63,3.21-8.07,5.6-1.12,1.1-2.31,2.31-3.73,2.47-4.89.56-1.4-5.83.31-7.46Z"/><path class="cls-3" d="m1324.52,532.35c-7.31-6.77-17.02-7.72-26.15-7.85-3.09-.05-6.24-.02-9.2,1.15-2.95,1.17-5.72,3.65-6.87,7.24-1.11,3.49-.45,7.74,1.62,10.44,2.07,2.7,5.44,3.71,8.28,2.49,5.01-2.16,7.16-9.82,11.81-13.01,2.72-1.86,6.04-1.95,9.01-.91,2.97,1.04,5.63,3.14,8.07,5.49,1.12,1.08,2.31,2.28,3.73,2.42,4.89.49,1.42-5.86-.31-7.46Z"/><path class="cls-3" d="m1337.97,573.5c6.34-6.04,17.91-8.3,26.14-8.28,2.99,0,6.24-.12,9.19.99,2.95,1.11,5.72,3.53,6.86,7.07,1.11,3.44.45,7.67-1.62,10.4s-5.44,3.8-8.28,2.64c-5.01-2.05-7.15-9.63-11.8-12.72-2.71-1.8-6.04-1.84-9.01-.75-2.97,1.09-5.63,3.23-8.07,5.62-1.12,1.1-2.31,2.32-3.73,2.48-4.89.58-1.4-5.83.31-7.46Z"/><path class="cls-3" d="m1324.52,573.64c-7.31-6.75-17.02-7.67-26.15-7.78-3.09-.04-6.24,0-9.2,1.17-2.95,1.17-5.72,3.66-6.87,7.25-1.11,3.49-.45,7.74,1.62,10.43,2.07,2.7,5.44,3.7,8.28,2.47,5.01-2.17,7.16-9.84,11.81-13.03,2.72-1.86,6.04-1.97,9.01-.93,2.97,1.04,5.63,3.13,8.07,5.47,1.12,1.08,2.31,2.27,3.73,2.41,4.89.47,1.42-5.86-.31-7.46Z"/><path class="cls-3" d="m1337.97,612.96c6.33-6.06,17.9-8.36,26.14-8.36,2.99,0,6.24-.14,9.19.95,2.95,1.1,5.72,3.5,6.86,7.04,1.11,3.44.45,7.67-1.62,10.4-2.07,2.73-5.44,3.82-8.28,2.67-5.01-2.03-7.15-9.61-11.8-12.68-2.71-1.79-6.04-1.82-9.01-.72-2.97,1.1-5.63,3.25-8.07,5.65-1.12,1.11-2.31,2.32-3.73,2.49-4.89.59-1.4-5.82.31-7.46Z"/><path class="cls-3" d="m1324.52,613.14c-7.31-6.73-17.02-7.63-26.15-7.72-3.09-.03-6.24.01-9.2,1.19-2.95,1.18-5.72,3.67-6.87,7.27-1.11,3.49-.45,7.74,1.62,10.43,2.07,2.69,5.44,3.69,8.28,2.45,5.01-2.19,7.16-9.85,11.81-13.06,2.72-1.87,6.04-1.98,9.01-.95,2.97,1.03,5.63,3.11,8.07,5.45,1.12,1.08,2.31,2.26,3.73,2.4,4.89.46,1.42-5.87-.31-7.46Z"/><path class="cls-3" d="m1337.97,645.85c6.33-6.07,17.89-8.4,26.14-8.43,2.99-.01,6.24-.16,9.19.93,2.95,1.09,5.72,3.49,6.86,7.02,1.11,3.43.45,7.67-1.62,10.41-2.07,2.74-5.44,3.84-8.28,2.69-5.01-2.02-7.15-9.59-11.8-12.64-2.71-1.78-6.04-1.8-9.01-.69-2.97,1.11-5.63,3.27-8.07,5.67-1.12,1.11-2.31,2.33-3.73,2.5-4.89.6-1.4-5.82.31-7.46Z"/><path class="cls-3" d="m1324.52,646.05c-7.31-6.71-17.02-7.59-26.15-7.67-3.09-.03-6.24.02-9.2,1.2-2.95,1.18-5.72,3.68-6.87,7.28-1.11,3.49-.45,7.74,1.62,10.43,2.07,2.69,5.44,3.68,8.28,2.44,5.01-2.19,7.16-9.87,11.81-13.08,2.72-1.87,6.04-1.99,9.01-.97,2.97,1.02,5.63,3.1,8.07,5.43,1.12,1.08,2.31,2.26,3.73,2.39,4.89.45,1.42-5.87-.31-7.46Z"/><path class="cls-3" d="m1337.97,687.1c6.32-6.08,17.88-8.46,26.14-8.52,2.99-.02,6.24-.18,9.19.89,2.95,1.08,5.72,3.46,6.86,7,1.11,3.43.45,7.67-1.62,10.41-2.07,2.75-5.44,3.86-8.28,2.73-5.01-2-7.15-9.56-11.8-12.6-2.71-1.77-6.04-1.78-9.01-.66-2.97,1.12-5.63,3.28-8.07,5.7-1.12,1.11-2.31,2.34-3.73,2.51-4.89.62-1.4-5.82.31-7.46Z"/><path class="cls-3" d="m1324.52,687.35c-7.31-6.69-17.02-7.55-26.15-7.6-3.09-.02-6.24.04-9.2,1.22-2.95,1.19-5.72,3.69-6.87,7.29-1.11,3.49-.45,7.74,1.62,10.43,2.07,2.69,5.44,3.67,8.28,2.42,5.01-2.2,7.16-9.88,11.81-13.1,2.72-1.88,6.04-2.01,9.01-.99,2.97,1.02,5.63,3.09,8.07,5.41,1.12,1.07,2.31,2.25,3.73,2.38,4.89.43,1.42-5.87-.31-7.45Z"/><path class="cls-3" d="m1337.97,726.56c6.31-6.1,17.87-8.51,26.14-8.6,2.99-.03,6.24-.21,9.19.86,2.95,1.07,5.72,3.44,6.86,6.97,1.11,3.42.45,7.67-1.62,10.42-2.07,2.76-5.44,3.88-8.28,2.76-5.01-1.98-7.15-9.54-11.8-12.56-2.71-1.77-6.04-1.76-9.01-.63-2.97,1.13-5.63,3.3-8.07,5.72-1.12,1.12-2.31,2.34-3.73,2.53-4.89.63-1.4-5.81.31-7.46Z"/><path class="cls-3" d="m1324.52,726.84c-7.31-6.67-17.02-7.5-26.15-7.54-3.09-.01-6.24.05-9.2,1.24-2.95,1.19-5.72,3.7-6.87,7.3-1.11,3.5-.45,7.74,1.62,10.42,2.07,2.68,5.44,3.66,8.28,2.41,5.01-2.21,7.16-9.9,11.81-13.13,2.72-1.89,6.04-2.02,9.01-1.01,2.97,1.01,5.63,3.07,8.07,5.39,1.12,1.07,2.31,2.25,3.73,2.37,4.89.42,1.42-5.88-.31-7.45Z"/><path class="cls-1" d="m1331.23,139.26c0,66.8,0,133.61,0,200.41"/><path class="cls-1" d="m1628.29,175.04c.13-1.54.45-3.18.51-4.55.92-20.67,20.43,6.92,22.57,10.56,18.43,31.38,37.66,90.81,4.53,119.51-10.77,9.31-21.52,18.66-32.23,28.04-1.69,1.49-2.54,2.23-4.23,3.72-6.07,5.35-12.74,7.15-19.11,5.98t-.02,0"/><path class="cls-1" d="m1572.52,174.42v-.02c-.17-2.41-.65-5.05-.71-7.19-.61-20.7-19.54,3.24-22.6,8.17-20.08,32.38-36.64,91.56-4.53,121.95,12.14,11.42,24.29,22.81,36.49,34.16,1.65,1.53,3.34,2.8,5.06,3.82.01,0,.02.02.03.02,4.62,2.74,9.42,3.65,14.05,2.99t.02,0"/><path class="cls-1" d="m1640.75,187.45c-13.03-12.98-26.03-25.99-39.01-39.02-13.06,11.54-26.07,23.14-39.03,34.8-22.85,19.99-22.35,60.13-11,85.64,8.3,17.73,16.64,35.44,25,53.13,10.8,24.16,38.63,25.92,50.06,1.2,8.29-16.95,16.61-33.88,24.97-50.79,13.36-25.98,9.31-63.62-10.98-84.95Z"/><path class="cls-1" d="m1792.21,77.47c6.46,9.48,16.49,10.65,22.95,2.83h0c6.46-7.82,16.49-6.46,22.94,2.94,0,0,0,0,0,0,6.45,9.4,16.48,10.65,22.93,3.04,0,0,0,0,0,0,6.45-7.61,16.47-6.16,22.91,3.15h0c6.45,9.31,16.46,10.65,22.9,3.26,0,0,0,0,0,0,6.44-7.39,16.45-5.84,22.88,3.36,0,0,0,0,0,0,6.44,9.2,16.44,10.63,22.87,3.47,0,0,0,0,0,0,6.43-7.17,16.43-5.51,22.86,3.58,0,0,0,0,0,0,6.43,9.09,16.41,10.61,22.84,3.68,0,0,0,0,0,0,6.42-6.93,16.4-5.18,22.82,3.79,0,0,0,0,0,0,6.42,8.97,16.39,10.58,22.81,3.9,0,0,0,0,0,0,6.42-6.68,16.38-4.83,22.79,4,0,0,0,0,0,.01,6.41,8.83,16.37,10.53,22.77,4.11,0,0,0,0,0,0,6.41-6.42,16.35-4.47,22.75,4.22,0,0,0,0,0,0,6.4,8.69,16.34,10.47,22.74,4.32,0,0,0,0,0,0,6.4-6.15,16.33-4.1,22.72,4.43,0,0,0,0,0,0,6.39,8.53,16.31,10.41,22.7,4.54,0,0,0,0,0,0,6.38-5.87,16.3-3.72,22.68,4.64,0,0,0,0,0,0,6.38,8.37,16.28,10.33,22.66,4.75,0,0,0,0,0,0,6.37-5.58,16.27-3.33,22.64,4.86,0,0,0,0,0,0,6.37,8.19,16.25,10.24,22.62,4.97,0,0,0,0,0,0,6.36-5.27,16.24-2.93,22.59,5.07,0,0,0,0,.01.01,6.36,8,16.22,10.14,22.57,5.18,0,0,0,0,.01,0,6.35-4.96,16.21-2.52,22.55,5.29,0,0,0,0,.01.01,6.34,7.81,16.19,10.03,22.53,5.39,0,0,0,0,.01,0,6.34-4.64,16.17-2.1,22.5,5.5,0,0,.01.01.02.02"/><path class="cls-1" d="m1.34,166.4c6.33,4.35,16.17,1.88,22.51-5.94h0c6.34-7.83,16.19-10.51,22.53-5.83,0,0,0,0,0,0,6.34,4.68,16.2,2.31,22.55-5.71,0,0,0,0,0,0,6.35-8.02,16.22-10.6,22.57-5.59h0c6.36,5,16.23,2.73,22.6-5.48,0,0,0,0,0,0,6.36-8.21,16.25-10.68,22.62-5.36,0,0,0,0,0,0,6.37,5.31,16.26,3.14,22.64-5.25,0,0,0,0,0,0,6.37-8.39,16.28-10.75,22.66-5.13,0,0,0,0,0,0,6.38,5.61,16.29,3.53,22.68-5.02,0,0,0,0,0,0,6.38-8.55,16.31-10.81,22.7-4.9,0,0,0,0,0,0,6.39,5.9,16.32,3.92,22.72-4.79,0,0,0,0,0,0,6.4-8.71,16.33-10.86,22.73-4.67,0,0,0,0,0,0,6.4,6.18,16.35,4.3,22.75-4.56,0,0,0,0,0,0,6.41-8.85,16.36-10.9,22.77-4.44,0,0,0,0,0,0,6.41,6.45,16.37,4.66,22.79-4.33,0,0,0,0,0,0,6.42-8.99,16.39-10.92,22.81-4.21,0,0,0,0,0,0,6.42,6.71,16.4,5.02,22.82-4.1,0,0,0,0,0,0,6.42-9.11,16.41-10.94,22.84-3.98,0,0,0,0,0,0,6.43,6.96,16.42,5.36,22.85-3.87,0,0,0,0,0,0,6.43-9.23,16.43-10.95,22.87-3.75,0,0,0,0,0,0,6.44,7.2,16.44,5.69,22.88-3.63,0,0,0,0,0-.01,6.44-9.33,16.45-10.95,22.9-3.52,0,0,0,0,.01.01,6.45,7.43,16.46,6.02,22.91-3.4,0,0,0-.01.01-.02,6.45-9.42,16.47-10.93,22.92-3.29,0,0,0,0,.01.01,6.45,7.64,16.48,6.33,22.93-3.17,0,0,0-.01.01-.02,6.46-9.5,16.49-10.91,22.95-3.06,0,0,.01.01.02.02"/><path class="cls-1" d="m592.93,49.41c6.46,7.85,16.5,6.63,22.96-2.94h0c6.46-9.58,16.51-10.88,22.97-2.83,0,0,0,0,0,0,6.47,8.05,16.52,6.93,22.99-2.71,0,0,0,0,0,0,6.47-9.64,16.52-10.83,23-2.6h0c6.47,8.24,16.53,7.21,23.01-2.48,0,0,0,0,0,0,6.48-9.69,16.54-10.78,23.01-2.37,0,0,0,0,0,0,6.48,8.41,16.54,7.48,23.02-2.25,0,0,0,0,0,0,6.48-9.73,16.55-10.71,23.03-2.13,0,0,0,0,0,0,6.48,8.57,16.56,7.74,23.04-2.02,0,0,0,0,0,0,4.35-8.57,17.62-10.66,23.05-1.9,0,0,0,0,0,0,5.4,8.74,18.68,6.81,23.06-1.79,0,0,0,0,0,0,4.39-8.65,17.72-10.51,23.06-1.67,0,0,0,0,0,.01,5.31,8.81,18.65,7.12,23.07-1.56,0,0,0,0,0,0,4.43-8.73,17.82-10.35,23.07-1.44,0,0,0,0,0,0,5.22,8.88,18.62,7.42,23.08-1.33,0,0,0,0,0,0,4.47-8.8,17.92-10.17,23.08-1.21,0,0,0,0,0,0,5.14,8.93,18.58,7.72,23.09-1.1,0,0,0,0,0,0,4.52-8.87,18.01-9.98,23.09-.98,0,0,0,0,0,0,5.06,8.97,18.54,8,23.1-.87,0,0,0,0,0,0,4.57-8.92,18.1-9.78,23.1-.75,0,0,0,0,0,0,4.98,8.99,18.49,8.28,23.1-.64,0,0,0,0,0-.01,4.63-8.96,18.18-9.56,23.1-.52,0,0,0,0,.01.02,4.9,9,18.44,8.55,23.11-.41,0,0,0-.01.01-.02,4.69-9,18.25-9.33,23.11-.29,0,0,0,.01.01.02,4.83,9,18.37,8.81,23.11-.17,0,0,0-.01.01-.02,4.75-9.02,18.32-9.09,23.11-.06,0,.01.01.02.02.03"/><path class="cls-1" d="m1192.58,10.38c4.77,8.99,18.31,9.06,23.11.05h0c4.82-9.04,18.39-8.85,23.11.17,0,0,0,0,0,0,4.7,8.97,18.24,9.29,23.11.29,0,0,0,0,0,0,4.89-9.05,18.45-8.58,23.11.4h0c4.64,8.94,18.17,9.52,23.11.52,0,0,0,0,0,0,4.96-9.04,18.5-8.31,23.1.63,0,0,0,0,0,0,4.58,8.9,18.08,9.73,23.1.75,0,0,0,0,0,0,5.04-9.01,18.55-8.03,23.1.86,0,0,0,0,0,0,4.53,8.85,18,9.93,23.09.98,0,0,0,0,0,0,5.12-8.98,18.59-7.74,23.09,1.09,0,0,0,0,0,0,4.48,8.79,17.91,10.12,23.09,1.21,0,0,0,0,0,0,5.2-8.93,18.63-7.44,23.08,1.32,0,0,0,0,0,.01,4.44,8.72,17.81,10.29,23.07,1.44,0,0,0,0,0,0,5.29-8.87,18.66-7.14,23.07,1.55,0,0,0,0,0,.01,4.4,8.64,17.71,10.45,23.06,1.67,0,0,0,0,0,0,5.38-8.8,18.68-6.82,23.06,1.79,0,0,0,0,0,0,6.49,9.77,16.56,10.55,23.05,1.9,0,0,0,0,0,0,6.48-8.65,16.56-7.73,23.04,2.01,0,0,0,0,0,.01,6.48,9.74,16.55,10.63,23.03,2.13,0,0,0,0,0,0,6.48-8.5,16.55-7.46,23.02,2.25,0,0,0,0,0,0,6.48,9.71,16.54,10.69,23.01,2.36,0,0,0,0,0,0,6.47-8.32,16.53-7.19,23,2.48,0,0,0,0,.01.02,6.47,9.66,16.52,10.74,22.99,2.59,0,0,0,0,.01-.01,6.47-8.14,16.52-6.9,22.98,2.71,0,0,0,.01.01.02,6.47,9.61,16.51,10.78,22.97,2.82,0,0,0-.01.01-.02,6.46-7.95,16.5-6.6,22.96,2.94,0,.01.01.02.02.03"/><path class="cls-1" d="m1792.21,49.32c6.46,9.54,16.49,10.81,22.95,3.05h0c6.46-7.75,16.49-6.3,22.94,3.17,0,0,0,0,0,0,6.45,9.47,16.48,10.83,22.93,3.29,0,0,0,0,0,0,6.45-7.54,16.47-5.98,22.91,3.4h0c6.45,9.38,16.46,10.84,22.9,3.52,0,0,0,0,0,0,6.44-7.32,16.45-5.65,22.88,3.63,0,0,0,0,0,0,6.44,9.28,16.44,10.83,22.87,3.75,0,0,0,0,0,0,6.43-7.09,16.43-5.31,22.86,3.86,0,0,0,0,0,0,6.43,9.17,16.41,10.82,22.84,3.98,0,0,0,0,0,0,6.42-6.84,16.4-4.96,22.82,4.09,0,0,0,0,0,0,6.42,9.05,16.39,10.8,22.81,4.21,0,0,0,0,0,0,6.42-6.59,16.38-4.6,22.79,4.32,0,0,0,0,0,.01,6.41,8.92,16.37,10.76,22.77,4.44,0,0,0,0,0,0,6.41-6.32,16.35-4.23,22.75,4.55,0,0,0,0,0,0,6.4,8.78,16.34,10.72,22.74,4.67,0,0,0,0,0,0,6.4-6.05,16.33-3.85,22.72,4.78,0,0,0,0,0,0,6.39,8.63,16.31,10.66,22.7,4.9,0,0,0,0,0,0,6.38-5.76,16.3-3.46,22.68,5.01,0,0,0,0,0,0,6.38,8.47,16.28,10.6,22.66,5.13,0,0,0,0,0,0,6.37-5.47,16.27-3.06,22.64,5.24,0,0,0,0,0,0,6.37,8.3,16.25,10.52,22.62,5.36,0,0,0,0,0,0,6.36-5.16,16.24-2.64,22.59,5.47,0,0,0,0,.01.01,6.36,8.12,16.22,10.44,22.57,5.59,0,0,0,0,.01,0,6.35-4.84,16.21-2.22,22.55,5.71,0,0,0,0,.01.01,6.34,7.93,16.19,10.34,22.53,5.82,0,0,0,0,.01,0,6.34-4.52,16.17-1.79,22.5,5.94,0,0,.01.01.02.02"/><path class="cls-3" d="m2161.47,719.25c-22.09-61.31-47.44-121.4-57.63-185.58-6.43-40.51-11.93-82.24-14.55-123.11-2.43-37.87-.43-76.52.87-114.77.1-2.83-.19-6.44-2.3-7.59-5.55-3.01-12.23,16.4-14.24,20.6-15.13,31.62-20.74,67.52-19.04,101.85.41,8.38,2.15,16.97,3.88,25.1,5.28,24.81,12.11,49.52,19.34,73.91,8.78,29.61,18.31,59.22,28.23,88.5,9.3,27.45,19.06,54.92,29.13,82.1,7.15,19.3,14.54,38.6,22.07,57.77,1.95,4.97,3.92,9.92,5.9,14.83.24.6.83,3.12,1.4,3.34,4.56,1.73,1.02-13.49.72-15.36-1.16-7.23-2.44-14.42-3.79-21.6Z"/><path class="cls-3" d="m2227.47,707.02c20.22-61.31,46.27-121.51,57.35-184.8,6.21-35.45,11.81-72.06,14.44-107.8,2.4-32.56.42-65.92-.86-98.89-.1-2.45.19-5.52,2.28-6.13,5.51-1.61,12.22,16,14.11,19.83,13.14,26.53,21.19,55.8,18.85,86.14-.54,6.94-2.13,13.87-3.84,20.56-5.39,21.04-12.2,41.95-19.15,62.66-9.05,26.97-18.52,53.91-28.01,80.77-9.62,27.25-19.31,54.49-28.97,81.73-7.34,20.7-14.66,41.4-21.99,62.11-1.95,5.53-3.91,11.07-5.89,16.64-.24.68-.83,3.35-1.4,3.81-4.57,3.69-1.02-12.5-.72-14.41,1.16-7.42,2.44-14.83,3.78-22.21Z"/><path class="cls-2" d="m2197,363.38c0,126.34,0,252.68,0,379.03"/><path class="cls-3" d="m2203.62,414.97c7.17-4.94,16.69-5.5,25.64-5.48,3.03,0,6.12.07,9.01.94,2.89.87,5.61,2.68,6.73,5.26,1.09,2.5.44,5.52-1.58,7.45-2.03,1.93-5.33,2.65-8.11,1.77-4.91-1.56-7.01-7.11-11.57-9.45-2.66-1.37-5.93-1.47-8.84-.73-2.91.74-5.52,2.26-7.92,3.98-1.1.79-2.26,1.67-3.66,1.77-4.8.35-1.39-4.34.3-5.5Z"/><path class="cls-3" d="m2190.42,414.81c-7.17-5.16-16.71-6.09-25.68-6.37-3.04-.09-6.13-.13-9.04.7-2.9.83-5.63,2.68-6.75,5.41-1.09,2.65-.44,5.91,1.59,8,2.03,2.08,5.35,2.88,8.14,1.97,4.93-1.6,7.03-7.38,11.6-9.7,2.67-1.36,5.94-1.37,8.85-.54,2.92.83,5.53,2.44,7.92,4.23,1.1.83,2.26,1.73,3.66,1.85,4.8.43,1.39-4.34-.3-5.56Z"/><path class="cls-3" d="m2203.62,445.45c7.17-5.1,16.69-5.87,25.64-6.05,3.03-.06,6.12-.07,9.01.74s5.61,2.55,6.73,5.1c1.09,2.47.44,5.51-1.58,7.48-2.03,1.97-5.33,2.78-8.11,1.96-4.91-1.45-7.01-6.95-11.57-9.19-2.66-1.31-5.93-1.34-8.84-.53-2.91.81-5.52,2.39-7.92,4.16-1.1.82-2.26,1.72-3.66,1.85-4.8.45-1.39-4.3.3-5.51Z"/><path class="cls-3" d="m2190.42,445.58c-7.17-5.01-16.71-5.73-25.68-5.82-3.04-.03-6.13,0-9.04.89-2.9.89-5.63,2.8-6.75,5.55-1.09,2.67-.44,5.92,1.59,7.96,2.03,2.04,5.35,2.77,8.14,1.8,4.93-1.7,7.03-7.52,11.6-9.95,2.67-1.42,5.94-1.5,8.85-.73,2.92.77,5.53,2.33,7.92,4.06,1.1.8,2.26,1.68,3.66,1.77,4.8.32,1.39-4.37-.3-5.55Z"/><path class="cls-3" d="m2203.62,474.6c7.17-5.25,16.69-6.22,25.64-6.6,3.03-.13,6.12-.2,9.01.54s5.61,2.43,6.73,4.95c1.09,2.45.44,5.5-1.58,7.52-2.03,2.02-5.33,2.89-8.11,2.13-4.91-1.34-7.01-6.79-11.57-8.94-2.66-1.25-5.93-1.21-8.84-.34s-5.52,2.5-7.92,4.33c-1.1.84-2.26,1.77-3.66,1.93-4.8.55-1.39-4.28.3-5.52Z"/><path class="cls-3" d="m2190.42,475.01c-7.17-4.86-16.71-5.38-25.68-5.29-3.04.03-6.13.12-9.04,1.07-2.9.95-5.63,2.91-6.75,5.69-1.09,2.69-.44,5.93,1.59,7.93,2.03,2,5.35,2.66,8.14,1.64,4.93-1.8,7.03-7.67,11.6-10.18,2.67-1.47,5.94-1.62,8.85-.91,2.92.71,5.53,2.21,7.92,3.9,1.1.78,2.26,1.63,3.66,1.7,4.8.22,1.39-4.4-.3-5.55Z"/><path class="cls-3" d="m2203.62,505.96c7.17-5.42,16.69-6.61,25.64-7.19,3.03-.2,6.12-.34,9.01.33,2.89.68,5.61,2.3,6.73,4.79,1.09,2.42.44,5.49-1.58,7.56-2.03,2.07-5.33,3.02-8.11,2.32-4.91-1.23-7.01-6.63-11.57-8.67-2.66-1.19-5.93-1.08-8.84-.14-2.91.94-5.52,2.63-7.92,4.51-1.1.87-2.26,1.82-3.66,2.01-4.8.66-1.39-4.24.3-5.52Z"/><path class="cls-3" d="m2190.42,506.67c-7.17-4.7-16.71-5.01-25.68-4.72-3.04.1-6.13.25-9.04,1.27-2.9,1.01-5.63,3.03-6.75,5.83-1.09,2.72-.44,5.94,1.59,7.9,2.03,1.96,5.35,2.55,8.14,1.47,4.93-1.91,7.03-7.82,11.6-10.44,2.67-1.53,5.94-1.75,8.85-1.1,2.92.65,5.53,2.09,7.92,3.72,1.1.75,2.26,1.58,3.66,1.62,4.8.12,1.39-4.43-.3-5.54Z"/><path class="cls-3" d="m2203.62,536.44c7.17-5.57,16.69-6.98,25.64-7.76,3.03-.27,6.12-.48,9.01.13,2.89.61,5.61,2.17,6.73,4.64,1.09,2.4.44,5.48-1.58,7.59-2.03,2.11-5.33,3.14-8.11,2.51-4.91-1.12-7.01-6.47-11.57-8.41-2.66-1.13-5.93-.94-8.84.06-2.91,1-5.52,2.75-7.92,4.68-1.1.89-2.26,1.87-3.66,2.09-4.8.77-1.39-4.21.3-5.53Z"/><path class="cls-3" d="m2190.42,537.44c-7.17-4.54-16.71-4.65-25.68-4.17-3.04.16-6.13.38-9.04,1.46-2.9,1.08-5.63,3.15-6.75,5.97-1.09,2.74-.44,5.95,1.59,7.87s5.35,2.44,8.14,1.3c4.93-2.01,7.03-7.97,11.6-10.68,2.67-1.59,5.94-1.88,8.85-1.29,2.92.58,5.53,1.97,7.92,3.55,1.1.73,2.26,1.53,3.66,1.54,4.8.01,1.39-4.46-.3-5.54Z"/><path class="cls-3" d="m2203.62,565.6c7.17-5.73,16.69-7.33,25.64-8.31,3.03-.33,6.12-.61,9.01-.07,2.89.55,5.61,2.05,6.73,4.49,1.09,2.37.44,5.47-1.58,7.63-2.03,2.16-5.33,3.26-8.11,2.69-4.91-1.01-7.01-6.32-11.57-8.16-2.66-1.07-5.93-.82-8.84.25-2.91,1.06-5.52,2.87-7.92,4.85-1.1.91-2.26,1.92-3.66,2.17-4.8.87-1.39-4.18.3-5.54Z"/><path class="cls-3" d="m2190.42,566.87c-7.17-4.39-16.71-4.31-25.68-3.64-3.04.22-6.13.51-9.04,1.64-2.9,1.13-5.63,3.26-6.75,6.11-1.09,2.76-.44,5.96,1.59,7.83s5.35,2.33,8.14,1.13c4.93-2.11,7.03-8.11,11.6-10.92,2.67-1.64,5.94-2,8.85-1.48,2.92.52,5.53,1.86,7.92,3.39,1.1.71,2.26,1.49,3.66,1.46,4.8-.09,1.39-4.49-.3-5.53Z"/><path class="cls-3" d="m2203.62,589.89c7.17-5.85,16.69-7.63,25.64-8.77,3.03-.39,6.12-.73,9.01-.23,2.89.49,5.61,1.95,6.73,4.37,1.09,2.35.44,5.46-1.58,7.66-2.03,2.19-5.33,3.36-8.11,2.83-4.91-.92-7.01-6.19-11.57-7.95-2.66-1.03-5.93-.71-8.84.4-2.91,1.11-5.52,2.97-7.92,4.99-1.1.93-2.26,1.96-3.66,2.23-4.8.95-1.39-4.16.3-5.54Z"/><path class="cls-3" d="m2190.42,591.4c-7.17-4.27-16.71-4.02-25.68-3.21-3.04.28-6.13.61-9.04,1.79-2.9,1.18-5.63,3.36-6.75,6.22-1.09,2.78-.44,5.97,1.59,7.81,2.03,1.84,5.35,2.24,8.14,1,4.93-2.19,7.03-8.23,11.6-11.11,2.67-1.68,5.94-2.1,8.85-1.63,2.92.47,5.53,1.76,7.92,3.25,1.1.69,2.26,1.45,3.66,1.4,4.8-.17,1.39-4.51-.3-5.52Z"/><path class="cls-3" d="m2203.62,620.38c7.17-6.01,16.69-8,25.64-9.34,3.03-.46,6.12-.86,9.01-.44s5.61,1.82,6.73,4.22c1.09,2.33.44,5.45-1.58,7.69-2.03,2.24-5.33,3.48-8.11,3.02-4.91-.81-7.01-6.03-11.57-7.69-2.66-.97-5.93-.58-8.84.6-2.91,1.18-5.52,3.09-7.92,5.17-1.1.96-2.26,2.01-3.66,2.31-4.8,1.06-1.39-4.13.3-5.55Z"/><path class="cls-3" d="m2190.42,622.16c-7.17-4.11-16.71-3.66-25.68-2.65-3.04.34-6.13.74-9.04,1.98-2.9,1.24-5.63,3.47-6.75,6.36-1.09,2.8-.44,5.97,1.59,7.77,2.03,1.8,5.35,2.13,8.14.83,4.93-2.3,7.03-8.37,11.6-11.36,2.67-1.74,5.94-2.23,8.85-1.82,2.92.41,5.53,1.64,7.92,3.08,1.1.66,2.26,1.4,3.66,1.32,4.8-.28,1.39-4.54-.3-5.52Z"/><path class="cls-3" d="m2203.62,649.53c7.17-6.16,16.69-8.35,25.64-9.89,3.03-.52,6.12-1,9.01-.63,2.89.37,5.61,1.69,6.73,4.07,1.09,2.31.44,5.44-1.58,7.73-2.03,2.28-5.33,3.59-8.11,3.2-4.91-.7-7.01-5.88-11.57-7.44-2.66-.91-5.93-.45-8.84.79-2.91,1.24-5.52,3.21-7.92,5.34-1.1.98-2.26,2.05-3.66,2.39-4.8,1.16-1.39-4.1.3-5.56Z"/><path class="cls-3" d="m2190.42,651.6c-7.17-3.96-16.71-3.31-25.68-2.13-3.04.4-6.13.86-9.04,2.17-2.9,1.3-5.63,3.59-6.75,6.5-1.09,2.82-.44,5.98,1.59,7.74s5.35,2.02,8.14.66c4.93-2.4,7.03-8.52,11.6-11.59,2.67-1.8,5.94-2.35,8.85-2,2.92.35,5.53,1.53,7.92,2.92,1.1.64,2.26,1.35,3.66,1.24,4.8-.38,1.39-4.57-.3-5.51Z"/><path class="cls-1" d="m2197,214.68c0,49.57,0,99.14,0,148.71"/><path class="cls-1" d="m1956.29,202.01c.13-1.36.29-2.72.51-4.04,3.08-18.82,18.86,5.02,22.4,10.6,17.41,27.46,37.39,81.86,4.5,106.28-10.73,7.97-21.39,16.04-31.99,24.19-1.68,1.29-2.52,1.94-4.2,3.24-6.03,4.66-12.65,6.16-18.97,4.99h-.02"/><path class="cls-1" d="m1900.9,198.58h0c-.17-2.2-.6-4.57-.71-6.55-1.01-18.99-18.99,1.33-22.45,6.26-20.36,29.01-35.43,83.19-4.5,110.7,12.02,10.66,24.1,21.27,36.25,31.79,1.64,1.42,3.32,2.6,5.03,3.54.01,0,.02.01.03.01,4.59,2.56,9.35,3.47,13.96,2.95h.02"/><path class="cls-1" d="m1968.65,213.72c-12.97-12.27-25.88-24.6-38.73-37-13.04,9.63-25.94,19.44-38.77,29.34-22.64,16.87-22.02,54.31-10.93,77.25,8.23,16.29,16.51,32.55,24.83,48.8,10.72,21.76,37.83,24.66,49.71,2.18,8.2-14.88,16.44-29.75,24.78-44.55,13.75-23.36,8.09-57.33-10.9-76.01Z"/><path class="cls-2" d="m1929.73,352.15c0,147.14,0,294.29,0,441.43"/><path class="cls-3" d="m1936.4,412.19c7.23-5.81,16.84-6.53,25.88-6.58,3.06-.01,6.18.04,9.09,1.05,2.92,1.01,5.66,3.12,6.79,6.15,1.1,2.94.45,6.51-1.6,8.79-2.05,2.28-5.38,3.14-8.19,2.11-4.96-1.83-7.08-8.33-11.68-11.06-2.69-1.59-5.98-1.69-8.92-.81-2.94.88-5.57,2.67-7.99,4.69-1.11.93-2.28,1.96-3.69,2.08-4.84.42-1.41-5.05.3-6.42Z"/><path class="cls-3" d="m1923.09,412.08c-7.24-5.97-16.86-6.97-25.91-7.22-3.06-.09-6.19-.11-9.11.87-2.93.98-5.67,3.12-6.81,6.27-1.1,3.05-.45,6.8,1.6,9.2,2.05,2.39,5.39,3.31,8.21,2.26,4.97-1.85,7.09-8.53,11.7-11.25,2.69-1.58,5.99-1.62,8.93-.67,2.94.95,5.58,2.81,7.99,4.88,1.11.95,2.28,2,3.69,2.14,4.84.48,1.41-5.05-.3-6.46Z"/><path class="cls-3" d="m1936.4,447.76c7.23-5.92,16.84-6.81,25.88-7,3.06-.06,6.18-.06,9.09.9,2.92.96,5.66,3.03,6.79,6.04,1.1,2.92.45,6.51-1.6,8.82-2.05,2.31-5.38,3.23-8.19,2.24-4.96-1.74-7.08-8.22-11.68-10.87-2.69-1.55-5.98-1.6-8.92-.66-2.94.93-5.57,2.76-7.99,4.82-1.11.95-2.28,1.99-3.69,2.14-4.84.5-1.41-5.03.3-6.43Z"/><path class="cls-3" d="m1923.09,447.85c-7.24-5.85-16.86-6.7-25.91-6.82-3.06-.04-6.19-.02-9.11,1.01-2.93,1.02-5.67,3.21-6.81,6.37-1.1,3.07-.45,6.81,1.6,9.17,2.05,2.36,5.39,3.23,8.21,2.13,4.97-1.93,7.09-8.64,11.7-11.42,2.69-1.63,5.99-1.71,8.93-.81,2.94.9,5.58,2.72,7.99,4.75,1.11.94,2.28,1.97,3.69,2.08,4.84.4,1.41-5.08-.3-6.46Z"/><path class="cls-3" d="m1936.4,481.77c7.23-6.03,16.84-7.07,25.88-7.4,3.06-.11,6.18-.16,9.09.75,2.92.91,5.66,2.94,6.79,5.93,1.1,2.91.45,6.5-1.6,8.85-2.05,2.35-5.38,3.32-8.19,2.38-4.96-1.66-7.08-8.1-11.68-10.68-2.69-1.51-5.98-1.5-8.92-.52-2.94.98-5.57,2.85-7.99,4.95-1.11.97-2.28,2.03-3.69,2.2-4.84.57-1.41-5.01.3-6.43Z"/><path class="cls-3" d="m1923.09,482.07c-7.24-5.74-16.86-6.45-25.91-6.44-3.06,0-6.19.07-9.11,1.14-2.93,1.06-5.67,3.29-6.81,6.47-1.1,3.08-.45,6.81,1.6,9.15,2.05,2.33,5.39,3.15,8.21,2.02,4.97-2,7.09-8.74,11.7-11.59,2.69-1.67,5.99-1.8,8.93-.94,2.94.86,5.58,2.64,7.99,4.63,1.11.92,2.28,1.93,3.69,2.03,4.84.33,1.41-5.1-.3-6.46Z"/><path class="cls-3" d="m1936.4,518.36c7.23-6.15,16.84-7.35,25.88-7.84,3.06-.17,6.18-.27,9.09.59s5.66,2.84,6.79,5.81c1.1,2.89.45,6.49-1.6,8.87-2.05,2.38-5.38,3.41-8.19,2.52-4.96-1.58-7.08-7.98-11.68-10.48-2.69-1.46-5.98-1.4-8.92-.37-2.94,1.03-5.57,2.94-7.99,5.08-1.11.98-2.28,2.07-3.69,2.26-4.84.65-1.41-4.98.3-6.44Z"/><path class="cls-3" d="m1923.09,518.88c-7.24-5.63-16.86-6.18-25.91-6.03-3.06.05-6.19.17-9.11,1.28-2.93,1.11-5.67,3.38-6.81,6.57-1.1,3.1-.45,6.82,1.6,9.12s5.39,3.07,8.21,1.89c4.97-2.08,7.09-8.85,11.7-11.78,2.69-1.71,5.99-1.89,8.93-1.08,2.94.81,5.58,2.55,7.99,4.51,1.11.9,2.28,1.9,3.69,1.97,4.84.25,1.41-5.12-.3-6.45Z"/><path class="cls-3" d="m1936.4,553.92c7.23-6.27,16.84-7.62,25.88-8.26,3.06-.22,6.18-.37,9.09.44,2.92.81,5.66,2.74,6.79,5.7,1.1,2.87.45,6.48-1.6,8.9-2.05,2.42-5.38,3.5-8.19,2.65-4.96-1.5-7.08-7.86-11.68-10.29-2.69-1.42-5.98-1.3-8.92-.23-2.94,1.07-5.57,3.03-7.99,5.21-1.11,1-2.28,2.1-3.69,2.32-4.84.73-1.41-4.96.3-6.44Z"/><path class="cls-3" d="m1923.09,554.65c-7.24-5.51-16.86-5.92-25.91-5.63-3.06.1-6.19.26-9.11,1.42-2.93,1.15-5.67,3.46-6.81,6.67-1.1,3.12-.45,6.83,1.6,9.1s5.39,2.99,8.21,1.77c4.97-2.15,7.09-8.96,11.7-11.95,2.69-1.75,5.99-1.99,8.93-1.22,2.94.77,5.58,2.46,7.99,4.38,1.11.88,2.28,1.86,3.69,1.91,4.84.18,1.41-5.14-.3-6.45Z"/><path class="cls-3" d="m1936.4,587.94c7.23-6.38,16.84-7.88,25.88-8.66,3.06-.27,6.18-.47,9.09.3s5.66,2.65,6.79,5.59c1.1,2.85.45,6.48-1.6,8.93-2.05,2.45-5.38,3.59-8.19,2.79-4.96-1.42-7.08-7.75-11.68-10.1-2.69-1.37-5.98-1.21-8.92-.09-2.94,1.12-5.57,3.12-7.99,5.33-1.11,1.02-2.28,2.14-3.69,2.37-4.84.8-1.41-4.94.3-6.45Z"/><path class="cls-3" d="m1923.09,588.87c-7.24-5.4-16.86-5.67-25.91-5.25-3.06.14-6.19.35-9.11,1.55-2.93,1.2-5.67,3.54-6.81,6.77-1.1,3.13-.45,6.83,1.6,9.08,2.05,2.24,5.39,2.91,8.21,1.65,4.97-2.22,7.09-9.06,11.7-12.12,2.69-1.79,5.99-2.07,8.93-1.35,2.94.73,5.58,2.38,7.99,4.26,1.11.87,2.28,1.83,3.69,1.86,4.84.1,1.41-5.16-.3-6.44Z"/><path class="cls-3" d="m1936.4,616.29c7.23-6.47,16.84-8.1,25.88-9,3.06-.31,6.18-.55,9.09.18,2.92.73,5.66,2.58,6.79,5.5,1.1,2.84.45,6.47-1.6,8.95-2.05,2.48-5.38,3.66-8.19,2.9-4.96-1.35-7.08-7.66-11.68-9.95-2.69-1.34-5.98-1.13-8.92.03-2.94,1.16-5.57,3.19-7.99,5.43-1.11,1.03-2.28,2.17-3.69,2.42-4.84.87-1.41-4.92.3-6.45Z"/><path class="cls-3" d="m1923.09,617.38c-7.24-5.31-16.86-5.46-25.91-4.93-3.06.18-6.19.43-9.11,1.66-2.93,1.23-5.67,3.61-6.81,6.85-1.1,3.15-.45,6.84,1.6,9.06,2.05,2.22,5.39,2.85,8.21,1.55,4.97-2.28,7.09-9.15,11.7-12.27,2.69-1.82,5.99-2.15,8.93-1.46,2.94.69,5.58,2.31,7.99,4.16,1.11.85,2.28,1.8,3.69,1.81,4.84.04,1.41-5.18-.3-6.44Z"/><path class="cls-3" d="m1936.4,651.85c6.45-5.91,17.59-8.7,25.88-9.42,2.98-.26,6.18-.65,9.09.02,2.92.68,5.66,2.48,6.79,5.38,1.1,2.82.45,6.46-1.6,8.98-2.05,2.51-5.38,3.75-8.19,3.03-4.96-1.27-7.08-7.54-11.68-9.76-2.69-1.29-5.98-1.03-8.92.17-2.94,1.21-5.57,3.28-7.99,5.56-1.11,1.05-2.28,2.2-3.69,2.48-4.84.94-1.39-4.9.3-6.46Z"/><path class="cls-3" d="m1923.09,653.16c-7.24-5.2-16.86-5.19-25.91-4.53-3.06.23-6.19.52-9.11,1.79-2.93,1.27-5.67,3.69-6.81,6.95-1.1,3.16-.45,6.85,1.6,9.04,2.05,2.19,5.39,2.77,8.21,1.43,4.97-2.36,7.09-9.25,11.7-12.44,2.69-1.86,5.99-2.24,8.93-1.6,2.94.64,5.58,2.22,7.99,4.04,1.11.84,2.28,1.76,3.69,1.75,4.84-.03,1.41-5.2-.3-6.43Z"/><path class="cls-3" d="m1936.4,685.86c6.42-5.99,17.55-8.97,25.88-9.82,2.98-.31,6.18-.75,9.09-.12,2.92.63,5.66,2.39,6.79,5.27,1.1,2.8.45,6.46-1.6,9-2.05,2.54-5.38,3.84-8.19,3.17-4.96-1.19-7.08-7.43-11.68-9.57-2.69-1.25-5.98-.94-8.92.31-2.94,1.25-5.57,3.37-7.99,5.69-1.11,1.07-2.28,2.24-3.69,2.54-4.84,1.02-1.39-4.88.3-6.46Z"/><path class="cls-3" d="m1923.09,687.37c-7.24-5.09-16.86-4.94-25.91-4.15-3.06.27-6.19.61-9.11,1.92-2.93,1.32-5.67,3.77-6.81,7.05-1.1,3.18-.45,6.85,1.6,9.01,2.05,2.16,5.39,2.69,8.21,1.31,4.97-2.43,7.09-9.35,11.7-12.61,2.69-1.9,5.99-2.33,8.93-1.73,2.94.6,5.58,2.14,7.99,3.92,1.11.82,2.28,1.73,3.69,1.7,4.84-.11,1.41-5.22-.3-6.43Z"/><path class="cls-1" d="m1929.73,178.96c0,57.73,0,115.46,0,173.19"/><path class="cls-1" d="m2222.9,236.21c.13-1.16.27-2.34.5-3.42,3.37-15.3,18.44,5.02,22.19,10.22,16.4,22.72,36.73,70.95,4.46,90.19-10.65,6.46-21.21,13.05-31.69,19.78-1.67,1.07-2.5,1.6-4.16,2.68-5.98,3.86-12.54,5.03-18.8,3.91t-.02,0"/><path class="cls-1" d="m2168,230.38h0c-.17-1.92-.5-3.9-.7-5.71-1.91-16.66-18.12-.71-22.26,4.3-20.62,24.97-34.1,72.47-4.46,96.22,11.92,9.55,23.9,19.01,35.95,28.39,1.62,1.25,3.29,2.31,4.98,3.15,0,0,.02.01.03.01,4.55,2.29,9.27,3.16,13.83,2.81t.02,0"/><path class="cls-1" d="m2235.15,246.82c-12.91-11.1-25.67-22.38-38.38-33.72-12.91,7.61-25.71,15.37-38.43,23.29-21.61,13.95-22.33,46.1-10.84,66.66,8.12,14.37,16.32,28.7,24.62,42.96,10.75,19.01,36.89,22.43,49.27,2.96,8.1-12.45,16.28-24.84,24.55-37.18,13.65-20.52,7.25-49.29-10.8-64.97Z"/></g></svg>