<?xml version="1.0" encoding="utf-8"?>
<!-- Generator: Adobe Illustrator 28.0.0, SVG Export Plug-In . SVG Version: 6.00 Build 0)  -->
<svg version="1.1" id="Layer_1" xmlns="http://www.w3.org/2000/svg" xmlns:xlink="http://www.w3.org/1999/xlink" x="0px" y="0px"
	 viewBox="0 0 2110 1593" style="enable-background:new 0 0 2110 1593;" xml:space="preserve">
<style type="text/css">
	.st0{fill:#FFFFFF;stroke:#FFFFFF;}
	.st1{fill:#1B9B61;stroke:#FF0000;}
	.st2{fill:#FFFFFF;}
	.st3{fill:none;stroke:#FF0000;}
	.st4{fill:#D9D9D9;}
</style>
<path class="st0" d="M1400.3,152l-11.5,40l219,75l16.5-119.5l23-10.5v-11l16.5-11.5L1470.3,52l-8,5l-11.5,7l-7.5,15l-18,35.5
	L1400.3,152z"/>
<path class="st1" d="M1816.5,154.2c-11.9-12.6-29.3-24.7-51.8-36.2c-44.9-23.1-109.5-43.9-188.4-61.3
	C1418.5,21.9,1203.8,0.5,975.8,0.5c-228,0-455.8,18.5-626.6,52.1c-85.4,16.8-156.6,37.5-206.3,61.5c-24.9,12-44.4,24.8-57.7,38.4
	C72,165.9,65,180,64.8,194.8v0.7c0,15,7.5,29.3,21.7,42.8c14.2,13.5,34.9,26.2,61.3,38c40.7,18.2,94.6,34.3,158.2,48.3
	c18.9,4.1,38.7,8.1,59.2,11.8c178.8,32.7,414.7,50.1,642.6,50.1c213.4,0,408.2-19,555.1-50.1c10-2.1,19.8-4.3,29.4-6.6
	c1.1-0.3,2.2-0.5,3.3-0.8c31.2-7.4,59.8-15.3,85.7-23.8c34.9-11.5,64.7-23.9,88.4-37c20.9-11.6,37.2-23.8,48.2-36.3
	c11-12.6,16.7-25.6,16.7-38.9C1834.5,179.7,1828.3,166.8,1816.5,154.2z M1719.8,194.5L1719.8,194.5c0,12.2-5.3,24-15.5,35.6
	c-10.2,11.5-25.2,22.7-44.6,33.3c-9.9,5.4-21,10.7-33.1,15.9c-35.3,15-79.7,28.7-131.4,40.7c-139,32.2-331.1,52.1-543.3,52.1
	s-405-19-544.8-50.4c-50.4-11.3-93.8-24.2-128.8-38.3v0c-13.6-5.5-25.8-11.1-36.8-17c-19.6-10.5-34.7-21.5-45-32.9
	c-10.3-11.4-15.6-23.3-15.6-35.4v-0.1c-3.3-27.7,16.4-52.9,54.9-75.1c38.5-22.2,95.5-41.4,166.2-57.1C543.4,34.4,739.6,17,951.8,17
	s406.2,16.1,546.1,46.4c70,15.2,126.4,33.8,164.9,55.8C1701.3,141.2,1721.6,166.4,1719.8,194.5z"/>
<path class="st1" d="M1662.8,119.2c-38.5-22-94.9-40.7-164.9-55.8C1357.9,33.1,1164,17,951.8,17S543.4,34.4,401.9,65.7
	c-70.7,15.7-127.7,34.9-166.2,57.1c-38.5,22.2-58.3,47.4-54.9,75.1v0.1c0,12.1,5.4,24,15.6,35.4c10.3,11.4,25.4,22.4,45,32.9
	c10.9,5.9,23.2,11.5,36.8,17v0c35,14.1,78.5,27,128.8,38.3C546.8,352.9,739.6,372,951.8,372s404.3-19.9,543.3-52.1
	c51.7-12,96.1-25.7,131.4-40.7c12.1-5.1,23.2-10.4,33.1-15.9c19.4-10.6,34.5-21.8,44.6-33.3c10.2-11.5,15.5-23.4,15.5-35.5v0
	C1721.6,166.4,1701.3,141.2,1662.8,119.2z M1696,227.9c-10.1,10-25,19.7-44.2,28.9c-9.8,4.7-20.8,9.3-32.8,13.7
	c-34.9,12.9-78.6,24.7-129.5,35c-136.8,27.6-325,44.5-530.8,44.5s-394-15.5-530.7-41.8c-56.9-10.9-104.8-23.7-141.4-38
	c-7.4-2.9-14.4-5.8-20.8-8.8c-19.2-8.9-34.1-18.4-44.2-28.2c-10.1-9.9-15.3-20.1-15.3-30.7v-0.1c-1.6-12.1,2.4-23.7,11.6-34.9
	c9.2-11.2,23.5-21.8,42.4-31.9C298,115.5,353.9,97.7,423.1,83C561.5,53.7,753,36.5,958.7,36.5s394,18.8,530.8,48.3
	c68.4,14.8,123.9,32.2,162.3,51.3c19.2,9.6,34.1,19.5,44.2,29.7c10.1,10.2,15.3,20.7,15.3,31.2
	C1711.3,207.6,1706.1,217.9,1696,227.9z"/>
<path class="st1" d="M1711.3,197c0,10.6-5.2,20.9-15.3,30.9c-10.1,10-25,19.7-44.2,28.9c-9.8,4.7-20.8,9.3-32.8,13.7
	c-0.6-0.6-1.2-1.2-1.9-1.8c-2.5-2.2-5.4-4.5-8.6-6.8c-8.2-5.8-18.6-11.6-30.9-17.4c-34.4-16.2-84.1-32.1-145.3-46.1
	c-13.7-3.1-27.9-6.2-42.7-9.1c-117.6-23.3-268.9-39.4-432.6-39.4c-184.3,0-356.3,19.8-481.2,47.4c-15.2,3.4-29.7,6.8-43.4,10.4h0
	c-42.7,11.1-78.1,23.2-104.2,35.5c-4.3,2-8.3,4-12.1,6.1c-11.5,6.2-20.6,12.4-27.1,18.5c-0.8,0.8-1.6,1.6-2.4,2.4
	c-7.4-2.9-14.4-5.8-20.8-8.8c-19.2-8.9-34.1-18.4-44.2-28.2c-10.1-9.9-15.3-20.1-15.3-30.7v-0.1c-1.6-12.1,2.4-23.7,11.6-34.9
	c9.2-11.2,23.5-21.8,42.4-31.9C298,115.5,353.9,97.7,423.1,83C561.5,53.7,753,36.5,958.7,36.5s394,18.8,530.8,48.3
	c68.4,14.8,123.9,32.2,162.3,51.3c19.2,9.6,34.1,19.5,44.2,29.7C1706,176,1711.3,186.4,1711.3,197z"/>
<path class="st2" d="M296.8,141l21,118.5l116.5-40l-20.5-120l7.5-11.5l-124.5,34V141z"/>
<path class="st2" d="M233.3,832.5c-22.4,39.2-58,103.7-73,131l386,419.5c99.2,50,269.4,122.3,157,11.5
	C562.8,1256,478.8,924,437.3,821s-73-67-123.5-56S261.3,783.5,233.3,832.5z"/>
<path class="st3" d="M1772.3,720.9c109.1,0,193.3,31.4,250.1,85.2c56.8,53.7,86.4,129.8,86.4,219.3c-4,179.1-164.7,333.2-347,333.5
	v-137c109.8-0.3,206.8-96.4,210-198v0c-0.3-57.7-18.8-94.9-43.5-118.3c-25.6-24.2-72.9-47.7-156-47.7c-120.2,0-202.5,86.4-202.5,177
	c0,101.6,82.9,186.7,191,187v137h-1.6l0,0c-180.1-1.1-324.1-143.5-326.3-319.8l0-2.1l0-2.1C1432.8,856,1589.7,720.9,1772.3,720.9z"
	/>
<path class="st2" d="M1829.3,737.4c2.5-1.6,22.5,0.5,35,2l0.1,0c14.4,2.5,17.5,3,48.4,13.5c38.6,13.1,103.5,49.5,134.5,99
	c16.7,26.6,30.5,61,39,89c9.9,32.6,10.5,79.5,9.5,87s-3.5,33.5-7.5,35s0.5-22,0-35s-2-40.5-6-60.5s-25.5-64.4-38-89
	c-13.5-26.5-23-33.5-41.5-56.5s-62-44-83-55.5c-32.5-17.8-66-19-80-22.5C1831.5,741.8,1823.8,740.9,1829.3,737.4z"/>
<path class="st2" d="M1951.3,821.5c-14,19.5-33,34.5-41,32c-5.5-2.5-8.8-8.5-8-12.5c1-5,16-12,22.5-19.5s26.5-42.5,35.5-58.5
	s13-33,15-32.5s6.5,24.5,6.5,35S1965.3,802,1951.3,821.5z"/>
<path class="st4" d="M2038.8,1055.9c-12.4-8.8-45.2-43-60-59c-34.7-33.3-112.3-103.7-145.5-118.5c-41.5-18.5-95.5-21.5-87.5-35
	c6.4-10.8,25.3-17.5,34-19.5c23-8,84.3-17.4,145.5,9c76.5,33,113.5,104.5,127,155S2054.3,1066.9,2038.8,1055.9z"/>
<path class="st4" d="M148.5,1131.7c-10.3-32.8-19.4-65.8-27.4-98.7c-7.6-31.5-71.3-435.6-55.7-435.6c0,0,1767.5,5,1767.5,5
	c0.5,4.5,1.2,21.4,0,55c-1.5,42-1.1,135.5-28.5,268c-15,72.5-85,282.5-120,359.5c-17.9,39.4-65.5,137.5-153,250.5
	s-187.5,181.5-279.5,240.5c-73.6,47.2-190.2,73.5-237,79c-19.7,0-212.5,14.5-354.5-79c-115.2-75.9-227.3-160.2-315.7-267.1
	C254.8,1400.2,191.3,1267.5,148.5,1131.7z"/>
<path class="st4" d="M1876.3,1409.9c0,287.5-419.7,520.5-937.5,520.5c-517.8,0-937.5-233-937.5-520.5
	C-27.2,991.4,421,889.4,938.8,889.4C1456.6,889.4,1945.8,972.9,1876.3,1409.9z"/>
<path class="st2" d="M1682.8,297c-0.4,2.4-0.9,5.2-1.5,8.2c-5.9,31.6-18.8,94.7-33,148.3c-4.8,18.1-8.2,33.5-10.9,46.5
	c-8.3,39.9-9.9,56.2-23.1,51c-17.4-6.9-40.6-17.3-46.4-34.1c0-0.1-0.1-0.3-0.1-0.4c-5.5-17-11-41-5.5-75.5c3.6-22.7,2.5-67.1,1-96.9
	c-0.1-2.7-0.3-5.3-0.4-7.7c-0.2-3.4-0.4-6.6-0.6-9.4l56.7-14.1L1682.8,297z"/>
</svg>
