<svg width="2110" height="1593" viewBox="0 0 2110 1593" fill="none" xmlns="http://www.w3.org/2000/svg">
<path d="M1400.29 152L1388.79 192L1607.79 267L1624.29 147.5L1647.29 137V126L1663.79 114.5L1470.29 52L1462.29 57L1450.79 64L1443.29 79L1425.29 114.5L1400.29 152Z" fill="white" stroke="white"/>
<path d="M180.789 197.97L180.785 197.94C177.448 170.26 197.204 145.068 235.705 122.823C274.176 100.595 331.187 81.4216 401.923 65.7383C543.383 34.3739 739.595 17 951.789 17C1163.99 17 1357.95 33.1237 1497.91 63.4258C1567.89 78.5779 1624.34 97.2687 1662.81 119.239C1701.31 141.224 1721.64 166.394 1719.79 194.467L1719.79 194.483V194.5C1719.79 206.632 1714.48 218.517 1704.3 230.042C1694.12 241.57 1679.07 252.715 1659.66 263.347C1620.83 284.611 1564.6 303.777 1495.09 319.878C1356.06 352.079 1163.98 372 951.789 372C739.599 372 546.762 352.953 406.987 321.627C337.095 305.963 280.498 287.234 241.386 266.298C221.83 255.829 206.669 244.821 196.403 233.389C186.14 221.959 180.789 210.13 180.789 198V197.97Z" stroke="#FF0000"/>
<path d="M975.789 0.5C1203.75 0.5 1418.53 21.8931 1576.3 56.7061C1655.19 74.1134 1719.8 94.8702 1764.67 117.971C1787.11 129.521 1804.59 141.645 1816.46 154.209C1828.32 166.771 1834.54 179.74 1834.54 193C1834.54 206.273 1828.8 219.263 1817.82 231.849C1806.83 244.437 1790.6 256.597 1769.66 268.192C1727.79 291.383 1667.18 312.264 1592.29 329.796C1442.53 364.857 1235.75 386.5 1007.79 386.5C779.818 386.5 543.975 369.045 365.135 336.387C275.712 320.057 200.568 299.93 147.793 276.298C121.404 264.481 100.636 251.8 86.4724 238.301C72.3116 224.804 64.7888 210.527 64.7888 195.5L64.7937 194.796C65.0098 180.012 72.0312 165.904 85.1101 152.515C98.4 138.909 117.918 126.074 142.805 114.071C192.579 90.0668 263.72 69.4419 349.142 52.6123C519.979 18.9548 747.82 0.5 975.789 0.5Z" stroke="#FF0000"/>
<path d="M206.289 202.467L206.285 202.434C204.671 190.373 208.71 178.733 217.886 167.571C227.071 156.401 241.387 145.73 260.265 135.648C298.021 115.485 353.906 97.7416 423.099 83.0479C561.476 53.6626 752.951 36.5 958.74 36.5C1164.53 36.5 1352.75 55.2775 1489.52 84.7832C1557.91 99.5369 1613.4 116.968 1651.79 136.061C1670.98 145.607 1685.87 155.558 1695.96 165.776C1706.04 175.994 1711.29 186.442 1711.29 197C1711.29 207.556 1706.05 217.886 1695.96 227.897C1685.88 237.911 1670.99 247.569 1651.79 256.765C1613.41 275.155 1557.91 291.648 1489.52 305.465C1352.76 333.096 1164.53 350 958.74 350C752.949 350 564.744 334.471 428 308.214C359.623 295.084 304.141 279.278 265.764 261.402C246.575 252.464 231.69 243.022 221.609 233.159C211.53 223.299 206.289 213.056 206.289 202.5V202.467Z" stroke="#FF0000"/>
<path d="M956.903 150C1141.18 150 1309.74 170.496 1432.22 198.526C1493.46 212.542 1543.16 228.437 1577.54 244.585C1594.73 252.66 1608.07 260.788 1617.1 268.758C1626.14 276.739 1630.79 284.491 1630.79 291.814C1630.79 299.136 1626.15 306.784 1617.1 314.583C1608.08 322.372 1594.74 330.24 1577.55 338.005C1543.17 353.532 1493.47 368.6 1432.22 381.787C1309.75 408.161 1141.18 427 956.903 427C772.614 427 608.619 411.752 487.71 387.175C427.254 374.886 377.588 360.267 341.549 344.067C323.529 335.967 308.932 327.478 298.099 318.699C287.281 309.932 280.249 300.902 277.281 291.709C276.33 284.04 280.314 276.044 288.94 267.885C297.575 259.717 310.785 251.464 328.057 243.319C362.595 227.032 413.26 211.231 475.719 197.402C600.63 169.747 772.622 150 956.903 150Z" stroke="#FF0000"/>
<path d="M296.789 141L317.789 259.5L434.289 219.5L413.789 99.5L421.289 88L296.789 122V141Z" fill="white"/>
<path d="M1682.79 297L1562.29 327C1564.12 353.5 1566.69 413.4 1562.29 441C1556.79 475.5 1562.29 499.5 1567.79 516.5C1573.29 533.5 1596.79 544 1614.29 551C1631.79 558 1628.79 527 1648.29 453.5C1663.89 394.7 1677.79 324.667 1682.79 297Z" fill="white"/>
<path d="M233.289 832.5C210.889 871.7 175.289 936.167 160.289 963.5L546.289 1383C645.455 1433 815.689 1505.3 703.289 1394.5C562.789 1256 478.789 924 437.289 821C395.789 718 364.289 754 313.789 765C263.289 776 261.289 783.5 233.289 832.5Z" fill="white"/>
<path d="M1772.29 383C1881.44 383 1965.56 414.417 2022.38 468.157C2079.2 521.895 2108.79 598.005 2108.79 687.5C2104.79 866.551 1944.12 1020.71 1761.79 1020.99V883.993C1871.57 883.702 1968.57 787.567 1971.78 685.964V685.945C1971.45 628.28 1952.96 591.066 1928.25 567.693C1902.69 543.523 1855.37 520 1772.29 520C1652.12 520 1569.79 606.373 1569.79 697.001C1569.79 798.637 1652.67 883.732 1760.79 883.993V1020.99L1759.15 1020.99H1759.15C1579.03 1019.87 1435.05 877.487 1432.82 701.172L1432.8 699.097L1432.79 697.001C1432.79 518.107 1589.71 383 1772.29 383Z" stroke="#FF0000"/>
<path d="M1829.29 399.5C1831.79 397.909 1851.79 399.999 1864.29 401.5L1864.43 401.525C1878.81 404.003 1881.89 404.535 1912.79 415C1951.43 428.088 2016.29 464.5 2047.29 514C2063.96 540.612 2077.79 575 2086.29 603C2096.2 635.634 2096.79 682.499 2095.79 689.999C2094.79 697.499 2092.29 723.499 2088.29 724.999C2084.29 726.499 2088.79 702.999 2088.29 689.999C2087.79 676.999 2086.29 649.499 2082.29 629.499C2078.29 609.499 2056.82 565.104 2044.29 540.499C2030.79 514 2021.29 507 2002.79 484C1984.29 461 1940.79 440 1919.79 428.5C1887.29 410.702 1853.79 409.5 1839.79 405.999C1831.53 403.934 1823.79 403 1829.29 399.5Z" fill="white"/>
<path d="M1951.29 821.5C1937.29 841 1918.29 856 1910.29 853.5C1904.79 851 1901.49 845 1902.29 841C1903.29 836 1918.29 829 1924.79 821.5C1931.29 814 1951.29 779 1960.29 763C1969.29 747 1973.29 730 1975.29 730.5C1977.29 731 1981.79 755 1981.79 765.5C1981.79 776 1965.29 802 1951.29 821.5Z" fill="white"/>
<path d="M2038.79 718C2026.39 709.2 1993.62 675 1978.79 659C1944.12 625.667 1866.49 555.3 1833.29 540.5C1791.79 522 1737.79 519 1745.79 505.5C1752.19 494.7 1771.12 488 1779.79 486C1802.79 478 1864.09 468.6 1925.29 495C2001.79 528 2038.79 599.5 2052.29 650C2065.79 700.5 2054.29 729 2038.79 718Z" fill="#D9D9D9"/>
<path d="M149.384 793.5C93.0427 631 63.3837 364.5 65.3837 259.5L1832.88 264.5C1833.38 269 1834.08 285.9 1832.88 319.5C1831.38 361.5 1831.8 455 1804.38 587.5C1789.38 660 1719.38 870 1684.38 947C1666.46 986.441 1618.88 1084.5 1531.38 1197.5C1443.88 1310.5 1343.88 1379 1251.88 1438C1178.28 1485.2 1061.72 1511.5 1014.88 1517C995.217 1517 802.384 1531.5 660.384 1438C622.384 1412.98 448.384 1295 365.384 1197.5C269.187 1084.5 209.539 967 149.384 793.5Z" fill="#D9D9D9" stroke="#AEA6A1"/>
<path d="M1876.29 1072C1876.29 1359.46 1456.56 1592.5 938.789 1592.5C421.022 1592.5 1.28893 1359.46 1.28893 1072C-27.2111 653.5 421.022 551.5 938.789 551.5C1456.56 551.5 1945.79 635 1876.29 1072Z" fill="#D9D9D9"/>
</svg>
