<svg width="328" height="145" viewBox="0 0 328 145" fill="none" xmlns="http://www.w3.org/2000/svg">
<g opacity="0.8">
<g opacity="0.5" clip-path="url(#clip0_136_254)">
<path d="M252.187 135.571C250.973 135.571 250.108 135.224 249.613 134.536C249.044 133.748 249.033 132.573 249.579 131.139C250.188 129.542 250.905 127.986 251.735 126.183C252.038 125.526 252.348 124.852 252.676 124.129L249.019 125.763C248.929 125.804 248.825 125.799 248.739 125.752C248.652 125.705 248.591 125.619 248.576 125.522C247.943 121.553 248.458 117.18 249.991 113.527C251.717 109.411 254.55 106.419 258.186 104.873C262.921 102.86 268.173 103.094 272.218 103.521C275.257 103.843 279.188 104.441 282.656 106.221C284.906 107.377 286.614 108.981 287.877 111.125C288.791 112.677 289.488 114.508 290.094 116.976C291.183 113.968 290.465 110.661 287.914 106.902C285.867 103.885 282.102 102.756 278.42 101.858C274.36 100.868 270.014 100.648 265.852 101.221C263.797 101.504 261.775 101.979 259.844 102.631C259.585 102.719 259.29 102.811 258.978 102.91C257.477 103.383 255.42 104.031 254.542 104.975C254.422 105.104 254.221 105.111 254.093 104.991C253.965 104.87 253.957 104.668 254.077 104.54L265.929 91.8114C266.235 91.4826 266.541 91.1554 266.846 90.8282C270.077 87.3704 273.129 84.1049 275.566 80.114C279.981 72.8832 282.847 64.1425 284.327 53.3932C285.256 46.646 283.574 40.1701 279.591 35.1585C275.489 29.9961 269.348 26.8145 262.301 26.2008C259.375 25.9462 257.365 26.4673 256.389 29.8509C255.524 32.8499 254.371 36.2749 252.378 38.9419C250.481 41.4804 247.54 45.0555 243.92 46.7785C240.604 48.3569 236.925 49.2906 233.03 50.2786C231.251 50.7302 229.411 51.1971 227.493 51.7493C227.378 51.7828 227.254 51.7477 227.172 51.6599C227.09 51.5721 227.066 51.4453 227.107 51.3319L227.388 50.5666C229.477 44.8744 231.449 39.4973 234.258 34.7803C237.24 29.7751 240.782 26.1513 245.354 23.4444C238.054 22.253 236.215 16.7786 234.434 11.4774C234.088 10.4479 233.731 9.38415 233.339 8.37546C232.656 6.61264 232.023 4.87216 231.354 3.02954C231.056 2.20918 230.747 1.36089 230.436 0.514987C230.399 0.413639 230.415 0.300321 230.479 0.214135C230.544 0.127949 230.646 0.0792698 230.754 0.0864519C236.244 0.430397 241.121 0.862125 245.222 2.67203C247.331 3.60252 249.165 4.8578 250.829 6.50969C252.593 8.25975 254.179 10.4631 255.678 13.245C257.13 15.9415 258.633 16.8823 261.224 16.7195C261.844 16.6804 262.467 16.7507 263.068 16.8185C263.466 16.8632 263.877 16.9095 264.274 16.9222C269.695 17.0914 274.703 18.1081 279.158 19.9443C283.29 21.6481 287.109 24.1251 290.509 27.3076C296.318 32.7453 301.119 40.2882 305.617 51.0462C310.421 62.5329 309.041 74.6747 307.707 86.4168L307.697 86.5014C306.821 94.2118 304.823 102.36 301.919 110.065C300.59 113.592 298.797 116.795 296.589 119.583C294.518 122.199 292.017 124.533 289.155 126.52C284.049 130.064 277.737 132.616 269.857 134.319C265.726 135.213 261.367 135.315 257.152 135.415C255.629 135.451 254.055 135.488 252.519 135.562C252.406 135.567 252.296 135.57 252.189 135.57L252.187 135.571ZM253.31 123.178C253.392 123.178 253.474 123.211 253.534 123.272C253.627 123.366 253.654 123.508 253.6 123.628C253.142 124.652 252.72 125.567 252.313 126.452C251.487 128.244 250.774 129.792 250.173 131.368C249.707 132.591 249.691 133.557 250.128 134.163C250.534 134.725 251.327 134.982 252.488 134.925C254.031 134.851 255.609 134.813 257.136 134.777C261.322 134.678 265.65 134.576 269.722 133.696C286.287 130.114 296.624 122.311 301.324 109.84C304.209 102.183 306.195 94.0881 307.064 86.4296L307.074 86.345C308.399 74.6843 309.769 62.6263 305.03 51.2936C298.228 35.03 288.065 18.3036 264.254 17.5606C263.831 17.5471 263.407 17.4992 262.997 17.4529C262.396 17.3851 261.828 17.3204 261.264 17.3563C258.414 17.5359 256.691 16.469 255.118 13.5482C249.212 2.58425 242.149 1.45745 231.202 0.754393C231.456 1.44787 231.707 2.13895 231.951 2.81088C232.62 4.65031 233.251 6.3876 233.933 8.14324C234.329 9.1655 234.689 10.2372 235.037 11.2731C236.91 16.8504 238.68 22.1181 246.363 22.9353C246.502 22.9497 246.614 23.0526 246.641 23.1899C246.669 23.3263 246.605 23.4652 246.483 23.5322C235.818 29.4383 232.188 39.3314 227.985 50.7877L227.92 50.9641C229.63 50.4821 231.277 50.0647 232.874 49.6593C236.738 48.6793 240.388 47.7536 243.648 46.2015C247.141 44.5392 250.014 41.0431 251.87 38.5589C253.802 35.9741 254.93 32.6168 255.779 29.6737C256.282 27.9285 257.086 26.7722 258.237 26.1393C259.25 25.5815 260.521 25.4044 262.357 25.5648C269.579 26.1936 275.876 29.4599 280.089 34.7603C284.182 39.9099 285.911 46.5582 284.957 53.481C283.465 64.3197 280.571 73.1402 276.109 80.4484C273.638 84.4944 270.565 87.7838 267.31 91.2655C267.005 91.5919 266.699 91.9191 266.394 92.2479L256.173 103.226C257.043 102.853 257.99 102.554 258.788 102.302C259.098 102.205 259.39 102.112 259.643 102.027C261.612 101.361 263.673 100.878 265.768 100.589C270.008 100.005 274.435 100.23 278.572 101.238C282.374 102.166 286.267 103.339 288.441 106.543C291.342 110.818 291.965 114.718 290.292 118.136C290.233 118.258 290.105 118.33 289.97 118.313C289.835 118.297 289.726 118.198 289.697 118.065C288.564 112.974 286.884 109.108 282.369 106.789C278.995 105.057 275.137 104.472 272.154 104.156C268.184 103.735 263.037 103.504 258.436 105.461C251.026 108.611 248.153 117.788 249.146 125.009L253.183 123.205C253.224 123.187 253.269 123.177 253.313 123.177L253.31 123.178ZM261.376 126.658C260.78 126.658 260.194 126.528 259.806 125.876C259.335 125.084 259.237 124.197 259.515 123.241C260.168 120.993 262.707 119.001 264.153 118.274C265.579 117.557 267.201 117.132 268.847 117.045C269.082 117.031 270.279 117.143 271.311 117.271C273.595 117.557 273.715 117.73 273.811 117.87C273.882 117.974 273.895 118.103 273.845 118.215C272.545 121.168 270.539 123.482 268.044 124.905C266.297 125.902 264.301 126.49 262.272 126.607C262.177 126.612 262.081 126.619 261.986 126.626C261.787 126.642 261.581 126.658 261.376 126.658ZM268.919 117.681C268.904 117.681 268.891 117.681 268.88 117.682C267.321 117.764 265.786 118.166 264.438 118.843C262.987 119.573 260.691 121.475 260.125 123.419C259.899 124.198 259.975 124.915 260.352 125.548C260.656 126.059 261.153 126.049 261.939 125.99C262.038 125.983 262.137 125.975 262.235 125.97C264.168 125.859 266.068 125.299 267.729 124.351C270.031 123.037 271.899 120.921 273.144 118.219C272.308 117.999 269.427 117.681 268.919 117.681ZM235.286 46.488C234.836 46.488 234.463 46.3914 234.201 46.1233C233.868 45.7817 233.796 45.2295 233.979 44.4371C234.598 41.7701 236.01 38.8845 238.177 35.8616C241.99 30.5428 247.409 26.6572 253.437 24.92C253.605 24.8713 253.782 24.9694 253.83 25.1386C253.879 25.3078 253.781 25.485 253.612 25.5336C253.564 25.548 253.302 25.6685 252.925 26.6756C252.674 27.3443 252.462 28.1631 252.308 28.7608C252.212 29.1271 252.138 29.4168 252.077 29.5939C251.437 31.4294 250.603 33.2193 249.6 34.9135C248.522 36.7338 246.742 39.4008 244.387 41.7669C241.946 44.22 239.508 45.7147 237.141 46.2103C236.453 46.3539 235.817 46.488 235.286 46.488ZM237.011 45.5854C242.866 44.3597 247.709 36.8575 249.053 34.5871C250.035 32.9297 250.851 31.1788 251.476 29.3833C251.53 29.2308 251.605 28.9388 251.693 28.6004C251.973 27.5175 252.247 26.5359 252.581 25.8544C247.105 27.6827 242.204 31.3368 238.693 36.2342C236.576 39.1885 235.198 41.9967 234.599 44.5815C234.51 44.9638 234.448 45.4641 234.656 45.6772C234.98 46.0108 236.013 45.7945 237.011 45.5854ZM252.019 20.6386C250.005 20.6386 247.669 20.3681 246.176 19.5804C244.246 18.5629 242.33 16.6286 240.319 13.6687C238.438 10.9012 237.042 7.81765 235.69 4.83545C235.641 4.72613 235.656 4.59924 235.731 4.50507C235.805 4.41091 235.925 4.36702 236.042 4.39016C236.528 4.48752 237.034 4.57291 237.522 4.6567C238.167 4.76682 238.835 4.88014 239.487 5.02379C240.748 5.3015 241.726 5.64784 242.564 6.11228C244.272 7.06112 245.974 8.31561 247.624 9.84142C250.979 12.9449 253.142 16.5264 253.879 20.2005C253.897 20.2899 253.876 20.3832 253.821 20.4566C253.766 20.5293 253.682 20.5755 253.591 20.5819C253.108 20.6178 252.575 20.6386 252.019 20.6386ZM236.523 5.13072C237.786 7.91261 239.112 10.7583 240.845 13.3088C242.796 16.1801 244.637 18.0466 246.471 19.0146C248.057 19.8509 250.913 20.0927 253.178 19.9683C252.201 15.6685 249.401 12.3544 247.192 10.3107C245.579 8.81916 243.918 7.5942 242.255 6.6701C241.473 6.23597 240.55 5.91038 239.349 5.64624C238.713 5.50579 238.053 5.39407 237.414 5.28474C237.121 5.23446 236.821 5.18339 236.522 5.12992L236.523 5.13072Z" fill="#404235"/>
<path d="M295.72 124.833C295.65 124.833 295.579 124.81 295.521 124.763C295.384 124.652 295.362 124.452 295.472 124.315C296.141 123.481 296.831 122.644 297.499 121.834C300.227 118.526 303.046 115.105 304.988 111.188C307.271 106.586 309.102 101.826 310.433 97.0399C313.064 87.5786 313.858 77.5627 312.795 67.2699C312.49 64.3156 312.025 61.2792 311.415 58.2451C310.18 52.1123 307.542 46.4273 305.381 42.1595C304.175 39.7782 302.552 37.5749 300.982 35.4442C299.362 33.2448 297.686 30.9705 296.434 28.4655C294.137 23.8689 294.038 18.2708 296.169 13.4899C296.502 12.7422 296.933 12.3743 297.455 12.3998C297.952 12.4229 298.309 12.8339 298.444 13.2305C298.563 13.5825 298.549 13.9504 298.537 14.2743L298.534 14.3294C298.297 20.9921 301.608 27.7265 307.389 32.3431C309.614 34.1194 311.468 36.0443 312.899 38.064C314.53 40.3663 315.622 42.8083 316.142 45.3228C316.752 48.2651 316.311 51.0502 315.884 53.7435C315.483 56.2804 315.067 58.9035 315.559 61.6119C315.823 63.0651 316.402 65.0163 317.673 66.6442C317.086 63.2974 317.53 59.838 318.957 56.7855C319.015 56.6626 319.143 56.59 319.279 56.6036C319.413 56.6179 319.524 56.7161 319.555 56.8478C319.756 57.7017 319.972 58.5763 320.181 59.4222C321.477 64.6612 322.819 70.0781 321.589 75.4855C321.386 76.3761 321.148 77.2698 320.918 78.1349C320.651 79.1356 320.376 80.1698 320.157 81.1953C320.034 81.7707 319.976 82.4179 319.915 83.1018C319.895 83.3156 319.876 83.5311 319.854 83.7466C321.632 80.2808 323.909 76.5556 327.519 74.4512C327.52 74.4512 327.521 74.4496 327.522 74.4496C327.674 74.3611 327.869 74.4129 327.957 74.5654C328.045 74.7178 327.994 74.9133 327.842 75.0019C327.842 75.0019 327.84 75.0019 327.84 75.0027C327.317 75.3115 326.776 77.3656 326.516 78.3528C326.44 78.64 326.374 78.8882 326.322 79.0606C325.835 80.6423 325.537 81.9199 325.559 83.4002C325.612 86.8907 325.361 89.9519 324.79 92.7578C323.714 98.0494 321.45 103.358 318.244 108.111C315.074 112.807 311.022 116.909 306.525 119.973C304.861 121.108 303.104 122.094 301.304 122.904C300.877 123.097 300.144 123.286 299.295 123.504C298.044 123.826 296.33 124.267 295.97 124.71C295.97 124.71 295.969 124.712 295.968 124.713C295.905 124.791 295.813 124.832 295.72 124.832V124.833ZM297.411 13.0366C297.113 13.0366 296.87 13.4819 296.75 13.75C294.695 18.357 294.79 23.7508 297.002 28.1782C298.23 30.6345 299.889 32.8857 301.493 35.0635C303.078 37.2158 304.718 39.4406 305.948 41.869C308.127 46.1727 310.788 51.9088 312.038 58.1174C312.653 61.1714 313.12 64.2286 313.428 67.2029C314.499 77.5755 313.698 87.672 311.046 97.2107C309.705 102.036 307.858 106.834 305.558 111.472C303.584 115.455 300.739 118.904 297.99 122.24C297.646 122.657 297.296 123.081 296.946 123.509C297.546 123.303 298.289 123.106 299.137 122.887C299.923 122.684 300.666 122.493 301.043 122.324C302.809 121.528 304.533 120.56 306.167 119.447C315.287 113.232 322.016 103.207 324.166 92.6317C324.727 89.8713 324.974 86.8556 324.923 83.4114C324.899 81.8465 325.207 80.5146 325.713 78.8731C325.762 78.7135 325.826 78.4709 325.9 78.1908C326.13 77.3169 326.363 76.4798 326.626 75.8111C323.156 78.4206 321.064 82.6892 319.349 86.1877C319.274 86.3417 319.091 86.4079 318.934 86.3385C318.779 86.2691 318.705 86.0879 318.768 85.9283C319.094 85.1112 319.189 84.061 319.279 83.0451C319.34 82.3716 319.403 81.6757 319.534 81.062C319.756 80.0206 320.034 78.9784 320.302 77.9705C320.531 77.111 320.768 76.2228 320.968 75.3442C322.163 70.0853 320.841 64.7434 319.562 59.577C319.428 59.0351 319.291 58.4813 319.157 57.9283C317.947 60.9927 317.724 64.4138 318.538 67.6625C318.573 67.8006 318.511 67.945 318.389 68.016C318.267 68.0879 318.112 68.0687 318.009 67.9705C316.063 66.0984 315.262 63.5423 314.933 61.7277C314.421 58.9122 314.845 56.2341 315.255 53.6445C315.673 51.0079 316.105 48.2819 315.518 45.4537C314.562 40.8403 311.694 36.5981 306.992 32.8434C304.192 30.6074 301.871 27.772 300.278 24.6438C298.597 21.3392 297.773 17.7657 297.897 14.3079L297.899 14.252C297.91 13.9567 297.921 13.6774 297.839 13.4364C297.774 13.2457 297.611 13.047 297.422 13.0382C297.417 13.0382 297.413 13.0382 297.408 13.0382L297.411 13.0366Z" fill="#404235"/>
<path d="M257.791 97.0511C257.69 97.0511 257.592 97.004 257.53 96.9154C257.53 96.9154 257.53 96.9146 257.529 96.9138C256.988 96.1398 256.546 95.2635 256.215 94.3083C255.202 91.3939 255.161 87.6816 256.089 82.9589C256.977 78.4373 259.191 74.211 262.493 70.7357C266.097 66.9427 268.908 63.3851 271.086 59.8595C272.507 57.5604 274.349 54.077 273.944 50.3886C273.826 49.3185 272.235 44.4705 270.686 43.3924C270.452 43.2288 270.246 43.1737 270.056 43.2216C269.886 43.2655 269.712 43.1618 269.67 42.991C269.627 42.8202 269.729 42.6462 269.899 42.6031C271.061 42.3071 272.31 42.4427 273.511 42.995C274.636 43.5121 275.627 44.3668 276.302 45.4002C278.755 49.1589 277.565 54.3476 276.515 58.925C276.183 60.371 275.869 61.7372 275.691 62.9717C275.546 63.982 275.741 64.6659 276 64.7968C276.2 64.8982 276.58 64.6995 277.016 64.2661C277.873 63.4146 279.171 60.8267 278.987 59.6791C278.959 59.5052 279.077 59.3416 279.25 59.3136C279.424 59.2857 279.587 59.4038 279.614 59.5778C280.141 62.8736 279.844 66.266 278.753 69.387C277.677 72.4642 275.823 75.3083 273.391 77.6122C272.002 78.9273 270.43 80.1156 268.91 81.2655C266.852 82.8216 264.723 84.4312 263.041 86.3664C262.024 87.5363 260.985 89.1196 259.865 91.2072C258.09 94.5166 257.764 96.1366 258.05 96.5499C258.05 96.5499 258.05 96.5499 258.05 96.5507C258.151 96.6952 258.116 96.8939 257.972 96.9952C257.916 97.0343 257.853 97.0527 257.79 97.0527L257.791 97.0511ZM271.332 43.0979C273.012 44.6501 274.462 49.2929 274.575 50.3184C275.002 54.2031 273.097 57.8158 271.626 60.1954C269.424 63.7594 266.587 67.3513 262.953 71.1762C259.734 74.5638 257.577 78.6807 256.712 83.0826C255.807 87.6903 255.841 91.2942 256.814 94.0984C256.98 94.5772 257.176 95.0353 257.399 95.4678C257.492 94.9938 257.675 94.4224 257.949 93.7425C258.446 92.5056 259.093 91.299 259.306 90.9032C260.448 88.7733 261.513 87.1517 262.563 85.9451C264.288 83.9604 266.444 82.3301 268.529 80.754C270.034 79.6152 271.592 78.4373 272.955 77.1469C277.296 73.0355 279.515 67.5308 279.211 61.7899C278.743 62.9933 277.99 64.1967 277.463 64.7194C276.784 65.3937 276.195 65.6116 275.713 65.3666C275.019 65.0147 274.921 63.852 275.062 62.88C275.244 61.6199 275.56 60.2409 275.895 58.7814C276.916 54.3276 278.075 49.2802 275.769 45.7497C274.742 44.176 273.012 43.1817 271.332 43.0987V43.0979Z" fill="#404235"/>
<path d="M263.961 125.554C263.815 125.554 263.684 125.452 263.651 125.304C263.595 125.054 263.512 124.805 263.423 124.541C263.311 124.21 263.196 123.868 263.137 123.513C262.885 122.003 263.815 120.424 265.254 119.917C266.077 119.628 266.905 119.692 267.647 120.106C268.549 120.608 269.24 121.587 269.496 122.726C269.535 122.899 269.427 123.07 269.256 123.108C269.085 123.146 268.915 123.038 268.876 122.867C268.659 121.902 268.085 121.079 267.34 120.664C266.761 120.342 266.113 120.292 265.464 120.52C264.327 120.92 263.565 122.214 263.764 123.406C263.815 123.711 263.917 124.014 264.025 124.336C264.116 124.604 264.209 124.881 264.272 125.164C264.31 125.337 264.202 125.507 264.031 125.546C264.008 125.551 263.984 125.554 263.961 125.554Z" fill="#404235"/>
<path d="M300.009 112.979C299.978 112.979 299.947 112.975 299.916 112.965C299.748 112.913 299.654 112.734 299.705 112.566C300.333 110.511 300.092 108.432 299.057 107.004C298.021 105.573 295.785 104.713 294.111 105.714C293.981 105.791 293.814 105.766 293.713 105.654C293.611 105.541 293.603 105.372 293.693 105.25C294.652 103.949 294.831 101.921 294.137 100.203C293.486 98.5928 291.963 97.3703 290.256 97.087C288.549 96.8037 286.715 97.47 285.584 98.7852C285.499 98.8833 285.363 98.9208 285.241 98.8785C285.119 98.837 285.034 98.7245 285.026 98.5944C284.874 95.9314 282.929 93.5318 280.401 92.8886C277.877 92.2462 274.942 93.4384 273.572 95.6609C273.485 95.8022 273.305 95.8532 273.157 95.7774C273.01 95.7024 272.945 95.5261 273.007 95.372C273.645 93.8023 272.529 91.7546 271.104 90.9734C269.654 90.1785 267.627 90.6526 266.677 92.0084C266.576 92.1528 266.378 92.1871 266.235 92.0858C266.091 91.9844 266.056 91.7849 266.157 91.6413C267.285 90.0325 269.689 89.4699 271.409 90.4132C272.252 90.876 272.986 91.694 273.422 92.6564C273.671 93.2062 273.804 93.7608 273.822 94.2915C275.504 92.4952 278.152 91.6573 280.557 92.2693C283.128 92.9237 285.152 95.2212 285.584 97.8738C286.86 96.7255 288.666 96.1756 290.36 96.4565C292.28 96.7749 293.994 98.1515 294.726 99.963C295.374 101.567 295.348 103.36 294.701 104.779C295.393 104.593 296.154 104.603 296.921 104.813C297.98 105.105 298.946 105.767 299.57 106.629C300.721 108.218 300.999 110.507 300.312 112.754C300.27 112.891 300.144 112.979 300.008 112.979H300.009Z" fill="#404235"/>
<path d="M303.669 103.257C303.649 103.257 303.628 103.256 303.608 103.252C303.435 103.218 303.323 103.051 303.356 102.877C303.75 100.847 302.925 98.6256 301.303 97.3504C299.681 96.0743 297.335 95.8014 295.466 96.6705C295.367 96.7167 295.251 96.708 295.16 96.6489C295.068 96.5891 295.013 96.4869 295.014 96.3776C295.038 93.9716 293.699 91.84 291.604 90.9471C289.458 90.0333 286.801 90.5409 285.14 92.1824C285.037 92.2845 284.877 92.3037 284.752 92.2279C284.627 92.1521 284.57 92.0013 284.612 91.8616C285.268 89.6958 283.975 87.0248 281.789 86.0281C279.734 85.0912 277.118 85.8621 275.703 87.8204C275.623 87.9322 275.48 87.9792 275.348 87.9369C275.217 87.8946 275.128 87.7725 275.128 87.6345C275.127 87.3105 275.138 87.0001 275.15 86.7C275.204 85.2668 275.244 84.231 273.94 83.2103C273.802 83.1018 273.777 82.9015 273.885 82.7626C273.993 82.6237 274.193 82.599 274.331 82.7075C275.892 83.9293 275.841 85.2875 275.786 86.7255C275.786 86.7319 275.786 86.7391 275.786 86.7455C276.473 86.0544 277.33 85.5317 278.268 85.242C279.548 84.8462 280.893 84.9188 282.053 85.4479C284.216 86.4335 285.598 88.885 285.398 91.1306C287.229 89.7979 289.761 89.4675 291.853 90.3597C294.047 91.2942 295.496 93.4401 295.64 95.9083C297.639 95.1718 300.017 95.5269 301.697 96.8484C303.502 98.2681 304.42 100.74 303.982 103C303.953 103.153 303.819 103.259 303.67 103.259L303.669 103.257Z" fill="#404235"/>
<path d="M306.043 92.1584C305.891 92.1584 305.756 92.0491 305.729 91.8935C305.481 90.4419 304.578 89.126 303.316 88.3742C302.091 87.644 300.564 87.4677 299.205 87.893C298.936 88.3806 298.411 88.723 297.856 88.7629C297.748 88.7708 297.643 88.7222 297.579 88.6352C297.514 88.5482 297.498 88.4333 297.537 88.3319C298.385 86.0839 297.177 83.0746 294.901 81.7611C292.739 80.513 289.701 81.0804 288.13 83.0243C288.04 83.1352 287.888 83.1727 287.758 83.1169C287.628 83.0602 287.55 82.9238 287.568 82.7825C287.85 80.5936 286.437 78.2474 284.352 77.4398C282.288 76.641 279.683 77.4438 278.42 79.2681C278.32 79.4125 278.122 79.4484 277.978 79.3479C277.834 79.2473 277.798 79.0486 277.898 78.9034C279.343 76.8141 282.216 75.9283 284.581 76.8437C285.72 77.2842 286.718 78.1397 287.391 79.2521C287.907 80.106 288.197 81.0548 288.236 81.9925C290.093 80.3334 293.049 79.9543 295.219 81.2064C297.552 82.5519 298.867 85.5165 298.315 87.9481C298.478 87.838 298.611 87.6839 298.689 87.5036C298.725 87.4214 298.793 87.3576 298.878 87.3288C300.441 86.7942 302.222 86.9793 303.642 87.8252C305.062 88.6711 306.077 90.1514 306.357 91.785C306.388 91.9589 306.272 92.1241 306.098 92.1536C306.08 92.1568 306.062 92.1584 306.044 92.1584H306.043Z" fill="#404235"/>
<path d="M307.689 81.5839C307.683 81.5839 307.678 81.5839 307.672 81.5839C307.497 81.5743 307.362 81.4243 307.372 81.2488C307.455 79.6639 306.515 78.0854 305.084 77.4103C303.654 76.7352 301.842 77.0137 300.68 78.0894C300.586 78.1764 300.449 78.1987 300.332 78.1453C300.216 78.0918 300.142 77.9737 300.146 77.8452C300.212 75.7696 298.731 73.6939 296.701 73.0172C294.706 72.3517 292.292 73.1545 291.088 74.8846C291.001 75.0083 290.84 75.0545 290.702 74.9947C290.563 74.9348 290.485 74.7856 290.516 74.6372C290.958 72.4706 289.218 70.6088 287.281 70.0598C285.338 69.5099 282.999 70.201 281.324 71.8218C281.197 71.9439 280.996 71.9399 280.874 71.813C280.752 71.6861 280.755 71.4842 280.882 71.3613C282.718 69.5865 285.298 68.834 287.453 69.4445C289.369 69.9871 291.112 71.6749 291.216 73.757C292.683 72.3429 294.966 71.7651 296.901 72.4099C298.975 73.1018 300.541 75.0968 300.758 77.2148C302.089 76.3114 303.892 76.1422 305.353 76.8325C307.012 77.6154 308.102 79.4452 308.005 81.2823C307.997 81.4522 307.856 81.5847 307.688 81.5847L307.689 81.5839Z" fill="#404235"/>
<path d="M308.619 70.0717C308.482 70.0717 308.357 69.9831 308.315 69.845C307.963 68.6815 307.493 67.3457 306.659 66.2611C305.798 65.1415 304.64 64.4528 303.482 64.373C302.189 64.2821 300.945 65.045 300.588 66.1454C300.539 66.2971 300.387 66.3888 300.231 66.3609C300.075 66.333 299.963 66.1941 299.968 66.0345C300.038 64.1767 298.391 62.0596 296.445 61.505C294.583 60.9743 292.377 61.8824 291.422 63.5726C291.354 63.6915 291.219 63.7538 291.086 63.729C290.952 63.7035 290.849 63.595 290.83 63.4593C290.652 62.1753 290.194 61.0876 289.429 60.1348C288.612 59.1173 287.415 58.5523 286.305 58.66C285.115 58.7757 284.077 59.79 284.039 60.8753C284.033 61.0517 283.884 61.1882 283.71 61.1834C283.534 61.177 283.398 61.0293 283.403 60.853C283.452 59.4405 284.727 58.1716 286.243 58.024C287.564 57.8963 288.975 58.5507 289.923 59.7342C290.593 60.5697 291.06 61.5321 291.315 62.6022C292.558 61.0732 294.707 60.3462 296.618 60.8905C298.499 61.4268 300.088 63.1808 300.501 65.0099C301.19 64.1687 302.344 63.6532 303.525 63.7362C304.864 63.8288 306.19 64.6077 307.162 65.8717C308.059 67.0376 308.555 68.4413 308.924 69.6607C308.974 69.8291 308.88 70.0078 308.711 70.0589C308.68 70.0685 308.649 70.0725 308.619 70.0725V70.0717Z" fill="#404235"/>
<path d="M306.539 56.7265C306.415 56.7265 306.297 56.6531 306.246 56.5302C305.67 55.148 304.341 54.1329 302.86 53.9438C301.379 53.7555 299.839 54.4051 298.937 55.5997C298.867 55.6931 298.751 55.7401 298.636 55.7226C298.521 55.705 298.425 55.626 298.385 55.5159C297.762 53.7954 296.069 52.3542 293.967 51.7548C292.114 51.2266 290.032 51.6104 288.482 52.7564C288.489 53.0476 288.46 53.3349 288.392 53.6134C288.353 53.773 288.2 53.8776 288.038 53.8536C287.876 53.8297 287.758 53.6868 287.766 53.5225L287.81 52.6111C287.811 52.5784 287.818 52.5457 287.829 52.5154C287.772 52.0238 287.591 51.521 287.29 51.0414C286.719 50.1285 285.82 49.4645 284.883 49.2642C284.712 49.2275 284.602 49.0583 284.639 48.8852C284.675 48.7128 284.844 48.6027 285.016 48.6394C286.116 48.8748 287.168 49.6457 287.829 50.7015C288.1 51.1348 288.289 51.5873 288.391 52.0405C290.062 50.9369 292.214 50.5897 294.141 51.1396C296.235 51.7373 297.964 53.1171 298.775 54.8057C299.833 53.6948 301.413 53.1147 302.938 53.3094C304.641 53.5264 306.169 54.6931 306.832 56.282C306.9 56.4448 306.823 56.6315 306.661 56.6994C306.621 56.7161 306.579 56.7241 306.539 56.7241L306.539 56.7265Z" fill="#404235"/>
<path d="M302.001 45.3236C301.899 45.3236 301.8 45.2749 301.738 45.1847C301.186 44.3739 300.419 43.3573 299.379 42.6901C298.363 42.0381 297.187 41.8322 296.234 42.1403C295.18 42.481 294.43 43.5193 294.526 44.5048C294.54 44.6453 294.46 44.7785 294.33 44.832C294.199 44.8855 294.05 44.8464 293.962 44.7354C293.252 43.8448 292.025 42.9622 291.214 42.3781C290.248 41.6838 289.165 41.3933 288.24 41.5817C286.667 41.9025 285.669 43.5121 285.259 44.911C285.209 45.0802 285.032 45.1767 284.863 45.1273C284.695 45.0778 284.599 44.8998 284.648 44.7306C285.111 43.153 286.264 41.3327 288.114 40.956C289.211 40.7326 290.476 41.0614 291.584 41.8594C292.256 42.343 293.202 43.0237 293.945 43.7674C294.168 42.7691 294.97 41.8785 296.04 41.533C297.171 41.1675 298.548 41.3989 299.722 42.1531C300.859 42.8824 301.677 43.9645 302.263 44.8248C302.363 44.9701 302.325 45.1688 302.18 45.2685C302.125 45.306 302.062 45.3244 302.001 45.3244V45.3236Z" fill="#404235"/>
<path d="M281.659 36.7401C281.549 36.7401 281.442 36.6826 281.383 36.5797C280.739 35.4529 281.039 33.8513 282.065 32.9335C282.997 32.1004 284.433 31.8363 285.727 32.26C286.483 32.5082 287.479 32.9016 288.221 33.6246C288.442 32.2433 289.538 30.9936 290.918 30.7175C292.608 30.3799 294.463 31.5538 294.888 33.2312C294.931 33.402 294.828 33.576 294.658 33.619C294.488 33.6621 294.315 33.5592 294.272 33.3884C293.927 32.0238 292.418 31.0686 291.043 31.3439C289.667 31.6192 288.639 33.082 288.841 34.4753C288.863 34.6261 288.775 34.7722 288.632 34.8225C288.488 34.8727 288.329 34.8145 288.252 34.6828C287.795 33.9039 286.93 33.327 285.529 32.8673C284.447 32.513 283.254 32.7261 282.488 33.4108C281.678 34.1354 281.435 35.3883 281.935 36.2629C282.022 36.4161 281.97 36.6108 281.817 36.6986C281.767 36.7273 281.713 36.7409 281.659 36.7409V36.7401Z" fill="#404235"/>
<path d="M275.349 31.1915C275.349 31.1915 275.346 31.1915 275.344 31.1915C275.168 31.1883 275.028 31.0431 275.031 30.8667C275.052 29.5963 275.728 28.3825 276.794 27.6978C277.905 26.9843 279.071 26.7601 280.049 27.0602C280.449 26.1273 281.166 25.3213 282.096 24.7659C283.126 24.1514 284.3 23.9136 285.403 24.0971C285.577 24.1258 285.693 24.2902 285.665 24.4642C285.636 24.6382 285.473 24.7555 285.299 24.7268C283.326 24.3988 281.188 25.6756 280.533 27.5725C280.503 27.6571 280.44 27.7249 280.359 27.7608C280.277 27.7967 280.185 27.7959 280.104 27.76C279.281 27.3937 278.172 27.5717 277.137 28.2348C276.262 28.7966 275.685 29.8333 275.668 30.8763C275.665 31.051 275.524 31.1899 275.35 31.1899L275.349 31.1915Z" fill="#404235"/>
<path d="M270.557 27.6499C270.425 27.6499 270.302 27.5669 270.256 27.4345C269.563 25.4163 270.088 23.0254 271.562 21.486C273.035 19.9467 275.394 19.3258 277.431 19.9411C277.599 19.9921 277.694 20.1701 277.644 20.3385C277.593 20.5077 277.416 20.6026 277.248 20.5524C275.434 20.0041 273.333 20.5579 272.021 21.9289C270.709 23.2999 270.241 25.429 270.859 27.2262C270.916 27.393 270.828 27.5749 270.662 27.6324C270.627 27.6443 270.592 27.6499 270.558 27.6499H270.557Z" fill="#404235"/>
<path d="M263.598 25.7682C263.492 25.7682 263.388 25.7147 263.327 25.6165C262.398 24.1051 262.231 22.1436 262.893 20.4965C263.554 18.8493 265.029 17.5518 266.743 17.1097C266.913 17.0658 267.087 17.1687 267.13 17.3395C267.174 17.5103 267.072 17.6842 266.901 17.7281C265.38 18.12 264.07 19.2723 263.483 20.7351C262.896 22.1978 263.044 23.9399 263.869 25.2814C263.961 25.4314 263.915 25.6277 263.765 25.7203C263.714 25.7522 263.656 25.7682 263.598 25.7682Z" fill="#404235"/>
</g>
<g opacity="0.5" clip-path="url(#clip1_136_254)">
<path d="M76.313 9.42933C77.5269 9.42933 78.3918 9.77647 78.887 10.4636C79.4562 11.252 79.4673 12.4267 78.9212 13.8607C78.3123 15.4576 77.5952 17.0145 76.7645 18.8172C76.4616 19.474 76.1516 20.1483 75.8241 20.8705L79.4809 19.237C79.5707 19.1963 79.6748 19.2011 79.7615 19.2481C79.8481 19.2952 79.9085 19.3806 79.9236 19.478C80.5572 23.4473 80.0421 27.8196 78.5094 31.473C76.7828 35.5891 73.9496 38.5809 70.3143 40.1267C65.5787 42.1401 60.3273 41.9062 56.2817 41.4785C53.2434 41.1569 49.3116 40.5592 45.844 38.7788C43.5943 37.6233 41.8859 36.0193 40.6227 33.875C39.7085 32.3229 39.0122 30.4922 38.4064 28.0239C37.3173 31.0325 38.0352 34.3386 40.5862 38.0981C42.6332 41.1146 46.3981 42.2438 50.0795 43.1416C54.1401 44.1319 58.4861 44.3522 62.6477 43.7792C64.7035 43.4959 66.725 43.0211 68.656 42.3691C68.9151 42.2813 69.2101 42.1887 69.5225 42.0898C71.0234 41.6166 73.0799 40.9686 73.9583 40.0245C74.0784 39.896 74.2795 39.8889 74.4075 40.0094C74.5355 40.1299 74.5426 40.3318 74.4226 40.4602L62.5714 53.1886C62.2653 53.5174 61.9593 53.8446 61.654 54.1718C58.4225 57.6296 55.3707 60.8951 52.9342 64.886C48.519 72.1168 45.6532 80.8575 44.173 91.6068C43.2437 98.354 44.9258 104.83 48.9085 109.841C53.0113 115.004 59.1523 118.186 66.1988 118.799C69.125 119.054 71.1346 118.533 72.1108 115.149C72.9758 112.15 74.1292 108.725 76.1222 106.058C78.0189 103.52 80.9603 99.9445 84.5797 98.2215C87.8962 96.6431 91.5753 95.7094 95.4698 94.7214C97.2489 94.2698 99.0892 93.8029 101.007 93.2507C101.122 93.2172 101.246 93.2523 101.328 93.3401C101.41 93.4279 101.434 93.5547 101.393 93.6681L101.112 94.4334C99.0232 100.126 97.0509 105.503 94.2416 110.22C91.2605 115.225 87.7182 118.849 83.1456 121.556C90.4457 122.747 92.2852 128.221 94.0659 133.523C94.4117 134.552 94.7694 135.616 95.1605 136.625C95.8442 138.387 96.477 140.128 97.1463 141.97C97.4444 142.791 97.7529 143.639 98.0637 144.485C98.1011 144.586 98.0852 144.7 98.0208 144.786C97.9564 144.872 97.8538 144.921 97.7457 144.914C92.2558 144.57 87.3787 144.138 83.2776 142.328C81.1693 141.397 79.3354 140.142 77.6708 138.49C75.9068 136.74 74.3208 134.537 72.8223 131.755C71.37 129.059 69.8667 128.118 67.2759 128.28C66.6559 128.32 66.0334 128.249 65.4317 128.182C65.0342 128.137 64.6232 128.091 64.2265 128.078C58.8049 127.909 53.7967 126.892 49.3418 125.056C45.2096 123.352 41.3907 120.875 37.9907 117.692C32.1819 112.255 27.3812 104.712 22.8826 93.9537C18.0787 82.4671 19.4587 70.3253 20.7934 58.5832L20.803 58.4986C21.679 50.7882 23.6767 42.6404 26.5807 34.9348C27.9098 31.4075 29.7033 28.2051 31.9109 25.4168C33.9825 22.8009 36.4834 20.4667 39.3453 18.4804C44.4512 14.9357 50.7632 12.3844 58.6427 10.6806C62.7741 9.78685 67.1329 9.6847 71.3485 9.58495C72.8708 9.54904 74.4448 9.51232 75.9807 9.43811C76.0936 9.43252 76.2041 9.43013 76.3114 9.43013L76.313 9.42933ZM75.1905 21.8217C75.1078 21.8217 75.0259 21.789 74.9655 21.7276C74.8725 21.6342 74.8463 21.4922 74.9003 21.3717C75.3582 20.3478 75.7796 19.4333 76.1874 18.5483C77.0133 16.7559 77.7264 15.2078 78.3274 13.6317C78.7932 12.4091 78.8091 11.4427 78.3719 10.837C77.9665 10.2752 77.1731 10.0183 76.0125 10.0749C74.4687 10.1491 72.8907 10.1867 71.3644 10.2226C67.1782 10.3215 62.8496 10.4237 58.7779 11.3039C42.2127 14.8862 31.8759 22.6892 27.1761 35.1598C24.2912 42.8168 22.3054 50.9119 21.4358 58.5705L21.4262 58.655C20.101 70.3157 18.7305 82.3737 23.47 93.7064C30.2717 109.97 40.4351 126.696 64.2464 127.439C64.6693 127.453 65.093 127.501 65.5032 127.547C66.1042 127.615 66.6718 127.68 67.2362 127.644C70.0861 127.464 71.8088 128.531 73.382 131.452C79.2885 142.416 86.3508 143.543 97.2982 144.246C97.0438 143.552 96.7926 142.861 96.5485 142.189C95.88 140.35 95.2488 138.612 94.5675 136.857C94.1708 135.835 93.8107 134.763 93.4633 133.727C91.5896 128.15 89.82 122.882 82.1368 122.065C81.9985 122.05 81.8864 121.947 81.8586 121.81C81.8307 121.674 81.8951 121.535 82.0168 121.468C92.6819 115.562 96.3124 105.669 100.515 94.2123L100.58 94.0359C98.8698 94.5179 97.2234 94.9353 95.6256 95.3407C91.7621 96.3207 88.1125 97.2464 84.8516 98.7985C81.3585 100.461 78.4864 103.957 76.6302 106.441C74.6984 109.026 73.5704 112.383 72.7214 115.326C72.2182 117.072 71.4137 118.228 70.2634 118.861C69.2498 119.418 67.9795 119.596 66.1431 119.435C58.921 118.806 52.6242 115.54 48.4109 110.24C44.3185 105.09 42.5895 98.4418 43.5426 91.519C45.0347 80.6803 47.9292 71.8598 52.3912 64.5516C54.862 60.5056 57.9352 57.2162 61.1898 53.7345C61.495 53.4081 61.8011 53.0809 62.1064 52.7521L72.3271 41.7738C71.4574 42.1473 70.5098 42.4457 69.7117 42.6979C69.4024 42.7952 69.1099 42.8878 68.8571 42.9732C66.888 43.6387 64.8275 44.1223 62.732 44.4112C58.4917 44.9954 54.0646 44.7703 49.9277 43.7616C46.1262 42.8343 42.2333 41.6613 40.0591 38.4572C37.1583 34.1822 36.5351 30.2815 38.2077 26.8636C38.2673 26.7423 38.3953 26.6705 38.5304 26.6873C38.6648 26.7032 38.7737 26.8022 38.8031 26.9346C39.9359 32.026 41.6156 35.8916 46.131 38.2106C49.5048 39.9431 53.3627 40.5281 56.3461 40.8441C60.3161 41.2646 65.4627 41.4961 70.0638 39.5393C77.4744 36.3888 80.3474 27.2116 79.3545 19.9911L75.3169 21.7946C75.2756 21.813 75.231 21.8225 75.1873 21.8225L75.1905 21.8217ZM67.1241 18.3424C67.7195 18.3424 68.3062 18.4725 68.6941 19.1244C69.1648 19.9161 69.2633 20.8027 68.9851 21.7587C68.3316 24.0067 65.7934 25.9994 64.3465 26.7264C62.9212 27.443 61.2987 27.8683 59.6531 27.9553C59.4178 27.9689 58.2214 27.8572 57.1888 27.7287C54.9049 27.443 54.7848 27.2698 54.6894 27.1302C54.6179 27.0264 54.6052 26.8971 54.6553 26.7846C55.955 23.8319 57.9607 21.5185 60.456 20.0948C62.2025 19.0981 64.1987 18.51 66.2282 18.3935C66.3228 18.3879 66.419 18.3807 66.5136 18.3735C66.7131 18.3584 66.919 18.3432 67.1241 18.3432V18.3424ZM59.5808 27.3193C59.5959 27.3193 59.6086 27.3193 59.6197 27.3185C61.1787 27.2363 62.7145 26.8341 64.0619 26.1566C65.5127 25.4272 67.8094 23.5247 68.3746 21.5807C68.6011 20.8019 68.5248 20.0853 68.148 19.4524C67.8435 18.9409 67.3467 18.9513 66.5613 19.0095C66.4619 19.0167 66.3633 19.0247 66.2648 19.0303C64.3322 19.1412 62.4323 19.7014 60.7708 20.6495C58.4687 21.963 56.6013 24.0793 55.3556 26.7806C56.1919 27.0009 59.0736 27.3193 59.5816 27.3193H59.5808ZM93.2137 98.512C93.6644 98.512 94.0373 98.6086 94.2988 98.8767C94.6319 99.2183 94.7042 99.7705 94.5206 100.563C93.9021 103.23 92.4903 106.116 90.3232 109.138C86.5098 114.457 81.0906 118.343 75.0633 120.08C74.8948 120.129 74.7183 120.031 74.6698 119.861C74.6213 119.692 74.7191 119.515 74.8876 119.466C74.9361 119.452 75.1984 119.332 75.5753 118.324C75.8257 117.656 76.0379 116.837 76.1921 116.239C76.2875 115.873 76.3623 115.583 76.4235 115.406C77.0634 113.571 77.8965 111.781 78.8997 110.086C79.9785 108.266 81.7584 105.599 84.1131 103.233C86.5536 100.78 88.9917 99.2853 91.3591 98.7897C92.0467 98.6461 92.6842 98.512 93.2145 98.512H93.2137ZM91.4886 99.4146C85.6338 100.64 80.7909 108.142 79.4467 110.413C78.4649 112.07 77.6493 113.821 77.0237 115.617C76.9704 115.769 76.8949 116.061 76.8074 116.4C76.5268 117.482 76.2526 118.464 75.9195 119.146C81.3951 117.317 86.296 113.663 89.8065 108.766C91.9243 105.811 93.3019 103.003 93.9013 100.418C93.9896 100.036 94.0516 99.5359 93.8441 99.3228C93.5197 98.9892 92.4871 99.2055 91.4886 99.4146ZM76.4815 124.361C78.4951 124.361 80.8307 124.632 82.3244 125.42C84.2538 126.437 86.1696 128.371 88.1808 131.331C90.0617 134.099 91.4584 137.182 92.8098 140.165C92.8591 140.274 92.844 140.401 92.7693 140.495C92.6954 140.589 92.5745 140.633 92.4577 140.61C91.972 140.512 91.4664 140.427 90.9783 140.343C90.3328 140.233 89.665 140.12 89.0131 139.976C87.7516 139.699 86.7738 139.352 85.9359 138.888C84.2283 137.939 82.5255 136.684 80.876 135.159C77.5213 132.055 75.3582 128.474 74.6213 124.8C74.603 124.71 74.6245 124.617 74.6793 124.543C74.7342 124.471 74.8185 124.424 74.9091 124.418C75.3916 124.382 75.9242 124.361 76.4807 124.361H76.4815ZM91.9767 139.869C90.7143 137.087 89.3884 134.242 87.6554 131.691C85.7038 128.82 83.8634 126.953 82.0287 125.985C80.4428 125.149 77.5873 124.907 75.3225 125.032C76.2987 129.331 79.0993 132.646 81.3085 134.689C82.9214 136.181 84.5821 137.406 86.2451 138.33C87.0274 138.764 87.9503 139.09 89.1507 139.354C89.7866 139.494 90.4472 139.606 91.0856 139.715C91.3789 139.766 91.6786 139.817 91.9775 139.87L91.9767 139.869Z" fill="#404235"/>
<path d="M32.7799 20.1667C32.8499 20.1667 32.9206 20.1899 32.9794 20.2369C33.1162 20.3479 33.1376 20.5482 33.0279 20.6854C32.3594 21.5194 31.6686 22.3565 31.0008 23.1665C28.2733 26.4743 25.4536 29.8946 23.5115 33.812C21.2292 38.4142 19.3977 43.1744 18.0669 47.9601C15.4364 57.4214 14.6422 67.4373 15.7051 77.7301C16.0104 80.6844 16.4746 83.7208 17.0851 86.7549C18.3197 92.8877 20.9581 98.5727 23.1188 102.841C24.3248 105.222 25.9481 107.425 27.5181 109.556C29.1382 111.755 30.814 114.03 32.066 116.535C34.3634 121.131 34.462 126.729 32.3307 131.51C31.9977 132.258 31.5668 132.626 31.0453 132.6C30.5485 132.577 30.1907 132.166 30.0564 131.769C29.9371 131.418 29.9507 131.05 29.9634 130.726L29.9658 130.671C30.2027 124.008 26.8925 117.273 21.1108 112.657C18.8857 110.881 17.0319 108.956 15.601 106.936C13.9697 104.634 12.8782 102.192 12.3575 99.6772C11.7478 96.7349 12.189 93.9498 12.6159 91.2565C13.0174 88.7196 13.4331 86.0965 12.941 83.3881C12.6771 81.9349 12.0976 79.9837 10.8273 78.3558C11.4139 81.7026 10.9696 85.162 9.54261 88.2145C9.48538 88.3374 9.3566 88.41 9.22146 88.3964C9.08711 88.3821 8.97582 88.2839 8.94482 88.1522C8.74449 87.2983 8.52825 86.4237 8.31918 85.5778C7.02261 80.3388 5.68153 74.9219 6.91132 69.5145C7.11403 68.6239 7.35173 67.7302 7.58227 66.8651C7.84857 65.8644 8.12442 64.8302 8.34303 63.8047C8.46625 63.2293 8.52428 62.5821 8.5855 61.8982C8.60458 61.6844 8.62445 61.4689 8.64591 61.2534C6.8684 64.7192 4.59085 68.4444 0.98097 70.5488C0.980175 70.5488 0.978582 70.5504 0.977787 70.5504C0.825951 70.6389 0.63119 70.5871 0.54295 70.4346C0.45471 70.2822 0.506378 70.0867 0.658214 69.9981C0.658214 69.9981 0.659806 69.9981 0.659806 69.9973C1.18289 69.6885 1.72425 67.6344 1.9842 66.6472C2.05972 66.36 2.1257 66.1118 2.17816 65.9394C2.66547 64.3577 2.96279 63.0801 2.94053 61.5998C2.88806 58.1093 3.13926 55.0481 3.71004 52.2422C4.78561 46.9506 7.04965 41.6422 10.2565 36.8892C13.426 32.1928 17.4778 28.091 21.9749 25.0267C23.6395 23.8919 25.3964 22.9055 27.1961 22.0955C27.623 21.9032 28.356 21.7141 29.205 21.4962C30.4562 21.1738 32.1702 20.7325 32.5303 20.2896C32.5303 20.2896 32.5311 20.288 32.5319 20.2872C32.5947 20.209 32.6869 20.1683 32.7799 20.1683V20.1667ZM31.089 131.963C31.3871 131.963 31.6304 131.518 31.7496 131.25C33.8046 126.643 33.71 121.249 31.4976 116.822C30.2702 114.365 28.6112 112.114 27.0069 109.937C25.4218 107.784 23.7818 105.559 22.552 103.131C20.3731 98.8273 17.7116 93.0912 16.4619 86.8826C15.8474 83.8286 15.38 80.7714 15.0723 77.7971C14.0007 67.4245 14.802 57.328 17.454 47.7893C18.7951 42.9645 20.6418 38.166 22.9416 33.5279C24.9162 29.545 27.7606 26.096 30.5103 22.7603C30.8545 22.3429 31.2043 21.9192 31.5541 21.4914C30.9539 21.6965 30.2114 21.8944 29.3632 22.1131C28.577 22.3158 27.8337 22.5065 27.4569 22.6765C25.6913 23.4721 23.967 24.4401 22.3326 25.5533C13.2129 31.7683 6.48364 41.793 4.33409 52.3683C3.77285 55.1287 3.52562 58.1444 3.57729 61.5886C3.60114 63.1535 3.29269 64.4854 2.7871 66.1269C2.73781 66.2865 2.67422 66.5291 2.60029 66.8092C2.36975 67.6831 2.13683 68.5202 1.8745 69.1889C5.34447 66.5794 7.43599 62.3108 9.15071 58.8123C9.22623 58.6583 9.40906 58.5921 9.56567 58.6615C9.72148 58.7309 9.79541 58.9121 9.73181 59.0717C9.40588 59.8888 9.31129 60.939 9.22066 61.9549C9.16025 62.6284 9.09744 63.3243 8.96627 63.938C8.74369 64.9794 8.46625 66.0216 8.19756 67.0295C7.96861 67.889 7.73172 68.7772 7.53218 69.6558C6.33657 74.9147 7.65858 80.2566 8.93766 85.423C9.072 85.9649 9.20873 86.5187 9.34308 87.0717C10.553 84.0073 10.7756 80.5862 9.96235 77.3375C9.92737 77.1994 9.98858 77.055 10.111 76.984C10.2334 76.9121 10.3884 76.9313 10.491 77.0295C12.437 78.9016 13.2384 81.4577 13.5675 83.2723C14.0786 86.0878 13.6549 88.7659 13.2447 91.3555C12.8274 93.9921 12.3949 96.7181 12.9816 99.5463C13.9379 104.16 16.8061 108.402 21.5083 112.157C24.3081 114.393 26.6293 117.228 28.2216 120.356C29.903 123.661 30.7265 127.234 30.6033 130.692L30.6009 130.748C30.5898 131.043 30.5795 131.323 30.6613 131.564C30.7257 131.754 30.8895 131.953 31.0779 131.962C31.0827 131.962 31.0874 131.962 31.0922 131.962L31.089 131.963Z" fill="#404235"/>
<path d="M70.7095 47.9489C70.8097 47.9489 70.9082 47.996 70.9702 48.0846C70.9702 48.0846 70.9702 48.0854 70.971 48.0862C71.5116 48.8602 71.9536 49.7365 72.2851 50.6917C73.2979 53.6061 73.3392 57.3184 72.4115 62.0411C71.5235 66.5627 69.3088 70.789 66.0065 74.2643C62.403 78.0573 59.5921 81.6149 57.4139 85.1405C55.9933 87.4396 54.1514 90.923 54.556 94.6114C54.6737 95.6815 56.2652 100.529 57.8138 101.608C58.0483 101.771 58.2542 101.826 58.4442 101.778C58.6143 101.734 58.7876 101.838 58.8305 102.009C58.8734 102.18 58.7709 102.354 58.6008 102.397C57.4393 102.693 56.1905 102.557 54.9893 102.005C53.8636 101.488 52.8731 100.633 52.1982 99.5998C49.745 95.8411 50.935 90.6524 51.9852 86.075C52.3167 84.629 52.6307 83.2628 52.8087 82.0283C52.9542 81.018 52.7587 80.3341 52.5003 80.2032C52.3 80.1018 51.92 80.3005 51.4835 80.7339C50.6266 81.5854 49.3292 84.1733 49.5129 85.3209C49.5407 85.4948 49.423 85.6584 49.2497 85.6864C49.0764 85.7143 48.9135 85.5962 48.8856 85.4222C48.3586 82.1264 48.6559 78.734 49.7474 75.613C50.8229 72.5358 52.6768 69.6917 55.1093 67.3878C56.4981 66.0727 58.0697 64.8844 59.5897 63.7345C61.6478 62.1784 63.7767 60.5688 65.4588 58.6336C66.4764 57.4637 67.5154 55.8804 68.6347 53.7928C70.4098 50.4834 70.7365 48.8634 70.4503 48.4501C70.4503 48.4501 70.4503 48.4501 70.4503 48.4493C70.3494 48.3048 70.3844 48.1061 70.5282 48.0048C70.5839 47.9657 70.6475 47.9473 70.7103 47.9473L70.7095 47.9489ZM57.1683 101.902C55.4885 100.35 54.0377 95.7071 53.9248 94.6816C53.498 90.7969 55.4035 87.1842 56.8741 84.8046C59.0761 81.2406 61.9133 77.6487 65.5471 73.8238C68.7658 70.4362 70.9233 66.3193 71.7882 61.9174C72.6929 57.3097 72.6595 53.7058 71.6857 50.9016C71.5196 50.4228 71.324 49.9647 71.1006 49.5322C71.0076 50.0062 70.8248 50.5776 70.5513 51.2575C70.0545 52.4944 69.4074 53.701 69.1943 54.0968C68.052 56.2267 66.9867 57.8483 65.9374 59.0549C64.2115 61.0396 62.0556 62.6699 59.9713 64.246C58.4656 65.3848 56.9083 66.5627 55.545 67.8531C51.2037 71.9645 48.985 77.4692 49.2887 83.2101C49.7569 82.0067 50.5105 80.8033 51.0368 80.2806C51.7157 79.6063 52.3047 79.3884 52.7873 79.6334C53.4813 79.9853 53.579 81.148 53.4383 82.12C53.2563 83.3801 52.9399 84.7591 52.6052 86.2186C51.5837 90.6724 50.4255 95.7198 52.7308 99.2503C53.7579 100.824 55.4877 101.818 57.1683 101.901V101.902Z" fill="#404235"/>
<path d="M64.539 19.4462C64.6845 19.4462 64.8157 19.5475 64.8491 19.6959C64.9047 19.9457 64.9882 20.1947 65.0772 20.4588C65.1885 20.79 65.3038 21.1324 65.3634 21.4875C65.6154 22.9973 64.6853 24.5758 63.2464 25.0826C62.4229 25.3722 61.5945 25.3076 60.8528 24.8942C59.9514 24.3923 59.2597 23.4131 59.0038 22.2735C58.9648 22.1012 59.0729 21.9304 59.2438 21.8921C59.4148 21.8538 59.5849 21.9615 59.6238 22.1331C59.8409 23.0979 60.4148 23.9214 61.1605 24.3364C61.7392 24.658 62.3871 24.7083 63.0358 24.48C64.1726 24.0802 64.9349 22.7859 64.7362 21.5936C64.6853 21.2888 64.5828 20.9855 64.4746 20.6639C64.384 20.3958 64.291 20.1189 64.2282 19.8356C64.19 19.6632 64.2982 19.4932 64.4691 19.4541C64.4921 19.4485 64.516 19.4462 64.539 19.4462Z" fill="#404235"/>
<path d="M28.4911 32.0205C28.5221 32.0205 28.5531 32.0253 28.5841 32.0349C28.7519 32.0867 28.8465 32.2655 28.7948 32.4339C28.1668 34.4888 28.4084 36.5684 29.4427 37.9961C30.4793 39.4269 32.7147 40.2872 34.3889 39.2865C34.5192 39.2091 34.6862 39.2338 34.7871 39.3463C34.8889 39.4588 34.8968 39.628 34.807 39.7501C33.8483 41.0509 33.6694 43.0786 34.3634 44.7968C35.0137 46.4072 36.5368 47.6297 38.2436 47.913C39.9512 48.1963 41.7851 47.53 42.9163 46.2148C43.0014 46.1167 43.1365 46.0792 43.259 46.1215C43.3814 46.163 43.4664 46.2755 43.4744 46.4056C43.6262 49.0686 45.5715 51.4682 48.0986 52.1114C50.6226 52.7538 53.5584 51.5616 54.9281 49.3391C55.0147 49.1978 55.1952 49.1468 55.343 49.2226C55.4901 49.2976 55.5553 49.4739 55.4933 49.628C54.8549 51.1977 55.9711 53.2454 57.3964 54.0266C58.8456 54.8215 60.8727 54.3474 61.8227 52.9916C61.9237 52.8472 62.1216 52.8129 62.2655 52.9142C62.4094 53.0156 62.4436 53.2151 62.3426 53.3587C61.2154 54.9675 58.8106 55.5301 57.0911 54.5868C56.2477 54.124 55.514 53.306 55.0783 52.3436C54.8295 51.7938 54.6959 51.2392 54.6785 50.7085C52.9963 52.5048 50.3476 53.3427 47.9428 52.7307C45.3719 52.0763 43.348 49.7788 42.9155 47.1262C41.6396 48.2745 39.8343 48.8244 38.1403 48.5435C36.2196 48.2251 34.5057 46.8485 33.7744 45.037C33.1265 43.433 33.1519 41.6398 33.799 40.2209C33.1074 40.4069 32.3458 40.3973 31.5795 40.1866C30.5198 39.8946 29.554 39.233 28.9299 38.3711C27.7788 36.7823 27.5014 34.4928 28.1882 32.2464C28.2304 32.1091 28.356 32.0205 28.4919 32.0205H28.4911Z" fill="#404235"/>
<path d="M24.8311 41.7427C24.851 41.7427 24.8717 41.7443 24.8924 41.7483C25.0649 41.7818 25.1769 41.9494 25.1436 42.1226C24.7501 44.1527 25.5752 46.3744 27.1969 47.6496C28.8186 48.9257 31.1645 49.1986 33.0343 48.3295C33.1328 48.2833 33.2489 48.292 33.3403 48.3511C33.4317 48.4109 33.4866 48.5131 33.4858 48.6224C33.462 51.0284 34.8007 53.16 36.8962 54.0529C39.0417 54.9667 41.6993 54.4591 43.3599 52.8176C43.4633 52.7155 43.623 52.6963 43.7479 52.7721C43.8727 52.8479 43.9299 52.9987 43.8878 53.1384C43.2319 55.3042 44.5253 57.9752 46.7114 58.9719C48.7656 59.9088 51.3818 59.1379 52.7968 57.1796C52.8771 57.0678 53.0202 57.0208 53.1522 57.0631C53.2833 57.1054 53.3724 57.2275 53.3724 57.3655C53.3732 57.6895 53.362 57.9999 53.3501 58.3C53.296 59.7332 53.2563 60.769 54.56 61.7897C54.6983 61.8982 54.723 62.0985 54.6149 62.2374C54.5068 62.3763 54.3072 62.401 54.1689 62.2925C52.6084 61.0707 52.6593 59.7125 52.7141 58.2745C52.7141 58.2681 52.7141 58.2609 52.7141 58.2545C52.0273 58.9456 51.1703 59.4683 50.2323 59.758C48.9516 60.1538 47.6074 60.0812 46.4467 59.5521C44.2844 58.5665 42.902 56.115 43.1016 53.8694C41.2708 55.2021 38.7389 55.5325 36.6465 54.6403C34.4533 53.7058 33.0041 51.5599 32.8602 49.0917C30.8609 49.8282 28.4832 49.4731 26.8034 48.1516C24.9981 46.7319 24.0799 44.2597 24.5179 41.9997C24.5473 41.8473 24.6809 41.7411 24.8296 41.7411L24.8311 41.7427Z" fill="#404235"/>
<path d="M22.4574 52.8416C22.6092 52.8416 22.7436 52.9509 22.7706 53.1065C23.0194 54.5581 23.9217 55.874 25.1841 56.6258C26.4091 57.356 27.9362 57.5323 29.2948 57.107C29.5643 56.6194 30.0889 56.277 30.6438 56.2371C30.7519 56.2292 30.8569 56.2778 30.9213 56.3648C30.9857 56.4518 31.0015 56.5667 30.9634 56.6681C30.1152 58.9161 31.3227 61.9254 33.5987 63.2389C35.7609 64.487 38.7992 63.9196 40.3701 61.9757C40.4599 61.8648 40.6117 61.8273 40.7421 61.8831C40.8725 61.9398 40.9504 62.0762 40.9321 62.2175C40.6499 64.4064 42.0625 66.7526 44.1477 67.5602C46.2122 68.359 48.8173 67.5562 50.0796 65.7319C50.1798 65.5875 50.3777 65.5516 50.5224 65.6521C50.6663 65.7527 50.7021 65.9514 50.6019 66.0966C49.1567 68.1859 46.2837 69.0717 43.9187 68.1563C42.7796 67.7158 41.7819 66.8603 41.1094 65.7479C40.5927 64.894 40.3033 63.9452 40.2643 63.0075C38.4073 64.6666 35.4509 65.0457 33.2807 63.7936C30.9483 62.4481 29.6326 59.4835 30.1851 57.0519C30.0222 57.162 29.8886 57.3161 29.8107 57.4964C29.7749 57.5786 29.7066 57.6424 29.6215 57.6712C28.0586 58.2058 26.2779 58.0207 24.8581 57.1748C23.4384 56.3289 22.4232 54.8486 22.1426 53.215C22.1124 53.0411 22.2284 52.8759 22.4017 52.8464C22.42 52.8432 22.4383 52.8416 22.4558 52.8416H22.4574Z" fill="#404235"/>
<path d="M20.811 63.4161C20.8166 63.4161 20.8222 63.4161 20.8277 63.4161C21.0034 63.4257 21.1378 63.5757 21.1282 63.7512C21.0447 65.3361 21.9852 66.9146 23.4161 67.5897C24.8462 68.2648 26.6579 67.9863 27.8201 66.9106C27.9139 66.8236 28.0515 66.8013 28.1675 66.8547C28.2844 66.9082 28.3575 67.0263 28.3536 67.1548C28.2884 69.2304 29.7694 71.3061 31.7989 71.9828C33.7942 72.6483 36.2077 71.8455 37.412 70.1154C37.4987 69.9917 37.6601 69.9455 37.7984 70.0053C37.9367 70.0652 38.0146 70.2144 37.9844 70.3628C37.5424 72.5294 39.2818 74.3912 41.2191 74.9402C43.1619 75.4901 45.5007 74.799 47.1765 73.1782C47.3029 73.0561 47.504 73.0601 47.6264 73.187C47.748 73.3139 47.7449 73.5158 47.6177 73.6387C45.7821 75.4135 43.2025 76.166 41.0466 75.5555C39.1307 75.0129 37.3882 73.3251 37.2841 71.243C35.8174 72.6571 33.5343 73.2349 31.5993 72.5901C29.5253 71.8982 27.9593 69.9032 27.7422 67.7852C26.4115 68.6886 24.6077 68.8578 23.1466 68.1675C21.4883 67.3846 20.3977 65.5548 20.4946 63.7177C20.5034 63.5478 20.6441 63.4153 20.8118 63.4153L20.811 63.4161Z" fill="#404235"/>
<path d="M19.881 74.9283C20.0177 74.9283 20.1433 75.0169 20.1854 75.155C20.5368 76.3185 21.0074 77.6543 21.8413 78.7389C22.7022 79.8585 23.8605 80.5472 25.0179 80.627C26.3113 80.7179 27.5554 79.955 27.9116 78.8546C27.9609 78.7029 28.1135 78.6112 28.2693 78.6391C28.4251 78.667 28.5372 78.8059 28.5316 78.9655C28.4617 80.8233 30.1088 82.9404 32.0549 83.495C33.9167 84.0257 36.1234 83.1176 37.0782 81.4274C37.1458 81.3085 37.2809 81.2462 37.4145 81.271C37.548 81.2965 37.6506 81.405 37.6696 81.5407C37.8477 82.8247 38.3064 83.9124 39.0711 84.8652C39.8876 85.8827 41.0848 86.4477 42.1945 86.34C43.3853 86.2243 44.4228 85.21 44.4609 84.1247C44.4673 83.9483 44.6159 83.8118 44.79 83.8166C44.9657 83.823 45.1024 83.9707 45.0969 84.147C45.0476 85.5595 43.7733 86.8284 42.2565 86.976C40.9361 87.1037 39.5251 86.4493 38.5767 85.2658C37.9065 84.4303 37.4399 83.4679 37.1847 82.3978C35.9422 83.9268 33.7934 84.6538 31.8824 84.1095C30.0007 83.5732 28.4124 81.8192 27.999 79.9901C27.3098 80.8313 26.1563 81.3468 24.975 81.2638C23.6363 81.1712 22.3103 80.3923 21.3381 79.1283C20.4414 77.9624 19.9446 76.5587 19.5765 75.3393C19.5256 75.1709 19.6202 74.9922 19.7887 74.9411C19.8197 74.9315 19.8507 74.9275 19.881 74.9275V74.9283Z" fill="#404235"/>
<path d="M21.9605 88.2735C22.0845 88.2735 22.203 88.3469 22.2539 88.4698C22.8302 89.852 24.1594 90.8671 25.6404 91.0562C27.1214 91.2445 28.6612 90.5949 29.5627 89.4003C29.6334 89.3069 29.7487 89.2599 29.864 89.2774C29.9792 89.295 30.0754 89.374 30.1152 89.4841C30.7384 91.2046 32.4309 92.6458 34.5327 93.2452C36.3858 93.7734 38.4677 93.3896 40.0179 92.2436C40.0107 91.9524 40.0402 91.6651 40.1077 91.3866C40.1467 91.227 40.3001 91.1224 40.4623 91.1464C40.6245 91.1703 40.7421 91.3132 40.7342 91.4775L40.6904 92.3889C40.6888 92.4216 40.6825 92.4543 40.6714 92.4846C40.7278 92.9762 40.909 93.479 41.2095 93.9586C41.7811 94.8715 42.6802 95.5355 43.6167 95.7358C43.7884 95.7725 43.8981 95.9417 43.8615 96.1148C43.8249 96.2872 43.6564 96.3973 43.4839 96.3606C42.3837 96.1252 41.332 95.3543 40.6714 94.2985C40.4003 93.8652 40.2111 93.4127 40.1085 92.9595C38.4383 94.0631 36.2864 94.4103 34.3594 93.8604C32.2647 93.2627 30.5357 91.8829 29.7248 90.1943C28.6668 91.3052 27.0872 91.8853 25.5617 91.6906C23.8589 91.4736 22.331 90.3069 21.668 88.718C21.6004 88.5552 21.6767 88.3685 21.8389 88.3006C21.8787 88.2839 21.9208 88.2759 21.9613 88.2759L21.9605 88.2735Z" fill="#404235"/>
<path d="M26.4989 99.6764C26.6007 99.6764 26.7 99.7251 26.7621 99.8153C27.3138 100.626 28.0809 101.643 29.1207 102.31C30.1374 102.962 31.3132 103.168 32.2655 102.86C33.3204 102.519 34.0701 101.481 33.9739 100.495C33.9604 100.355 34.0399 100.221 34.1702 100.168C34.3006 100.115 34.4501 100.154 34.5383 100.265C35.2482 101.155 36.4748 102.038 37.2864 102.622C38.2515 103.316 39.335 103.607 40.2596 103.418C41.8328 103.098 42.8312 101.488 43.2414 100.089C43.2907 99.9198 43.468 99.8233 43.6365 99.8727C43.8051 99.9222 43.9013 100.1 43.852 100.269C43.3893 101.847 42.2358 103.667 40.386 104.044C39.2889 104.267 38.0242 103.939 36.916 103.141C36.2443 102.657 35.2983 101.976 34.555 101.233C34.3316 102.231 33.5303 103.121 32.4603 103.467C31.3291 103.833 29.9522 103.601 28.7781 102.847C27.6413 102.118 26.8233 101.035 26.2366 100.175C26.1372 100.03 26.1746 99.8312 26.3201 99.7315C26.3749 99.694 26.4377 99.6756 26.4989 99.6756V99.6764Z" fill="#404235"/>
<path d="M46.841 108.26C46.9515 108.26 47.058 108.317 47.1168 108.42C47.7608 109.547 47.4611 111.149 46.4348 112.066C45.5031 112.9 44.0666 113.164 42.7732 112.74C42.0172 112.492 41.0211 112.098 40.2794 111.375C40.0585 112.757 38.9622 114.006 37.5822 114.283C35.8921 114.62 34.0367 113.446 33.6122 111.769C33.5692 111.598 33.6718 111.424 33.8419 111.381C34.012 111.338 34.1853 111.441 34.2283 111.612C34.5733 112.976 36.0821 113.931 37.4574 113.656C38.8326 113.381 39.8613 111.918 39.6594 110.525C39.6371 110.374 39.7254 110.228 39.8685 110.178C40.0123 110.127 40.1713 110.186 40.2484 110.317C40.7048 111.096 41.5697 111.673 42.9712 112.133C44.0531 112.487 45.2463 112.274 46.0119 111.589C46.8219 110.865 47.0652 109.612 46.5651 108.737C46.4777 108.584 46.5302 108.389 46.6828 108.301C46.7329 108.273 46.7869 108.259 46.841 108.259V108.26Z" fill="#404235"/>
<path d="M53.1505 113.809C53.1505 113.809 53.1537 113.809 53.1561 113.809C53.3318 113.812 53.4717 113.957 53.4685 114.133C53.4478 115.404 52.7721 116.618 51.7061 117.302C50.5948 118.016 49.4286 118.24 48.4508 117.94C48.0509 118.873 47.3339 119.679 46.4038 120.234C45.3743 120.849 44.2001 121.086 43.0968 120.903C42.9235 120.874 42.8066 120.71 42.8352 120.536C42.8638 120.362 43.0268 120.245 43.2009 120.273C45.174 120.601 47.3124 119.324 47.9674 117.428C47.9968 117.343 48.0596 117.275 48.1407 117.239C48.2226 117.203 48.3148 117.204 48.3959 117.24C49.2195 117.606 50.3284 117.428 51.3627 116.765C52.2379 116.203 52.8151 115.167 52.8318 114.124C52.8349 113.949 52.9764 113.81 53.1497 113.81L53.1505 113.809Z" fill="#404235"/>
<path d="M57.9433 117.35C58.0753 117.35 58.1985 117.433 58.2438 117.566C58.937 119.584 58.4124 121.975 56.9385 123.514C55.4647 125.053 53.1061 125.674 51.0694 125.059C50.9009 125.008 50.8063 124.83 50.8563 124.662C50.9072 124.492 51.0845 124.397 51.2522 124.448C53.0663 124.996 55.1666 124.442 56.479 123.071C57.7915 121.7 58.2589 119.571 57.6413 117.774C57.584 117.607 57.6723 117.425 57.8384 117.368C57.8726 117.356 57.9076 117.35 57.9418 117.35H57.9433Z" fill="#404235"/>
<path d="M64.9015 119.232C65.008 119.232 65.1122 119.285 65.1726 119.383C66.1019 120.895 66.2688 122.856 65.6074 124.504C64.946 126.151 63.4706 127.448 61.7567 127.89C61.5874 127.934 61.4133 127.831 61.3695 127.661C61.3258 127.49 61.4284 127.316 61.5985 127.272C63.12 126.88 64.4301 125.728 65.0168 124.265C65.6043 122.802 65.4564 121.06 64.6312 119.719C64.539 119.569 64.5851 119.372 64.7346 119.28C64.7862 119.248 64.8443 119.232 64.9015 119.232Z" fill="#404235"/>
</g>
<g opacity="0.5" clip-path="url(#clip2_136_254)">
<path d="M162.148 110.134C162.073 110.134 161.989 110.115 161.914 110.087C149.421 105.191 135.677 95.4456 125.146 83.9994C113.27 71.077 106.72 57.435 106.72 45.5964C106.72 30.1418 119.297 17.5651 134.752 17.5651C148.179 17.5651 159.419 27.049 162.148 39.6631C164.876 27.049 176.126 17.5651 189.544 17.5651C204.998 17.5651 217.575 30.1418 217.575 45.5964C217.575 57.4444 211.025 71.0863 199.14 84.0088C188.619 95.4549 174.874 105.201 162.372 110.097C162.297 110.125 162.222 110.143 162.138 110.143L162.148 110.134ZM134.752 18.8265C119.988 18.8265 107.982 30.8333 107.982 45.5964C107.982 57.1267 114.41 70.4603 126.081 83.1492C136.415 94.3897 149.879 103.967 162.148 108.826C174.416 103.967 187.88 94.3897 198.215 83.1492C209.885 70.4603 216.314 57.1173 216.314 45.5964C216.314 30.8333 204.307 18.8265 189.544 18.8265C174.78 18.8265 162.774 30.8333 162.774 45.5964C162.774 45.9422 162.493 46.2318 162.148 46.2318C161.802 46.2318 161.522 45.9515 161.522 45.5964C161.522 30.8333 149.515 18.8265 134.752 18.8265Z" fill="#404235" stroke="#9A9D8A" stroke-width="0.4"/>
<path d="M162.148 105.593C162.064 105.593 161.979 105.574 161.905 105.546C150.431 100.715 137.844 91.596 128.248 81.1589C117.073 69.012 110.925 56.3792 110.925 45.5965C110.925 32.4591 121.614 21.7698 134.752 21.7698C147.889 21.7698 158.578 32.4591 158.578 45.5965C158.578 56.3698 151.309 65.8351 140.891 68.6196C140.554 68.713 140.208 68.5074 140.115 68.1711C140.022 67.8347 140.227 67.489 140.564 67.3955C150.421 64.7606 157.308 55.7999 157.308 45.5965C157.308 33.1505 147.188 23.0312 134.742 23.0312C122.296 23.0312 112.186 33.1505 112.186 45.5965C112.186 56.0708 118.222 68.3953 129.173 80.3086C138.592 90.5494 150.898 99.4915 162.148 104.285C173.398 99.4915 185.703 90.5401 195.122 80.3086C206.073 68.3953 212.109 56.0708 212.109 45.5965C212.109 33.1505 201.99 23.0312 189.544 23.0312C177.098 23.0312 166.978 33.1505 166.978 45.5965C166.978 55.7999 173.865 64.7699 183.722 67.3955C184.059 67.489 184.255 67.8347 184.171 68.1711C184.087 68.5074 183.732 68.7037 183.395 68.6196C172.986 65.8445 165.708 56.3792 165.708 45.5965C165.708 32.4591 176.397 21.7698 189.534 21.7698C202.672 21.7698 213.361 32.4591 213.361 45.5965C213.361 56.3885 207.213 69.012 196.038 81.1589C186.442 91.596 173.855 100.715 162.381 105.546C162.307 105.584 162.222 105.593 162.138 105.593H162.148Z" fill="#404235" stroke="#9A9D8A" stroke-width="0.4"/>
<path d="M162.148 101.005C162.054 101.005 161.97 100.986 161.886 100.949C151.43 96.2024 140.012 87.737 131.341 78.3091C120.885 66.947 115.13 55.3233 115.13 45.5965C115.13 34.7763 123.932 25.9745 134.752 25.9745C145.572 25.9745 154.374 34.7763 154.374 45.5965C154.374 50.2964 152.673 54.8562 149.599 58.4161C146.553 61.9388 142.348 64.2747 137.779 64.9848C137.433 65.0409 137.116 64.798 137.06 64.4616C137.004 64.1159 137.246 63.7982 137.583 63.7421C146.441 62.3686 153.112 54.5665 153.112 45.6058C153.112 35.4865 144.88 27.2452 134.752 27.2452C124.623 27.2452 116.391 35.4678 116.391 45.5965C116.391 55.0057 122.035 66.321 132.266 77.4588C140.76 86.6905 151.907 94.9784 162.148 99.6877C172.388 94.9878 183.536 86.6905 192.029 77.4588C202.27 66.321 207.904 55.0057 207.904 45.5965C207.904 35.4771 199.672 27.2359 189.544 27.2359C179.415 27.2359 171.183 35.4678 171.183 45.5965C171.183 54.5665 177.864 62.3686 186.713 63.7328C187.058 63.7888 187.292 64.1065 187.236 64.4522C187.18 64.798 186.862 65.0316 186.516 64.9755C181.947 64.2654 177.742 61.9388 174.696 58.4068C171.613 54.8468 169.922 50.287 169.922 45.5871C169.922 34.767 178.724 25.9651 189.544 25.9651C200.364 25.9651 209.166 34.767 209.166 45.5871C209.166 55.314 203.41 66.9377 192.954 78.2997C184.283 87.7276 172.865 96.1931 162.409 100.94C162.325 100.977 162.241 100.996 162.148 100.996V101.005Z" fill="#404235" stroke="#9A9D8A" stroke-width="0.4"/>
</g>
</g>
<defs>
<clipPath id="clip0_136_254">
<rect width="100.913" height="135.485" fill="white" transform="translate(227.087 0.0855713)"/>
</clipPath>
<clipPath id="clip1_136_254">
<rect width="100.913" height="135.485" fill="white" transform="matrix(-1 0 0 -1 101.413 144.914)"/>
</clipPath>
<clipPath id="clip2_136_254">
<rect width="110.855" height="92.569" fill="white" transform="translate(106.72 17.5651)"/>
</clipPath>
</defs>
</svg>
