<?xml version="1.0" encoding="UTF-8"?><svg id="Layer_1" xmlns="http://www.w3.org/2000/svg" width="2385.82" height="572.61" viewBox="0 0 2385.82 572.61"><defs><style>.cls-1{fill:none;stroke:#00593b;}.cls-1,.cls-2{stroke-miterlimit:10;stroke-width:4px;}.cls-3{fill:#5b1627;stroke-width:0px;}.cls-2{fill:#00593b;stroke:#5b1627;}</style></defs><path class="cls-1" d="m1.37,6.53c6.45,6.03,16.46,6.03,22.91,0h0c6.45-6.03,16.46-6.03,22.91,0h0c6.45,6.03,16.46,6.03,22.9,0h0c6.45-6.03,16.46-6.03,22.91,0h0c6.45,6.03,16.46,6.03,22.91,0h0c6.45-6.03,16.46-6.03,22.9,0h0c6.45,6.03,16.46,6.03,22.9,0h0c6.45-6.03,16.46-6.03,22.9,0h0c6.45,6.03,16.46,6.03,22.9,0h0c6.45-6.03,16.46-6.03,22.9,0h0c6.45,6.03,16.46,6.03,22.9,0h0c6.45-6.03,16.46-6.03,22.9,0h0c6.45,6.03,16.46,6.03,22.9,0h0c6.45-6.03,16.46-6.03,22.9,0h0c6.45,6.03,16.46,6.03,22.9,0h0c6.45-6.03,16.46-6.03,22.9,0h0c6.45,6.03,16.46,6.03,22.9,0h0c6.45-6.03,16.46-6.03,22.9,0h0c6.45,6.03,16.46,6.03,22.9,0h0c6.45-6.03,16.46-6.03,22.9,0h0c6.45,6.03,16.46,6.03,22.9,0h0c6.45-6.03,16.46-6.03,22.9,0h.01c6.45,6.03,16.46,6.03,22.9.01h.01c6.45-6.04,16.46-6.04,22.9-.01h.01c6.45,6.04,16.46,6.04,22.9.01h.01c6.44-6.04,16.46-6.04,22.9-.01l.02.02"/><path class="cls-1" d="m1.37,566.09c6.45,6.03,16.46,6.03,22.91,0h0c6.45-6.03,16.46-6.03,22.91,0h0c6.45,6.03,16.46,6.03,22.9,0h0c6.45-6.03,16.46-6.03,22.91,0h0c6.45,6.03,16.46,6.03,22.91,0h0c6.45-6.03,16.46-6.03,22.9,0h0c6.45,6.03,16.46,6.03,22.9,0h0c6.45-6.03,16.46-6.03,22.9,0h0c6.45,6.03,16.46,6.03,22.9,0h0c6.45-6.03,16.46-6.03,22.9,0h0c6.45,6.03,16.46,6.03,22.9,0h0c6.45-6.03,16.46-6.03,22.9,0h0c6.45,6.03,16.46,6.03,22.9,0h0c6.45-6.03,16.46-6.03,22.9,0h0c6.45,6.03,16.46,6.03,22.9,0h0c6.45-6.03,16.46-6.03,22.9,0h0c6.45,6.03,16.46,6.03,22.9,0h0c6.45-6.03,16.46-6.03,22.9,0h0c6.45,6.03,16.46,6.03,22.9,0h0c6.45-6.03,16.46-6.03,22.9,0h0c6.45,6.03,16.46,6.03,22.9,0h0c6.45-6.03,16.46-6.03,22.9,0h.01c6.45,6.03,16.46,6.03,22.9.01h.01c6.45-6.04,16.46-6.04,22.9-.01h.01c6.45,6.04,16.46,6.04,22.9.01h.01c6.44-6.04,16.46-6.04,22.9-.01l.02.02"/><path class="cls-3" d="m371.65,490.86c-20.89-51.87-47.47-101.23-58.07-157.25-6.17-32.6-11.83-65.36-14.65-98.44-2.59-30.33-.38-60.82.87-91.16.09-2.26-.19-5.1-2.31-5.87-5.59-2.02-12.31,13.71-14.32,17.14-14.07,24.03-21.46,52.44-19.14,80.29.55,6.61,2.2,13.15,3.9,19.54,5.27,19.79,12.3,39.14,19.44,58.32,9,24.18,18.6,48.14,28.41,72,9.57,23.26,19.38,46.41,29.35,69.5,7.33,16.98,14.74,33.92,22.25,50.81,1.98,4.45,3.96,8.9,5.95,13.34.24.54.83,2.73,1.41,3.03,4.71,2.25,1.03-11.06.73-12.66-1.17-6.22-2.46-12.42-3.82-18.6Z"/><path class="cls-3" d="m438.31,491.71c20.89-51.87,47.47-101.23,58.07-157.25,6.17-32.6,11.83-65.36,14.65-98.44,2.59-30.33.38-60.82-.87-91.16-.09-2.26.19-5.1,2.31-5.87,5.59-2.02,12.31,13.71,14.32,17.14,14.07,24.03,21.46,52.44,19.14,80.29-.55,6.61-2.2,13.15-3.9,19.54-5.27,19.79-12.3,39.14-19.44,58.32-9,24.18-18.6,48.14-28.41,72-9.57,23.26-19.38,46.41-29.35,69.5-7.33,16.98-14.74,33.92-22.25,50.81-1.98,4.45-3.96,8.9-5.95,13.34-.24.54-.83,2.73-1.41,3.03-4.71,2.25-1.03-11.06-.73-12.66,1.17-6.22,2.46-12.42,3.82-18.6Z"/><line class="cls-2" x1="407.52" y1="193.78" x2="407.52" y2="516.54"/><path class="cls-3" d="m414.2,237.64c7.24-4.3,16.87-4.94,25.92-5.05,3.07-.04,6.19-.03,9.12.7s5.67,2.28,6.81,4.54c1.1,2.19.45,4.87-1.6,6.58s-5.39,2.36-8.21,1.6c-4.97-1.35-7.09-6.17-11.71-8.16-2.69-1.16-5.99-1.21-8.94-.54s-5.58,2.01-8,3.5c-1.11.69-2.29,1.45-3.69,1.54-4.85.33-1.41-3.69.3-4.71Z"/><path class="cls-3" d="m400.87,237.64c-7.24-4.3-16.87-4.94-25.92-5.05-3.07-.04-6.19-.03-9.12.7s-5.67,2.28-6.81,4.54c-1.1,2.19-.45,4.87,1.6,6.58s5.39,2.36,8.21,1.6c4.97-1.35,7.09-6.17,11.71-8.16,2.69-1.16,5.99-1.21,8.94-.54s5.58,2.01,8,3.5c1.11.69,2.29,1.45,3.69,1.54,4.85.33,1.41-3.69-.3-4.71Z"/><path class="cls-3" d="m414.2,263.72c7.24-4.3,16.87-4.94,25.92-5.05,3.07-.04,6.19-.03,9.12.7s5.67,2.28,6.81,4.54c1.1,2.19.45,4.87-1.6,6.58s-5.39,2.36-8.21,1.6c-4.97-1.35-7.09-6.17-11.71-8.16-2.69-1.16-5.99-1.21-8.94-.54s-5.58,2.01-8,3.5c-1.11.69-2.29,1.45-3.69,1.54-4.85.33-1.41-3.69.3-4.71Z"/><path class="cls-3" d="m400.87,263.72c-7.24-4.3-16.87-4.94-25.92-5.05-3.07-.04-6.19-.03-9.12.7s-5.67,2.28-6.81,4.54c-1.1,2.19-.45,4.87,1.6,6.58s5.39,2.36,8.21,1.6c4.97-1.35,7.09-6.17,11.71-8.16,2.69-1.16,5.99-1.21,8.94-.54s5.58,2.01,8,3.5c1.11.69,2.29,1.45,3.69,1.54,4.85.33,1.41-3.69-.3-4.71Z"/><path class="cls-3" d="m414.2,288.66c7.24-4.3,16.87-4.94,25.92-5.05,3.07-.04,6.19-.03,9.12.7,2.93.73,5.67,2.28,6.81,4.54,1.1,2.19.45,4.87-1.6,6.58s-5.39,2.36-8.21,1.6c-4.97-1.35-7.09-6.17-11.71-8.16-2.69-1.16-5.99-1.21-8.94-.54s-5.58,2.01-8,3.5c-1.11.69-2.29,1.45-3.69,1.54-4.85.33-1.41-3.69.3-4.71Z"/><path class="cls-3" d="m400.87,288.66c-7.24-4.3-16.87-4.94-25.92-5.05-3.07-.04-6.19-.03-9.12.7s-5.67,2.28-6.81,4.54c-1.1,2.19-.45,4.87,1.6,6.58s5.39,2.36,8.21,1.6c4.97-1.35,7.09-6.17,11.71-8.16,2.69-1.16,5.99-1.21,8.94-.54,2.95.67,5.58,2.01,8,3.5,1.11.69,2.29,1.45,3.69,1.54,4.85.33,1.41-3.69-.3-4.71Z"/><path class="cls-3" d="m414.2,315.5c7.24-4.3,16.87-4.94,25.92-5.05,3.07-.04,6.19-.03,9.12.7s5.67,2.28,6.81,4.54c1.1,2.19.45,4.87-1.6,6.58s-5.39,2.36-8.21,1.6c-4.97-1.35-7.09-6.17-11.71-8.16-2.69-1.16-5.99-1.21-8.94-.54s-5.58,2.01-8,3.5c-1.11.69-2.29,1.45-3.69,1.54-4.85.33-1.41-3.69.3-4.71Z"/><path class="cls-3" d="m400.87,315.5c-7.24-4.3-16.87-4.94-25.92-5.05-3.07-.04-6.19-.03-9.12.7-2.93.73-5.67,2.28-6.81,4.54-1.1,2.19-.45,4.87,1.6,6.58s5.39,2.36,8.21,1.6c4.97-1.35,7.09-6.17,11.71-8.16,2.69-1.16,5.99-1.21,8.94-.54s5.58,2.01,8,3.5c1.11.69,2.29,1.45,3.69,1.54,4.85.33,1.41-3.69-.3-4.71Z"/><path class="cls-3" d="m414.2,341.57c7.24-4.3,16.87-4.94,25.92-5.05,3.07-.04,6.19-.03,9.12.7s5.67,2.28,6.81,4.54c1.1,2.19.45,4.87-1.6,6.58s-5.39,2.36-8.21,1.6c-4.97-1.35-7.09-6.17-11.71-8.16-2.69-1.16-5.99-1.21-8.94-.54s-5.58,2.01-8,3.5c-1.11.69-2.29,1.45-3.69,1.54-4.85.33-1.41-3.69.3-4.71Z"/><path class="cls-3" d="m400.87,341.57c-7.24-4.3-16.87-4.94-25.92-5.05-3.07-.04-6.19-.03-9.12.7s-5.67,2.28-6.81,4.54c-1.1,2.19-.45,4.87,1.6,6.58s5.39,2.36,8.21,1.6c4.97-1.35,7.09-6.17,11.71-8.16,2.69-1.16,5.99-1.21,8.94-.54s5.58,2.01,8,3.5c1.11.69,2.29,1.45,3.69,1.54,4.85.33,1.41-3.69-.3-4.71Z"/><path class="cls-3" d="m414.2,366.52c7.24-4.3,16.87-4.94,25.92-5.05,3.07-.04,6.19-.03,9.12.7s5.67,2.28,6.81,4.54c1.1,2.19.45,4.87-1.6,6.58s-5.39,2.36-8.21,1.6c-4.97-1.35-7.09-6.17-11.71-8.16-2.69-1.16-5.99-1.21-8.94-.54s-5.58,2.01-8,3.5c-1.11.69-2.29,1.45-3.69,1.54-4.85.33-1.41-3.69.3-4.71Z"/><path class="cls-3" d="m400.87,366.52c-7.24-4.3-16.87-4.94-25.92-5.05-3.07-.04-6.19-.03-9.12.7s-5.67,2.28-6.81,4.54c-1.1,2.19-.45,4.87,1.6,6.58s5.39,2.36,8.21,1.6c4.97-1.35,7.09-6.17,11.71-8.16,2.69-1.16,5.99-1.21,8.94-.54,2.95.67,5.58,2.01,8,3.5,1.11.69,2.29,1.45,3.69,1.54,4.85.33,1.41-3.69-.3-4.71Z"/><path class="cls-3" d="m414.2,387.31c7.24-4.3,16.87-4.94,25.92-5.05,3.07-.04,6.19-.03,9.12.7s5.67,2.28,6.81,4.54c1.1,2.19.45,4.87-1.6,6.58s-5.39,2.36-8.21,1.6c-4.97-1.35-7.09-6.17-11.71-8.16-2.69-1.16-5.99-1.21-8.94-.54s-5.58,2.01-8,3.5c-1.11.69-2.29,1.45-3.69,1.54-4.85.33-1.41-3.69.3-4.71Z"/><path class="cls-3" d="m400.87,387.31c-7.24-4.3-16.87-4.94-25.92-5.05-3.07-.04-6.19-.03-9.12.7-2.93.73-5.67,2.28-6.81,4.54-1.1,2.19-.45,4.87,1.6,6.58s5.39,2.36,8.21,1.6c4.97-1.35,7.09-6.17,11.71-8.16,2.69-1.16,5.99-1.21,8.94-.54s5.58,2.01,8,3.5c1.11.69,2.29,1.45,3.69,1.54,4.85.33,1.41-3.69-.3-4.71Z"/><path class="cls-3" d="m414.2,413.39c7.24-4.3,16.87-4.94,25.92-5.05,3.07-.04,6.19-.03,9.12.7s5.67,2.28,6.81,4.54c1.1,2.19.45,4.87-1.6,6.58s-5.39,2.36-8.21,1.6c-4.97-1.35-7.09-6.17-11.71-8.16-2.69-1.16-5.99-1.21-8.94-.54s-5.58,2.01-8,3.5c-1.11.69-2.29,1.45-3.69,1.54-4.85.33-1.41-3.69.3-4.71Z"/><path class="cls-3" d="m400.87,413.39c-7.24-4.3-16.87-4.94-25.92-5.05-3.07-.04-6.19-.03-9.12.7s-5.67,2.28-6.81,4.54c-1.1,2.19-.45,4.87,1.6,6.58s5.39,2.36,8.21,1.6c4.97-1.35,7.09-6.17,11.71-8.16,2.69-1.16,5.99-1.21,8.94-.54s5.58,2.01,8,3.5c1.11.69,2.29,1.45,3.69,1.54,4.85.33,1.41-3.69-.3-4.71Z"/><path class="cls-3" d="m414.2,438.33c7.24-4.3,16.87-4.94,25.92-5.05,3.07-.04,6.19-.03,9.12.7s5.67,2.28,6.81,4.54c1.1,2.19.45,4.87-1.6,6.58s-5.39,2.36-8.21,1.6c-4.97-1.35-7.09-6.17-11.71-8.16-2.69-1.16-5.99-1.21-8.94-.54s-5.58,2.01-8,3.5c-1.11.69-2.29,1.45-3.69,1.54-4.85.33-1.41-3.69.3-4.71Z"/><path class="cls-3" d="m400.87,438.33c-7.24-4.3-16.87-4.94-25.92-5.05-3.07-.04-6.19-.03-9.12.7s-5.67,2.28-6.81,4.54c-1.1,2.19-.45,4.87,1.6,6.58s5.39,2.36,8.21,1.6c4.97-1.35,7.09-6.17,11.71-8.16,2.69-1.16,5.99-1.21,8.94-.54,2.95.67,5.58,2.01,8,3.5,1.11.69,2.29,1.45,3.69,1.54,4.85.33,1.41-3.69-.3-4.71Z"/><line class="cls-1" x1="407.52" y1="67.15" x2="407.52" y2="193.78"/><path class="cls-1" d="m165.4,81.96c.13-1.02.3-2.03.51-3.03,3.1-14.69,17.75,1.01,22.45,6.07,19.17,20.68,35.26,60.91,4.51,79.33l-32.06,19.19-4.21,2.52c-6.04,3.62-12.67,4.89-19,4.21h-.02"/><path class="cls-1" d="m109.95,83.61h0c-.17-1.58-.39-3.14-.71-4.68-3.1-14.69-17.75,1.01-22.45,6.07-19.17,20.68-35.26,60.91-4.5,79.33l36.26,21.71c1.64.98,3.32,1.79,5.03,2.43.01,0,.02.01.03.01,4.59,1.73,9.36,2.27,13.97,1.77h.02"/><path class="cls-1" d="m177.79,89.68l-38.79-24.18-38.79,24.18c-19.21,11.97-24.23,37.72-10.93,56.03l24.84,34.2c12.28,16.91,37.48,16.91,49.77,0l24.84-34.2c13.3-18.31,8.28-44.06-10.93-56.03Z"/><line class="cls-2" x1="138.8" y1="193.78" x2="138.8" y2="516.54"/><path class="cls-3" d="m145.48,237.64c7.24-4.3,16.87-4.94,25.92-5.05,3.07-.04,6.19-.03,9.12.7s5.67,2.28,6.81,4.54c1.1,2.19.45,4.87-1.6,6.58s-5.39,2.36-8.21,1.6c-4.97-1.35-7.09-6.17-11.71-8.16-2.69-1.16-5.99-1.21-8.94-.54s-5.58,2.01-8,3.5c-1.11.69-2.29,1.45-3.69,1.54-4.85.33-1.41-3.69.3-4.71Z"/><path class="cls-3" d="m132.15,237.64c-7.24-4.3-16.87-4.94-25.92-5.05-3.07-.04-6.19-.03-9.12.7s-5.67,2.28-6.81,4.54c-1.1,2.19-.45,4.87,1.6,6.58s5.39,2.36,8.21,1.6c4.97-1.35,7.09-6.17,11.71-8.16,2.69-1.16,5.99-1.21,8.94-.54s5.58,2.01,8,3.5c1.11.69,2.29,1.45,3.69,1.54,4.85.33,1.41-3.69-.3-4.71Z"/><path class="cls-3" d="m145.48,263.72c7.24-4.3,16.87-4.94,25.92-5.05,3.07-.04,6.19-.03,9.12.7s5.67,2.28,6.81,4.54c1.1,2.19.45,4.87-1.6,6.58s-5.39,2.36-8.21,1.6c-4.97-1.35-7.09-6.17-11.71-8.16-2.69-1.16-5.99-1.21-8.94-.54s-5.58,2.01-8,3.5c-1.11.69-2.29,1.45-3.69,1.54-4.85.33-1.41-3.69.3-4.71Z"/><path class="cls-3" d="m132.15,263.72c-7.24-4.3-16.87-4.94-25.92-5.05-3.07-.04-6.19-.03-9.12.7s-5.67,2.28-6.81,4.54c-1.1,2.19-.45,4.87,1.6,6.58s5.39,2.36,8.21,1.6c4.97-1.35,7.09-6.17,11.71-8.16,2.69-1.16,5.99-1.21,8.94-.54s5.58,2.01,8,3.5c1.11.69,2.29,1.45,3.69,1.54,4.85.33,1.41-3.69-.3-4.71Z"/><path class="cls-3" d="m145.48,288.66c7.24-4.3,16.87-4.94,25.92-5.05,3.07-.04,6.19-.03,9.12.7,2.93.73,5.67,2.28,6.81,4.54,1.1,2.19.45,4.87-1.6,6.58s-5.39,2.36-8.21,1.6c-4.97-1.35-7.09-6.17-11.71-8.16-2.69-1.16-5.99-1.21-8.94-.54s-5.58,2.01-8,3.5c-1.11.69-2.29,1.45-3.69,1.54-4.85.33-1.41-3.69.3-4.71Z"/><path class="cls-3" d="m132.15,288.66c-7.24-4.3-16.87-4.94-25.92-5.05-3.07-.04-6.19-.03-9.12.7s-5.67,2.28-6.81,4.54c-1.1,2.19-.45,4.87,1.6,6.58s5.39,2.36,8.21,1.6c4.97-1.35,7.09-6.17,11.71-8.16,2.69-1.16,5.99-1.21,8.94-.54,2.95.67,5.58,2.01,8,3.5,1.11.69,2.29,1.45,3.69,1.54,4.85.33,1.41-3.69-.3-4.71Z"/><path class="cls-3" d="m145.48,315.5c7.24-4.3,16.87-4.94,25.92-5.05,3.07-.04,6.19-.03,9.12.7s5.67,2.28,6.81,4.54c1.1,2.19.45,4.87-1.6,6.58s-5.39,2.36-8.21,1.6c-4.97-1.35-7.09-6.17-11.71-8.16-2.69-1.16-5.99-1.21-8.94-.54s-5.58,2.01-8,3.5c-1.11.69-2.29,1.45-3.69,1.54-4.85.33-1.41-3.69.3-4.71Z"/><path class="cls-3" d="m132.15,315.5c-7.24-4.3-16.87-4.94-25.92-5.05-3.07-.04-6.19-.03-9.12.7-2.93.73-5.67,2.28-6.81,4.54-1.1,2.19-.45,4.87,1.6,6.58s5.39,2.36,8.21,1.6c4.97-1.35,7.09-6.17,11.71-8.16,2.69-1.16,5.99-1.21,8.94-.54s5.58,2.01,8,3.5c1.11.69,2.29,1.45,3.69,1.54,4.85.33,1.41-3.69-.3-4.71Z"/><path class="cls-3" d="m145.48,341.57c7.24-4.3,16.87-4.94,25.92-5.05,3.07-.04,6.19-.03,9.12.7s5.67,2.28,6.81,4.54c1.1,2.19.45,4.87-1.6,6.58s-5.39,2.36-8.21,1.6c-4.97-1.35-7.09-6.17-11.71-8.16-2.69-1.16-5.99-1.21-8.94-.54s-5.58,2.01-8,3.5c-1.11.69-2.29,1.45-3.69,1.54-4.85.33-1.41-3.69.3-4.71Z"/><path class="cls-3" d="m132.15,341.57c-7.24-4.3-16.87-4.94-25.92-5.05-3.07-.04-6.19-.03-9.12.7s-5.67,2.28-6.81,4.54c-1.1,2.19-.45,4.87,1.6,6.58s5.39,2.36,8.21,1.6c4.97-1.35,7.09-6.17,11.71-8.16,2.69-1.16,5.99-1.21,8.94-.54s5.58,2.01,8,3.5c1.11.69,2.29,1.45,3.69,1.54,4.85.33,1.41-3.69-.3-4.71Z"/><path class="cls-3" d="m145.48,366.52c7.24-4.3,16.87-4.94,25.92-5.05,3.07-.04,6.19-.03,9.12.7s5.67,2.28,6.81,4.54c1.1,2.19.45,4.87-1.6,6.58s-5.39,2.36-8.21,1.6c-4.97-1.35-7.09-6.17-11.71-8.16-2.69-1.16-5.99-1.21-8.94-.54s-5.58,2.01-8,3.5c-1.11.69-2.29,1.45-3.69,1.54-4.85.33-1.41-3.69.3-4.71Z"/><path class="cls-3" d="m132.15,366.52c-7.24-4.3-16.87-4.94-25.92-5.05-3.07-.04-6.19-.03-9.12.7s-5.67,2.28-6.81,4.54c-1.1,2.19-.45,4.87,1.6,6.58s5.39,2.36,8.21,1.6c4.97-1.35,7.09-6.17,11.71-8.16,2.69-1.16,5.99-1.21,8.94-.54,2.95.67,5.58,2.01,8,3.5,1.11.69,2.29,1.45,3.69,1.54,4.85.33,1.41-3.69-.3-4.71Z"/><path class="cls-3" d="m145.48,387.31c7.24-4.3,16.87-4.94,25.92-5.05,3.07-.04,6.19-.03,9.12.7s5.67,2.28,6.81,4.54c1.1,2.19.45,4.87-1.6,6.58s-5.39,2.36-8.21,1.6c-4.97-1.35-7.09-6.17-11.71-8.16-2.69-1.16-5.99-1.21-8.94-.54s-5.58,2.01-8,3.5c-1.11.69-2.29,1.45-3.69,1.54-4.85.33-1.41-3.69.3-4.71Z"/><path class="cls-3" d="m132.15,387.31c-7.24-4.3-16.87-4.94-25.92-5.05-3.07-.04-6.19-.03-9.12.7-2.93.73-5.67,2.28-6.81,4.54-1.1,2.19-.45,4.87,1.6,6.58s5.39,2.36,8.21,1.6c4.97-1.35,7.09-6.17,11.71-8.16,2.69-1.16,5.99-1.21,8.94-.54s5.58,2.01,8,3.5c1.11.69,2.29,1.45,3.69,1.54,4.85.33,1.41-3.69-.3-4.71Z"/><path class="cls-3" d="m145.48,413.39c7.24-4.3,16.87-4.94,25.92-5.05,3.07-.04,6.19-.03,9.12.7s5.67,2.28,6.81,4.54c1.1,2.19.45,4.87-1.6,6.58s-5.39,2.36-8.21,1.6c-4.97-1.35-7.09-6.17-11.71-8.16-2.69-1.16-5.99-1.21-8.94-.54s-5.58,2.01-8,3.5c-1.11.69-2.29,1.45-3.69,1.54-4.85.33-1.41-3.69.3-4.71Z"/><path class="cls-3" d="m132.15,413.39c-7.24-4.3-16.87-4.94-25.92-5.05-3.07-.04-6.19-.03-9.12.7s-5.67,2.28-6.81,4.54c-1.1,2.19-.45,4.87,1.6,6.58s5.39,2.36,8.21,1.6c4.97-1.35,7.09-6.17,11.71-8.16,2.69-1.16,5.99-1.21,8.94-.54s5.58,2.01,8,3.5c1.11.69,2.29,1.45,3.69,1.54,4.85.33,1.41-3.69-.3-4.71Z"/><path class="cls-3" d="m145.48,438.33c7.24-4.3,16.87-4.94,25.92-5.05,3.07-.04,6.19-.03,9.12.7s5.67,2.28,6.81,4.54c1.1,2.19.45,4.87-1.6,6.58s-5.39,2.36-8.21,1.6c-4.97-1.35-7.09-6.17-11.71-8.16-2.69-1.16-5.99-1.21-8.94-.54s-5.58,2.01-8,3.5c-1.11.69-2.29,1.45-3.69,1.54-4.85.33-1.41-3.69.3-4.71Z"/><path class="cls-3" d="m132.15,438.33c-7.24-4.3-16.87-4.94-25.92-5.05-3.07-.04-6.19-.03-9.12.7s-5.67,2.28-6.81,4.54c-1.1,2.19-.45,4.87,1.6,6.58s5.39,2.36,8.21,1.6c4.97-1.35,7.09-6.17,11.71-8.16,2.69-1.16,5.99-1.21,8.94-.54,2.95.67,5.58,2.01,8,3.5,1.11.69,2.29,1.45,3.69,1.54,4.85.33,1.41-3.69-.3-4.71Z"/><line class="cls-1" x1="138.8" y1="67.15" x2="138.8" y2="193.78"/><path class="cls-1" d="m433.69,82.3c.13-1.02.3-2.03.51-3.03,3.1-14.69,17.75,1.01,22.45,6.07,19.17,20.68,35.26,60.91,4.51,79.33l-32.06,19.19-4.21,2.52c-6.04,3.62-12.67,4.89-19,4.21h-.02"/><path class="cls-1" d="m378.24,83.95h0c-.17-1.58-.39-3.14-.71-4.68-3.1-14.69-17.75,1.01-22.45,6.07-19.17,20.68-35.26,60.91-4.5,79.33l36.26,21.71c1.64.98,3.32,1.79,5.03,2.43.01,0,.02.01.03.01,4.59,1.73,9.36,2.27,13.97,1.77h.02"/><path class="cls-1" d="m446.09,90.02l-38.79-24.18-38.79,24.18c-19.21,11.97-24.23,37.72-10.93,56.03l24.84,34.2c12.28,16.91,37.48,16.91,49.77,0l24.84-34.2c13.3-18.31,8.28-44.06-10.93-56.03Z"/><path class="cls-1" d="m596.97,6.53c6.45,6.03,16.46,6.03,22.91,0h0c6.45-6.03,16.46-6.03,22.91,0h0c6.45,6.03,16.46,6.03,22.9,0h0c6.45-6.03,16.46-6.03,22.91,0h0c6.45,6.03,16.46,6.03,22.91,0h0c6.45-6.03,16.46-6.03,22.9,0h0c6.45,6.03,16.46,6.03,22.9,0h0c6.45-6.03,16.46-6.03,22.9,0h0c6.45,6.03,16.46,6.03,22.9,0h0c6.45-6.03,16.46-6.03,22.9,0h0c6.45,6.03,16.46,6.03,22.9,0h0c6.45-6.03,16.46-6.03,22.9,0h0c6.45,6.03,16.46,6.03,22.9,0h0c6.45-6.03,16.46-6.03,22.9,0h0c6.45,6.03,16.46,6.03,22.9,0h0c6.45-6.03,16.46-6.03,22.9,0h0c6.45,6.03,16.46,6.03,22.9,0h0c6.45-6.03,16.46-6.03,22.9,0h0c6.45,6.03,16.46,6.03,22.9,0h0c6.45-6.03,16.46-6.03,22.9,0h0c6.45,6.03,16.46,6.03,22.9,0h0c6.45-6.03,16.46-6.03,22.9,0h.01c6.45,6.03,16.46,6.03,22.9.01h.01c6.45-6.04,16.46-6.04,22.9-.01h.01c6.45,6.04,16.46,6.04,22.9.01h.01c6.44-6.04,16.46-6.04,22.9-.01l.02.02"/><path class="cls-1" d="m596.97,566.09c6.45,6.03,16.46,6.03,22.91,0h0c6.45-6.03,16.46-6.03,22.91,0h0c6.45,6.03,16.46,6.03,22.9,0h0c6.45-6.03,16.46-6.03,22.91,0h0c6.45,6.03,16.46,6.03,22.91,0h0c6.45-6.03,16.46-6.03,22.9,0h0c6.45,6.03,16.46,6.03,22.9,0h0c6.45-6.03,16.46-6.03,22.9,0h0c6.45,6.03,16.46,6.03,22.9,0h0c6.45-6.03,16.46-6.03,22.9,0h0c6.45,6.03,16.46,6.03,22.9,0h0c6.45-6.03,16.46-6.03,22.9,0h0c6.45,6.03,16.46,6.03,22.9,0h0c6.45-6.03,16.46-6.03,22.9,0h0c6.45,6.03,16.46,6.03,22.9,0h0c6.45-6.03,16.46-6.03,22.9,0h0c6.45,6.03,16.46,6.03,22.9,0h0c6.45-6.03,16.46-6.03,22.9,0h0c6.45,6.03,16.46,6.03,22.9,0h0c6.45-6.03,16.46-6.03,22.9,0h0c6.45,6.03,16.46,6.03,22.9,0h0c6.45-6.03,16.46-6.03,22.9,0h.01c6.45,6.03,16.46,6.03,22.9.01h.01c6.45-6.04,16.46-6.04,22.9-.01h.01c6.45,6.04,16.46,6.04,22.9.01h.01c6.44-6.04,16.46-6.04,22.9-.01l.02.02"/><path class="cls-3" d="m967.25,490.86c-20.89-51.87-47.47-101.23-58.07-157.25-6.17-32.6-11.83-65.36-14.65-98.44-2.59-30.33-.38-60.82.87-91.16.09-2.26-.19-5.1-2.31-5.87-5.59-2.02-12.31,13.71-14.32,17.14-14.07,24.03-21.46,52.44-19.14,80.29.55,6.61,2.2,13.15,3.9,19.54,5.27,19.79,12.3,39.14,19.44,58.32,9,24.18,18.6,48.14,28.41,72,9.57,23.26,19.38,46.41,29.35,69.5,7.33,16.98,14.74,33.92,22.25,50.81,1.98,4.45,3.96,8.9,5.95,13.34.24.54.83,2.73,1.41,3.03,4.71,2.25,1.03-11.06.73-12.66-1.17-6.22-2.46-12.42-3.82-18.6Z"/><path class="cls-3" d="m1033.91,491.71c20.89-51.87,47.47-101.23,58.07-157.25,6.17-32.6,11.83-65.36,14.65-98.44,2.59-30.33.38-60.82-.87-91.16-.09-2.26.19-5.1,2.31-5.87,5.59-2.02,12.31,13.71,14.32,17.14,14.07,24.03,21.46,52.44,19.14,80.29-.55,6.61-2.2,13.15-3.9,19.54-5.27,19.79-12.3,39.14-19.44,58.32-9,24.18-18.6,48.14-28.41,72-9.57,23.26-19.38,46.41-29.35,69.5-7.33,16.98-14.74,33.92-22.25,50.81-1.98,4.45-3.96,8.9-5.95,13.34-.24.54-.83,2.73-1.41,3.03-4.71,2.25-1.03-11.06-.73-12.66,1.17-6.22,2.46-12.42,3.82-18.6Z"/><line class="cls-2" x1="1003.12" y1="193.78" x2="1003.12" y2="516.54"/><path class="cls-3" d="m1009.8,237.64c7.24-4.3,16.87-4.94,25.92-5.05,3.07-.04,6.19-.03,9.12.7s5.67,2.28,6.81,4.54c1.1,2.19.45,4.87-1.6,6.58s-5.39,2.36-8.21,1.6c-4.97-1.35-7.09-6.17-11.71-8.16-2.69-1.16-5.99-1.21-8.94-.54s-5.58,2.01-8,3.5c-1.11.69-2.29,1.45-3.69,1.54-4.85.33-1.41-3.69.3-4.71Z"/><path class="cls-3" d="m996.48,237.64c-7.24-4.3-16.87-4.94-25.92-5.05-3.07-.04-6.19-.03-9.12.7s-5.67,2.28-6.81,4.54c-1.1,2.19-.45,4.87,1.6,6.58s5.39,2.36,8.21,1.6c4.97-1.35,7.09-6.17,11.71-8.16,2.69-1.16,5.99-1.21,8.94-.54s5.58,2.01,8,3.5c1.11.69,2.29,1.45,3.69,1.54,4.85.33,1.41-3.69-.3-4.71Z"/><path class="cls-3" d="m1009.8,263.72c7.24-4.3,16.87-4.94,25.92-5.05,3.07-.04,6.19-.03,9.12.7s5.67,2.28,6.81,4.54c1.1,2.19.45,4.87-1.6,6.58s-5.39,2.36-8.21,1.6c-4.97-1.35-7.09-6.17-11.71-8.16-2.69-1.16-5.99-1.21-8.94-.54s-5.58,2.01-8,3.5c-1.11.69-2.29,1.45-3.69,1.54-4.85.33-1.41-3.69.3-4.71Z"/><path class="cls-3" d="m996.48,263.72c-7.24-4.3-16.87-4.94-25.92-5.05-3.07-.04-6.19-.03-9.12.7s-5.67,2.28-6.81,4.54c-1.1,2.19-.45,4.87,1.6,6.58s5.39,2.36,8.21,1.6c4.97-1.35,7.09-6.17,11.71-8.16,2.69-1.16,5.99-1.21,8.94-.54s5.58,2.01,8,3.5c1.11.69,2.29,1.45,3.69,1.54,4.85.33,1.41-3.69-.3-4.71Z"/><path class="cls-3" d="m1009.8,288.66c7.24-4.3,16.87-4.94,25.92-5.05,3.07-.04,6.19-.03,9.12.7,2.93.73,5.67,2.28,6.81,4.54,1.1,2.19.45,4.87-1.6,6.58s-5.39,2.36-8.21,1.6c-4.97-1.35-7.09-6.17-11.71-8.16-2.69-1.16-5.99-1.21-8.94-.54s-5.58,2.01-8,3.5c-1.11.69-2.29,1.45-3.69,1.54-4.85.33-1.41-3.69.3-4.71Z"/><path class="cls-3" d="m996.48,288.66c-7.24-4.3-16.87-4.94-25.92-5.05-3.07-.04-6.19-.03-9.12.7s-5.67,2.28-6.81,4.54c-1.1,2.19-.45,4.87,1.6,6.58s5.39,2.36,8.21,1.6c4.97-1.35,7.09-6.17,11.71-8.16,2.69-1.16,5.99-1.21,8.94-.54,2.95.67,5.58,2.01,8,3.5,1.11.69,2.29,1.45,3.69,1.54,4.85.33,1.41-3.69-.3-4.71Z"/><path class="cls-3" d="m1009.8,315.5c7.24-4.3,16.87-4.94,25.92-5.05,3.07-.04,6.19-.03,9.12.7s5.67,2.28,6.81,4.54c1.1,2.19.45,4.87-1.6,6.58s-5.39,2.36-8.21,1.6c-4.97-1.35-7.09-6.17-11.71-8.16-2.69-1.16-5.99-1.21-8.94-.54s-5.58,2.01-8,3.5c-1.11.69-2.29,1.45-3.69,1.54-4.85.33-1.41-3.69.3-4.71Z"/><path class="cls-3" d="m996.48,315.5c-7.24-4.3-16.87-4.94-25.92-5.05-3.07-.04-6.19-.03-9.12.7-2.93.73-5.67,2.28-6.81,4.54-1.1,2.19-.45,4.87,1.6,6.58s5.39,2.36,8.21,1.6c4.97-1.35,7.09-6.17,11.71-8.16,2.69-1.16,5.99-1.21,8.94-.54s5.58,2.01,8,3.5c1.11.69,2.29,1.45,3.69,1.54,4.85.33,1.41-3.69-.3-4.71Z"/><path class="cls-3" d="m1009.8,341.57c7.24-4.3,16.87-4.94,25.92-5.05,3.07-.04,6.19-.03,9.12.7s5.67,2.28,6.81,4.54c1.1,2.19.45,4.87-1.6,6.58s-5.39,2.36-8.21,1.6c-4.97-1.35-7.09-6.17-11.71-8.16-2.69-1.16-5.99-1.21-8.94-.54s-5.58,2.01-8,3.5c-1.11.69-2.29,1.45-3.69,1.54-4.85.33-1.41-3.69.3-4.71Z"/><path class="cls-3" d="m996.48,341.57c-7.24-4.3-16.87-4.94-25.92-5.05-3.07-.04-6.19-.03-9.12.7s-5.67,2.28-6.81,4.54c-1.1,2.19-.45,4.87,1.6,6.58s5.39,2.36,8.21,1.6c4.97-1.35,7.09-6.17,11.71-8.16,2.69-1.16,5.99-1.21,8.94-.54s5.58,2.01,8,3.5c1.11.69,2.29,1.45,3.69,1.54,4.85.33,1.41-3.69-.3-4.71Z"/><path class="cls-3" d="m1009.8,366.52c7.24-4.3,16.87-4.94,25.92-5.05,3.07-.04,6.19-.03,9.12.7s5.67,2.28,6.81,4.54c1.1,2.19.45,4.87-1.6,6.58s-5.39,2.36-8.21,1.6c-4.97-1.35-7.09-6.17-11.71-8.16-2.69-1.16-5.99-1.21-8.94-.54s-5.58,2.01-8,3.5c-1.11.69-2.29,1.45-3.69,1.54-4.85.33-1.41-3.69.3-4.71Z"/><path class="cls-3" d="m996.48,366.52c-7.24-4.3-16.87-4.94-25.92-5.05-3.07-.04-6.19-.03-9.12.7s-5.67,2.28-6.81,4.54c-1.1,2.19-.45,4.87,1.6,6.58s5.39,2.36,8.21,1.6c4.97-1.35,7.09-6.17,11.71-8.16,2.69-1.16,5.99-1.21,8.94-.54,2.95.67,5.58,2.01,8,3.5,1.11.69,2.29,1.45,3.69,1.54,4.85.33,1.41-3.69-.3-4.71Z"/><path class="cls-3" d="m1009.8,387.31c7.24-4.3,16.87-4.94,25.92-5.05,3.07-.04,6.19-.03,9.12.7s5.67,2.28,6.81,4.54c1.1,2.19.45,4.87-1.6,6.58s-5.39,2.36-8.21,1.6c-4.97-1.35-7.09-6.17-11.71-8.16-2.69-1.16-5.99-1.21-8.94-.54s-5.58,2.01-8,3.5c-1.11.69-2.29,1.45-3.69,1.54-4.85.33-1.41-3.69.3-4.71Z"/><path class="cls-3" d="m996.48,387.31c-7.24-4.3-16.87-4.94-25.92-5.05-3.07-.04-6.19-.03-9.12.7-2.93.73-5.67,2.28-6.81,4.54-1.1,2.19-.45,4.87,1.6,6.58s5.39,2.36,8.21,1.6c4.97-1.35,7.09-6.17,11.71-8.16,2.69-1.16,5.99-1.21,8.94-.54s5.58,2.01,8,3.5c1.11.69,2.29,1.45,3.69,1.54,4.85.33,1.41-3.69-.3-4.71Z"/><path class="cls-3" d="m1009.8,413.39c7.24-4.3,16.87-4.94,25.92-5.05,3.07-.04,6.19-.03,9.12.7s5.67,2.28,6.81,4.54c1.1,2.19.45,4.87-1.6,6.58s-5.39,2.36-8.21,1.6c-4.97-1.35-7.09-6.17-11.71-8.16-2.69-1.16-5.99-1.21-8.94-.54s-5.58,2.01-8,3.5c-1.11.69-2.29,1.45-3.69,1.54-4.85.33-1.41-3.69.3-4.71Z"/><path class="cls-3" d="m996.48,413.39c-7.24-4.3-16.87-4.94-25.92-5.05-3.07-.04-6.19-.03-9.12.7s-5.67,2.28-6.81,4.54c-1.1,2.19-.45,4.87,1.6,6.58s5.39,2.36,8.21,1.6c4.97-1.35,7.09-6.17,11.71-8.16,2.69-1.16,5.99-1.21,8.94-.54s5.58,2.01,8,3.5c1.11.69,2.29,1.45,3.69,1.54,4.85.33,1.41-3.69-.3-4.71Z"/><path class="cls-3" d="m1009.8,438.33c7.24-4.3,16.87-4.94,25.92-5.05,3.07-.04,6.19-.03,9.12.7s5.67,2.28,6.81,4.54c1.1,2.19.45,4.87-1.6,6.58s-5.39,2.36-8.21,1.6c-4.97-1.35-7.09-6.17-11.71-8.16-2.69-1.16-5.99-1.21-8.94-.54s-5.58,2.01-8,3.5c-1.11.69-2.29,1.45-3.69,1.54-4.85.33-1.41-3.69.3-4.71Z"/><path class="cls-3" d="m996.48,438.33c-7.24-4.3-16.87-4.94-25.92-5.05-3.07-.04-6.19-.03-9.12.7s-5.67,2.28-6.81,4.54c-1.1,2.19-.45,4.87,1.6,6.58s5.39,2.36,8.21,1.6c4.97-1.35,7.09-6.17,11.71-8.16,2.69-1.16,5.99-1.21,8.94-.54,2.95.67,5.58,2.01,8,3.5,1.11.69,2.29,1.45,3.69,1.54,4.85.33,1.41-3.69-.3-4.71Z"/><line class="cls-1" x1="1003.12" y1="67.15" x2="1003.12" y2="193.78"/><path class="cls-1" d="m761,81.96c.13-1.02.3-2.03.51-3.03,3.1-14.69,17.75,1.01,22.45,6.07,19.17,20.68,35.26,60.91,4.51,79.33l-32.06,19.19-4.21,2.52c-6.04,3.62-12.67,4.89-19,4.21h-.02"/><path class="cls-1" d="m705.55,83.61h0c-.17-1.58-.39-3.14-.71-4.68-3.1-14.69-17.75,1.01-22.45,6.07-19.17,20.68-35.26,60.91-4.5,79.33l36.26,21.71c1.64.98,3.32,1.79,5.03,2.43.01,0,.02.01.03.01,4.59,1.73,9.36,2.27,13.97,1.77h.02"/><path class="cls-1" d="m773.39,89.68l-38.79-24.18-38.79,24.18c-19.21,11.97-24.23,37.72-10.93,56.03l24.84,34.2c12.28,16.91,37.48,16.91,49.77,0l24.84-34.2c13.3-18.31,8.28-44.06-10.93-56.03Z"/><line class="cls-2" x1="734.4" y1="193.78" x2="734.4" y2="516.54"/><path class="cls-3" d="m741.08,237.64c7.24-4.3,16.87-4.94,25.92-5.05,3.07-.04,6.19-.03,9.12.7s5.67,2.28,6.81,4.54c1.1,2.19.45,4.87-1.6,6.58s-5.39,2.36-8.21,1.6c-4.97-1.35-7.09-6.17-11.71-8.16-2.69-1.16-5.99-1.21-8.94-.54s-5.58,2.01-8,3.5c-1.11.69-2.29,1.45-3.69,1.54-4.85.33-1.41-3.69.3-4.71Z"/><path class="cls-3" d="m727.75,237.64c-7.24-4.3-16.87-4.94-25.92-5.05-3.07-.04-6.19-.03-9.12.7s-5.67,2.28-6.81,4.54c-1.1,2.19-.45,4.87,1.6,6.58s5.39,2.36,8.21,1.6c4.97-1.35,7.09-6.17,11.71-8.16,2.69-1.16,5.99-1.21,8.94-.54s5.58,2.01,8,3.5c1.11.69,2.29,1.45,3.69,1.54,4.85.33,1.41-3.69-.3-4.71Z"/><path class="cls-3" d="m741.08,263.72c7.24-4.3,16.87-4.94,25.92-5.05,3.07-.04,6.19-.03,9.12.7s5.67,2.28,6.81,4.54c1.1,2.19.45,4.87-1.6,6.58s-5.39,2.36-8.21,1.6c-4.97-1.35-7.09-6.17-11.71-8.16-2.69-1.16-5.99-1.21-8.94-.54s-5.58,2.01-8,3.5c-1.11.69-2.29,1.45-3.69,1.54-4.85.33-1.41-3.69.3-4.71Z"/><path class="cls-3" d="m727.75,263.72c-7.24-4.3-16.87-4.94-25.92-5.05-3.07-.04-6.19-.03-9.12.7s-5.67,2.28-6.81,4.54c-1.1,2.19-.45,4.87,1.6,6.58s5.39,2.36,8.21,1.6c4.97-1.35,7.09-6.17,11.71-8.16,2.69-1.16,5.99-1.21,8.94-.54s5.58,2.01,8,3.5c1.11.69,2.29,1.45,3.69,1.54,4.85.33,1.41-3.69-.3-4.71Z"/><path class="cls-3" d="m741.08,288.66c7.24-4.3,16.87-4.94,25.92-5.05,3.07-.04,6.19-.03,9.12.7,2.93.73,5.67,2.28,6.81,4.54,1.1,2.19.45,4.87-1.6,6.58s-5.39,2.36-8.21,1.6c-4.97-1.35-7.09-6.17-11.71-8.16-2.69-1.16-5.99-1.21-8.94-.54s-5.58,2.01-8,3.5c-1.11.69-2.29,1.45-3.69,1.54-4.85.33-1.41-3.69.3-4.71Z"/><path class="cls-3" d="m727.75,288.66c-7.24-4.3-16.87-4.94-25.92-5.05-3.07-.04-6.19-.03-9.12.7s-5.67,2.28-6.81,4.54c-1.1,2.19-.45,4.87,1.6,6.58s5.39,2.36,8.21,1.6c4.97-1.35,7.09-6.17,11.71-8.16,2.69-1.16,5.99-1.21,8.94-.54,2.95.67,5.58,2.01,8,3.5,1.11.69,2.29,1.45,3.69,1.54,4.85.33,1.41-3.69-.3-4.71Z"/><path class="cls-3" d="m741.08,315.5c7.24-4.3,16.87-4.94,25.92-5.05,3.07-.04,6.19-.03,9.12.7s5.67,2.28,6.81,4.54c1.1,2.19.45,4.87-1.6,6.58s-5.39,2.36-8.21,1.6c-4.97-1.35-7.09-6.17-11.71-8.16-2.69-1.16-5.99-1.21-8.94-.54s-5.58,2.01-8,3.5c-1.11.69-2.29,1.45-3.69,1.54-4.85.33-1.41-3.69.3-4.71Z"/><path class="cls-3" d="m727.75,315.5c-7.24-4.3-16.87-4.94-25.92-5.05-3.07-.04-6.19-.03-9.12.7-2.93.73-5.67,2.28-6.81,4.54-1.1,2.19-.45,4.87,1.6,6.58s5.39,2.36,8.21,1.6c4.97-1.35,7.09-6.17,11.71-8.16,2.69-1.16,5.99-1.21,8.94-.54s5.58,2.01,8,3.5c1.11.69,2.29,1.45,3.69,1.54,4.85.33,1.41-3.69-.3-4.71Z"/><path class="cls-3" d="m741.08,341.57c7.24-4.3,16.87-4.94,25.92-5.05,3.07-.04,6.19-.03,9.12.7s5.67,2.28,6.81,4.54c1.1,2.19.45,4.87-1.6,6.58s-5.39,2.36-8.21,1.6c-4.97-1.35-7.09-6.17-11.71-8.16-2.69-1.16-5.99-1.21-8.94-.54s-5.58,2.01-8,3.5c-1.11.69-2.29,1.45-3.69,1.54-4.85.33-1.41-3.69.3-4.71Z"/><path class="cls-3" d="m727.75,341.57c-7.24-4.3-16.87-4.94-25.92-5.05-3.07-.04-6.19-.03-9.12.7s-5.67,2.28-6.81,4.54c-1.1,2.19-.45,4.87,1.6,6.58s5.39,2.36,8.21,1.6c4.97-1.35,7.09-6.17,11.71-8.16,2.69-1.16,5.99-1.21,8.94-.54s5.58,2.01,8,3.5c1.11.69,2.29,1.45,3.69,1.54,4.85.33,1.41-3.69-.3-4.71Z"/><path class="cls-3" d="m741.08,366.52c7.24-4.3,16.87-4.94,25.92-5.05,3.07-.04,6.19-.03,9.12.7s5.67,2.28,6.81,4.54c1.1,2.19.45,4.87-1.6,6.58s-5.39,2.36-8.21,1.6c-4.97-1.35-7.09-6.17-11.71-8.16-2.69-1.16-5.99-1.21-8.94-.54s-5.58,2.01-8,3.5c-1.11.69-2.29,1.45-3.69,1.54-4.85.33-1.41-3.69.3-4.71Z"/><path class="cls-3" d="m727.75,366.52c-7.24-4.3-16.87-4.94-25.92-5.05-3.07-.04-6.19-.03-9.12.7s-5.67,2.28-6.81,4.54c-1.1,2.19-.45,4.87,1.6,6.58s5.39,2.36,8.21,1.6c4.97-1.35,7.09-6.17,11.71-8.16,2.69-1.16,5.99-1.21,8.94-.54,2.95.67,5.58,2.01,8,3.5,1.11.69,2.29,1.45,3.69,1.54,4.85.33,1.41-3.69-.3-4.71Z"/><path class="cls-3" d="m741.08,387.31c7.24-4.3,16.87-4.94,25.92-5.05,3.07-.04,6.19-.03,9.12.7s5.67,2.28,6.81,4.54c1.1,2.19.45,4.87-1.6,6.58s-5.39,2.36-8.21,1.6c-4.97-1.35-7.09-6.17-11.71-8.16-2.69-1.16-5.99-1.21-8.94-.54s-5.58,2.01-8,3.5c-1.11.69-2.29,1.45-3.69,1.54-4.85.33-1.41-3.69.3-4.71Z"/><path class="cls-3" d="m727.75,387.31c-7.24-4.3-16.87-4.94-25.92-5.05-3.07-.04-6.19-.03-9.12.7-2.93.73-5.67,2.28-6.81,4.54-1.1,2.19-.45,4.87,1.6,6.58s5.39,2.36,8.21,1.6c4.97-1.35,7.09-6.17,11.71-8.16,2.69-1.16,5.99-1.21,8.94-.54s5.58,2.01,8,3.5c1.11.69,2.29,1.45,3.69,1.54,4.85.33,1.41-3.69-.3-4.71Z"/><path class="cls-3" d="m741.08,413.39c7.24-4.3,16.87-4.94,25.92-5.05,3.07-.04,6.19-.03,9.12.7s5.67,2.28,6.81,4.54c1.1,2.19.45,4.87-1.6,6.58s-5.39,2.36-8.21,1.6c-4.97-1.35-7.09-6.17-11.71-8.16-2.69-1.16-5.99-1.21-8.94-.54s-5.58,2.01-8,3.5c-1.11.69-2.29,1.45-3.69,1.54-4.85.33-1.41-3.69.3-4.71Z"/><path class="cls-3" d="m727.75,413.39c-7.24-4.3-16.87-4.94-25.92-5.05-3.07-.04-6.19-.03-9.12.7s-5.67,2.28-6.81,4.54c-1.1,2.19-.45,4.87,1.6,6.58s5.39,2.36,8.21,1.6c4.97-1.35,7.09-6.17,11.71-8.16,2.69-1.16,5.99-1.21,8.94-.54s5.58,2.01,8,3.5c1.11.69,2.29,1.45,3.69,1.54,4.85.33,1.41-3.69-.3-4.71Z"/><path class="cls-3" d="m741.08,438.33c7.24-4.3,16.87-4.94,25.92-5.05,3.07-.04,6.19-.03,9.12.7s5.67,2.28,6.81,4.54c1.1,2.19.45,4.87-1.6,6.58s-5.39,2.36-8.21,1.6c-4.97-1.35-7.09-6.17-11.71-8.16-2.69-1.16-5.99-1.21-8.94-.54s-5.58,2.01-8,3.5c-1.11.69-2.29,1.45-3.69,1.54-4.85.33-1.41-3.69.3-4.71Z"/><path class="cls-3" d="m727.75,438.33c-7.24-4.3-16.87-4.94-25.92-5.05-3.07-.04-6.19-.03-9.12.7s-5.67,2.28-6.81,4.54c-1.1,2.19-.45,4.87,1.6,6.58s5.39,2.36,8.21,1.6c4.97-1.35,7.09-6.17,11.71-8.16,2.69-1.16,5.99-1.21,8.94-.54,2.95.67,5.58,2.01,8,3.5,1.11.69,2.29,1.45,3.69,1.54,4.85.33,1.41-3.69-.3-4.71Z"/><line class="cls-1" x1="734.4" y1="67.15" x2="734.4" y2="193.78"/><path class="cls-1" d="m1029.3,82.3c.13-1.02.3-2.03.51-3.03,3.1-14.69,17.75,1.01,22.45,6.07,19.17,20.68,35.26,60.91,4.51,79.33l-32.06,19.19-4.21,2.52c-6.04,3.62-12.67,4.89-19,4.21h-.02"/><path class="cls-1" d="m973.85,83.95h0c-.17-1.58-.39-3.14-.71-4.68-3.1-14.69-17.75,1.01-22.45,6.07-19.17,20.68-35.26,60.91-4.5,79.33l36.26,21.71c1.64.98,3.32,1.79,5.03,2.43.01,0,.02.01.03.01,4.59,1.73,9.36,2.27,13.97,1.77h.02"/><path class="cls-1" d="m1041.69,90.02l-38.79-24.18-38.79,24.18c-19.21,11.97-24.23,37.72-10.93,56.03l24.84,34.2c12.28,16.91,37.48,16.91,49.77,0l24.84-34.2c13.3-18.31,8.28-44.06-10.93-56.03Z"/><path class="cls-1" d="m1192.58,6.53c6.45,6.03,16.46,6.03,22.91,0h0c6.45-6.03,16.46-6.03,22.91,0h0c6.45,6.03,16.46,6.03,22.9,0h0c6.45-6.03,16.46-6.03,22.91,0h0c6.45,6.03,16.46,6.03,22.91,0h0c6.45-6.03,16.46-6.03,22.9,0h0c6.45,6.03,16.46,6.03,22.9,0h0c6.45-6.03,16.46-6.03,22.9,0h0c6.45,6.03,16.46,6.03,22.9,0h0c6.45-6.03,16.46-6.03,22.9,0h0c6.45,6.03,16.46,6.03,22.9,0h0c6.45-6.03,16.46-6.03,22.9,0h0c6.45,6.03,16.46,6.03,22.9,0h0c6.45-6.03,16.46-6.03,22.9,0h0c6.45,6.03,16.46,6.03,22.9,0h0c6.45-6.03,16.46-6.03,22.9,0h0c6.45,6.03,16.46,6.03,22.9,0h0c6.45-6.03,16.46-6.03,22.9,0h0c6.45,6.03,16.46,6.03,22.9,0h0c6.45-6.03,16.46-6.03,22.9,0h0c6.45,6.03,16.46,6.03,22.9,0h0c6.45-6.03,16.46-6.03,22.9,0h.01c6.45,6.03,16.46,6.03,22.9.01h.01c6.45-6.04,16.46-6.04,22.9-.01h.01c6.45,6.04,16.46,6.04,22.9.01h.01c6.44-6.04,16.46-6.04,22.9-.01l.02.02"/><path class="cls-1" d="m1192.58,566.09c6.45,6.03,16.46,6.03,22.91,0h0c6.45-6.03,16.46-6.03,22.91,0h0c6.45,6.03,16.46,6.03,22.9,0h0c6.45-6.03,16.46-6.03,22.91,0h0c6.45,6.03,16.46,6.03,22.91,0h0c6.45-6.03,16.46-6.03,22.9,0h0c6.45,6.03,16.46,6.03,22.9,0h0c6.45-6.03,16.46-6.03,22.9,0h0c6.45,6.03,16.46,6.03,22.9,0h0c6.45-6.03,16.46-6.03,22.9,0h0c6.45,6.03,16.46,6.03,22.9,0h0c6.45-6.03,16.46-6.03,22.9,0h0c6.45,6.03,16.46,6.03,22.9,0h0c6.45-6.03,16.46-6.03,22.9,0h0c6.45,6.03,16.46,6.03,22.9,0h0c6.45-6.03,16.46-6.03,22.9,0h0c6.45,6.03,16.46,6.03,22.9,0h0c6.45-6.03,16.46-6.03,22.9,0h0c6.45,6.03,16.46,6.03,22.9,0h0c6.45-6.03,16.46-6.03,22.9,0h0c6.45,6.03,16.46,6.03,22.9,0h0c6.45-6.03,16.46-6.03,22.9,0h.01c6.45,6.03,16.46,6.03,22.9.01h.01c6.45-6.04,16.46-6.04,22.9-.01h.01c6.45,6.04,16.46,6.04,22.9.01h.01c6.44-6.04,16.46-6.04,22.9-.01l.02.02"/><path class="cls-3" d="m1562.86,490.86c-20.89-51.87-47.47-101.23-58.07-157.25-6.17-32.6-11.83-65.36-14.65-98.44-2.59-30.33-.38-60.82.87-91.16.09-2.26-.19-5.1-2.31-5.87-5.59-2.02-12.31,13.71-14.32,17.14-14.07,24.03-21.46,52.44-19.14,80.29.55,6.61,2.2,13.15,3.9,19.54,5.27,19.79,12.3,39.14,19.44,58.32,9,24.18,18.6,48.14,28.41,72,9.57,23.26,19.38,46.41,29.35,69.5,7.33,16.98,14.74,33.92,22.25,50.81,1.98,4.45,3.96,8.9,5.95,13.34.24.54.83,2.73,1.41,3.03,4.71,2.25,1.03-11.06.73-12.66-1.17-6.22-2.46-12.42-3.82-18.6Z"/><path class="cls-3" d="m1629.52,491.71c20.89-51.87,47.47-101.23,58.07-157.25,6.17-32.6,11.83-65.36,14.65-98.44,2.59-30.33.38-60.82-.87-91.16-.09-2.26.19-5.1,2.31-5.87,5.59-2.02,12.31,13.71,14.32,17.14,14.07,24.03,21.46,52.44,19.14,80.29-.55,6.61-2.2,13.15-3.9,19.54-5.27,19.79-12.3,39.14-19.44,58.32-9,24.18-18.6,48.14-28.41,72-9.57,23.26-19.38,46.41-29.35,69.5-7.33,16.98-14.74,33.92-22.25,50.81-1.98,4.45-3.96,8.9-5.95,13.34-.24.54-.83,2.73-1.41,3.03-4.71,2.25-1.03-11.06-.73-12.66,1.17-6.22,2.46-12.42,3.82-18.6Z"/><line class="cls-2" x1="1598.73" y1="193.78" x2="1598.73" y2="516.54"/><path class="cls-3" d="m1605.42,237.64c7.24-4.3,16.87-4.94,25.92-5.05,3.07-.04,6.19-.03,9.12.7s5.67,2.28,6.81,4.54c1.1,2.19.45,4.87-1.6,6.58s-5.39,2.36-8.21,1.6c-4.97-1.35-7.09-6.17-11.71-8.16-2.69-1.16-5.99-1.21-8.94-.54s-5.58,2.01-8,3.5c-1.11.69-2.29,1.45-3.69,1.54-4.85.33-1.41-3.69.3-4.71Z"/><path class="cls-3" d="m1592.09,237.64c-7.24-4.3-16.87-4.94-25.92-5.05-3.07-.04-6.19-.03-9.12.7s-5.67,2.28-6.81,4.54c-1.1,2.19-.45,4.87,1.6,6.58s5.39,2.36,8.21,1.6c4.97-1.35,7.09-6.17,11.71-8.16,2.69-1.16,5.99-1.21,8.94-.54s5.58,2.01,8,3.5c1.11.69,2.29,1.45,3.69,1.54,4.85.33,1.41-3.69-.3-4.71Z"/><path class="cls-3" d="m1605.42,263.72c7.24-4.3,16.87-4.94,25.92-5.05,3.07-.04,6.19-.03,9.12.7s5.67,2.28,6.81,4.54c1.1,2.19.45,4.87-1.6,6.58s-5.39,2.36-8.21,1.6c-4.97-1.35-7.09-6.17-11.71-8.16-2.69-1.16-5.99-1.21-8.94-.54s-5.58,2.01-8,3.5c-1.11.69-2.29,1.45-3.69,1.54-4.85.33-1.41-3.69.3-4.71Z"/><path class="cls-3" d="m1592.09,263.72c-7.24-4.3-16.87-4.94-25.92-5.05-3.07-.04-6.19-.03-9.12.7s-5.67,2.28-6.81,4.54c-1.1,2.19-.45,4.87,1.6,6.58s5.39,2.36,8.21,1.6c4.97-1.35,7.09-6.17,11.71-8.16,2.69-1.16,5.99-1.21,8.94-.54s5.58,2.01,8,3.5c1.11.69,2.29,1.45,3.69,1.54,4.85.33,1.41-3.69-.3-4.71Z"/><path class="cls-3" d="m1605.42,288.66c7.24-4.3,16.87-4.94,25.92-5.05,3.07-.04,6.19-.03,9.12.7,2.93.73,5.67,2.28,6.81,4.54,1.1,2.19.45,4.87-1.6,6.58s-5.39,2.36-8.21,1.6c-4.97-1.35-7.09-6.17-11.71-8.16-2.69-1.16-5.99-1.21-8.94-.54s-5.58,2.01-8,3.5c-1.11.69-2.29,1.45-3.69,1.54-4.85.33-1.41-3.69.3-4.71Z"/><path class="cls-3" d="m1592.09,288.66c-7.24-4.3-16.87-4.94-25.92-5.05-3.07-.04-6.19-.03-9.12.7s-5.67,2.28-6.81,4.54c-1.1,2.19-.45,4.87,1.6,6.58s5.39,2.36,8.21,1.6c4.97-1.35,7.09-6.17,11.71-8.16,2.69-1.16,5.99-1.21,8.94-.54,2.95.67,5.58,2.01,8,3.5,1.11.69,2.29,1.45,3.69,1.54,4.85.33,1.41-3.69-.3-4.71Z"/><path class="cls-3" d="m1605.42,315.5c7.24-4.3,16.87-4.94,25.92-5.05,3.07-.04,6.19-.03,9.12.7s5.67,2.28,6.81,4.54c1.1,2.19.45,4.87-1.6,6.58s-5.39,2.36-8.21,1.6c-4.97-1.35-7.09-6.17-11.71-8.16-2.69-1.16-5.99-1.21-8.94-.54s-5.58,2.01-8,3.5c-1.11.69-2.29,1.45-3.69,1.54-4.85.33-1.41-3.69.3-4.71Z"/><path class="cls-3" d="m1592.09,315.5c-7.24-4.3-16.87-4.94-25.92-5.05-3.07-.04-6.19-.03-9.12.7-2.93.73-5.67,2.28-6.81,4.54-1.1,2.19-.45,4.87,1.6,6.58s5.39,2.36,8.21,1.6c4.97-1.35,7.09-6.17,11.71-8.16,2.69-1.16,5.99-1.21,8.94-.54s5.58,2.01,8,3.5c1.11.69,2.29,1.45,3.69,1.54,4.85.33,1.41-3.69-.3-4.71Z"/><path class="cls-3" d="m1605.42,341.57c7.24-4.3,16.87-4.94,25.92-5.05,3.07-.04,6.19-.03,9.12.7,2.93.73,5.67,2.28,6.81,4.54,1.1,2.19.45,4.87-1.6,6.58s-5.39,2.36-8.21,1.6c-4.97-1.35-7.09-6.17-11.71-8.16-2.69-1.16-5.99-1.21-8.94-.54s-5.58,2.01-8,3.5c-1.11.69-2.29,1.45-3.69,1.54-4.85.33-1.41-3.69.3-4.71Z"/><path class="cls-3" d="m1592.09,341.57c-7.24-4.3-16.87-4.94-25.92-5.05-3.07-.04-6.19-.03-9.12.7s-5.67,2.28-6.81,4.54c-1.1,2.19-.45,4.87,1.6,6.58s5.39,2.36,8.21,1.6c4.97-1.35,7.09-6.17,11.71-8.16,2.69-1.16,5.99-1.21,8.94-.54,2.95.67,5.58,2.01,8,3.5,1.11.69,2.29,1.45,3.69,1.54,4.85.33,1.41-3.69-.3-4.71Z"/><path class="cls-3" d="m1605.42,366.52c7.24-4.3,16.87-4.94,25.92-5.05,3.07-.04,6.19-.03,9.12.7s5.67,2.28,6.81,4.54c1.1,2.19.45,4.87-1.6,6.58s-5.39,2.36-8.21,1.6c-4.97-1.35-7.09-6.17-11.71-8.16-2.69-1.16-5.99-1.21-8.94-.54s-5.58,2.01-8,3.5c-1.11.69-2.29,1.45-3.69,1.54-4.85.33-1.41-3.69.3-4.71Z"/><path class="cls-3" d="m1592.09,366.52c-7.24-4.3-16.87-4.94-25.92-5.05-3.07-.04-6.19-.03-9.12.7s-5.67,2.28-6.81,4.54c-1.1,2.19-.45,4.87,1.6,6.58s5.39,2.36,8.21,1.6c4.97-1.35,7.09-6.17,11.71-8.16,2.69-1.16,5.99-1.21,8.94-.54,2.95.67,5.58,2.01,8,3.5,1.11.69,2.29,1.45,3.69,1.54,4.85.33,1.41-3.69-.3-4.71Z"/><path class="cls-3" d="m1605.42,387.31c7.24-4.3,16.87-4.94,25.92-5.05,3.07-.04,6.19-.03,9.12.7s5.67,2.28,6.81,4.54c1.1,2.19.45,4.87-1.6,6.58-2.05,1.71-5.39,2.36-8.21,1.6-4.97-1.35-7.09-6.17-11.71-8.16-2.69-1.16-5.99-1.21-8.94-.54-2.95.67-5.58,2.01-8,3.5-1.11.69-2.29,1.45-3.69,1.54-4.85.33-1.41-3.69.3-4.71Z"/><path class="cls-3" d="m1592.09,387.31c-7.24-4.3-16.87-4.94-25.92-5.05-3.07-.04-6.19-.03-9.12.7-2.93.73-5.67,2.28-6.81,4.54-1.1,2.19-.45,4.87,1.6,6.58s5.39,2.36,8.21,1.6c4.97-1.35,7.09-6.17,11.71-8.16,2.69-1.16,5.99-1.21,8.94-.54s5.58,2.01,8,3.5c1.11.69,2.29,1.45,3.69,1.54,4.85.33,1.41-3.69-.3-4.71Z"/><path class="cls-3" d="m1605.42,413.39c7.24-4.3,16.87-4.94,25.92-5.05,3.07-.04,6.19-.03,9.12.7s5.67,2.28,6.81,4.54c1.1,2.19.45,4.87-1.6,6.58s-5.39,2.36-8.21,1.6c-4.97-1.35-7.09-6.17-11.71-8.16-2.69-1.16-5.99-1.21-8.94-.54s-5.58,2.01-8,3.5c-1.11.69-2.29,1.45-3.69,1.54-4.85.33-1.41-3.69.3-4.71Z"/><path class="cls-3" d="m1592.09,413.39c-7.24-4.3-16.87-4.94-25.92-5.05-3.07-.04-6.19-.03-9.12.7-2.93.73-5.67,2.28-6.81,4.54-1.1,2.19-.45,4.87,1.6,6.58s5.39,2.36,8.21,1.6c4.97-1.35,7.09-6.17,11.71-8.16,2.69-1.16,5.99-1.21,8.94-.54s5.58,2.01,8,3.5c1.11.69,2.29,1.45,3.69,1.54,4.85.33,1.41-3.69-.3-4.71Z"/><path class="cls-3" d="m1605.42,438.33c7.24-4.3,16.87-4.94,25.92-5.05,3.07-.04,6.19-.03,9.12.7,2.93.73,5.67,2.28,6.81,4.54,1.1,2.19.45,4.87-1.6,6.58s-5.39,2.36-8.21,1.6c-4.97-1.35-7.09-6.17-11.71-8.16-2.69-1.16-5.99-1.21-8.94-.54s-5.58,2.01-8,3.5c-1.11.69-2.29,1.45-3.69,1.54-4.85.33-1.41-3.69.3-4.71Z"/><path class="cls-3" d="m1592.09,438.33c-7.24-4.3-16.87-4.94-25.92-5.05-3.07-.04-6.19-.03-9.12.7s-5.67,2.28-6.81,4.54c-1.1,2.19-.45,4.87,1.6,6.58s5.39,2.36,8.21,1.6c4.97-1.35,7.09-6.17,11.71-8.16,2.69-1.16,5.99-1.21,8.94-.54,2.95.67,5.58,2.01,8,3.5,1.11.69,2.29,1.45,3.69,1.54,4.85.33,1.41-3.69-.3-4.71Z"/><line class="cls-1" x1="1598.73" y1="67.15" x2="1598.73" y2="193.78"/><path class="cls-1" d="m1356.61,81.96c.13-1.02.3-2.03.51-3.03,3.1-14.69,17.75,1.01,22.45,6.07,19.17,20.68,35.26,60.91,4.51,79.33l-32.06,19.19-4.21,2.52c-6.04,3.62-12.67,4.89-19,4.21h-.02"/><path class="cls-1" d="m1301.16,83.61h0c-.17-1.58-.39-3.14-.71-4.68-3.1-14.69-17.75,1.01-22.45,6.07-19.17,20.68-35.26,60.91-4.5,79.33l36.26,21.71c1.64.98,3.32,1.79,5.03,2.43.01,0,.02.01.03.01,4.59,1.73,9.36,2.27,13.97,1.77h.02"/><path class="cls-1" d="m1369,89.68l-38.79-24.18-38.79,24.18c-19.21,11.97-24.23,37.72-10.93,56.03l24.84,34.2c12.28,16.91,37.48,16.91,49.77,0l24.84-34.2c13.3-18.31,8.28-44.06-10.93-56.03Z"/><line class="cls-2" x1="1330.01" y1="193.78" x2="1330.01" y2="516.54"/><path class="cls-3" d="m1336.69,237.64c7.24-4.3,16.87-4.94,25.92-5.05,3.07-.04,6.19-.03,9.12.7s5.67,2.28,6.81,4.54c1.1,2.19.45,4.87-1.6,6.58s-5.39,2.36-8.21,1.6c-4.97-1.35-7.09-6.17-11.71-8.16-2.69-1.16-5.99-1.21-8.94-.54s-5.58,2.01-8,3.5c-1.11.69-2.29,1.45-3.69,1.54-4.85.33-1.41-3.69.3-4.71Z"/><path class="cls-3" d="m1323.36,237.64c-7.24-4.3-16.87-4.94-25.92-5.05-3.07-.04-6.19-.03-9.12.7s-5.67,2.28-6.81,4.54c-1.1,2.19-.45,4.87,1.6,6.58s5.39,2.36,8.21,1.6c4.97-1.35,7.09-6.17,11.71-8.16,2.69-1.16,5.99-1.21,8.94-.54s5.58,2.01,8,3.5c1.11.69,2.29,1.45,3.69,1.54,4.85.33,1.41-3.69-.3-4.71Z"/><path class="cls-3" d="m1336.69,263.72c7.24-4.3,16.87-4.94,25.92-5.05,3.07-.04,6.19-.03,9.12.7s5.67,2.28,6.81,4.54c1.1,2.19.45,4.87-1.6,6.58s-5.39,2.36-8.21,1.6c-4.97-1.35-7.09-6.17-11.71-8.16-2.69-1.16-5.99-1.21-8.94-.54s-5.58,2.01-8,3.5c-1.11.69-2.29,1.45-3.69,1.54-4.85.33-1.41-3.69.3-4.71Z"/><path class="cls-3" d="m1323.36,263.72c-7.24-4.3-16.87-4.94-25.92-5.05-3.07-.04-6.19-.03-9.12.7s-5.67,2.28-6.81,4.54c-1.1,2.19-.45,4.87,1.6,6.58s5.39,2.36,8.21,1.6c4.97-1.35,7.09-6.17,11.71-8.16,2.69-1.16,5.99-1.21,8.94-.54s5.58,2.01,8,3.5c1.11.69,2.29,1.45,3.69,1.54,4.85.33,1.41-3.69-.3-4.71Z"/><path class="cls-3" d="m1336.69,288.66c7.24-4.3,16.87-4.94,25.92-5.05,3.07-.04,6.19-.03,9.12.7,2.93.73,5.67,2.28,6.81,4.54,1.1,2.19.45,4.87-1.6,6.58s-5.39,2.36-8.21,1.6c-4.97-1.35-7.09-6.17-11.71-8.16-2.69-1.16-5.99-1.21-8.94-.54s-5.58,2.01-8,3.5c-1.11.69-2.29,1.45-3.69,1.54-4.85.33-1.41-3.69.3-4.71Z"/><path class="cls-3" d="m1323.36,288.66c-7.24-4.3-16.87-4.94-25.92-5.05-3.07-.04-6.19-.03-9.12.7s-5.67,2.28-6.81,4.54c-1.1,2.19-.45,4.87,1.6,6.58s5.39,2.36,8.21,1.6c4.97-1.35,7.09-6.17,11.71-8.16,2.69-1.16,5.99-1.21,8.94-.54,2.95.67,5.58,2.01,8,3.5,1.11.69,2.29,1.45,3.69,1.54,4.85.33,1.41-3.69-.3-4.71Z"/><path class="cls-3" d="m1336.69,315.5c7.24-4.3,16.87-4.94,25.92-5.05,3.07-.04,6.19-.03,9.12.7s5.67,2.28,6.81,4.54c1.1,2.19.45,4.87-1.6,6.58s-5.39,2.36-8.21,1.6c-4.97-1.35-7.09-6.17-11.71-8.16-2.69-1.16-5.99-1.21-8.94-.54s-5.58,2.01-8,3.5c-1.11.69-2.29,1.45-3.69,1.54-4.85.33-1.41-3.69.3-4.71Z"/><path class="cls-3" d="m1323.36,315.5c-7.24-4.3-16.87-4.94-25.92-5.05-3.07-.04-6.19-.03-9.12.7-2.93.73-5.67,2.28-6.81,4.54-1.1,2.19-.45,4.87,1.6,6.58s5.39,2.36,8.21,1.6c4.97-1.35,7.09-6.17,11.71-8.16,2.69-1.16,5.99-1.21,8.94-.54s5.58,2.01,8,3.5c1.11.69,2.29,1.45,3.69,1.54,4.85.33,1.41-3.69-.3-4.71Z"/><path class="cls-3" d="m1336.69,341.57c7.24-4.3,16.87-4.94,25.92-5.05,3.07-.04,6.19-.03,9.12.7,2.93.73,5.67,2.28,6.81,4.54,1.1,2.19.45,4.87-1.6,6.58s-5.39,2.36-8.21,1.6c-4.97-1.35-7.09-6.17-11.71-8.16-2.69-1.16-5.99-1.21-8.94-.54s-5.58,2.01-8,3.5c-1.11.69-2.29,1.45-3.69,1.54-4.85.33-1.41-3.69.3-4.71Z"/><path class="cls-3" d="m1323.36,341.57c-7.24-4.3-16.87-4.94-25.92-5.05-3.07-.04-6.19-.03-9.12.7-2.93.73-5.67,2.28-6.81,4.54-1.1,2.19-.45,4.87,1.6,6.58s5.39,2.36,8.21,1.6c4.97-1.35,7.09-6.17,11.71-8.16,2.69-1.16,5.99-1.21,8.94-.54,2.95.67,5.58,2.01,8,3.5,1.11.69,2.29,1.45,3.69,1.54,4.85.33,1.41-3.69-.3-4.71Z"/><path class="cls-3" d="m1336.69,366.52c7.24-4.3,16.87-4.94,25.92-5.05,3.07-.04,6.19-.03,9.12.7s5.67,2.28,6.81,4.54c1.1,2.19.45,4.87-1.6,6.58s-5.39,2.36-8.21,1.6c-4.97-1.35-7.09-6.17-11.71-8.16-2.69-1.16-5.99-1.21-8.94-.54s-5.58,2.01-8,3.5c-1.11.69-2.29,1.45-3.69,1.54-4.85.33-1.41-3.69.3-4.71Z"/><path class="cls-3" d="m1323.36,366.52c-7.24-4.3-16.87-4.94-25.92-5.05-3.07-.04-6.19-.03-9.12.7s-5.67,2.28-6.81,4.54c-1.1,2.19-.45,4.87,1.6,6.58s5.39,2.36,8.21,1.6c4.97-1.35,7.09-6.17,11.71-8.16,2.69-1.16,5.99-1.21,8.94-.54,2.95.67,5.58,2.01,8,3.5,1.11.69,2.29,1.45,3.69,1.54,4.85.33,1.41-3.69-.3-4.71Z"/><path class="cls-3" d="m1336.69,387.31c7.24-4.3,16.87-4.94,25.92-5.05,3.07-.04,6.19-.03,9.12.7s5.67,2.28,6.81,4.54c1.1,2.19.45,4.87-1.6,6.58-2.05,1.71-5.39,2.36-8.21,1.6-4.97-1.35-7.09-6.17-11.71-8.16-2.69-1.16-5.99-1.21-8.94-.54-2.95.67-5.58,2.01-8,3.5-1.11.69-2.29,1.45-3.69,1.54-4.85.33-1.41-3.69.3-4.71Z"/><path class="cls-3" d="m1323.36,387.31c-7.24-4.3-16.87-4.94-25.92-5.05-3.07-.04-6.19-.03-9.12.7-2.93.73-5.67,2.28-6.81,4.54-1.1,2.19-.45,4.87,1.6,6.58,2.05,1.71,5.39,2.36,8.21,1.6,4.97-1.35,7.09-6.17,11.71-8.16,2.69-1.16,5.99-1.21,8.94-.54,2.95.67,5.58,2.01,8,3.5,1.11.69,2.29,1.45,3.69,1.54,4.85.33,1.41-3.69-.3-4.71Z"/><path class="cls-3" d="m1336.69,413.39c7.24-4.3,16.87-4.94,25.92-5.05,3.07-.04,6.19-.03,9.12.7s5.67,2.28,6.81,4.54c1.1,2.19.45,4.87-1.6,6.58s-5.39,2.36-8.21,1.6c-4.97-1.35-7.09-6.17-11.71-8.16-2.69-1.16-5.99-1.21-8.94-.54s-5.58,2.01-8,3.5c-1.11.69-2.29,1.45-3.69,1.54-4.85.33-1.41-3.69.3-4.71Z"/><path class="cls-3" d="m1323.36,413.39c-7.24-4.3-16.87-4.94-25.92-5.05-3.07-.04-6.19-.03-9.12.7-2.93.73-5.67,2.28-6.81,4.54-1.1,2.19-.45,4.87,1.6,6.58s5.39,2.36,8.21,1.6c4.97-1.35,7.09-6.17,11.71-8.16,2.69-1.16,5.99-1.21,8.94-.54s5.58,2.01,8,3.5c1.11.69,2.29,1.45,3.69,1.54,4.85.33,1.41-3.69-.3-4.71Z"/><path class="cls-3" d="m1336.69,438.33c7.24-4.3,16.87-4.94,25.92-5.05,3.07-.04,6.19-.03,9.12.7,2.93.73,5.67,2.28,6.81,4.54,1.1,2.19.45,4.87-1.6,6.58s-5.39,2.36-8.21,1.6c-4.97-1.35-7.09-6.17-11.71-8.16-2.69-1.16-5.99-1.21-8.94-.54s-5.58,2.01-8,3.5c-1.11.69-2.29,1.45-3.69,1.54-4.85.33-1.41-3.69.3-4.71Z"/><path class="cls-3" d="m1323.36,438.33c-7.24-4.3-16.87-4.94-25.92-5.05-3.07-.04-6.19-.03-9.12.7-2.93.73-5.67,2.28-6.81,4.54-1.1,2.19-.45,4.87,1.6,6.58s5.39,2.36,8.21,1.6c4.97-1.35,7.09-6.17,11.71-8.16,2.69-1.16,5.99-1.21,8.94-.54,2.95.67,5.58,2.01,8,3.5,1.11.69,2.29,1.45,3.69,1.54,4.85.33,1.41-3.69-.3-4.71Z"/><line class="cls-1" x1="1330.01" y1="67.15" x2="1330.01" y2="193.78"/><path class="cls-1" d="m1624.91,82.3c.13-1.02.3-2.03.51-3.03,3.1-14.69,17.75,1.01,22.45,6.07,19.17,20.68,35.26,60.91,4.51,79.33l-32.06,19.19-4.21,2.52c-6.04,3.62-12.67,4.89-19,4.21h-.02"/><path class="cls-1" d="m1569.46,83.95h0c-.17-1.58-.39-3.14-.71-4.68-3.1-14.69-17.75,1.01-22.45,6.07-19.17,20.68-35.26,60.91-4.5,79.33l36.26,21.71c1.64.98,3.32,1.79,5.03,2.43.01,0,.02.01.03.01,4.59,1.73,9.36,2.27,13.97,1.77h.02"/><path class="cls-1" d="m1637.3,90.02l-38.79-24.18-38.79,24.18c-19.21,11.97-24.23,37.72-10.93,56.03l24.84,34.2c12.28,16.91,37.48,16.91,49.77,0l24.84-34.2c13.3-18.31,8.28-44.06-10.93-56.03Z"/><path class="cls-1" d="m1788.18,6.53c6.45,6.03,16.46,6.03,22.91,0h0c6.45-6.03,16.46-6.03,22.91,0h0c6.45,6.03,16.46,6.03,22.9,0h0c6.45-6.03,16.46-6.03,22.91,0h0c6.45,6.03,16.46,6.03,22.91,0h0c6.45-6.03,16.46-6.03,22.9,0h0c6.45,6.03,16.46,6.03,22.9,0h0c6.45-6.03,16.46-6.03,22.9,0h0c6.45,6.03,16.46,6.03,22.9,0h0c6.45-6.03,16.46-6.03,22.9,0h0c6.45,6.03,16.46,6.03,22.9,0h0c6.45-6.03,16.46-6.03,22.9,0h0c6.45,6.03,16.46,6.03,22.9,0h0c6.45-6.03,16.46-6.03,22.9,0h0c6.45,6.03,16.46,6.03,22.9,0h0c6.45-6.03,16.46-6.03,22.9,0h0c6.45,6.03,16.46,6.03,22.9,0h0c6.45-6.03,16.46-6.03,22.9,0h0c6.45,6.03,16.46,6.03,22.9,0h0c6.45-6.03,16.46-6.03,22.9,0h0c6.45,6.03,16.46,6.03,22.9,0h0c6.45-6.03,16.46-6.03,22.9,0h.01c6.45,6.03,16.46,6.03,22.9.01h.01c6.45-6.04,16.46-6.04,22.9-.01h.01c6.45,6.04,16.46,6.04,22.9.01h.01c6.44-6.04,16.46-6.04,22.9-.01l.02.02"/><path class="cls-1" d="m1788.18,566.09c6.45,6.03,16.46,6.03,22.91,0h0c6.45-6.03,16.46-6.03,22.91,0h0c6.45,6.03,16.46,6.03,22.9,0h0c6.45-6.03,16.46-6.03,22.91,0h0c6.45,6.03,16.46,6.03,22.91,0h0c6.45-6.03,16.46-6.03,22.9,0h0c6.45,6.03,16.46,6.03,22.9,0h0c6.45-6.03,16.46-6.03,22.9,0h0c6.45,6.03,16.46,6.03,22.9,0h0c6.45-6.03,16.46-6.03,22.9,0h0c6.45,6.03,16.46,6.03,22.9,0h0c6.45-6.03,16.46-6.03,22.9,0h0c6.45,6.03,16.46,6.03,22.9,0h0c6.45-6.03,16.46-6.03,22.9,0h0c6.45,6.03,16.46,6.03,22.9,0h0c6.45-6.03,16.46-6.03,22.9,0h0c6.45,6.03,16.46,6.03,22.9,0h0c6.45-6.03,16.46-6.03,22.9,0h0c6.45,6.03,16.46,6.03,22.9,0h0c6.45-6.03,16.46-6.03,22.9,0h0c6.45,6.03,16.46,6.03,22.9,0h0c6.45-6.03,16.46-6.03,22.9,0h.01c6.45,6.03,16.46,6.03,22.9.01h.01c6.45-6.04,16.46-6.04,22.9-.01h.01c6.45,6.04,16.46,6.04,22.9.01h.01c6.44-6.04,16.46-6.04,22.9-.01l.02.02"/><path class="cls-3" d="m2158.46,490.86c-20.89-51.87-47.47-101.23-58.07-157.25-6.17-32.6-11.83-65.36-14.65-98.44-2.59-30.33-.38-60.82.87-91.16.09-2.26-.19-5.1-2.31-5.87-5.59-2.02-12.31,13.71-14.32,17.14-14.07,24.03-21.46,52.44-19.14,80.29.55,6.61,2.2,13.15,3.9,19.54,5.27,19.79,12.3,39.14,19.44,58.32,9,24.18,18.6,48.14,28.41,72,9.57,23.26,19.38,46.41,29.35,69.5,7.33,16.98,14.74,33.92,22.25,50.81,1.98,4.45,3.96,8.9,5.95,13.34.24.54.83,2.73,1.41,3.03,4.71,2.25,1.03-11.06.73-12.66-1.17-6.22-2.46-12.42-3.82-18.6Z"/><path class="cls-3" d="m2225.13,491.71c20.89-51.87,47.47-101.23,58.07-157.25,6.17-32.6,11.83-65.36,14.65-98.44,2.59-30.33.38-60.82-.87-91.16-.09-2.26.19-5.1,2.31-5.87,5.59-2.02,12.31,13.71,14.32,17.14,14.07,24.03,21.46,52.44,19.14,80.29-.55,6.61-2.2,13.15-3.9,19.54-5.27,19.79-12.3,39.14-19.44,58.32-9,24.18-18.6,48.14-28.41,72-9.57,23.26-19.38,46.41-29.35,69.5-7.33,16.98-14.74,33.92-22.25,50.81-1.98,4.45-3.96,8.9-5.95,13.34-.24.54-.83,2.73-1.41,3.03-4.71,2.25-1.03-11.06-.73-12.66,1.17-6.22,2.46-12.42,3.82-18.6Z"/><line class="cls-2" x1="2194.34" y1="193.78" x2="2194.34" y2="516.54"/><path class="cls-3" d="m2201.02,237.64c7.24-4.3,16.87-4.94,25.92-5.05,3.07-.04,6.19-.03,9.12.7s5.67,2.28,6.81,4.54c1.1,2.19.45,4.87-1.6,6.58s-5.39,2.36-8.21,1.6c-4.97-1.35-7.09-6.17-11.71-8.16-2.69-1.16-5.99-1.21-8.94-.54s-5.58,2.01-8,3.5c-1.11.69-2.29,1.45-3.69,1.54-4.85.33-1.41-3.69.3-4.71Z"/><path class="cls-3" d="m2187.69,237.64c-7.24-4.3-16.87-4.94-25.92-5.05-3.07-.04-6.19-.03-9.12.7s-5.67,2.28-6.81,4.54c-1.1,2.19-.45,4.87,1.6,6.58s5.39,2.36,8.21,1.6c4.97-1.35,7.09-6.17,11.71-8.16,2.69-1.16,5.99-1.21,8.94-.54s5.58,2.01,8,3.5c1.11.69,2.29,1.45,3.69,1.54,4.85.33,1.41-3.69-.3-4.71Z"/><path class="cls-3" d="m2201.02,263.72c7.24-4.3,16.87-4.94,25.92-5.05,3.07-.04,6.19-.03,9.12.7s5.67,2.28,6.81,4.54c1.1,2.19.45,4.87-1.6,6.58s-5.39,2.36-8.21,1.6c-4.97-1.35-7.09-6.17-11.71-8.16-2.69-1.16-5.99-1.21-8.94-.54s-5.58,2.01-8,3.5c-1.11.69-2.29,1.45-3.69,1.54-4.85.33-1.41-3.69.3-4.71Z"/><path class="cls-3" d="m2187.69,263.72c-7.24-4.3-16.87-4.94-25.92-5.05-3.07-.04-6.19-.03-9.12.7s-5.67,2.28-6.81,4.54c-1.1,2.19-.45,4.87,1.6,6.58s5.39,2.36,8.21,1.6c4.97-1.35,7.09-6.17,11.71-8.16,2.69-1.16,5.99-1.21,8.94-.54s5.58,2.01,8,3.5c1.11.69,2.29,1.45,3.69,1.54,4.85.33,1.41-3.69-.3-4.71Z"/><path class="cls-3" d="m2201.02,288.66c7.24-4.3,16.87-4.94,25.92-5.05,3.07-.04,6.19-.03,9.12.7,2.93.73,5.67,2.28,6.81,4.54,1.1,2.19.45,4.87-1.6,6.58s-5.39,2.36-8.21,1.6c-4.97-1.35-7.09-6.17-11.71-8.16-2.69-1.16-5.99-1.21-8.94-.54s-5.58,2.01-8,3.5c-1.11.69-2.29,1.45-3.69,1.54-4.85.33-1.41-3.69.3-4.71Z"/><path class="cls-3" d="m2187.69,288.66c-7.24-4.3-16.87-4.94-25.92-5.05-3.07-.04-6.19-.03-9.12.7s-5.67,2.28-6.81,4.54c-1.1,2.19-.45,4.87,1.6,6.58s5.39,2.36,8.21,1.6c4.97-1.35,7.09-6.17,11.71-8.16,2.69-1.16,5.99-1.21,8.94-.54,2.95.67,5.58,2.01,8,3.5,1.11.69,2.29,1.45,3.69,1.54,4.85.33,1.41-3.69-.3-4.71Z"/><path class="cls-3" d="m2201.02,315.5c7.24-4.3,16.87-4.94,25.92-5.05,3.07-.04,6.19-.03,9.12.7s5.67,2.28,6.81,4.54c1.1,2.19.45,4.87-1.6,6.58s-5.39,2.36-8.21,1.6c-4.97-1.35-7.09-6.17-11.71-8.16-2.69-1.16-5.99-1.21-8.94-.54s-5.58,2.01-8,3.5c-1.11.69-2.29,1.45-3.69,1.54-4.85.33-1.41-3.69.3-4.71Z"/><path class="cls-3" d="m2187.69,315.5c-7.24-4.3-16.87-4.94-25.92-5.05-3.07-.04-6.19-.03-9.12.7-2.93.73-5.67,2.28-6.81,4.54-1.1,2.19-.45,4.87,1.6,6.58s5.39,2.36,8.21,1.6c4.97-1.35,7.09-6.17,11.71-8.16,2.69-1.16,5.99-1.21,8.94-.54s5.58,2.01,8,3.5c1.11.69,2.29,1.45,3.69,1.54,4.85.33,1.41-3.69-.3-4.71Z"/><path class="cls-3" d="m2201.02,341.57c7.24-4.3,16.87-4.94,25.92-5.05,3.07-.04,6.19-.03,9.12.7,2.93.73,5.67,2.28,6.81,4.54,1.1,2.19.45,4.87-1.6,6.58s-5.39,2.36-8.21,1.6c-4.97-1.35-7.09-6.17-11.71-8.16-2.69-1.16-5.99-1.21-8.94-.54s-5.58,2.01-8,3.5c-1.11.69-2.29,1.45-3.69,1.54-4.85.33-1.41-3.69.3-4.71Z"/><path class="cls-3" d="m2187.69,341.57c-7.24-4.3-16.87-4.94-25.92-5.05-3.07-.04-6.19-.03-9.12.7s-5.67,2.28-6.81,4.54c-1.1,2.19-.45,4.87,1.6,6.58s5.39,2.36,8.21,1.6c4.97-1.35,7.09-6.17,11.71-8.16,2.69-1.16,5.99-1.21,8.94-.54,2.95.67,5.58,2.01,8,3.5,1.11.69,2.29,1.45,3.69,1.54,4.85.33,1.41-3.69-.3-4.71Z"/><path class="cls-3" d="m2201.02,366.52c7.24-4.3,16.87-4.94,25.92-5.05,3.07-.04,6.19-.03,9.12.7s5.67,2.28,6.81,4.54c1.1,2.19.45,4.87-1.6,6.58s-5.39,2.36-8.21,1.6c-4.97-1.35-7.09-6.17-11.71-8.16-2.69-1.16-5.99-1.21-8.94-.54s-5.58,2.01-8,3.5c-1.11.69-2.29,1.45-3.69,1.54-4.85.33-1.41-3.69.3-4.71Z"/><path class="cls-3" d="m2187.69,366.52c-7.24-4.3-16.87-4.94-25.92-5.05-3.07-.04-6.19-.03-9.12.7s-5.67,2.28-6.81,4.54c-1.1,2.19-.45,4.87,1.6,6.58s5.39,2.36,8.21,1.6c4.97-1.35,7.09-6.17,11.71-8.16,2.69-1.16,5.99-1.21,8.94-.54,2.95.67,5.58,2.01,8,3.5,1.11.69,2.29,1.45,3.69,1.54,4.85.33,1.41-3.69-.3-4.71Z"/><path class="cls-3" d="m2201.02,387.31c7.24-4.3,16.87-4.94,25.92-5.05,3.07-.04,6.19-.03,9.12.7s5.67,2.28,6.81,4.54c1.1,2.19.45,4.87-1.6,6.58-2.05,1.71-5.39,2.36-8.21,1.6-4.97-1.35-7.09-6.17-11.71-8.16-2.69-1.16-5.99-1.21-8.94-.54-2.95.67-5.58,2.01-8,3.5-1.11.69-2.29,1.45-3.69,1.54-4.85.33-1.41-3.69.3-4.71Z"/><path class="cls-3" d="m2187.69,387.31c-7.24-4.3-16.87-4.94-25.92-5.05-3.07-.04-6.19-.03-9.12.7-2.93.73-5.67,2.28-6.81,4.54-1.1,2.19-.45,4.87,1.6,6.58s5.39,2.36,8.21,1.6c4.97-1.35,7.09-6.17,11.71-8.16,2.69-1.16,5.99-1.21,8.94-.54s5.58,2.01,8,3.5c1.11.69,2.29,1.45,3.69,1.54,4.85.33,1.41-3.69-.3-4.71Z"/><path class="cls-3" d="m2201.02,413.39c7.24-4.3,16.87-4.94,25.92-5.05,3.07-.04,6.19-.03,9.12.7s5.67,2.28,6.81,4.54c1.1,2.19.45,4.87-1.6,6.58s-5.39,2.36-8.21,1.6c-4.97-1.35-7.09-6.17-11.71-8.16-2.69-1.16-5.99-1.21-8.94-.54s-5.58,2.01-8,3.5c-1.11.69-2.29,1.45-3.69,1.54-4.85.33-1.41-3.69.3-4.71Z"/><path class="cls-3" d="m2187.69,413.39c-7.24-4.3-16.87-4.94-25.92-5.05-3.07-.04-6.19-.03-9.12.7-2.93.73-5.67,2.28-6.81,4.54-1.1,2.19-.45,4.87,1.6,6.58s5.39,2.36,8.21,1.6c4.97-1.35,7.09-6.17,11.71-8.16,2.69-1.16,5.99-1.21,8.94-.54s5.58,2.01,8,3.5c1.11.69,2.29,1.45,3.69,1.54,4.85.33,1.41-3.69-.3-4.71Z"/><path class="cls-3" d="m2201.02,438.33c7.24-4.3,16.87-4.94,25.92-5.05,3.07-.04,6.19-.03,9.12.7,2.93.73,5.67,2.28,6.81,4.54,1.1,2.19.45,4.87-1.6,6.58s-5.39,2.36-8.21,1.6c-4.97-1.35-7.09-6.17-11.71-8.16-2.69-1.16-5.99-1.21-8.94-.54s-5.58,2.01-8,3.5c-1.11.69-2.29,1.45-3.69,1.54-4.85.33-1.41-3.69.3-4.71Z"/><path class="cls-3" d="m2187.69,438.33c-7.24-4.3-16.87-4.94-25.92-5.05-3.07-.04-6.19-.03-9.12.7s-5.67,2.28-6.81,4.54c-1.1,2.19-.45,4.87,1.6,6.58s5.39,2.36,8.21,1.6c4.97-1.35,7.09-6.17,11.71-8.16,2.69-1.16,5.99-1.21,8.94-.54,2.95.67,5.58,2.01,8,3.5,1.11.69,2.29,1.45,3.69,1.54,4.85.33,1.41-3.69-.3-4.71Z"/><line class="cls-1" x1="2194.34" y1="67.15" x2="2194.34" y2="193.78"/><path class="cls-1" d="m1952.21,81.96c.13-1.02.3-2.03.51-3.03,3.1-14.69,17.75,1.01,22.45,6.07,19.17,20.68,35.26,60.91,4.51,79.33l-32.06,19.19-4.21,2.52c-6.04,3.62-12.67,4.89-19,4.21h-.02"/><path class="cls-1" d="m1896.76,83.61h0c-.17-1.58-.39-3.14-.71-4.68-3.1-14.69-17.75,1.01-22.45,6.07-19.17,20.68-35.26,60.91-4.5,79.33l36.26,21.71c1.64.98,3.32,1.79,5.03,2.43,0,0,.02.01.03.01,4.59,1.73,9.36,2.27,13.97,1.77h.02"/><path class="cls-1" d="m1964.6,89.68l-38.79-24.18-38.79,24.18c-19.21,11.97-24.23,37.72-10.93,56.03l24.84,34.2c12.28,16.91,37.48,16.91,49.77,0l24.84-34.2c13.3-18.31,8.28-44.06-10.93-56.03Z"/><line class="cls-2" x1="1925.61" y1="193.78" x2="1925.61" y2="516.54"/><path class="cls-3" d="m1932.29,237.64c7.24-4.3,16.87-4.94,25.92-5.05,3.07-.04,6.19-.03,9.12.7s5.67,2.28,6.81,4.54c1.1,2.19.45,4.87-1.6,6.58s-5.39,2.36-8.21,1.6c-4.97-1.35-7.09-6.17-11.71-8.16-2.69-1.16-5.99-1.21-8.94-.54s-5.58,2.01-8,3.5c-1.11.69-2.29,1.45-3.69,1.54-4.85.33-1.41-3.69.3-4.71Z"/><path class="cls-3" d="m1918.96,237.64c-7.24-4.3-16.87-4.94-25.92-5.05-3.07-.04-6.19-.03-9.12.7s-5.67,2.28-6.81,4.54c-1.1,2.19-.45,4.87,1.6,6.58s5.39,2.36,8.21,1.6c4.97-1.35,7.09-6.17,11.71-8.16,2.69-1.16,5.99-1.21,8.94-.54s5.58,2.01,8,3.5c1.11.69,2.29,1.45,3.69,1.54,4.85.33,1.41-3.69-.3-4.71Z"/><path class="cls-3" d="m1932.29,263.72c7.24-4.3,16.87-4.94,25.92-5.05,3.07-.04,6.19-.03,9.12.7s5.67,2.28,6.81,4.54c1.1,2.19.45,4.87-1.6,6.58s-5.39,2.36-8.21,1.6c-4.97-1.35-7.09-6.17-11.71-8.16-2.69-1.16-5.99-1.21-8.94-.54s-5.58,2.01-8,3.5c-1.11.69-2.29,1.45-3.69,1.54-4.85.33-1.41-3.69.3-4.71Z"/><path class="cls-3" d="m1918.96,263.72c-7.24-4.3-16.87-4.94-25.92-5.05-3.07-.04-6.19-.03-9.12.7s-5.67,2.28-6.81,4.54c-1.1,2.19-.45,4.87,1.6,6.58s5.39,2.36,8.21,1.6c4.97-1.35,7.09-6.17,11.71-8.16,2.69-1.16,5.99-1.21,8.94-.54s5.58,2.01,8,3.5c1.11.69,2.29,1.45,3.69,1.54,4.85.33,1.41-3.69-.3-4.71Z"/><path class="cls-3" d="m1932.29,288.66c7.24-4.3,16.87-4.94,25.92-5.05,3.07-.04,6.19-.03,9.12.7,2.93.73,5.67,2.28,6.81,4.54,1.1,2.19.45,4.87-1.6,6.58s-5.39,2.36-8.21,1.6c-4.97-1.35-7.09-6.17-11.71-8.16-2.69-1.16-5.99-1.21-8.94-.54s-5.58,2.01-8,3.5c-1.11.69-2.29,1.45-3.69,1.54-4.85.33-1.41-3.69.3-4.71Z"/><path class="cls-3" d="m1918.96,288.66c-7.24-4.3-16.87-4.94-25.92-5.05-3.07-.04-6.19-.03-9.12.7-2.93.73-5.67,2.28-6.81,4.54-1.1,2.19-.45,4.87,1.6,6.58s5.39,2.36,8.21,1.6c4.97-1.35,7.09-6.17,11.71-8.16,2.69-1.16,5.99-1.21,8.94-.54s5.58,2.01,8,3.5c1.11.69,2.29,1.45,3.69,1.54,4.85.33,1.41-3.69-.3-4.71Z"/><path class="cls-3" d="m1932.29,315.5c7.24-4.3,16.87-4.94,25.92-5.05,3.07-.04,6.19-.03,9.12.7s5.67,2.28,6.81,4.54c1.1,2.19.45,4.87-1.6,6.58s-5.39,2.36-8.21,1.6c-4.97-1.35-7.09-6.17-11.71-8.16-2.69-1.16-5.99-1.21-8.94-.54s-5.58,2.01-8,3.5c-1.11.69-2.29,1.45-3.69,1.54-4.85.33-1.41-3.69.3-4.71Z"/><path class="cls-3" d="m1918.96,315.5c-7.24-4.3-16.87-4.94-25.92-5.05-3.07-.04-6.19-.03-9.12.7s-5.67,2.28-6.81,4.54c-1.1,2.19-.45,4.87,1.6,6.58s5.39,2.36,8.21,1.6c4.97-1.35,7.09-6.17,11.71-8.16,2.69-1.16,5.99-1.21,8.94-.54s5.58,2.01,8,3.5c1.11.69,2.29,1.45,3.69,1.54,4.85.33,1.41-3.69-.3-4.71Z"/><path class="cls-3" d="m1932.29,341.57c7.24-4.3,16.87-4.94,25.92-5.05,3.07-.04,6.19-.03,9.12.7,2.93.73,5.67,2.28,6.81,4.54,1.1,2.19.45,4.87-1.6,6.58s-5.39,2.36-8.21,1.6c-4.97-1.35-7.09-6.17-11.71-8.16-2.69-1.16-5.99-1.21-8.94-.54s-5.58,2.01-8,3.5c-1.11.69-2.29,1.45-3.69,1.54-4.85.33-1.41-3.69.3-4.71Z"/><path class="cls-3" d="m1918.96,341.57c-7.24-4.3-16.87-4.94-25.92-5.05-3.07-.04-6.19-.03-9.12.7-2.93.73-5.67,2.28-6.81,4.54-1.1,2.19-.45,4.87,1.6,6.58s5.39,2.36,8.21,1.6c4.97-1.35,7.09-6.17,11.71-8.16,2.69-1.16,5.99-1.21,8.94-.54s5.58,2.01,8,3.5c1.11.69,2.29,1.45,3.69,1.54,4.85.33,1.41-3.69-.3-4.71Z"/><path class="cls-3" d="m1932.29,366.52c7.24-4.3,16.87-4.94,25.92-5.05,3.07-.04,6.19-.03,9.12.7s5.67,2.28,6.81,4.54c1.1,2.19.45,4.87-1.6,6.58s-5.39,2.36-8.21,1.6c-4.97-1.35-7.09-6.17-11.71-8.16-2.69-1.16-5.99-1.21-8.94-.54s-5.58,2.01-8,3.5c-1.11.69-2.29,1.45-3.69,1.54-4.85.33-1.41-3.69.3-4.71Z"/><path class="cls-3" d="m1918.96,366.52c-7.24-4.3-16.87-4.94-25.92-5.05-3.07-.04-6.19-.03-9.12.7s-5.67,2.28-6.81,4.54c-1.1,2.19-.45,4.87,1.6,6.58s5.39,2.36,8.21,1.6c4.97-1.35,7.09-6.17,11.71-8.16,2.69-1.16,5.99-1.21,8.94-.54s5.58,2.01,8,3.5c1.11.69,2.29,1.45,3.69,1.54,4.85.33,1.41-3.69-.3-4.71Z"/><path class="cls-3" d="m1932.29,387.31c7.24-4.3,16.87-4.94,25.92-5.05,3.07-.04,6.19-.03,9.12.7s5.67,2.28,6.81,4.54c1.1,2.19.45,4.87-1.6,6.58-2.05,1.71-5.39,2.36-8.21,1.6-4.97-1.35-7.09-6.17-11.71-8.16-2.69-1.16-5.99-1.21-8.94-.54-2.95.67-5.58,2.01-8,3.5-1.11.69-2.29,1.45-3.69,1.54-4.85.33-1.41-3.69.3-4.71Z"/><path class="cls-3" d="m1918.96,387.31c-7.24-4.3-16.87-4.94-25.92-5.05-3.07-.04-6.19-.03-9.12.7s-5.67,2.28-6.81,4.54c-1.1,2.19-.45,4.87,1.6,6.58,2.05,1.71,5.39,2.36,8.21,1.6,4.97-1.35,7.09-6.17,11.71-8.16,2.69-1.16,5.99-1.21,8.94-.54,2.95.67,5.58,2.01,8,3.5,1.11.69,2.29,1.45,3.69,1.54,4.85.33,1.41-3.69-.3-4.71Z"/><path class="cls-3" d="m1932.29,413.39c7.24-4.3,16.87-4.94,25.92-5.05,3.07-.04,6.19-.03,9.12.7s5.67,2.28,6.81,4.54c1.1,2.19.45,4.87-1.6,6.58s-5.39,2.36-8.21,1.6c-4.97-1.35-7.09-6.17-11.71-8.16-2.69-1.16-5.99-1.21-8.94-.54s-5.58,2.01-8,3.5c-1.11.69-2.29,1.45-3.69,1.54-4.85.33-1.41-3.69.3-4.71Z"/><path class="cls-3" d="m1918.96,413.39c-7.24-4.3-16.87-4.94-25.92-5.05-3.07-.04-6.19-.03-9.12.7s-5.67,2.28-6.81,4.54c-1.1,2.19-.45,4.87,1.6,6.58s5.39,2.36,8.21,1.6c4.97-1.35,7.09-6.17,11.71-8.16,2.69-1.16,5.99-1.21,8.94-.54s5.58,2.01,8,3.5c1.11.69,2.29,1.45,3.69,1.54,4.85.33,1.41-3.69-.3-4.71Z"/><path class="cls-3" d="m1932.29,438.33c7.24-4.3,16.87-4.94,25.92-5.05,3.07-.04,6.19-.03,9.12.7,2.93.73,5.67,2.28,6.81,4.54,1.1,2.19.45,4.87-1.6,6.58s-5.39,2.36-8.21,1.6c-4.97-1.35-7.09-6.17-11.71-8.16-2.69-1.16-5.99-1.21-8.94-.54s-5.58,2.01-8,3.5c-1.11.69-2.29,1.45-3.69,1.54-4.85.33-1.41-3.69.3-4.71Z"/><path class="cls-3" d="m1918.96,438.33c-7.24-4.3-16.87-4.94-25.92-5.05-3.07-.04-6.19-.03-9.12.7-2.93.73-5.67,2.28-6.81,4.54-1.1,2.19-.45,4.87,1.6,6.58s5.39,2.36,8.21,1.6c4.97-1.35,7.09-6.17,11.71-8.16,2.69-1.16,5.99-1.21,8.94-.54s5.58,2.01,8,3.5c1.11.69,2.29,1.45,3.69,1.54,4.85.33,1.41-3.69-.3-4.71Z"/><line class="cls-1" x1="1925.61" y1="67.15" x2="1925.61" y2="193.78"/><path class="cls-1" d="m2220.51,82.3c.13-1.02.3-2.03.51-3.03,3.1-14.69,17.75,1.01,22.45,6.07,19.17,20.68,35.26,60.91,4.51,79.33l-32.06,19.19-4.21,2.52c-6.04,3.62-12.67,4.89-19,4.21h-.02"/><path class="cls-1" d="m2165.06,83.95h0c-.17-1.58-.39-3.14-.71-4.68-3.1-14.69-17.75,1.01-22.45,6.07-19.17,20.68-35.26,60.91-4.5,79.33l36.26,21.71c1.64.98,3.32,1.79,5.03,2.43.01,0,.02.01.03.01,4.59,1.73,9.36,2.27,13.97,1.77h.02"/><path class="cls-1" d="m2232.9,90.02l-38.79-24.18-38.79,24.18c-19.21,11.97-24.23,37.72-10.93,56.03l24.84,34.2c12.28,16.91,37.48,16.91,49.77,0l24.84-34.2c13.3-18.31,8.28-44.06-10.93-56.03Z"/></svg>