<svg width="16" height="20" viewBox="0 0 16 20" fill="none" xmlns="http://www.w3.org/2000/svg">
<path d="M8.93023 13.6364C8.93023 13.8162 8.87568 13.992 8.77346 14.1415C8.67124 14.291 8.52596 14.4075 8.35598 14.4763C8.18601 14.5451 7.99897 14.5631 7.81852 14.5281C7.63807 14.493 7.47232 14.4064 7.34223 14.2793C7.21213 14.1521 7.12353 13.9901 7.08764 13.8138C7.05175 13.6374 7.07017 13.4547 7.14058 13.2886C7.21098 13.1224 7.33021 12.9805 7.48319 12.8806C7.63617 12.7807 7.81602 12.7274 8 12.7274C8.24671 12.7274 8.48332 12.8231 8.65777 12.9936C8.83223 13.1641 8.93023 13.3953 8.93023 13.6364ZM16 8.90922V12.1819C16 14.2554 15.1571 16.244 13.6569 17.7101C12.1566 19.1763 10.1217 20 8 20C5.87827 20 3.84344 19.1763 2.34315 17.7101C0.842855 16.244 0 14.2554 0 12.1819V5.2729C0.000315186 4.84913 0.11721 4.43323 0.338444 4.06875C0.559678 3.70427 0.877114 3.40463 1.25752 3.20119C1.63792 2.99775 2.06729 2.89799 2.50068 2.91237C2.93406 2.92675 3.35553 3.05474 3.72093 3.28293V2.36385C3.72087 1.78055 3.94152 1.21783 4.34042 0.783939C4.73933 0.350046 5.28832 0.0756254 5.88179 0.0134651C6.47526 -0.0486952 7.07129 0.105796 7.55523 0.447219C8.03916 0.788643 8.37682 1.29288 8.50326 1.86294C8.86685 1.62205 9.29072 1.48247 9.72935 1.4592C10.168 1.43592 10.6048 1.52984 10.993 1.73085C11.3811 1.93187 11.7059 2.23239 11.9325 2.60017C12.1591 2.96795 12.2789 3.38908 12.2791 3.81837V6.91925C12.6445 6.69106 13.0659 6.56308 13.4993 6.54869C13.9327 6.53431 14.3621 6.63407 14.7425 6.83751C15.1229 7.04095 15.4403 7.34059 15.6616 7.70507C15.8828 8.06955 15.9997 8.48545 16 8.90922ZM14.8837 8.90922C14.8837 8.57168 14.7465 8.24796 14.5023 8.00928C14.258 7.7706 13.9268 7.63651 13.5814 7.63651C13.236 7.63651 12.9047 7.7706 12.6605 8.00928C12.4163 8.24796 12.2791 8.57168 12.2791 8.90922V9.27285C12.2791 9.41752 12.2203 9.55625 12.1156 9.65854C12.0109 9.76084 11.869 9.8183 11.7209 9.8183C11.5729 9.8183 11.4309 9.76084 11.3263 9.65854C11.2216 9.55625 11.1628 9.41752 11.1628 9.27285V3.81837C11.1628 3.48083 11.0256 3.15711 10.7813 2.91843C10.5371 2.67975 10.2059 2.54566 9.86047 2.54566C9.51507 2.54566 9.18382 2.67975 8.93958 2.91843C8.69535 3.15711 8.55814 3.48083 8.55814 3.81837V7.81833C8.55814 7.96299 8.49934 8.10173 8.39466 8.20402C8.28999 8.30631 8.14803 8.36378 8 8.36378C7.85197 8.36378 7.71001 8.30631 7.60534 8.20402C7.50066 8.10173 7.44186 7.96299 7.44186 7.81833V2.36385C7.44186 2.0263 7.30465 1.70258 7.06042 1.4639C6.81618 1.22522 6.48493 1.09113 6.13953 1.09113C5.79414 1.09113 5.46288 1.22522 5.21865 1.4639C4.97442 1.70258 4.83721 2.0263 4.83721 2.36385V8.54559C4.83721 8.69025 4.77841 8.82899 4.67373 8.93128C4.56906 9.03357 4.4271 9.09104 4.27907 9.09104C4.13104 9.09104 3.98908 9.03357 3.88441 8.93128C3.77973 8.82899 3.72093 8.69025 3.72093 8.54559V5.2729C3.72093 4.93536 3.58372 4.61164 3.33949 4.37296C3.09525 4.13428 2.764 4.00019 2.4186 4.00019C2.07321 4.00019 1.74195 4.13428 1.49772 4.37296C1.25349 4.61164 1.11628 4.93536 1.11628 5.2729V12.1819C1.11628 13.9661 1.84153 15.6772 3.13247 16.9388C4.42342 18.2003 6.17432 18.9091 8 18.9091C9.82568 18.9091 11.5766 18.2003 12.8675 16.9388C14.1585 15.6772 14.8837 13.9661 14.8837 12.1819V8.90922ZM12.9647 13.3928C13.0033 13.4685 13.0234 13.5519 13.0234 13.6364C13.0234 13.721 13.0033 13.8044 12.9647 13.8801C12.8977 14.011 11.2837 17.0909 8 17.0909C4.71628 17.0909 3.10233 14.011 3.03535 13.8801C2.9967 13.8044 2.97658 13.721 2.97658 13.6364C2.97658 13.5519 2.9967 13.4685 3.03535 13.3928C3.10233 13.2619 4.71628 10.1819 8 10.1819C11.2837 10.1819 12.8977 13.2619 12.9647 13.3928ZM11.8214 13.6364C11.4065 12.9892 10.1088 11.2728 8 11.2728C5.89116 11.2728 4.5907 12.9864 4.1786 13.6364C4.59349 14.2846 5.89116 16 8 16C10.1088 16 11.4093 14.2864 11.8214 13.6364Z" fill="#FBEBCA"/>
</svg>
