<svg id="Layer_1" width="340" height="228" viewBox="0 0 340 228" xmlns="http://www.w3.org/2000/svg"><path d="m27.4 41.6.6-.3 11.9 6.2c6.3-3.8 4.2-11 3.1-13.8-9.5 5.5-17.9 2.5-18.3 2.4l-5.3-1.9 5.7-.3c10.7-.6 10.8-7.9 10.8-8.2v-.7l.6-.3c5.4-2.9 3.9-6.8 3.8-7l-.4-1.1 1.1-.4c3.3-1.3 5.5-4.9 6.7-7.3-2.4.8-6.2 2-10.4 2.7-.6.1-1.3.2-2 .3-6.3 1-12.8 2-15.7 17.9l-.4 2.4-1.6-1.8c-1.7-1.9-6.8-6.8-10.2-6.8-3.6 0-4.3 3.4-4.3 3.6l-.1.5-2.3 1.6 4.2.3v1c.1 3.9 1.5 6.9 4.1 8.9 9.1 7.5 18 2.4 18.4 2.1zm-20.1-13.3c-.7 0-1.3-.5-1.3-1.2s.6-1.2 1.3-1.2 1.3.5 1.3 1.2-.6 1.2-1.3 1.2z"/></g><g><path d="m34.8 9.8c.5-.1 1.1-.2 1.6-.3 2.6-2.5 2.5-6.7 2.1-9-1.1.8-2.8 1.7-5 3.1-5.6 3.3-14.1 8.3-16 11.3-2.5 3.9-1.6 9.6-1.3 11.1.5.5 1 .9 1.4 1.3 3.4-15.4 11-16.6 17.2-17.5z"/></svg>