<svg width="340" height="228" viewBox="0 0 340 228" fill="none" xmlns="http://www.w3.org/2000/svg">
<path d="M170 147.25C188.256 147.25 203.056 132.363 203.056 114C203.056 95.6365 188.256 80.75 170 80.75C151.744 80.75 136.944 95.6365 136.944 114C136.944 132.363 151.744 147.25 170 147.25Z" fill="white"/>
<path d="M268.331 32.1907C237.363 10.83 204.22 0 169.83 0C138.883 0 108.715 9.2625 80.1621 27.417C51.3683 45.7639 23.1412 79.0875 0 114C18.7142 145.35 44.3133 177.583 70.975 196.066C101.561 217.255 134.817 228 169.83 228C204.538 228 237.724 217.263 268.501 196.087C295.595 177.412 321.378 145.222 340 114C321.314 83.0561 295.446 50.901 268.331 32.1907ZM170 182.4C156.551 182.4 143.404 178.388 132.221 170.873C121.039 163.357 112.323 152.674 107.176 140.176C102.029 127.677 100.683 113.924 103.307 100.656C105.93 87.3875 112.407 75.1998 121.917 65.6339C131.427 56.068 143.543 49.5535 156.734 46.9143C169.925 44.2751 183.597 45.6296 196.022 50.8066C208.448 55.9837 219.068 64.7507 226.54 75.999C234.012 87.2473 238 100.472 238 114C237.979 132.134 230.808 149.52 218.06 162.343C205.312 175.166 188.028 182.379 170 182.4Z" fill="white"/>
</svg>
