<?xml version="1.0" encoding="utf-8"?>
<!-- Generator: Adobe Illustrator 28.0.0, SVG Export Plug-In . SVG Version: 6.00 Build 0)  -->
<svg version="1.1" id="Layer_1" xmlns="http://www.w3.org/2000/svg" xmlns:xlink="http://www.w3.org/1999/xlink" x="0px" y="0px"
	 viewBox="0 0 338 338" style="enable-background:new 0 0 338 338;" xml:space="preserve">
<path d="M95.7,36.4c10.1,2.3,17.6,5.8,23.2,9.9c24.8-6.9,53.5-9.6,80.6-7C172,8.2,133.8,4.5,94.6,18.1
	C85.2,21.4,86.4,34.5,95.7,36.4z"/>
<path d="M55.5,207.4c18.8-16.4,40.3-20.2,63.7-11.2c21.8,8.6,57.4,18.8,90,24.1c-2.3-3.7-2.4-3.7-2.5-4c-8.8-15.2-28-54.8-17.2-92.8
	c6.4-22.4,21.9-40.4,46.1-53.6c0.2-0.1,0.2-0.1,4.1-2.2C210.1,56.6,176.4,55,145.4,60c-28.1,4.5-42.8,11.6-56.6,20.7
	C21.8,124.9,2.7,184.8,15,235.2c0,0,0,0,0,0c14.5,58.9,75,95.8,77.5,97.4c1.4,0.9,3.1,1.4,5,1.4c2.7,0,19.3-0.6,30.9-14.2
	c10.2-12,13.1-30,8.6-53.3c-1.1-5.9-7.5-9.3-13.1-6.9c-0.2,0.1-15.9,6.8-35,6.1c-23-0.9-41.1-12-53.9-33
	C38.3,227,45.2,216.4,55.5,207.4z"/>
<path d="M334.6,201.1c-8.3-54.3-32.1-98.8-73.9-123.3c-22.1,12.1-14.5,7.9-16.1,8.8c-19.6,10.6-32.1,24.8-37,42.1
	c-8.8,30.9,7.7,64.7,15.3,78l10.6,16.7c31.7,2.9,64.5,1.1,92.3-10.7c3.3-1.4,5.6-2.2,7.4-5C334.5,205.7,335,203.4,334.6,201.1z
	 M264.1,151.5c-5.5,0-9.5-4.4-9.5-9.5c0-5.1,4.1-9.5,9.5-9.5c5.2,0,9.5,4.2,9.5,9.5S269.4,151.5,264.1,151.5z"/>
</svg>
