<?xml version="1.0" encoding="utf-8"?>
<!-- Generator: Adobe Illustrator 28.0.0, SVG Export Plug-In . SVG Version: 6.00 Build 0)  -->
<svg version="1.1" id="Layer_1" xmlns="http://www.w3.org/2000/svg" xmlns:xlink="http://www.w3.org/1999/xlink" x="0px" y="0px"
	 viewBox="0 0 398 392" style="enable-background:new 0 0 398 392;" xml:space="preserve">
<path d="M142.3,39.4c15.6-55.2,115.8-46,113.4,15.3c-27.1,17.1-34.6,61.4-44.1,91.5c-0.3-3.9-4.6-40.2-21.4-49.4
	c-1-0.5-2.2,2.9-3,6.5c-1.7,7.4-2.1,15-1.3,22.6l3.5,32.4c-2.8,0.9-5.5,2.3-7.9,4.1c-25.2-28.9-46.1-66.3-41.4-105.6
	C140.5,49,141.3,43.2,142.3,39.4z M36.4,144.2C2.9,97.5,72.6,25,119.1,65c-3.5,31.9,26.4,65.4,44,91.6c-3.3-2.2-34.3-21.5-52-14.1
	c-1,0.4,0.9,3.5,3.2,6.4c4.7,6,10.4,11,16.8,15.1l27.5,17.4c-1,2.8-1.6,5.8-1.7,8.7c-38.3,1.7-80.6-5.3-108.3-33.5
	C42.8,151.6,38.7,147.3,36.4,144.2L36.4,144.2z M52.3,292.3c-57.3-3-70.6-102.6-10.3-114c22.7,22.6,67.6,20.1,99,22.7
	c-3.7,1.2-38.2,13.5-43.4,31.9c-0.3,1.1,3.3,1.5,7,1.5c7.6,0,15.1-1.3,22.3-3.7l30.8-10.6c1.5,2.6,3.5,4.9,5.8,6.8
	c-22.6,31-54.3,59.7-93.7,63.8C62.1,291.9,56.2,292.4,52.3,292.3L52.3,292.3z M178,372.2c-38.1,43-124.2-8.8-95.6-63
	c31.8-3.7,57.9-40.3,79.5-63.3c-1.4,3.7-13.3,38.3-2.2,53.8c0.7,0.9,3.2-1.7,5.5-4.6c4.8-5.9,8.4-12.6,11-19.8l10.9-30.7
	c3,0.4,6,0.3,8.9-0.3c10.2,37,12.8,79.7-8.5,113.1C183.8,364.3,180.6,369.2,178,372.2L178,372.2z M318.9,323.7
	c9.9,56.6-84.4,91.6-108.8,35.5c17-27.2,4.5-70.4,0.1-101.6c2,3.4,21.6,34.2,40.7,35.3c1.1,0.1,0.7-3.5-0.1-7.2
	c-1.6-7.4-4.6-14.5-8.6-20.9l-17.2-27.7c2.2-2.1,4-4.5,5.4-7.1c35.3,15.1,70.3,39.7,83.1,77.1C316.3,314.3,318.2,319.9,318.9,323.7
	L318.9,323.7z M368.8,183.4c50.4,27.5,19,123.1-40.1,107.2c-10.7-30.2-52.2-47.4-79.4-63.4c3.9,0.5,40.3,4.4,53-9.9
	c0.8-0.8-2.3-2.7-5.7-4.4c-6.8-3.3-14.2-5.4-21.7-6.3l-32.3-3.8c-0.3-3-1-5.9-2.2-8.6c33.8-18.2,74.9-30.2,112.1-16.9
	C359.8,179.5,365.3,181.6,368.8,183.4z M290.2,56.8c52.9-22.2,108.1,61.9,58.8,98.2c-30.3-10.5-69.6,11.2-99.1,22.5
	c2.8-2.7,28.6-28.7,25.3-47.6c-0.2-1.1-3.6,0.1-7,1.7c-6.9,3.3-13.1,7.7-18.5,13l-23.1,22.9c-2.5-1.6-5.3-2.9-8.1-3.6
	c6.9-37.8,23-77.4,56.7-98.2C281.6,61.5,286.6,58.4,290.2,56.8L290.2,56.8z M198.1,174.3c-15.1,0-27.4,12.3-27.4,27.4
	s12.3,27.4,27.4,27.4c15.1,0,27.4-12.3,27.4-27.4S213.3,174.3,198.1,174.3z"/>
</svg>
