<?xml version="1.0" encoding="utf-8"?>
<!-- Generator: Adobe Illustrator 28.0.0, SVG Export Plug-In . SVG Version: 6.00 Build 0)  -->
<svg version="1.1" id="Layer_1" xmlns="http://www.w3.org/2000/svg" xmlns:xlink="http://www.w3.org/1999/xlink" x="0px" y="0px"
	 viewBox="0 0 318 318" style="enable-background:new 0 0 318 318;" xml:space="preserve">
<path d="M172.5,116.7l-13.7,12.6l-13.5-13c-2.9-2.8-7.1-4.4-11.7-4.4c-4.9,0-9.2,1.8-12.3,5c-7,7.5-7,19.4,0.1,27.2l37.6,41.5
	l37.5-41.4c7.2-7.8,7.2-19.9,0.1-27.4C190.5,110.7,179.5,110.2,172.5,116.7z"/>
<path d="M230.8,8c-22.2,0-42.7,8.1-59.5,23.6L158.9,43l-12.2-11.7c-15.4-14.8-36.4-23-59.4-23c-24.4,0-46.5,9.2-62.3,26
	c-33.4,35.5-33.4,92-0.1,128.4l134.3,148L293,162.9c33.4-36.6,33.3-93.2-0.4-129.1C276.3,17.2,254.3,8,230.8,8z M211.2,157.7
	l-52.1,57.6l-52.3-57.7c-14-15.4-14-39.2,0.1-54.2c6.8-7.2,16.3-11.2,26.8-11.2c9.8,0,18.8,3.5,25.5,9.9
	c14.7-13.5,38.3-12.8,51.9,1.1C225.2,118.3,225.3,142.2,211.2,157.7z"/>
</svg>
