<?xml version="1.0" encoding="utf-8"?>
<!-- Generator: Adobe Illustrator 28.0.0, SVG Export Plug-In . SVG Version: 6.00 Build 0)  -->
<svg version="1.1" id="Layer_1" xmlns="http://www.w3.org/2000/svg" xmlns:xlink="http://www.w3.org/1999/xlink" x="0px" y="0px"
	 viewBox="0 0 246 482" style="enable-background:new 0 0 246 482;" xml:space="preserve">
<style type="text/css">
	.st0{fill-rule:evenodd;clip-rule:evenodd;}
</style>
<path class="st0" d="M172.4,9.2c39.7,22.7,46.8,117.6,45.7,124.4c12.2-0.7,20.4,1.1,25.6,8.3c-8.8-3.2-21.7-2.7-26.8,2.6
	c-6,6.1-2.4,25.9,17.3,55.3c24.2,36.1-1.5,18.7-18,29.4c-16.6,10.6,8.3,27,6,33.3c-2.3,6.2-12.6,12.5-12.6,12.5s4.7,2.7,6,7.2
	c2,7.4-11.3,12.7-9.7,22.7c4.3,25.9,3.5,40.2-10.5,46.1c-22.1,9.4-55.3-1.2-67.8,15.5c-18.4,24.6-28.7,79.3-27.7,106.1
	c-45.7-4.6-121-86.6-80.7-126c58.6-57.1-18.6-85.6,42.5-111.7c61-26.1,74.2-35.2,64.5-87.3C113.3,77.9,162.1,80.7,172.4,9.2z"/>
</svg>
