<?xml version="1.0" encoding="utf-8"?>
<!-- Generator: Adobe Illustrator 28.0.0, SVG Export Plug-In . SVG Version: 6.00 Build 0)  -->
<svg version="1.1" id="Layer_1" xmlns="http://www.w3.org/2000/svg" xmlns:xlink="http://www.w3.org/1999/xlink" x="0px" y="0px"
	 viewBox="0 0 346 346" style="enable-background:new 0 0 346 346;" xml:space="preserve">
<path d="M337.1,293.7L192.7,149.3c-6.8-6.8-6.9-17.9-0.1-24.6c28.5-28.4,28.7-74.5,0.1-103.1C170.1-1,135.5-6.2,107.3,8.6
	c-28-15-63.2-10.1-86,12.7C-1.5,44.1-6.4,79.4,8.7,107.4c-14.5,28.2-9.1,62.5,13.3,84.9c28.1,28.1,74.3,28.8,103.3-0.2
	c6.6-6.7,17.2-6.8,23.8-0.2l28.9,28.8l-29.3,29.3c-4,4-4,10.4,0,14.3l28.8,28.8c4,4,10.4,4,14.3,0l14.9-14.9l14.5,14.5l-7.2,7.2
	c-4,4-4,10.4,0,14.3l28.8,28.8c4,4,10.4,4,14.3,0l21.6-21.6l15.4,15.4c11.9,11.9,31.2,11.9,43.1,0C349,324.9,349,305.6,337.1,293.7z
	 M100.8,100.8c-11.9,11.9-31.2,11.9-43.1,0c-11.9-11.9-11.9-31.2,0-43.1c11.9-11.9,31.2-11.9,43.1,0
	C112.7,69.6,112.8,88.9,100.8,100.8z"/>
<path d="M72,72c-4,4-4,10.5,0,14.5c4,4,10.5,4,14.5,0c4-4,4-10.5,0-14.5C82.5,68,76,68,72,72z"/>
</svg>
