<?xml version="1.0" encoding="utf-8"?>
<!-- Generator: Adobe Illustrator 28.0.0, SVG Export Plug-In . SVG Version: 6.00 Build 0)  -->
<svg version="1.1" id="Layer_1" xmlns="http://www.w3.org/2000/svg" xmlns:xlink="http://www.w3.org/1999/xlink" x="0px" y="0px"
	 viewBox="0 0 406 406" style="enable-background:new 0 0 406 406;" xml:space="preserve">
<path d="M306.1,55.3c16.7-7.2,26.2,2.9,26.2,2.9V10.8c0,0-5.6-10.6-27.7-0.9c-22.1,9.5-35.6-4.3-35.6-4.3v50.1
	C268.9,55.7,281.3,65.9,306.1,55.3z"/>
<path d="M392.7,289.8c-19.4-57.1-157.2-78.7-189.9-91.1c-25-9.5-54.1-34.5,89.3-86.4c5-1.8,3.6-9-1.6-9h-28.9V7c0-2.5-2-4.7-4.7-4.7
	c-2.7,0-4.3,2-4.3,4.7v98.8c-2.3,0.7-4.3,1.6-5.2,1.8c-4.1,1.6-9.5,3.8-14.9,5.9c-5.6,2.3-9.9,4.1-12.6,5.2
	c-0.7,0.2-1.6,0.5-2.3,0.5h-12c-0.5,0-0.5-0.5-0.2-0.7l25.3-9c5.4-2,11.1-4.3,15.1-5.6c0.7-0.2,1.1-0.5,1.8-0.7h-18.7
	c-4.7,0-9.5,0.7-14.2,2c-52.6,16.2-146.4,44.4-137.1,89.5c12.6,62.5,185.4,93.6,110.3,128.8c-45.1,21.2-120,49.4-173,66.8
	c-7.4,2.5-5.6,13.3,2.3,13.3h272.9c8.8,0,17.6-2.3,25.3-6.8C344.9,379.6,407.6,333.8,392.7,289.8z M159,213.6h-12.9
	c-0.5,0-1.1-0.2-1.6-0.5c-0.7-0.5-1.1-0.9-1.8-1.4c-3.6-2.7-8.6-6.3-12.9-11.1c-2-2.3-4.1-5-5.6-7.7c-1.4-2.7-2.5-5.6-2.7-8.3
	c0,0-0.5-2.5,0.2-5.6c0-0.5,0.5-0.7,0.9-0.7h5.6c0.5,0,0.7,0.5,0.7,0.7c-0.2,2.7,0.2,5,0.2,5c0.5,2,0.9,3.4,2,5.6
	c0.9,2,2.7,4.1,4.5,6.1c3.8,3.8,7.7,7.2,11.3,9.7c2.7,1.8,9,5.4,12.2,7.2C159.7,213.1,159.5,213.6,159,213.6z M152,154.7
	c-2.5,1.8-4.5,3.4-5.4,4.1c-0.2,0.2-0.7,0.5-1.1,0.5h-9.9c-0.2,0-0.5-0.5-0.2-0.7c2.5-1.8,9.9-6.8,13.1-9c3.6-2.5,8.8-5.9,14-8.6
	c5.2-2.9,10.4-5.6,14.2-7.7c0.7-0.2,1.4-0.7,1.8-0.9c0.5-0.2,0.9-0.2,1.4-0.2l10.6,0.2c0.2,0,0.5,0.5,0,0.5
	c-2.3,1.1-8.3,3.8-11.3,5.4c-3.8,2-9,5-14,7.9C160.4,148.9,155.4,152.2,152,154.7z M203.2,242.7c-2.5-1.1-5-2.3-7.7-3.4
	c-5.4-2.5-10.8-4.7-14.7-6.8c-2.9-1.4-7.4-3.4-9.7-4.3c-0.2-0.2-0.2-0.7,0.2-0.7l17.4-0.2c0.5,0,1.1,0,1.6,0.2
	c2.7,1.1,5.6,2.5,8.6,3.6c7.7,3.2,20.5,8.3,27.1,11.1c0.5,0.2,0.5,0.9-0.2,0.9h-18.3C205.9,243.6,204.6,243.4,203.2,242.7z
	 M263,359.1c-7.2,4.7-29.3,20.1-35.4,24.1c-0.9,0.7-2.3,1.1-3.4,1.1h-19.8c-0.9,0-1.1-1.1-0.5-1.6c7.9-5,32.9-20.8,38.6-24.4
	c0.7-0.5,1.6-0.7,2.5-0.7h17.8C263.2,357.5,263.7,358.6,263,359.1z M268.2,271.1c-1.4-0.7-2.7-1.1-3.8-1.8
	c-7.4-3.4-18-8.1-23.5-10.6c-0.7-0.2-0.5-1.4,0.2-1.4h18.9c0.9,0,1.8,0.2,2.5,0.5c1.8,0.9,3.6,1.6,5.6,2.5c2.7,1.1,5.4,2.5,7.9,3.6
	c2.5,1.1,5,2.5,7,3.4c2.9,1.6,8.3,5,11.5,6.8c0.5,0.5,0.2,1.1-0.5,1.1h-14.4c-1.8,0-3.6-0.5-5.2-1.4c-0.9-0.5-1.6-0.9-2.5-1.4
	C270.7,272.2,269.5,271.6,268.2,271.1z M311.5,303.8c-0.2,2.7-0.9,5.9-2,8.8c-1.1,2.9-2.7,5.9-4.5,8.6c-3.6,5.4-7.9,9.9-11.1,13.1
	c-1.6,1.4-2.7,2.7-3.6,3.6c-0.7,0.7-1.8,1.1-2.7,1.1h-13.8c-0.9,0-1.4-1.1-0.7-1.6c3.8-3.2,10.8-9.2,12.9-11.3
	c2.9-2.9,6.8-7,9.9-11.1c4.1-5.4,4.7-13.1,4.7-16c0-0.7,0.5-1.1,1.1-1.1h9.2c0.5,0,0.7,0.2,0.9,0.7
	C311.5,299.8,311.5,301.8,311.5,303.8z"/>
</svg>
