<svg width="372" height="372" viewBox="0 0 372 372" fill="none" xmlns="http://www.w3.org/2000/svg">
<path d="M46.2184 366.364H325.782C328.6 366.364 331.418 363.545 331.418 360.727C331.418 360.164 331.418 359.6 331.418 359.6C330.855 335.927 311.127 316.764 287.455 316.764H84.5457C60.3093 316.764 40.582 336.491 40.582 360.727C40.582 363.545 42.8366 366.364 46.2184 366.364Z" fill="white"/>
<path d="M289.708 11.2731C289.708 7.89126 287.454 5.63672 284.072 5.63672H247.436C244.054 5.63672 241.799 7.89126 241.799 11.2731V29.8731H211.927V11.2731C211.927 7.89126 209.108 5.63672 206.29 5.63672H165.145C162.327 5.63672 159.508 7.89126 159.508 11.2731V29.8731H129.636V11.2731C129.636 7.89126 126.817 5.63672 123.999 5.63672H87.3629C84.5447 5.63672 81.7266 7.89126 81.7266 11.2731V60.8731C81.7266 73.2731 91.872 82.8549 103.708 82.8549H267.163C279.563 82.8549 289.145 72.7095 289.145 60.8731V11.2731H289.708Z" fill="white"/>
<path d="M164.582 257.582V305.491H206.855V257.582C206.855 245.745 197.273 236.164 185.437 236.164C173.6 236.164 164.582 245.745 164.582 257.582Z" fill="white"/>
<path d="M286.891 305.491L258.709 94.6914H113.291L85.1094 305.491H153.309V257.582C153.309 239.546 167.964 224.891 186 224.891C204.037 224.891 218.691 239.546 218.691 257.582V305.491H286.891ZM208.546 182.619C208.546 185.437 206.291 188.255 202.909 188.255H169.091C166.273 188.255 163.455 185.437 163.455 182.619V152.182C163.455 139.782 173.6 129.637 186 129.637C198.4 129.637 208.546 139.782 208.546 152.182V182.619Z" fill="white"/>
</svg>
